solid OpenSCAD_Model
  facet normal -1 0 0
    outer loop
      vertex 40 18 7
      vertex 40 17.9962 7
      vertex 40 18 25.3431
    endloop
  endfacet
  facet normal -1 0 0
    outer loop
      vertex 40 18 25.3431
      vertex 40 22.4853 35.4853
      vertex 40 25.3137 32.6569
    endloop
  endfacet
  facet normal -1 0 0
    outer loop
      vertex 40 14 7
      vertex 40 18 25.3431
      vertex 40 17.9962 7
    endloop
  endfacet
  facet normal -1 0 0
    outer loop
      vertex 40 18 25.3431
      vertex 40 14 27
      vertex 40 22.4853 35.4853
    endloop
  endfacet
  facet normal -1 0 0
    outer loop
      vertex 40 14 27
      vertex 40 18 25.3431
      vertex 40 14 7
    endloop
  endfacet
  facet normal -1 0 0
    outer loop
      vertex 40 30.1205 0
      vertex 40 14 7
      vertex 40 17.9962 7
    endloop
  endfacet
  facet normal -1 0 0
    outer loop
      vertex 40 0 0
      vertex 40 14 7
      vertex 40 30.1205 0
    endloop
  endfacet
  facet normal -1 -0 0
    outer loop
      vertex 40 14 7
      vertex 40 0 0
      vertex 40 0 7
    endloop
  endfacet
  facet normal 0 0 1
    outer loop
      vertex 56 14 7
      vertex 51.5 7 7
      vertex 56 0 7
    endloop
  endfacet
  facet normal 0 0 1
    outer loop
      vertex 56 14 7
      vertex 51.4808 7.36585 7
      vertex 51.5 7 7
    endloop
  endfacet
  facet normal 0 0 1
    outer loop
      vertex 56 14 7
      vertex 51.4235 7.72769 7
      vertex 51.4808 7.36585 7
    endloop
  endfacet
  facet normal 0 0 1
    outer loop
      vertex 56 14 7
      vertex 51.3287 8.08156 7
      vertex 51.4235 7.72769 7
    endloop
  endfacet
  facet normal 0 0 1
    outer loop
      vertex 56 14 7
      vertex 51.1974 8.42358 7
      vertex 51.3287 8.08156 7
    endloop
  endfacet
  facet normal 0 0 1
    outer loop
      vertex 56 14 7
      vertex 51.0311 8.75 7
      vertex 51.1974 8.42358 7
    endloop
  endfacet
  facet normal 0 0 1
    outer loop
      vertex 56 14 7
      vertex 50.8316 9.05725 7
      vertex 51.0311 8.75 7
    endloop
  endfacet
  facet normal 0 0 1
    outer loop
      vertex 56 14 7
      vertex 50.601 9.34196 7
      vertex 50.8316 9.05725 7
    endloop
  endfacet
  facet normal 0 0 1
    outer loop
      vertex 56 14 7
      vertex 50.342 9.60101 7
      vertex 50.601 9.34196 7
    endloop
  endfacet
  facet normal 0 0 1
    outer loop
      vertex 56 14 7
      vertex 50.0572 9.83156 7
      vertex 50.342 9.60101 7
    endloop
  endfacet
  facet normal 0 0 1
    outer loop
      vertex 56 14 7
      vertex 49.75 10.0311 7
      vertex 50.0572 9.83156 7
    endloop
  endfacet
  facet normal 0 0 1
    outer loop
      vertex 56 14 7
      vertex 49.4236 10.1974 7
      vertex 49.75 10.0311 7
    endloop
  endfacet
  facet normal 0 0 1
    outer loop
      vertex 56 14 7
      vertex 49.0816 10.3287 7
      vertex 49.4236 10.1974 7
    endloop
  endfacet
  facet normal 0 0 1
    outer loop
      vertex 56 14 7
      vertex 48.7277 10.4235 7
      vertex 49.0816 10.3287 7
    endloop
  endfacet
  facet normal 0 0 1
    outer loop
      vertex 56 14 7
      vertex 48.3658 10.4808 7
      vertex 48.7277 10.4235 7
    endloop
  endfacet
  facet normal 0 0 1
    outer loop
      vertex 56 14 7
      vertex 48 10.5 7
      vertex 48.3658 10.4808 7
    endloop
  endfacet
  facet normal -0 0 1
    outer loop
      vertex 40 14 7
      vertex 48 10.5 7
      vertex 56 14 7
    endloop
  endfacet
  facet normal 0 0 1
    outer loop
      vertex 48 10.5 7
      vertex 40 14 7
      vertex 47.6341 10.4808 7
    endloop
  endfacet
  facet normal 0 0 1
    outer loop
      vertex 47.6341 10.4808 7
      vertex 40 14 7
      vertex 47.2723 10.4235 7
    endloop
  endfacet
  facet normal 0 0 1
    outer loop
      vertex 47.2723 10.4235 7
      vertex 40 14 7
      vertex 46.9184 10.3287 7
    endloop
  endfacet
  facet normal 0 0 1
    outer loop
      vertex 44.5192 7.36585 7
      vertex 40 14 7
      vertex 44.5 7 7
    endloop
  endfacet
  facet normal 0 0 1
    outer loop
      vertex 44.5765 7.72769 7
      vertex 40 14 7
      vertex 44.5192 7.36585 7
    endloop
  endfacet
  facet normal 0 0 1
    outer loop
      vertex 44.6713 8.08156 7
      vertex 40 14 7
      vertex 44.5765 7.72769 7
    endloop
  endfacet
  facet normal 0 0 1
    outer loop
      vertex 44.8026 8.42358 7
      vertex 40 14 7
      vertex 44.6713 8.08156 7
    endloop
  endfacet
  facet normal 0 0 1
    outer loop
      vertex 44.9689 8.75 7
      vertex 40 14 7
      vertex 44.8026 8.42358 7
    endloop
  endfacet
  facet normal 0 0 1
    outer loop
      vertex 45.1684 9.05725 7
      vertex 40 14 7
      vertex 44.9689 8.75 7
    endloop
  endfacet
  facet normal 0 0 1
    outer loop
      vertex 45.399 9.34196 7
      vertex 40 14 7
      vertex 45.1684 9.05725 7
    endloop
  endfacet
  facet normal 0 0 1
    outer loop
      vertex 45.658 9.60101 7
      vertex 40 14 7
      vertex 45.399 9.34196 7
    endloop
  endfacet
  facet normal 0 0 1
    outer loop
      vertex 45.9427 9.83156 7
      vertex 40 14 7
      vertex 45.658 9.60101 7
    endloop
  endfacet
  facet normal 0 0 1
    outer loop
      vertex 46.25 10.0311 7
      vertex 40 14 7
      vertex 45.9427 9.83156 7
    endloop
  endfacet
  facet normal 0 0 1
    outer loop
      vertex 46.5764 10.1974 7
      vertex 40 14 7
      vertex 46.25 10.0311 7
    endloop
  endfacet
  facet normal 0 0 1
    outer loop
      vertex 46.9184 10.3287 7
      vertex 40 14 7
      vertex 46.5764 10.1974 7
    endloop
  endfacet
  facet normal -0 0 1
    outer loop
      vertex 51.4808 6.63415 7
      vertex 56 0 7
      vertex 51.5 7 7
    endloop
  endfacet
  facet normal -0 0 1
    outer loop
      vertex 51.4235 6.27231 7
      vertex 56 0 7
      vertex 51.4808 6.63415 7
    endloop
  endfacet
  facet normal -0 0 1
    outer loop
      vertex 51.3287 5.91844 7
      vertex 56 0 7
      vertex 51.4235 6.27231 7
    endloop
  endfacet
  facet normal -0 0 1
    outer loop
      vertex 51.1974 5.57642 7
      vertex 56 0 7
      vertex 51.3287 5.91844 7
    endloop
  endfacet
  facet normal -0 0 1
    outer loop
      vertex 51.0311 5.25 7
      vertex 56 0 7
      vertex 51.1974 5.57642 7
    endloop
  endfacet
  facet normal -0 0 1
    outer loop
      vertex 50.8316 4.94275 7
      vertex 56 0 7
      vertex 51.0311 5.25 7
    endloop
  endfacet
  facet normal -0 0 1
    outer loop
      vertex 50.601 4.65804 7
      vertex 56 0 7
      vertex 50.8316 4.94275 7
    endloop
  endfacet
  facet normal -0 0 1
    outer loop
      vertex 50.342 4.39899 7
      vertex 56 0 7
      vertex 50.601 4.65804 7
    endloop
  endfacet
  facet normal -0 0 1
    outer loop
      vertex 50.0572 4.16844 7
      vertex 56 0 7
      vertex 50.342 4.39899 7
    endloop
  endfacet
  facet normal -0 0 1
    outer loop
      vertex 49.75 3.96891 7
      vertex 56 0 7
      vertex 50.0572 4.16844 7
    endloop
  endfacet
  facet normal -0 0 1
    outer loop
      vertex 49.4236 3.80259 7
      vertex 56 0 7
      vertex 49.75 3.96891 7
    endloop
  endfacet
  facet normal -0 0 1
    outer loop
      vertex 49.0816 3.6713 7
      vertex 56 0 7
      vertex 49.4236 3.80259 7
    endloop
  endfacet
  facet normal -0 0 1
    outer loop
      vertex 48.7277 3.57648 7
      vertex 56 0 7
      vertex 49.0816 3.6713 7
    endloop
  endfacet
  facet normal -0 0 1
    outer loop
      vertex 48.3658 3.51917 7
      vertex 56 0 7
      vertex 48.7277 3.57648 7
    endloop
  endfacet
  facet normal -0 0 1
    outer loop
      vertex 48 3.5 7
      vertex 56 0 7
      vertex 48.3658 3.51917 7
    endloop
  endfacet
  facet normal 0 0 1
    outer loop
      vertex 40 0 7
      vertex 48 3.5 7
      vertex 47.6341 3.51917 7
    endloop
  endfacet
  facet normal 0 0 1
    outer loop
      vertex 40 0 7
      vertex 47.6341 3.51917 7
      vertex 47.2723 3.57648 7
    endloop
  endfacet
  facet normal 0 0 1
    outer loop
      vertex 40 0 7
      vertex 47.2723 3.57648 7
      vertex 46.9184 3.6713 7
    endloop
  endfacet
  facet normal 0 0 1
    outer loop
      vertex 40 0 7
      vertex 46.9184 3.6713 7
      vertex 46.5764 3.80259 7
    endloop
  endfacet
  facet normal 0 0 1
    outer loop
      vertex 40 0 7
      vertex 44.5 7 7
      vertex 40 14 7
    endloop
  endfacet
  facet normal 0 0 1
    outer loop
      vertex 44.5 7 7
      vertex 40 0 7
      vertex 44.5192 6.63415 7
    endloop
  endfacet
  facet normal 0 0 1
    outer loop
      vertex 44.5192 6.63415 7
      vertex 40 0 7
      vertex 44.5765 6.27231 7
    endloop
  endfacet
  facet normal 0 0 1
    outer loop
      vertex 44.5765 6.27231 7
      vertex 40 0 7
      vertex 44.6713 5.91844 7
    endloop
  endfacet
  facet normal 0 0 1
    outer loop
      vertex 44.6713 5.91844 7
      vertex 40 0 7
      vertex 44.8026 5.57642 7
    endloop
  endfacet
  facet normal 0 0 1
    outer loop
      vertex 48 3.5 7
      vertex 40 0 7
      vertex 56 0 7
    endloop
  endfacet
  facet normal 0 0 1
    outer loop
      vertex 46.25 3.96891 7
      vertex 40 0 7
      vertex 46.5764 3.80259 7
    endloop
  endfacet
  facet normal 0 0 1
    outer loop
      vertex 45.9427 4.16844 7
      vertex 40 0 7
      vertex 46.25 3.96891 7
    endloop
  endfacet
  facet normal 0 0 1
    outer loop
      vertex 45.658 4.39899 7
      vertex 40 0 7
      vertex 45.9427 4.16844 7
    endloop
  endfacet
  facet normal 0 0 1
    outer loop
      vertex 45.399 4.65804 7
      vertex 40 0 7
      vertex 45.658 4.39899 7
    endloop
  endfacet
  facet normal 0 0 1
    outer loop
      vertex 45.1684 4.94275 7
      vertex 40 0 7
      vertex 45.399 4.65804 7
    endloop
  endfacet
  facet normal 0 0 1
    outer loop
      vertex 44.9689 5.25 7
      vertex 40 0 7
      vertex 45.1684 4.94275 7
    endloop
  endfacet
  facet normal 0 0 1
    outer loop
      vertex 44.8026 5.57642 7
      vertex 40 0 7
      vertex 44.9689 5.25 7
    endloop
  endfacet
  facet normal 0 0 -1
    outer loop
      vertex 40 17.9962 7
      vertex 56 18 7
      vertex 56 17.9962 7
    endloop
  endfacet
  facet normal -0 0 -1
    outer loop
      vertex 56 18 7
      vertex 40 17.9962 7
      vertex 40 18 7
    endloop
  endfacet
  facet normal 1 0 0
    outer loop
      vertex 56 22.4853 35.4853
      vertex 56 18 25.3431
      vertex 56 25.3137 32.6569
    endloop
  endfacet
  facet normal 1 0 0
    outer loop
      vertex 56 18 25.3431
      vertex 56 17.9962 7
      vertex 56 18 7
    endloop
  endfacet
  facet normal 1 0 0
    outer loop
      vertex 56 14 7
      vertex 56 18 25.3431
      vertex 56 14 27
    endloop
  endfacet
  facet normal 1 -0 0
    outer loop
      vertex 56 14 27
      vertex 56 18 25.3431
      vertex 56 22.4853 35.4853
    endloop
  endfacet
  facet normal 1 0 0
    outer loop
      vertex 56 18 25.3431
      vertex 56 14 7
      vertex 56 17.9962 7
    endloop
  endfacet
  facet normal 1 -0 0
    outer loop
      vertex 56 14 7
      vertex 56 30.1205 0
      vertex 56 17.9962 7
    endloop
  endfacet
  facet normal 1 0 0
    outer loop
      vertex 56 0 0
      vertex 56 14 7
      vertex 56 0 7
    endloop
  endfacet
  facet normal 1 0 0
    outer loop
      vertex 56 14 7
      vertex 56 0 0
      vertex 56 30.1205 0
    endloop
  endfacet
  facet normal 0 0 -1
    outer loop
      vertex 50.0885 7.21951 0
      vertex 56 0 0
      vertex 50.1 7 0
    endloop
  endfacet
  facet normal 0 0 -1
    outer loop
      vertex 56 0 0
      vertex 50.0885 6.78049 0
      vertex 50.1 7 0
    endloop
  endfacet
  facet normal 0 0 -1
    outer loop
      vertex 56 0 0
      vertex 50.0541 6.56339 0
      vertex 50.0885 6.78049 0
    endloop
  endfacet
  facet normal 0 0 -1
    outer loop
      vertex 56 0 0
      vertex 49.9972 6.35106 0
      vertex 50.0541 6.56339 0
    endloop
  endfacet
  facet normal 0 0 -1
    outer loop
      vertex 56 0 0
      vertex 49.9184 6.14585 0
      vertex 49.9972 6.35106 0
    endloop
  endfacet
  facet normal 0 0 -1
    outer loop
      vertex 56 0 0
      vertex 49.8187 5.95 0
      vertex 49.9184 6.14585 0
    endloop
  endfacet
  facet normal 0 0 -1
    outer loop
      vertex 56 0 0
      vertex 49.6989 5.76565 0
      vertex 49.8187 5.95 0
    endloop
  endfacet
  facet normal 0 0 -1
    outer loop
      vertex 56 0 0
      vertex 49.5606 5.59482 0
      vertex 49.6989 5.76565 0
    endloop
  endfacet
  facet normal 0 0 -1
    outer loop
      vertex 56 0 0
      vertex 49.4052 5.43939 0
      vertex 49.5606 5.59482 0
    endloop
  endfacet
  facet normal 0 0 -1
    outer loop
      vertex 56 0 0
      vertex 49.2343 5.30106 0
      vertex 49.4052 5.43939 0
    endloop
  endfacet
  facet normal 0 0 -1
    outer loop
      vertex 56 0 0
      vertex 49.05 5.18135 0
      vertex 49.2343 5.30106 0
    endloop
  endfacet
  facet normal 0 0 -1
    outer loop
      vertex 56 0 0
      vertex 48.8541 5.08155 0
      vertex 49.05 5.18135 0
    endloop
  endfacet
  facet normal 0 0 -1
    outer loop
      vertex 56 0 0
      vertex 48.6489 5.00278 0
      vertex 48.8541 5.08155 0
    endloop
  endfacet
  facet normal 0 0 -1
    outer loop
      vertex 56 0 0
      vertex 48.4366 4.94589 0
      vertex 48.6489 5.00278 0
    endloop
  endfacet
  facet normal 0 0 -1
    outer loop
      vertex 56 0 0
      vertex 48.2195 4.9115 0
      vertex 48.4366 4.94589 0
    endloop
  endfacet
  facet normal 0 0 -1
    outer loop
      vertex 56 0 0
      vertex 48 4.9 0
      vertex 48.2195 4.9115 0
    endloop
  endfacet
  facet normal 0 0 -1
    outer loop
      vertex 40 0 0
      vertex 48 4.9 0
      vertex 56 0 0
    endloop
  endfacet
  facet normal -0 0 -1
    outer loop
      vertex 48 4.9 0
      vertex 40 0 0
      vertex 47.7805 4.9115 0
    endloop
  endfacet
  facet normal -0 0 -1
    outer loop
      vertex 47.7805 4.9115 0
      vertex 40 0 0
      vertex 47.5634 4.94589 0
    endloop
  endfacet
  facet normal -0 0 -1
    outer loop
      vertex 47.5634 4.94589 0
      vertex 40 0 0
      vertex 47.3511 5.00278 0
    endloop
  endfacet
  facet normal -0 0 -1
    outer loop
      vertex 47.3511 5.00278 0
      vertex 40 0 0
      vertex 47.1459 5.08155 0
    endloop
  endfacet
  facet normal -0 0 -1
    outer loop
      vertex 45.9115 6.78049 0
      vertex 40 0 0
      vertex 45.9 7 0
    endloop
  endfacet
  facet normal -0 0 -1
    outer loop
      vertex 45.9459 6.56339 0
      vertex 40 0 0
      vertex 45.9115 6.78049 0
    endloop
  endfacet
  facet normal -0 0 -1
    outer loop
      vertex 46.0028 6.35106 0
      vertex 40 0 0
      vertex 45.9459 6.56339 0
    endloop
  endfacet
  facet normal -0 0 -1
    outer loop
      vertex 46.0816 6.14585 0
      vertex 40 0 0
      vertex 46.0028 6.35106 0
    endloop
  endfacet
  facet normal -0 0 -1
    outer loop
      vertex 46.1813 5.95 0
      vertex 40 0 0
      vertex 46.0816 6.14585 0
    endloop
  endfacet
  facet normal -0 0 -1
    outer loop
      vertex 46.3011 5.76565 0
      vertex 40 0 0
      vertex 46.1813 5.95 0
    endloop
  endfacet
  facet normal -0 0 -1
    outer loop
      vertex 46.4394 5.59482 0
      vertex 40 0 0
      vertex 46.3011 5.76565 0
    endloop
  endfacet
  facet normal -0 0 -1
    outer loop
      vertex 46.5948 5.43939 0
      vertex 40 0 0
      vertex 46.4394 5.59482 0
    endloop
  endfacet
  facet normal -0 0 -1
    outer loop
      vertex 46.7657 5.30106 0
      vertex 40 0 0
      vertex 46.5948 5.43939 0
    endloop
  endfacet
  facet normal -0 0 -1
    outer loop
      vertex 46.95 5.18135 0
      vertex 40 0 0
      vertex 46.7657 5.30106 0
    endloop
  endfacet
  facet normal -0 0 -1
    outer loop
      vertex 47.1459 5.08155 0
      vertex 40 0 0
      vertex 46.95 5.18135 0
    endloop
  endfacet
  facet normal 0 0 -1
    outer loop
      vertex 50.0541 7.43661 0
      vertex 56 0 0
      vertex 50.0885 7.21951 0
    endloop
  endfacet
  facet normal 0 0 -1
    outer loop
      vertex 49.9972 7.64894 0
      vertex 56 0 0
      vertex 50.0541 7.43661 0
    endloop
  endfacet
  facet normal 0 0 -1
    outer loop
      vertex 49.9184 7.85415 0
      vertex 56 0 0
      vertex 49.9972 7.64894 0
    endloop
  endfacet
  facet normal 0 0 -1
    outer loop
      vertex 56 0 0
      vertex 49.9184 7.85415 0
      vertex 56 30.1205 0
    endloop
  endfacet
  facet normal 0 0 -1
    outer loop
      vertex 49.8187 8.05 0
      vertex 56 30.1205 0
      vertex 49.9184 7.85415 0
    endloop
  endfacet
  facet normal 0 0 -1
    outer loop
      vertex 49.6989 8.23435 0
      vertex 56 30.1205 0
      vertex 49.8187 8.05 0
    endloop
  endfacet
  facet normal 0 0 -1
    outer loop
      vertex 49.5606 8.40517 0
      vertex 56 30.1205 0
      vertex 49.6989 8.23435 0
    endloop
  endfacet
  facet normal 0 0 -1
    outer loop
      vertex 49.4052 8.5606 0
      vertex 56 30.1205 0
      vertex 49.5606 8.40517 0
    endloop
  endfacet
  facet normal 0 0 -1
    outer loop
      vertex 49.2343 8.69894 0
      vertex 56 30.1205 0
      vertex 49.4052 8.5606 0
    endloop
  endfacet
  facet normal 0 0 -1
    outer loop
      vertex 49.05 8.81865 0
      vertex 56 30.1205 0
      vertex 49.2343 8.69894 0
    endloop
  endfacet
  facet normal 0 0 -1
    outer loop
      vertex 48.8541 8.91844 0
      vertex 56 30.1205 0
      vertex 49.05 8.81865 0
    endloop
  endfacet
  facet normal 0 0 -1
    outer loop
      vertex 48.6489 8.99722 0
      vertex 56 30.1205 0
      vertex 48.8541 8.91844 0
    endloop
  endfacet
  facet normal 0 0 -1
    outer loop
      vertex 48.4366 9.05411 0
      vertex 56 30.1205 0
      vertex 48.6489 8.99722 0
    endloop
  endfacet
  facet normal 0 0 -1
    outer loop
      vertex 48.2195 9.0885 0
      vertex 56 30.1205 0
      vertex 48.4366 9.05411 0
    endloop
  endfacet
  facet normal 0 0 -1
    outer loop
      vertex 48 9.1 0
      vertex 56 30.1205 0
      vertex 48.2195 9.0885 0
    endloop
  endfacet
  facet normal 0 0 -1
    outer loop
      vertex 40 30.1205 0
      vertex 48 9.1 0
      vertex 47.7805 9.0885 0
    endloop
  endfacet
  facet normal 0 0 -1
    outer loop
      vertex 40 30.1205 0
      vertex 47.7805 9.0885 0
      vertex 47.5634 9.05411 0
    endloop
  endfacet
  facet normal 0 0 -1
    outer loop
      vertex 40 30.1205 0
      vertex 47.5634 9.05411 0
      vertex 47.3511 8.99722 0
    endloop
  endfacet
  facet normal 0 0 -1
    outer loop
      vertex 40 30.1205 0
      vertex 47.3511 8.99722 0
      vertex 47.1459 8.91844 0
    endloop
  endfacet
  facet normal 0 0 -1
    outer loop
      vertex 40 30.1205 0
      vertex 47.1459 8.91844 0
      vertex 46.95 8.81865 0
    endloop
  endfacet
  facet normal 0 0 -1
    outer loop
      vertex 40 30.1205 0
      vertex 46.95 8.81865 0
      vertex 46.7657 8.69894 0
    endloop
  endfacet
  facet normal 0 0 -1
    outer loop
      vertex 40 30.1205 0
      vertex 46.7657 8.69894 0
      vertex 46.5948 8.5606 0
    endloop
  endfacet
  facet normal 0 0 -1
    outer loop
      vertex 40 30.1205 0
      vertex 46.5948 8.5606 0
      vertex 46.4394 8.40517 0
    endloop
  endfacet
  facet normal 0 0 -1
    outer loop
      vertex 40 30.1205 0
      vertex 46.4394 8.40517 0
      vertex 46.3011 8.23435 0
    endloop
  endfacet
  facet normal 0 0 -1
    outer loop
      vertex 40 30.1205 0
      vertex 46.3011 8.23435 0
      vertex 46.1813 8.05 0
    endloop
  endfacet
  facet normal 0 0 -1
    outer loop
      vertex 40 30.1205 0
      vertex 46.1813 8.05 0
      vertex 46.0816 7.85415 0
    endloop
  endfacet
  facet normal 0 0 -1
    outer loop
      vertex 40 0 0
      vertex 45.9115 7.21951 0
      vertex 45.9 7 0
    endloop
  endfacet
  facet normal 0 0 -1
    outer loop
      vertex 40 0 0
      vertex 45.9459 7.43661 0
      vertex 45.9115 7.21951 0
    endloop
  endfacet
  facet normal 0 0 -1
    outer loop
      vertex 40 0 0
      vertex 46.0028 7.64894 0
      vertex 45.9459 7.43661 0
    endloop
  endfacet
  facet normal 0 0 -1
    outer loop
      vertex 40 0 0
      vertex 46.0816 7.85415 0
      vertex 46.0028 7.64894 0
    endloop
  endfacet
  facet normal 0 0 -1
    outer loop
      vertex 40 30.1205 0
      vertex 46.0816 7.85415 0
      vertex 40 0 0
    endloop
  endfacet
  facet normal 0 0 -1
    outer loop
      vertex 48 9.1 0
      vertex 40 30.1205 0
      vertex 56 30.1205 0
    endloop
  endfacet
  facet normal 0 -1 0
    outer loop
      vertex 40 0 0
      vertex 56 0 7
      vertex 40 0 7
    endloop
  endfacet
  facet normal 0 -1 -0
    outer loop
      vertex 56 0 7
      vertex 40 0 0
      vertex 56 0 0
    endloop
  endfacet
  facet normal -0 0.500002 0.866024
    outer loop
      vertex 40 30.1205 0
      vertex 56 17.9962 7
      vertex 56 30.1205 0
    endloop
  endfacet
  facet normal 0 0.500002 0.866024
    outer loop
      vertex 56 17.9962 7
      vertex 40 30.1205 0
      vertex 40 17.9962 7
    endloop
  endfacet
  facet normal -0.99863 -0.0523177 0
    outer loop
      vertex 50.1 7 0
      vertex 50.0885 7.21951 4
      vertex 50.0885 7.21951 0
    endloop
  endfacet
  facet normal -0.99863 -0.0523177 0
    outer loop
      vertex 50.0885 7.21951 4
      vertex 50.1 7 0
      vertex 50.1 7 4
    endloop
  endfacet
  facet normal 0.05232 -0.99863 0
    outer loop
      vertex 47.7805 9.0885 0
      vertex 48 9.1 4
      vertex 47.7805 9.0885 4
    endloop
  endfacet
  facet normal 0.05232 -0.99863 0
    outer loop
      vertex 48 9.1 4
      vertex 47.7805 9.0885 0
      vertex 48 9.1 0
    endloop
  endfacet
  facet normal -0.707175 -0.707039 0
    outer loop
      vertex 49.5606 8.40517 0
      vertex 49.4052 8.5606 4
      vertex 49.4052 8.5606 0
    endloop
  endfacet
  facet normal -0.707175 -0.707039 0
    outer loop
      vertex 49.4052 8.5606 4
      vertex 49.5606 8.40517 0
      vertex 49.5606 8.40517 4
    endloop
  endfacet
  facet normal 0.707175 -0.707039 0
    outer loop
      vertex 46.4394 8.40517 4
      vertex 46.5948 8.5606 0
      vertex 46.5948 8.5606 4
    endloop
  endfacet
  facet normal 0.707175 -0.707039 0
    outer loop
      vertex 46.5948 8.5606 0
      vertex 46.4394 8.40517 4
      vertex 46.4394 8.40517 0
    endloop
  endfacet
  facet normal 0.453896 -0.891054 0
    outer loop
      vertex 46.95 8.81865 0
      vertex 47.1459 8.91844 4
      vertex 46.95 8.81865 4
    endloop
  endfacet
  facet normal 0.453896 -0.891054 0
    outer loop
      vertex 47.1459 8.91844 4
      vertex 46.95 8.81865 0
      vertex 47.1459 8.91844 0
    endloop
  endfacet
  facet normal -0.891173 -0.453663 0
    outer loop
      vertex 49.9184 7.85415 0
      vertex 49.8187 8.05 4
      vertex 49.8187 8.05 0
    endloop
  endfacet
  facet normal -0.891173 -0.453663 0
    outer loop
      vertex 49.8187 8.05 4
      vertex 49.9184 7.85415 0
      vertex 49.9184 7.85415 4
    endloop
  endfacet
  facet normal -0.358412 -0.933564 0
    outer loop
      vertex 48.6489 8.99722 0
      vertex 48.8541 8.91844 4
      vertex 48.6489 8.99722 4
    endloop
  endfacet
  facet normal -0.358412 -0.933564 -0
    outer loop
      vertex 48.8541 8.91844 4
      vertex 48.6489 8.99722 0
      vertex 48.8541 8.91844 0
    endloop
  endfacet
  facet normal -0.544716 -0.83862 0
    outer loop
      vertex 49.05 8.81865 0
      vertex 49.2343 8.69894 4
      vertex 49.05 8.81865 4
    endloop
  endfacet
  facet normal -0.544716 -0.83862 -0
    outer loop
      vertex 49.2343 8.69894 4
      vertex 49.05 8.81865 0
      vertex 49.2343 8.69894 0
    endloop
  endfacet
  facet normal 0.933539 -0.358476 0
    outer loop
      vertex 46.0028 7.64894 4
      vertex 46.0816 7.85415 0
      vertex 46.0816 7.85415 4
    endloop
  endfacet
  facet normal 0.933539 -0.358476 0
    outer loop
      vertex 46.0816 7.85415 0
      vertex 46.0028 7.64894 4
      vertex 46.0028 7.64894 0
    endloop
  endfacet
  facet normal 0.258838 -0.965921 0
    outer loop
      vertex 47.3511 8.99722 0
      vertex 47.5634 9.05411 4
      vertex 47.3511 8.99722 4
    endloop
  endfacet
  facet normal 0.258838 -0.965921 0
    outer loop
      vertex 47.5634 9.05411 4
      vertex 47.3511 8.99722 0
      vertex 47.5634 9.05411 0
    endloop
  endfacet
  facet normal -0.965919 0.258846 0
    outer loop
      vertex 49.9972 6.35106 0
      vertex 50.0541 6.56339 4
      vertex 50.0541 6.56339 0
    endloop
  endfacet
  facet normal -0.965919 0.258846 0
    outer loop
      vertex 50.0541 6.56339 4
      vertex 49.9972 6.35106 0
      vertex 49.9972 6.35106 4
    endloop
  endfacet
  facet normal 0.05232 0.99863 -0
    outer loop
      vertex 48 4.9 0
      vertex 47.7805 4.9115 4
      vertex 48 4.9 4
    endloop
  endfacet
  facet normal 0.05232 0.99863 0
    outer loop
      vertex 47.7805 4.9115 4
      vertex 48 4.9 0
      vertex 47.7805 4.9115 0
    endloop
  endfacet
  facet normal -0.156455 0.987685 0
    outer loop
      vertex 48.4366 4.94589 0
      vertex 48.2195 4.9115 4
      vertex 48.4366 4.94589 4
    endloop
  endfacet
  facet normal -0.156455 0.987685 0
    outer loop
      vertex 48.2195 4.9115 4
      vertex 48.4366 4.94589 0
      vertex 48.2195 4.9115 0
    endloop
  endfacet
  facet normal -0.965919 -0.258846 0
    outer loop
      vertex 50.0541 7.43661 0
      vertex 49.9972 7.64894 4
      vertex 49.9972 7.64894 0
    endloop
  endfacet
  facet normal -0.965919 -0.258846 0
    outer loop
      vertex 49.9972 7.64894 4
      vertex 50.0541 7.43661 0
      vertex 50.0541 7.43661 4
    endloop
  endfacet
  facet normal -0.987678 -0.1565 0
    outer loop
      vertex 50.0885 7.21951 0
      vertex 50.0541 7.43661 4
      vertex 50.0541 7.43661 0
    endloop
  endfacet
  facet normal -0.987678 -0.1565 0
    outer loop
      vertex 50.0541 7.43661 4
      vertex 50.0885 7.21951 0
      vertex 50.0885 7.21951 4
    endloop
  endfacet
  facet normal -0.933539 -0.358476 0
    outer loop
      vertex 49.9972 7.64894 0
      vertex 49.9184 7.85415 4
      vertex 49.9184 7.85415 0
    endloop
  endfacet
  facet normal -0.933539 -0.358476 0
    outer loop
      vertex 49.9184 7.85415 4
      vertex 49.9972 7.64894 0
      vertex 49.9972 7.64894 4
    endloop
  endfacet
  facet normal -0.777207 -0.629245 0
    outer loop
      vertex 49.6989 8.23435 0
      vertex 49.5606 8.40517 4
      vertex 49.5606 8.40517 0
    endloop
  endfacet
  facet normal -0.777207 -0.629245 0
    outer loop
      vertex 49.5606 8.40517 4
      vertex 49.6989 8.23435 0
      vertex 49.6989 8.23435 4
    endloop
  endfacet
  facet normal -0.838501 -0.5449 0
    outer loop
      vertex 49.8187 8.05 0
      vertex 49.6989 8.23435 4
      vertex 49.6989 8.23435 0
    endloop
  endfacet
  facet normal -0.838501 -0.5449 0
    outer loop
      vertex 49.6989 8.23435 4
      vertex 49.8187 8.05 0
      vertex 49.8187 8.05 4
    endloop
  endfacet
  facet normal -0.156455 -0.987685 0
    outer loop
      vertex 48.2195 9.0885 0
      vertex 48.4366 9.05411 4
      vertex 48.2195 9.0885 4
    endloop
  endfacet
  facet normal -0.156455 -0.987685 -0
    outer loop
      vertex 48.4366 9.05411 4
      vertex 48.2195 9.0885 0
      vertex 48.4366 9.05411 0
    endloop
  endfacet
  facet normal -0.258838 -0.965921 0
    outer loop
      vertex 48.4366 9.05411 0
      vertex 48.6489 8.99722 4
      vertex 48.4366 9.05411 4
    endloop
  endfacet
  facet normal -0.258838 -0.965921 -0
    outer loop
      vertex 48.6489 8.99722 4
      vertex 48.4366 9.05411 0
      vertex 48.6489 8.99722 0
    endloop
  endfacet
  facet normal -0.05232 -0.99863 0
    outer loop
      vertex 48 9.1 0
      vertex 48.2195 9.0885 4
      vertex 48 9.1 4
    endloop
  endfacet
  facet normal -0.05232 -0.99863 -0
    outer loop
      vertex 48.2195 9.0885 4
      vertex 48 9.1 0
      vertex 48.2195 9.0885 0
    endloop
  endfacet
  facet normal -0.453896 -0.891054 0
    outer loop
      vertex 48.8541 8.91844 0
      vertex 49.05 8.81865 4
      vertex 48.8541 8.91844 4
    endloop
  endfacet
  facet normal -0.453896 -0.891054 -0
    outer loop
      vertex 49.05 8.81865 4
      vertex 48.8541 8.91844 0
      vertex 49.05 8.81865 0
    endloop
  endfacet
  facet normal -0.629177 -0.777262 0
    outer loop
      vertex 49.2343 8.69894 0
      vertex 49.4052 8.5606 4
      vertex 49.2343 8.69894 4
    endloop
  endfacet
  facet normal -0.629177 -0.777262 -0
    outer loop
      vertex 49.4052 8.5606 4
      vertex 49.2343 8.69894 0
      vertex 49.4052 8.5606 0
    endloop
  endfacet
  facet normal 0.987678 -0.1565 0
    outer loop
      vertex 45.9115 7.21951 4
      vertex 45.9459 7.43661 0
      vertex 45.9459 7.43661 4
    endloop
  endfacet
  facet normal 0.987678 -0.1565 0
    outer loop
      vertex 45.9459 7.43661 0
      vertex 45.9115 7.21951 4
      vertex 45.9115 7.21951 0
    endloop
  endfacet
  facet normal 0.838501 -0.5449 0
    outer loop
      vertex 46.1813 8.05 4
      vertex 46.3011 8.23435 0
      vertex 46.3011 8.23435 4
    endloop
  endfacet
  facet normal 0.838501 -0.5449 0
    outer loop
      vertex 46.3011 8.23435 0
      vertex 46.1813 8.05 4
      vertex 46.1813 8.05 0
    endloop
  endfacet
  facet normal 0.777207 -0.629245 0
    outer loop
      vertex 46.3011 8.23435 4
      vertex 46.4394 8.40517 0
      vertex 46.4394 8.40517 4
    endloop
  endfacet
  facet normal 0.777207 -0.629245 0
    outer loop
      vertex 46.4394 8.40517 0
      vertex 46.3011 8.23435 4
      vertex 46.3011 8.23435 0
    endloop
  endfacet
  facet normal 0.891173 -0.453663 0
    outer loop
      vertex 46.0816 7.85415 4
      vertex 46.1813 8.05 0
      vertex 46.1813 8.05 4
    endloop
  endfacet
  facet normal 0.891173 -0.453663 0
    outer loop
      vertex 46.1813 8.05 0
      vertex 46.0816 7.85415 4
      vertex 46.0816 7.85415 0
    endloop
  endfacet
  facet normal 0.965919 -0.258846 0
    outer loop
      vertex 45.9459 7.43661 4
      vertex 46.0028 7.64894 0
      vertex 46.0028 7.64894 4
    endloop
  endfacet
  facet normal 0.965919 -0.258846 0
    outer loop
      vertex 46.0028 7.64894 0
      vertex 45.9459 7.43661 4
      vertex 45.9459 7.43661 0
    endloop
  endfacet
  facet normal 0.99863 -0.0523177 0
    outer loop
      vertex 45.9 7 4
      vertex 45.9115 7.21951 0
      vertex 45.9115 7.21951 4
    endloop
  endfacet
  facet normal 0.99863 -0.0523177 0
    outer loop
      vertex 45.9115 7.21951 0
      vertex 45.9 7 4
      vertex 45.9 7 0
    endloop
  endfacet
  facet normal 0.544716 -0.83862 0
    outer loop
      vertex 46.7657 8.69894 0
      vertex 46.95 8.81865 4
      vertex 46.7657 8.69894 4
    endloop
  endfacet
  facet normal 0.544716 -0.83862 0
    outer loop
      vertex 46.95 8.81865 4
      vertex 46.7657 8.69894 0
      vertex 46.95 8.81865 0
    endloop
  endfacet
  facet normal 0.629177 -0.777262 0
    outer loop
      vertex 46.5948 8.5606 0
      vertex 46.7657 8.69894 4
      vertex 46.5948 8.5606 4
    endloop
  endfacet
  facet normal 0.629177 -0.777262 0
    outer loop
      vertex 46.7657 8.69894 4
      vertex 46.5948 8.5606 0
      vertex 46.7657 8.69894 0
    endloop
  endfacet
  facet normal 0.358412 -0.933564 0
    outer loop
      vertex 47.1459 8.91844 0
      vertex 47.3511 8.99722 4
      vertex 47.1459 8.91844 4
    endloop
  endfacet
  facet normal 0.358412 -0.933564 0
    outer loop
      vertex 47.3511 8.99722 4
      vertex 47.1459 8.91844 0
      vertex 47.3511 8.99722 0
    endloop
  endfacet
  facet normal 0.156455 -0.987685 0
    outer loop
      vertex 47.5634 9.05411 0
      vertex 47.7805 9.0885 4
      vertex 47.5634 9.05411 4
    endloop
  endfacet
  facet normal 0.156455 -0.987685 0
    outer loop
      vertex 47.7805 9.0885 4
      vertex 47.5634 9.05411 0
      vertex 47.7805 9.0885 0
    endloop
  endfacet
  facet normal -0.544716 0.83862 0
    outer loop
      vertex 49.2343 5.30106 0
      vertex 49.05 5.18135 4
      vertex 49.2343 5.30106 4
    endloop
  endfacet
  facet normal -0.544716 0.83862 0
    outer loop
      vertex 49.05 5.18135 4
      vertex 49.2343 5.30106 0
      vertex 49.05 5.18135 0
    endloop
  endfacet
  facet normal -0.707175 0.707039 0
    outer loop
      vertex 49.4052 5.43939 0
      vertex 49.5606 5.59482 4
      vertex 49.5606 5.59482 0
    endloop
  endfacet
  facet normal -0.707175 0.707039 0
    outer loop
      vertex 49.5606 5.59482 4
      vertex 49.4052 5.43939 0
      vertex 49.4052 5.43939 4
    endloop
  endfacet
  facet normal 0.838501 0.5449 0
    outer loop
      vertex 46.3011 5.76565 4
      vertex 46.1813 5.95 0
      vertex 46.1813 5.95 4
    endloop
  endfacet
  facet normal 0.838501 0.5449 0
    outer loop
      vertex 46.1813 5.95 0
      vertex 46.3011 5.76565 4
      vertex 46.3011 5.76565 0
    endloop
  endfacet
  facet normal -0.453933 0.891036 0
    outer loop
      vertex 49.05 5.18135 0
      vertex 48.8541 5.08155 4
      vertex 49.05 5.18135 4
    endloop
  endfacet
  facet normal -0.453933 0.891036 0
    outer loop
      vertex 48.8541 5.08155 4
      vertex 49.05 5.18135 0
      vertex 48.8541 5.08155 0
    endloop
  endfacet
  facet normal 0.99863 0.0523177 0
    outer loop
      vertex 45.9115 6.78049 4
      vertex 45.9 7 0
      vertex 45.9 7 4
    endloop
  endfacet
  facet normal 0.99863 0.0523177 0
    outer loop
      vertex 45.9 7 0
      vertex 45.9115 6.78049 4
      vertex 45.9115 6.78049 0
    endloop
  endfacet
  facet normal -0.933539 0.358476 0
    outer loop
      vertex 49.9184 6.14585 0
      vertex 49.9972 6.35106 4
      vertex 49.9972 6.35106 0
    endloop
  endfacet
  facet normal -0.933539 0.358476 0
    outer loop
      vertex 49.9972 6.35106 4
      vertex 49.9184 6.14585 0
      vertex 49.9184 6.14585 4
    endloop
  endfacet
  facet normal -0.987678 0.1565 0
    outer loop
      vertex 50.0541 6.56339 0
      vertex 50.0885 6.78049 4
      vertex 50.0885 6.78049 0
    endloop
  endfacet
  facet normal -0.987678 0.1565 0
    outer loop
      vertex 50.0885 6.78049 4
      vertex 50.0541 6.56339 0
      vertex 50.0541 6.56339 4
    endloop
  endfacet
  facet normal -0.99863 0.0523177 0
    outer loop
      vertex 50.0885 6.78049 0
      vertex 50.1 7 4
      vertex 50.1 7 0
    endloop
  endfacet
  facet normal -0.99863 0.0523177 0
    outer loop
      vertex 50.1 7 4
      vertex 50.0885 6.78049 0
      vertex 50.0885 6.78049 4
    endloop
  endfacet
  facet normal -0.62915 0.777284 0
    outer loop
      vertex 49.4052 5.43939 0
      vertex 49.2343 5.30106 4
      vertex 49.4052 5.43939 4
    endloop
  endfacet
  facet normal -0.62915 0.777284 0
    outer loop
      vertex 49.2343 5.30106 4
      vertex 49.4052 5.43939 0
      vertex 49.2343 5.30106 0
    endloop
  endfacet
  facet normal -0.891173 0.453663 0
    outer loop
      vertex 49.8187 5.95 0
      vertex 49.9184 6.14585 4
      vertex 49.9184 6.14585 0
    endloop
  endfacet
  facet normal -0.891173 0.453663 0
    outer loop
      vertex 49.9184 6.14585 4
      vertex 49.8187 5.95 0
      vertex 49.8187 5.95 4
    endloop
  endfacet
  facet normal -0.838501 0.5449 0
    outer loop
      vertex 49.6989 5.76565 0
      vertex 49.8187 5.95 4
      vertex 49.8187 5.95 0
    endloop
  endfacet
  facet normal -0.838501 0.5449 0
    outer loop
      vertex 49.8187 5.95 4
      vertex 49.6989 5.76565 0
      vertex 49.6989 5.76565 4
    endloop
  endfacet
  facet normal -0.777225 0.629223 0
    outer loop
      vertex 49.5606 5.59482 0
      vertex 49.6989 5.76565 4
      vertex 49.6989 5.76565 0
    endloop
  endfacet
  facet normal -0.777225 0.629223 0
    outer loop
      vertex 49.6989 5.76565 4
      vertex 49.5606 5.59482 0
      vertex 49.5606 5.59482 4
    endloop
  endfacet
  facet normal 0.707175 0.707039 0
    outer loop
      vertex 46.5948 5.43939 4
      vertex 46.4394 5.59482 0
      vertex 46.4394 5.59482 4
    endloop
  endfacet
  facet normal 0.707175 0.707039 0
    outer loop
      vertex 46.4394 5.59482 0
      vertex 46.5948 5.43939 4
      vertex 46.5948 5.43939 0
    endloop
  endfacet
  facet normal 0.933539 0.358476 0
    outer loop
      vertex 46.0816 6.14585 4
      vertex 46.0028 6.35106 0
      vertex 46.0028 6.35106 4
    endloop
  endfacet
  facet normal 0.933539 0.358476 0
    outer loop
      vertex 46.0028 6.35106 0
      vertex 46.0816 6.14585 4
      vertex 46.0816 6.14585 0
    endloop
  endfacet
  facet normal 0.987678 0.1565 0
    outer loop
      vertex 45.9459 6.56339 4
      vertex 45.9115 6.78049 0
      vertex 45.9115 6.78049 4
    endloop
  endfacet
  facet normal 0.987678 0.1565 0
    outer loop
      vertex 45.9115 6.78049 0
      vertex 45.9459 6.56339 4
      vertex 45.9459 6.56339 0
    endloop
  endfacet
  facet normal 0.965919 0.258846 0
    outer loop
      vertex 46.0028 6.35106 4
      vertex 45.9459 6.56339 0
      vertex 45.9459 6.56339 4
    endloop
  endfacet
  facet normal 0.965919 0.258846 0
    outer loop
      vertex 45.9459 6.56339 0
      vertex 46.0028 6.35106 4
      vertex 46.0028 6.35106 0
    endloop
  endfacet
  facet normal -0.358372 0.933579 0
    outer loop
      vertex 48.8541 5.08155 0
      vertex 48.6489 5.00278 4
      vertex 48.8541 5.08155 4
    endloop
  endfacet
  facet normal -0.358372 0.933579 0
    outer loop
      vertex 48.6489 5.00278 4
      vertex 48.8541 5.08155 0
      vertex 48.6489 5.00278 0
    endloop
  endfacet
  facet normal -0.258838 0.965921 0
    outer loop
      vertex 48.6489 5.00278 0
      vertex 48.4366 4.94589 4
      vertex 48.6489 5.00278 4
    endloop
  endfacet
  facet normal -0.258838 0.965921 0
    outer loop
      vertex 48.4366 4.94589 4
      vertex 48.6489 5.00278 0
      vertex 48.4366 4.94589 0
    endloop
  endfacet
  facet normal -0.05232 0.99863 0
    outer loop
      vertex 48.2195 4.9115 0
      vertex 48 4.9 4
      vertex 48.2195 4.9115 4
    endloop
  endfacet
  facet normal -0.05232 0.99863 0
    outer loop
      vertex 48 4.9 4
      vertex 48.2195 4.9115 0
      vertex 48 4.9 0
    endloop
  endfacet
  facet normal 0.258838 0.965921 -0
    outer loop
      vertex 47.5634 4.94589 0
      vertex 47.3511 5.00278 4
      vertex 47.5634 4.94589 4
    endloop
  endfacet
  facet normal 0.258838 0.965921 0
    outer loop
      vertex 47.3511 5.00278 4
      vertex 47.5634 4.94589 0
      vertex 47.3511 5.00278 0
    endloop
  endfacet
  facet normal 0.156455 0.987685 -0
    outer loop
      vertex 47.7805 4.9115 0
      vertex 47.5634 4.94589 4
      vertex 47.7805 4.9115 4
    endloop
  endfacet
  facet normal 0.156455 0.987685 0
    outer loop
      vertex 47.5634 4.94589 4
      vertex 47.7805 4.9115 0
      vertex 47.5634 4.94589 0
    endloop
  endfacet
  facet normal 0.453933 0.891036 -0
    outer loop
      vertex 47.1459 5.08155 0
      vertex 46.95 5.18135 4
      vertex 47.1459 5.08155 4
    endloop
  endfacet
  facet normal 0.453933 0.891036 0
    outer loop
      vertex 46.95 5.18135 4
      vertex 47.1459 5.08155 0
      vertex 46.95 5.18135 0
    endloop
  endfacet
  facet normal 0.62915 0.777284 -0
    outer loop
      vertex 46.7657 5.30106 0
      vertex 46.5948 5.43939 4
      vertex 46.7657 5.30106 4
    endloop
  endfacet
  facet normal 0.62915 0.777284 0
    outer loop
      vertex 46.5948 5.43939 4
      vertex 46.7657 5.30106 0
      vertex 46.5948 5.43939 0
    endloop
  endfacet
  facet normal 0.358372 0.933579 -0
    outer loop
      vertex 47.3511 5.00278 0
      vertex 47.1459 5.08155 4
      vertex 47.3511 5.00278 4
    endloop
  endfacet
  facet normal 0.358372 0.933579 0
    outer loop
      vertex 47.1459 5.08155 4
      vertex 47.3511 5.00278 0
      vertex 47.1459 5.08155 0
    endloop
  endfacet
  facet normal 0.777225 0.629223 0
    outer loop
      vertex 46.4394 5.59482 4
      vertex 46.3011 5.76565 0
      vertex 46.3011 5.76565 4
    endloop
  endfacet
  facet normal 0.777225 0.629223 0
    outer loop
      vertex 46.3011 5.76565 0
      vertex 46.4394 5.59482 4
      vertex 46.4394 5.59482 0
    endloop
  endfacet
  facet normal 0.891173 0.453663 0
    outer loop
      vertex 46.1813 5.95 4
      vertex 46.0816 6.14585 0
      vertex 46.0816 6.14585 4
    endloop
  endfacet
  facet normal 0.891173 0.453663 0
    outer loop
      vertex 46.0816 6.14585 0
      vertex 46.1813 5.95 4
      vertex 46.1813 5.95 0
    endloop
  endfacet
  facet normal 0.544716 0.83862 -0
    outer loop
      vertex 46.95 5.18135 0
      vertex 46.7657 5.30106 4
      vertex 46.95 5.18135 4
    endloop
  endfacet
  facet normal 0.544716 0.83862 0
    outer loop
      vertex 46.7657 5.30106 4
      vertex 46.95 5.18135 0
      vertex 46.7657 5.30106 0
    endloop
  endfacet
  facet normal -0.998626 -0.0524084 0
    outer loop
      vertex 51.5 7 4
      vertex 51.4808 7.36585 7
      vertex 51.4808 7.36585 4
    endloop
  endfacet
  facet normal -0.998626 -0.0524084 0
    outer loop
      vertex 51.4808 7.36585 7
      vertex 51.5 7 4
      vertex 51.5 7 7
    endloop
  endfacet
  facet normal 0.0524013 -0.998626 0
    outer loop
      vertex 47.6341 10.4808 4
      vertex 48 10.5 7
      vertex 47.6341 10.4808 7
    endloop
  endfacet
  facet normal 0.0524013 -0.998626 0
    outer loop
      vertex 48 10.5 7
      vertex 47.6341 10.4808 4
      vertex 48 10.5 4
    endloop
  endfacet
  facet normal -0.0523339 0.99863 0
    outer loop
      vertex 48.3658 3.51917 4
      vertex 48 3.5 7
      vertex 48.3658 3.51917 7
    endloop
  endfacet
  facet normal -0.0523339 0.99863 0
    outer loop
      vertex 48 3.5 7
      vertex 48.3658 3.51917 4
      vertex 48 3.5 4
    endloop
  endfacet
  facet normal 0.707175 0.707039 0
    outer loop
      vertex 45.658 4.39899 7
      vertex 45.399 4.65804 4
      vertex 45.399 4.65804 7
    endloop
  endfacet
  facet normal 0.707175 0.707039 0
    outer loop
      vertex 45.399 4.65804 4
      vertex 45.658 4.39899 7
      vertex 45.658 4.39899 4
    endloop
  endfacet
  facet normal -0.707175 -0.707039 0
    outer loop
      vertex 50.601 9.34196 4
      vertex 50.342 9.60101 7
      vertex 50.342 9.60101 4
    endloop
  endfacet
  facet normal -0.707175 -0.707039 0
    outer loop
      vertex 50.342 9.60101 7
      vertex 50.601 9.34196 4
      vertex 50.601 9.34196 7
    endloop
  endfacet
  facet normal 0.707175 -0.707039 0
    outer loop
      vertex 45.399 9.34196 7
      vertex 45.658 9.60101 4
      vertex 45.658 9.60101 7
    endloop
  endfacet
  facet normal 0.707175 -0.707039 0
    outer loop
      vertex 45.658 9.60101 4
      vertex 45.399 9.34196 7
      vertex 45.399 9.34196 4
    endloop
  endfacet
  facet normal 0.453971 -0.891017 0
    outer loop
      vertex 46.25 10.0311 4
      vertex 46.5764 10.1974 7
      vertex 46.25 10.0311 7
    endloop
  endfacet
  facet normal 0.453971 -0.891017 0
    outer loop
      vertex 46.5764 10.1974 7
      vertex 46.25 10.0311 4
      vertex 46.5764 10.1974 4
    endloop
  endfacet
  facet normal -0.891028 -0.453949 0
    outer loop
      vertex 51.1974 8.42358 4
      vertex 51.0311 8.75 7
      vertex 51.0311 8.75 4
    endloop
  endfacet
  facet normal -0.891028 -0.453949 0
    outer loop
      vertex 51.0311 8.75 7
      vertex 51.1974 8.42358 4
      vertex 51.1974 8.42358 7
    endloop
  endfacet
  facet normal -0.358412 -0.933564 0
    outer loop
      vertex 49.0816 10.3287 4
      vertex 49.4236 10.1974 7
      vertex 49.0816 10.3287 7
    endloop
  endfacet
  facet normal -0.358412 -0.933564 -0
    outer loop
      vertex 49.4236 10.1974 7
      vertex 49.0816 10.3287 4
      vertex 49.4236 10.1974 4
    endloop
  endfacet
  facet normal -0.54472 -0.838618 0
    outer loop
      vertex 49.75 10.0311 4
      vertex 50.0572 9.83156 7
      vertex 49.75 10.0311 7
    endloop
  endfacet
  facet normal -0.54472 -0.838618 -0
    outer loop
      vertex 50.0572 9.83156 7
      vertex 49.75 10.0311 4
      vertex 50.0572 9.83156 4
    endloop
  endfacet
  facet normal 0.933571 -0.358394 0
    outer loop
      vertex 44.6713 8.08156 7
      vertex 44.8026 8.42358 4
      vertex 44.8026 8.42358 7
    endloop
  endfacet
  facet normal 0.933571 -0.358394 0
    outer loop
      vertex 44.8026 8.42358 4
      vertex 44.6713 8.08156 7
      vertex 44.6713 8.08156 4
    endloop
  endfacet
  facet normal 0.544595 -0.838699 0
    outer loop
      vertex 45.9427 9.83156 4
      vertex 46.25 10.0311 7
      vertex 45.9427 9.83156 7
    endloop
  endfacet
  facet normal 0.544595 -0.838699 0
    outer loop
      vertex 46.25 10.0311 7
      vertex 45.9427 9.83156 4
      vertex 46.25 10.0311 4
    endloop
  endfacet
  facet normal 0.25875 -0.965944 0
    outer loop
      vertex 46.9184 10.3287 4
      vertex 47.2723 10.4235 7
      vertex 46.9184 10.3287 7
    endloop
  endfacet
  facet normal 0.25875 -0.965944 0
    outer loop
      vertex 47.2723 10.4235 7
      vertex 46.9184 10.3287 4
      vertex 47.2723 10.4235 4
    endloop
  endfacet
  facet normal 0.838709 0.544581 0
    outer loop
      vertex 45.1684 4.94275 7
      vertex 44.9689 5.25 4
      vertex 44.9689 5.25 7
    endloop
  endfacet
  facet normal 0.838709 0.544581 0
    outer loop
      vertex 44.9689 5.25 4
      vertex 45.1684 4.94275 7
      vertex 45.1684 4.94275 4
    endloop
  endfacet
  facet normal 0.987692 0.156408 0
    outer loop
      vertex 44.5765 6.27231 7
      vertex 44.5192 6.63415 4
      vertex 44.5192 6.63415 7
    endloop
  endfacet
  facet normal 0.987692 0.156408 0
    outer loop
      vertex 44.5192 6.63415 4
      vertex 44.5765 6.27231 7
      vertex 44.5765 6.27231 4
    endloop
  endfacet
  facet normal -0.965939 -0.25877 0
    outer loop
      vertex 51.4235 7.72769 4
      vertex 51.3287 8.08156 7
      vertex 51.3287 8.08156 4
    endloop
  endfacet
  facet normal -0.965939 -0.25877 0
    outer loop
      vertex 51.3287 8.08156 7
      vertex 51.4235 7.72769 4
      vertex 51.4235 7.72769 7
    endloop
  endfacet
  facet normal -0.987692 -0.156408 0
    outer loop
      vertex 51.4808 7.36585 4
      vertex 51.4235 7.72769 7
      vertex 51.4235 7.72769 4
    endloop
  endfacet
  facet normal -0.987692 -0.156408 0
    outer loop
      vertex 51.4235 7.72769 7
      vertex 51.4808 7.36585 4
      vertex 51.4808 7.36585 7
    endloop
  endfacet
  facet normal -0.933571 -0.358394 0
    outer loop
      vertex 51.3287 8.08156 4
      vertex 51.1974 8.42358 7
      vertex 51.1974 8.42358 4
    endloop
  endfacet
  facet normal -0.933571 -0.358394 0
    outer loop
      vertex 51.1974 8.42358 7
      vertex 51.3287 8.08156 4
      vertex 51.3287 8.08156 7
    endloop
  endfacet
  facet normal -0.777084 -0.629397 0
    outer loop
      vertex 50.8316 9.05725 4
      vertex 50.601 9.34196 7
      vertex 50.601 9.34196 4
    endloop
  endfacet
  facet normal -0.777084 -0.629397 0
    outer loop
      vertex 50.601 9.34196 7
      vertex 50.8316 9.05725 4
      vertex 50.8316 9.05725 7
    endloop
  endfacet
  facet normal -0.838709 -0.544581 0
    outer loop
      vertex 51.0311 8.75 4
      vertex 50.8316 9.05725 7
      vertex 50.8316 9.05725 4
    endloop
  endfacet
  facet normal -0.838709 -0.544581 0
    outer loop
      vertex 50.8316 9.05725 7
      vertex 51.0311 8.75 4
      vertex 51.0311 8.75 7
    endloop
  endfacet
  facet normal -0.156383 -0.987696 0
    outer loop
      vertex 48.3658 10.4808 4
      vertex 48.7277 10.4235 7
      vertex 48.3658 10.4808 7
    endloop
  endfacet
  facet normal -0.156383 -0.987696 -0
    outer loop
      vertex 48.7277 10.4235 7
      vertex 48.3658 10.4808 4
      vertex 48.7277 10.4235 4
    endloop
  endfacet
  facet normal -0.25875 -0.965944 0
    outer loop
      vertex 48.7277 10.4235 4
      vertex 49.0816 10.3287 7
      vertex 48.7277 10.4235 7
    endloop
  endfacet
  facet normal -0.25875 -0.965944 -0
    outer loop
      vertex 49.0816 10.3287 7
      vertex 48.7277 10.4235 4
      vertex 49.0816 10.3287 4
    endloop
  endfacet
  facet normal -0.0524155 -0.998625 0
    outer loop
      vertex 48 10.5 4
      vertex 48.3658 10.4808 7
      vertex 48 10.5 7
    endloop
  endfacet
  facet normal -0.0524155 -0.998625 -0
    outer loop
      vertex 48.3658 10.4808 7
      vertex 48 10.5 4
      vertex 48.3658 10.4808 4
    endloop
  endfacet
  facet normal -0.453971 -0.891017 0
    outer loop
      vertex 49.4236 10.1974 4
      vertex 49.75 10.0311 7
      vertex 49.4236 10.1974 7
    endloop
  endfacet
  facet normal -0.453971 -0.891017 -0
    outer loop
      vertex 49.75 10.0311 7
      vertex 49.4236 10.1974 4
      vertex 49.75 10.0311 4
    endloop
  endfacet
  facet normal -0.629194 -0.777248 0
    outer loop
      vertex 50.0572 9.83156 4
      vertex 50.342 9.60101 7
      vertex 50.0572 9.83156 7
    endloop
  endfacet
  facet normal -0.629194 -0.777248 -0
    outer loop
      vertex 50.342 9.60101 7
      vertex 50.0572 9.83156 4
      vertex 50.342 9.60101 4
    endloop
  endfacet
  facet normal 0.987692 -0.156408 0
    outer loop
      vertex 44.5192 7.36585 7
      vertex 44.5765 7.72769 4
      vertex 44.5765 7.72769 7
    endloop
  endfacet
  facet normal 0.987692 -0.156408 0
    outer loop
      vertex 44.5765 7.72769 4
      vertex 44.5192 7.36585 7
      vertex 44.5192 7.36585 4
    endloop
  endfacet
  facet normal 0 0 1
    outer loop
      vertex 50.1 7 4
      vertex 51.5 7 4
      vertex 51.4808 7.36585 4
    endloop
  endfacet
  facet normal 0 0 1
    outer loop
      vertex 50.0885 7.21951 4
      vertex 51.4808 7.36585 4
      vertex 51.4235 7.72769 4
    endloop
  endfacet
  facet normal 0 0 1
    outer loop
      vertex 51.5 7 4
      vertex 50.1 7 4
      vertex 51.4808 6.63415 4
    endloop
  endfacet
  facet normal 0 0 1
    outer loop
      vertex 50.0541 7.43661 4
      vertex 51.4235 7.72769 4
      vertex 51.3287 8.08156 4
    endloop
  endfacet
  facet normal -0 0 1
    outer loop
      vertex 50.0885 6.78049 4
      vertex 51.4808 6.63415 4
      vertex 50.1 7 4
    endloop
  endfacet
  facet normal 0 0 1
    outer loop
      vertex 49.9972 7.64894 4
      vertex 51.3287 8.08156 4
      vertex 51.1974 8.42358 4
    endloop
  endfacet
  facet normal 0 0 1
    outer loop
      vertex 51.4808 6.63415 4
      vertex 50.0885 6.78049 4
      vertex 51.4235 6.27231 4
    endloop
  endfacet
  facet normal 0 0 1
    outer loop
      vertex 49.9184 7.85415 4
      vertex 51.1974 8.42358 4
      vertex 51.0311 8.75 4
    endloop
  endfacet
  facet normal -0 0 1
    outer loop
      vertex 50.0541 6.56339 4
      vertex 51.4235 6.27231 4
      vertex 50.0885 6.78049 4
    endloop
  endfacet
  facet normal 0 0 1
    outer loop
      vertex 49.8187 8.05 4
      vertex 51.0311 8.75 4
      vertex 50.8316 9.05725 4
    endloop
  endfacet
  facet normal 0 0 1
    outer loop
      vertex 51.4235 6.27231 4
      vertex 50.0541 6.56339 4
      vertex 51.3287 5.91844 4
    endloop
  endfacet
  facet normal 0 0 1
    outer loop
      vertex 49.6989 8.23435 4
      vertex 50.8316 9.05725 4
      vertex 50.601 9.34196 4
    endloop
  endfacet
  facet normal -0 0 1
    outer loop
      vertex 49.9972 6.35106 4
      vertex 51.3287 5.91844 4
      vertex 50.0541 6.56339 4
    endloop
  endfacet
  facet normal 0 0 1
    outer loop
      vertex 49.5606 8.40517 4
      vertex 50.601 9.34196 4
      vertex 50.342 9.60101 4
    endloop
  endfacet
  facet normal 0 0 1
    outer loop
      vertex 51.3287 5.91844 4
      vertex 49.9972 6.35106 4
      vertex 51.1974 5.57642 4
    endloop
  endfacet
  facet normal -0 0 1
    outer loop
      vertex 49.9184 6.14585 4
      vertex 51.1974 5.57642 4
      vertex 49.9972 6.35106 4
    endloop
  endfacet
  facet normal 0 0 1
    outer loop
      vertex 51.4808 7.36585 4
      vertex 50.0885 7.21951 4
      vertex 50.1 7 4
    endloop
  endfacet
  facet normal 0 0 1
    outer loop
      vertex 49.4052 8.5606 4
      vertex 50.342 9.60101 4
      vertex 50.0572 9.83156 4
    endloop
  endfacet
  facet normal 0 0 1
    outer loop
      vertex 51.4235 7.72769 4
      vertex 50.0541 7.43661 4
      vertex 50.0885 7.21951 4
    endloop
  endfacet
  facet normal 0 0 1
    outer loop
      vertex 51.3287 8.08156 4
      vertex 49.9972 7.64894 4
      vertex 50.0541 7.43661 4
    endloop
  endfacet
  facet normal 0 0 1
    outer loop
      vertex 51.1974 8.42358 4
      vertex 49.9184 7.85415 4
      vertex 49.9972 7.64894 4
    endloop
  endfacet
  facet normal 0 0 1
    outer loop
      vertex 51.0311 8.75 4
      vertex 49.8187 8.05 4
      vertex 49.9184 7.85415 4
    endloop
  endfacet
  facet normal 0 0 1
    outer loop
      vertex 49.2343 8.69894 4
      vertex 50.0572 9.83156 4
      vertex 49.75 10.0311 4
    endloop
  endfacet
  facet normal 0 0 1
    outer loop
      vertex 50.8316 9.05725 4
      vertex 49.6989 8.23435 4
      vertex 49.8187 8.05 4
    endloop
  endfacet
  facet normal 0 0 1
    outer loop
      vertex 50.601 9.34196 4
      vertex 49.5606 8.40517 4
      vertex 49.6989 8.23435 4
    endloop
  endfacet
  facet normal 0 0 1
    outer loop
      vertex 49.05 8.81865 4
      vertex 49.75 10.0311 4
      vertex 49.4236 10.1974 4
    endloop
  endfacet
  facet normal 0 0 1
    outer loop
      vertex 50.342 9.60101 4
      vertex 49.4052 8.5606 4
      vertex 49.5606 8.40517 4
    endloop
  endfacet
  facet normal 0 0 1
    outer loop
      vertex 50.0572 9.83156 4
      vertex 49.2343 8.69894 4
      vertex 49.4052 8.5606 4
    endloop
  endfacet
  facet normal 0 0 1
    outer loop
      vertex 48.8541 8.91844 4
      vertex 49.4236 10.1974 4
      vertex 49.0816 10.3287 4
    endloop
  endfacet
  facet normal 0 0 1
    outer loop
      vertex 49.75 10.0311 4
      vertex 49.05 8.81865 4
      vertex 49.2343 8.69894 4
    endloop
  endfacet
  facet normal 0 0 1
    outer loop
      vertex 49.4236 10.1974 4
      vertex 48.8541 8.91844 4
      vertex 49.05 8.81865 4
    endloop
  endfacet
  facet normal 0 0 1
    outer loop
      vertex 48.6489 8.99722 4
      vertex 49.0816 10.3287 4
      vertex 48.7277 10.4235 4
    endloop
  endfacet
  facet normal 0 0 1
    outer loop
      vertex 49.0816 10.3287 4
      vertex 48.6489 8.99722 4
      vertex 48.8541 8.91844 4
    endloop
  endfacet
  facet normal 0 0 1
    outer loop
      vertex 48.7277 10.4235 4
      vertex 48.4366 9.05411 4
      vertex 48.6489 8.99722 4
    endloop
  endfacet
  facet normal 0 0 1
    outer loop
      vertex 48.3658 10.4808 4
      vertex 48.4366 9.05411 4
      vertex 48.7277 10.4235 4
    endloop
  endfacet
  facet normal 0 0 1
    outer loop
      vertex 48.3658 10.4808 4
      vertex 48.2195 9.0885 4
      vertex 48.4366 9.05411 4
    endloop
  endfacet
  facet normal 0 0 1
    outer loop
      vertex 48 10.5 4
      vertex 48.2195 9.0885 4
      vertex 48.3658 10.4808 4
    endloop
  endfacet
  facet normal 0 0 1
    outer loop
      vertex 48 10.5 4
      vertex 48 9.1 4
      vertex 48.2195 9.0885 4
    endloop
  endfacet
  facet normal 0 0 1
    outer loop
      vertex 48 10.5 4
      vertex 47.7805 9.0885 4
      vertex 48 9.1 4
    endloop
  endfacet
  facet normal -0 0 1
    outer loop
      vertex 47.6341 10.4808 4
      vertex 47.7805 9.0885 4
      vertex 48 10.5 4
    endloop
  endfacet
  facet normal 0 0 1
    outer loop
      vertex 47.6341 10.4808 4
      vertex 47.5634 9.05411 4
      vertex 47.7805 9.0885 4
    endloop
  endfacet
  facet normal -0 0 1
    outer loop
      vertex 47.2723 10.4235 4
      vertex 47.5634 9.05411 4
      vertex 47.6341 10.4808 4
    endloop
  endfacet
  facet normal 0 0 1
    outer loop
      vertex 47.5634 9.05411 4
      vertex 47.2723 10.4235 4
      vertex 47.3511 8.99722 4
    endloop
  endfacet
  facet normal -0 0 1
    outer loop
      vertex 46.9184 10.3287 4
      vertex 47.3511 8.99722 4
      vertex 47.2723 10.4235 4
    endloop
  endfacet
  facet normal 0 0 1
    outer loop
      vertex 47.3511 8.99722 4
      vertex 46.9184 10.3287 4
      vertex 47.1459 8.91844 4
    endloop
  endfacet
  facet normal -0 0 1
    outer loop
      vertex 46.5764 10.1974 4
      vertex 47.1459 8.91844 4
      vertex 46.9184 10.3287 4
    endloop
  endfacet
  facet normal 0 0 1
    outer loop
      vertex 47.1459 8.91844 4
      vertex 46.5764 10.1974 4
      vertex 46.95 8.81865 4
    endloop
  endfacet
  facet normal -0 0 1
    outer loop
      vertex 46.25 10.0311 4
      vertex 46.95 8.81865 4
      vertex 46.5764 10.1974 4
    endloop
  endfacet
  facet normal 0 0 1
    outer loop
      vertex 46.95 8.81865 4
      vertex 46.25 10.0311 4
      vertex 46.7657 8.69894 4
    endloop
  endfacet
  facet normal -0 0 1
    outer loop
      vertex 45.9427 9.83156 4
      vertex 46.7657 8.69894 4
      vertex 46.25 10.0311 4
    endloop
  endfacet
  facet normal 0 0 1
    outer loop
      vertex 46.7657 8.69894 4
      vertex 45.9427 9.83156 4
      vertex 46.5948 8.5606 4
    endloop
  endfacet
  facet normal -0 0 1
    outer loop
      vertex 45.658 9.60101 4
      vertex 46.5948 8.5606 4
      vertex 45.9427 9.83156 4
    endloop
  endfacet
  facet normal 0 0 1
    outer loop
      vertex 46.5948 8.5606 4
      vertex 45.658 9.60101 4
      vertex 46.4394 8.40517 4
    endloop
  endfacet
  facet normal -0 0 1
    outer loop
      vertex 45.399 9.34196 4
      vertex 46.4394 8.40517 4
      vertex 45.658 9.60101 4
    endloop
  endfacet
  facet normal 0 0 1
    outer loop
      vertex 46.4394 8.40517 4
      vertex 45.399 9.34196 4
      vertex 46.3011 8.23435 4
    endloop
  endfacet
  facet normal -0 0 1
    outer loop
      vertex 45.1684 9.05725 4
      vertex 46.3011 8.23435 4
      vertex 45.399 9.34196 4
    endloop
  endfacet
  facet normal 0 0 1
    outer loop
      vertex 46.3011 8.23435 4
      vertex 45.1684 9.05725 4
      vertex 46.1813 8.05 4
    endloop
  endfacet
  facet normal -0 0 1
    outer loop
      vertex 44.9689 8.75 4
      vertex 46.1813 8.05 4
      vertex 45.1684 9.05725 4
    endloop
  endfacet
  facet normal 0 0 1
    outer loop
      vertex 46.1813 8.05 4
      vertex 44.9689 8.75 4
      vertex 46.0816 7.85415 4
    endloop
  endfacet
  facet normal -0 0 1
    outer loop
      vertex 44.8026 8.42358 4
      vertex 46.0816 7.85415 4
      vertex 44.9689 8.75 4
    endloop
  endfacet
  facet normal 0 0 1
    outer loop
      vertex 51.1974 5.57642 4
      vertex 49.9184 6.14585 4
      vertex 51.0311 5.25 4
    endloop
  endfacet
  facet normal -0 0 1
    outer loop
      vertex 49.8187 5.95 4
      vertex 51.0311 5.25 4
      vertex 49.9184 6.14585 4
    endloop
  endfacet
  facet normal 0 0 1
    outer loop
      vertex 51.0311 5.25 4
      vertex 49.8187 5.95 4
      vertex 50.8316 4.94275 4
    endloop
  endfacet
  facet normal -0 0 1
    outer loop
      vertex 49.6989 5.76565 4
      vertex 50.8316 4.94275 4
      vertex 49.8187 5.95 4
    endloop
  endfacet
  facet normal 0 0 1
    outer loop
      vertex 50.8316 4.94275 4
      vertex 49.6989 5.76565 4
      vertex 50.601 4.65804 4
    endloop
  endfacet
  facet normal -0 0 1
    outer loop
      vertex 49.5606 5.59482 4
      vertex 50.601 4.65804 4
      vertex 49.6989 5.76565 4
    endloop
  endfacet
  facet normal 0 0 1
    outer loop
      vertex 50.601 4.65804 4
      vertex 49.5606 5.59482 4
      vertex 50.342 4.39899 4
    endloop
  endfacet
  facet normal -0 0 1
    outer loop
      vertex 49.4052 5.43939 4
      vertex 50.342 4.39899 4
      vertex 49.5606 5.59482 4
    endloop
  endfacet
  facet normal 0 0 1
    outer loop
      vertex 50.342 4.39899 4
      vertex 49.4052 5.43939 4
      vertex 50.0572 4.16844 4
    endloop
  endfacet
  facet normal -0 0 1
    outer loop
      vertex 49.2343 5.30106 4
      vertex 50.0572 4.16844 4
      vertex 49.4052 5.43939 4
    endloop
  endfacet
  facet normal 0 0 1
    outer loop
      vertex 50.0572 4.16844 4
      vertex 49.2343 5.30106 4
      vertex 49.75 3.96891 4
    endloop
  endfacet
  facet normal -0 0 1
    outer loop
      vertex 49.05 5.18135 4
      vertex 49.75 3.96891 4
      vertex 49.2343 5.30106 4
    endloop
  endfacet
  facet normal 0 0 1
    outer loop
      vertex 49.75 3.96891 4
      vertex 49.05 5.18135 4
      vertex 49.4236 3.80259 4
    endloop
  endfacet
  facet normal -0 0 1
    outer loop
      vertex 48.8541 5.08155 4
      vertex 49.4236 3.80259 4
      vertex 49.05 5.18135 4
    endloop
  endfacet
  facet normal 0 0 1
    outer loop
      vertex 49.4236 3.80259 4
      vertex 48.8541 5.08155 4
      vertex 49.0816 3.6713 4
    endloop
  endfacet
  facet normal -0 0 1
    outer loop
      vertex 48.6489 5.00278 4
      vertex 49.0816 3.6713 4
      vertex 48.8541 5.08155 4
    endloop
  endfacet
  facet normal 0 0 1
    outer loop
      vertex 49.0816 3.6713 4
      vertex 48.6489 5.00278 4
      vertex 48.7277 3.57648 4
    endloop
  endfacet
  facet normal -0 0 1
    outer loop
      vertex 48.4366 4.94589 4
      vertex 48.7277 3.57648 4
      vertex 48.6489 5.00278 4
    endloop
  endfacet
  facet normal 0 0 1
    outer loop
      vertex 48.4366 4.94589 4
      vertex 48.3658 3.51917 4
      vertex 48.7277 3.57648 4
    endloop
  endfacet
  facet normal -0 0 1
    outer loop
      vertex 48.2195 4.9115 4
      vertex 48.3658 3.51917 4
      vertex 48.4366 4.94589 4
    endloop
  endfacet
  facet normal -0 0 1
    outer loop
      vertex 48 4.9 4
      vertex 48.3658 3.51917 4
      vertex 48.2195 4.9115 4
    endloop
  endfacet
  facet normal 0 0 1
    outer loop
      vertex 48 4.9 4
      vertex 48 3.5 4
      vertex 48.3658 3.51917 4
    endloop
  endfacet
  facet normal 0 0 1
    outer loop
      vertex 47.7805 4.9115 4
      vertex 48 3.5 4
      vertex 48 4.9 4
    endloop
  endfacet
  facet normal 0 0 1
    outer loop
      vertex 47.7805 4.9115 4
      vertex 47.6341 3.51917 4
      vertex 48 3.5 4
    endloop
  endfacet
  facet normal 0 0 1
    outer loop
      vertex 47.5634 4.94589 4
      vertex 47.6341 3.51917 4
      vertex 47.7805 4.9115 4
    endloop
  endfacet
  facet normal 0 0 1
    outer loop
      vertex 47.2723 3.57648 4
      vertex 47.5634 4.94589 4
      vertex 47.3511 5.00278 4
    endloop
  endfacet
  facet normal 0 0 1
    outer loop
      vertex 47.5634 4.94589 4
      vertex 47.2723 3.57648 4
      vertex 47.6341 3.51917 4
    endloop
  endfacet
  facet normal 0 0 1
    outer loop
      vertex 46.9184 3.6713 4
      vertex 47.3511 5.00278 4
      vertex 47.1459 5.08155 4
    endloop
  endfacet
  facet normal 0 0 1
    outer loop
      vertex 46.5764 3.80259 4
      vertex 47.1459 5.08155 4
      vertex 46.95 5.18135 4
    endloop
  endfacet
  facet normal 0 0 1
    outer loop
      vertex 47.3511 5.00278 4
      vertex 46.9184 3.6713 4
      vertex 47.2723 3.57648 4
    endloop
  endfacet
  facet normal 0 0 1
    outer loop
      vertex 46.25 3.96891 4
      vertex 46.95 5.18135 4
      vertex 46.7657 5.30106 4
    endloop
  endfacet
  facet normal 0 0 1
    outer loop
      vertex 45.9427 4.16844 4
      vertex 46.7657 5.30106 4
      vertex 46.5948 5.43939 4
    endloop
  endfacet
  facet normal 0 0 1
    outer loop
      vertex 47.1459 5.08155 4
      vertex 46.5764 3.80259 4
      vertex 46.9184 3.6713 4
    endloop
  endfacet
  facet normal 0 0 1
    outer loop
      vertex 45.658 4.39899 4
      vertex 46.5948 5.43939 4
      vertex 46.4394 5.59482 4
    endloop
  endfacet
  facet normal 0 0 1
    outer loop
      vertex 45.399 4.65804 4
      vertex 46.4394 5.59482 4
      vertex 46.3011 5.76565 4
    endloop
  endfacet
  facet normal 0 0 1
    outer loop
      vertex 46.95 5.18135 4
      vertex 46.25 3.96891 4
      vertex 46.5764 3.80259 4
    endloop
  endfacet
  facet normal 0 0 1
    outer loop
      vertex 45.1684 4.94275 4
      vertex 46.3011 5.76565 4
      vertex 46.1813 5.95 4
    endloop
  endfacet
  facet normal 0 0 1
    outer loop
      vertex 44.9689 5.25 4
      vertex 46.1813 5.95 4
      vertex 46.0816 6.14585 4
    endloop
  endfacet
  facet normal 0 0 1
    outer loop
      vertex 44.8026 5.57642 4
      vertex 46.0816 6.14585 4
      vertex 46.0028 6.35106 4
    endloop
  endfacet
  facet normal 0 0 1
    outer loop
      vertex 44.6713 5.91844 4
      vertex 46.0028 6.35106 4
      vertex 45.9459 6.56339 4
    endloop
  endfacet
  facet normal 0 0 1
    outer loop
      vertex 46.7657 5.30106 4
      vertex 45.9427 4.16844 4
      vertex 46.25 3.96891 4
    endloop
  endfacet
  facet normal 0 0 1
    outer loop
      vertex 44.5765 6.27231 4
      vertex 45.9459 6.56339 4
      vertex 45.9115 6.78049 4
    endloop
  endfacet
  facet normal 0 0 1
    outer loop
      vertex 44.5192 6.63415 4
      vertex 45.9115 6.78049 4
      vertex 45.9 7 4
    endloop
  endfacet
  facet normal 0 0 1
    outer loop
      vertex 46.0816 7.85415 4
      vertex 44.8026 8.42358 4
      vertex 46.0028 7.64894 4
    endloop
  endfacet
  facet normal 0 0 1
    outer loop
      vertex 46.5948 5.43939 4
      vertex 45.658 4.39899 4
      vertex 45.9427 4.16844 4
    endloop
  endfacet
  facet normal -0 0 1
    outer loop
      vertex 44.6713 8.08156 4
      vertex 46.0028 7.64894 4
      vertex 44.8026 8.42358 4
    endloop
  endfacet
  facet normal 0 0 1
    outer loop
      vertex 46.4394 5.59482 4
      vertex 45.399 4.65804 4
      vertex 45.658 4.39899 4
    endloop
  endfacet
  facet normal 0 0 1
    outer loop
      vertex 46.0028 7.64894 4
      vertex 44.6713 8.08156 4
      vertex 45.9459 7.43661 4
    endloop
  endfacet
  facet normal 0 0 1
    outer loop
      vertex 46.3011 5.76565 4
      vertex 45.1684 4.94275 4
      vertex 45.399 4.65804 4
    endloop
  endfacet
  facet normal -0 0 1
    outer loop
      vertex 44.5765 7.72769 4
      vertex 45.9459 7.43661 4
      vertex 44.6713 8.08156 4
    endloop
  endfacet
  facet normal 0 0 1
    outer loop
      vertex 46.1813 5.95 4
      vertex 44.9689 5.25 4
      vertex 45.1684 4.94275 4
    endloop
  endfacet
  facet normal 0 0 1
    outer loop
      vertex 45.9459 7.43661 4
      vertex 44.5765 7.72769 4
      vertex 45.9115 7.21951 4
    endloop
  endfacet
  facet normal 0 0 1
    outer loop
      vertex 46.0816 6.14585 4
      vertex 44.8026 5.57642 4
      vertex 44.9689 5.25 4
    endloop
  endfacet
  facet normal -0 0 1
    outer loop
      vertex 44.5192 7.36585 4
      vertex 45.9115 7.21951 4
      vertex 44.5765 7.72769 4
    endloop
  endfacet
  facet normal 0 0 1
    outer loop
      vertex 46.0028 6.35106 4
      vertex 44.6713 5.91844 4
      vertex 44.8026 5.57642 4
    endloop
  endfacet
  facet normal 0 0 1
    outer loop
      vertex 45.9115 7.21951 4
      vertex 44.5192 7.36585 4
      vertex 45.9 7 4
    endloop
  endfacet
  facet normal 0 0 1
    outer loop
      vertex 45.9459 6.56339 4
      vertex 44.5765 6.27231 4
      vertex 44.6713 5.91844 4
    endloop
  endfacet
  facet normal 0 0 1
    outer loop
      vertex 44.5 7 4
      vertex 45.9 7 4
      vertex 44.5192 7.36585 4
    endloop
  endfacet
  facet normal 0 0 1
    outer loop
      vertex 45.9115 6.78049 4
      vertex 44.5192 6.63415 4
      vertex 44.5765 6.27231 4
    endloop
  endfacet
  facet normal 0 0 1
    outer loop
      vertex 45.9 7 4
      vertex 44.5 7 4
      vertex 44.5192 6.63415 4
    endloop
  endfacet
  facet normal 0.838709 -0.544581 0
    outer loop
      vertex 44.9689 8.75 7
      vertex 45.1684 9.05725 4
      vertex 45.1684 9.05725 7
    endloop
  endfacet
  facet normal 0.838709 -0.544581 0
    outer loop
      vertex 45.1684 9.05725 4
      vertex 44.9689 8.75 7
      vertex 44.9689 8.75 4
    endloop
  endfacet
  facet normal 0.777084 -0.629397 0
    outer loop
      vertex 45.1684 9.05725 7
      vertex 45.399 9.34196 4
      vertex 45.399 9.34196 7
    endloop
  endfacet
  facet normal 0.777084 -0.629397 0
    outer loop
      vertex 45.399 9.34196 4
      vertex 45.1684 9.05725 7
      vertex 45.1684 9.05725 4
    endloop
  endfacet
  facet normal 0.891028 -0.453949 0
    outer loop
      vertex 44.8026 8.42358 7
      vertex 44.9689 8.75 4
      vertex 44.9689 8.75 7
    endloop
  endfacet
  facet normal 0.891028 -0.453949 0
    outer loop
      vertex 44.9689 8.75 4
      vertex 44.8026 8.42358 7
      vertex 44.8026 8.42358 4
    endloop
  endfacet
  facet normal 0.965939 -0.25877 0
    outer loop
      vertex 44.5765 7.72769 7
      vertex 44.6713 8.08156 4
      vertex 44.6713 8.08156 7
    endloop
  endfacet
  facet normal 0.965939 -0.25877 0
    outer loop
      vertex 44.6713 8.08156 4
      vertex 44.5765 7.72769 7
      vertex 44.5765 7.72769 4
    endloop
  endfacet
  facet normal 0.998626 -0.0524084 0
    outer loop
      vertex 44.5 7 7
      vertex 44.5192 7.36585 4
      vertex 44.5192 7.36585 7
    endloop
  endfacet
  facet normal 0.998626 -0.0524084 0
    outer loop
      vertex 44.5192 7.36585 4
      vertex 44.5 7 7
      vertex 44.5 7 4
    endloop
  endfacet
  facet normal 0.629328 -0.77714 0
    outer loop
      vertex 45.658 9.60101 4
      vertex 45.9427 9.83156 7
      vertex 45.658 9.60101 7
    endloop
  endfacet
  facet normal 0.629328 -0.77714 0
    outer loop
      vertex 45.9427 9.83156 7
      vertex 45.658 9.60101 4
      vertex 45.9427 9.83156 4
    endloop
  endfacet
  facet normal 0.358412 -0.933564 0
    outer loop
      vertex 46.5764 10.1974 4
      vertex 46.9184 10.3287 7
      vertex 46.5764 10.1974 7
    endloop
  endfacet
  facet normal 0.358412 -0.933564 0
    outer loop
      vertex 46.9184 10.3287 7
      vertex 46.5764 10.1974 4
      vertex 46.9184 10.3287 4
    endloop
  endfacet
  facet normal 0.156425 -0.98769 0
    outer loop
      vertex 47.2723 10.4235 4
      vertex 47.6341 10.4808 7
      vertex 47.2723 10.4235 7
    endloop
  endfacet
  facet normal 0.156425 -0.98769 0
    outer loop
      vertex 47.6341 10.4808 7
      vertex 47.2723 10.4235 4
      vertex 47.6341 10.4808 4
    endloop
  endfacet
  facet normal -0.998626 0.0524084 0
    outer loop
      vertex 51.4808 6.63415 4
      vertex 51.5 7 7
      vertex 51.5 7 4
    endloop
  endfacet
  facet normal -0.998626 0.0524084 0
    outer loop
      vertex 51.5 7 7
      vertex 51.4808 6.63415 4
      vertex 51.4808 6.63415 7
    endloop
  endfacet
  facet normal -0.15641 0.987692 0
    outer loop
      vertex 48.7277 3.57648 4
      vertex 48.3658 3.51917 7
      vertex 48.7277 3.57648 7
    endloop
  endfacet
  facet normal -0.15641 0.987692 0
    outer loop
      vertex 48.3658 3.51917 7
      vertex 48.7277 3.57648 4
      vertex 48.3658 3.51917 4
    endloop
  endfacet
  facet normal -0.358388 0.933573 0
    outer loop
      vertex 49.4236 3.80259 4
      vertex 49.0816 3.6713 7
      vertex 49.4236 3.80259 7
    endloop
  endfacet
  facet normal -0.358388 0.933573 0
    outer loop
      vertex 49.0816 3.6713 7
      vertex 49.4236 3.80259 4
      vertex 49.0816 3.6713 4
    endloop
  endfacet
  facet normal -0.707175 0.707039 0
    outer loop
      vertex 50.342 4.39899 4
      vertex 50.601 4.65804 7
      vertex 50.601 4.65804 4
    endloop
  endfacet
  facet normal -0.707175 0.707039 0
    outer loop
      vertex 50.601 4.65804 7
      vertex 50.342 4.39899 4
      vertex 50.342 4.39899 7
    endloop
  endfacet
  facet normal -0.5447 0.838631 0
    outer loop
      vertex 50.0572 4.16844 4
      vertex 49.75 3.96891 7
      vertex 50.0572 4.16844 7
    endloop
  endfacet
  facet normal -0.5447 0.838631 0
    outer loop
      vertex 49.75 3.96891 7
      vertex 50.0572 4.16844 4
      vertex 49.75 3.96891 4
    endloop
  endfacet
  facet normal -0.777084 0.629397 0
    outer loop
      vertex 50.601 4.65804 4
      vertex 50.8316 4.94275 7
      vertex 50.8316 4.94275 4
    endloop
  endfacet
  facet normal -0.777084 0.629397 0
    outer loop
      vertex 50.8316 4.94275 7
      vertex 50.601 4.65804 4
      vertex 50.601 4.65804 7
    endloop
  endfacet
  facet normal -0.891028 0.453949 0
    outer loop
      vertex 51.0311 5.25 4
      vertex 51.1974 5.57642 7
      vertex 51.1974 5.57642 4
    endloop
  endfacet
  facet normal -0.891028 0.453949 0
    outer loop
      vertex 51.1974 5.57642 7
      vertex 51.0311 5.25 4
      vertex 51.0311 5.25 7
    endloop
  endfacet
  facet normal 0.629328 0.77714 -0
    outer loop
      vertex 45.9427 4.16844 4
      vertex 45.658 4.39899 7
      vertex 45.9427 4.16844 7
    endloop
  endfacet
  facet normal 0.629328 0.77714 0
    outer loop
      vertex 45.658 4.39899 7
      vertex 45.9427 4.16844 4
      vertex 45.658 4.39899 4
    endloop
  endfacet
  facet normal 0.454014 0.890994 -0
    outer loop
      vertex 46.5764 3.80259 4
      vertex 46.25 3.96891 7
      vertex 46.5764 3.80259 7
    endloop
  endfacet
  facet normal 0.454014 0.890994 0
    outer loop
      vertex 46.25 3.96891 7
      vertex 46.5764 3.80259 4
      vertex 46.25 3.96891 4
    endloop
  endfacet
  facet normal 0.258801 0.965931 -0
    outer loop
      vertex 47.2723 3.57648 4
      vertex 46.9184 3.6713 7
      vertex 47.2723 3.57648 7
    endloop
  endfacet
  facet normal 0.258801 0.965931 0
    outer loop
      vertex 46.9184 3.6713 7
      vertex 47.2723 3.57648 4
      vertex 46.9184 3.6713 4
    endloop
  endfacet
  facet normal 0.0523196 0.99863 -0
    outer loop
      vertex 48 3.5 4
      vertex 47.6341 3.51917 7
      vertex 48 3.5 7
    endloop
  endfacet
  facet normal 0.0523196 0.99863 0
    outer loop
      vertex 47.6341 3.51917 7
      vertex 48 3.5 4
      vertex 47.6341 3.51917 4
    endloop
  endfacet
  facet normal 0.777084 0.629397 0
    outer loop
      vertex 45.399 4.65804 7
      vertex 45.1684 4.94275 4
      vertex 45.1684 4.94275 7
    endloop
  endfacet
  facet normal 0.777084 0.629397 0
    outer loop
      vertex 45.1684 4.94275 4
      vertex 45.399 4.65804 7
      vertex 45.399 4.65804 4
    endloop
  endfacet
  facet normal 0.933571 0.358394 0
    outer loop
      vertex 44.8026 5.57642 7
      vertex 44.6713 5.91844 4
      vertex 44.6713 5.91844 7
    endloop
  endfacet
  facet normal 0.933571 0.358394 0
    outer loop
      vertex 44.6713 5.91844 4
      vertex 44.8026 5.57642 7
      vertex 44.8026 5.57642 4
    endloop
  endfacet
  facet normal 0.965939 0.25877 0
    outer loop
      vertex 44.6713 5.91844 7
      vertex 44.5765 6.27231 4
      vertex 44.5765 6.27231 7
    endloop
  endfacet
  facet normal 0.965939 0.25877 0
    outer loop
      vertex 44.5765 6.27231 4
      vertex 44.6713 5.91844 7
      vertex 44.6713 5.91844 4
    endloop
  endfacet
  facet normal 0.998626 0.0524084 0
    outer loop
      vertex 44.5192 6.63415 7
      vertex 44.5 7 4
      vertex 44.5 7 7
    endloop
  endfacet
  facet normal 0.998626 0.0524084 0
    outer loop
      vertex 44.5 7 4
      vertex 44.5192 6.63415 7
      vertex 44.5192 6.63415 4
    endloop
  endfacet
  facet normal -0.258801 0.965931 0
    outer loop
      vertex 49.0816 3.6713 4
      vertex 48.7277 3.57648 7
      vertex 49.0816 3.6713 7
    endloop
  endfacet
  facet normal -0.258801 0.965931 0
    outer loop
      vertex 48.7277 3.57648 7
      vertex 49.0816 3.6713 4
      vertex 48.7277 3.57648 4
    endloop
  endfacet
  facet normal -0.454014 0.890994 0
    outer loop
      vertex 49.75 3.96891 4
      vertex 49.4236 3.80259 7
      vertex 49.75 3.96891 7
    endloop
  endfacet
  facet normal -0.454014 0.890994 0
    outer loop
      vertex 49.4236 3.80259 7
      vertex 49.75 3.96891 4
      vertex 49.4236 3.80259 4
    endloop
  endfacet
  facet normal -0.629194 0.777248 0
    outer loop
      vertex 50.342 4.39899 4
      vertex 50.0572 4.16844 7
      vertex 50.342 4.39899 7
    endloop
  endfacet
  facet normal -0.629194 0.777248 0
    outer loop
      vertex 50.0572 4.16844 7
      vertex 50.342 4.39899 4
      vertex 50.0572 4.16844 4
    endloop
  endfacet
  facet normal -0.838709 0.544581 0
    outer loop
      vertex 50.8316 4.94275 4
      vertex 51.0311 5.25 7
      vertex 51.0311 5.25 4
    endloop
  endfacet
  facet normal -0.838709 0.544581 0
    outer loop
      vertex 51.0311 5.25 7
      vertex 50.8316 4.94275 4
      vertex 50.8316 4.94275 7
    endloop
  endfacet
  facet normal -0.933571 0.358394 0
    outer loop
      vertex 51.1974 5.57642 4
      vertex 51.3287 5.91844 7
      vertex 51.3287 5.91844 4
    endloop
  endfacet
  facet normal -0.933571 0.358394 0
    outer loop
      vertex 51.3287 5.91844 7
      vertex 51.1974 5.57642 4
      vertex 51.1974 5.57642 7
    endloop
  endfacet
  facet normal -0.987692 0.156408 0
    outer loop
      vertex 51.4235 6.27231 4
      vertex 51.4808 6.63415 7
      vertex 51.4808 6.63415 4
    endloop
  endfacet
  facet normal -0.987692 0.156408 0
    outer loop
      vertex 51.4808 6.63415 7
      vertex 51.4235 6.27231 4
      vertex 51.4235 6.27231 7
    endloop
  endfacet
  facet normal -0.965939 0.25877 0
    outer loop
      vertex 51.3287 5.91844 4
      vertex 51.4235 6.27231 7
      vertex 51.4235 6.27231 4
    endloop
  endfacet
  facet normal -0.965939 0.25877 0
    outer loop
      vertex 51.4235 6.27231 7
      vertex 51.3287 5.91844 4
      vertex 51.3287 5.91844 7
    endloop
  endfacet
  facet normal 0.544576 0.838712 -0
    outer loop
      vertex 46.25 3.96891 4
      vertex 45.9427 4.16844 7
      vertex 46.25 3.96891 7
    endloop
  endfacet
  facet normal 0.544576 0.838712 0
    outer loop
      vertex 45.9427 4.16844 7
      vertex 46.25 3.96891 4
      vertex 45.9427 4.16844 4
    endloop
  endfacet
  facet normal 0.358388 0.933573 -0
    outer loop
      vertex 46.9184 3.6713 4
      vertex 46.5764 3.80259 7
      vertex 46.9184 3.6713 7
    endloop
  endfacet
  facet normal 0.358388 0.933573 0
    outer loop
      vertex 46.5764 3.80259 7
      vertex 46.9184 3.6713 4
      vertex 46.5764 3.80259 4
    endloop
  endfacet
  facet normal 0.156452 0.987686 -0
    outer loop
      vertex 47.6341 3.51917 4
      vertex 47.2723 3.57648 7
      vertex 47.6341 3.51917 7
    endloop
  endfacet
  facet normal 0.156452 0.987686 0
    outer loop
      vertex 47.2723 3.57648 7
      vertex 47.6341 3.51917 4
      vertex 47.2723 3.57648 4
    endloop
  endfacet
  facet normal 0.891028 0.453949 0
    outer loop
      vertex 44.9689 5.25 7
      vertex 44.8026 5.57642 4
      vertex 44.8026 5.57642 7
    endloop
  endfacet
  facet normal 0.891028 0.453949 0
    outer loop
      vertex 44.8026 5.57642 4
      vertex 44.9689 5.25 7
      vertex 44.9689 5.25 4
    endloop
  endfacet
  facet normal 0 1 -0
    outer loop
      vertex 56 18 7
      vertex 40 18 25.3431
      vertex 56 18 25.3431
    endloop
  endfacet
  facet normal 0 1 0
    outer loop
      vertex 40 18 25.3431
      vertex 56 18 7
      vertex 40 18 7
    endloop
  endfacet
  facet normal 0 -1 0
    outer loop
      vertex 40 14 7
      vertex 56 14 27
      vertex 40 14 27
    endloop
  endfacet
  facet normal 0 -1 -0
    outer loop
      vertex 56 14 27
      vertex 40 14 7
      vertex 56 14 7
    endloop
  endfacet
  facet normal 0 0.707107 0.707107
    outer loop
      vertex 56 25.3137 32.6569
      vertex 40 22.4853 35.4853
      vertex 56 22.4853 35.4853
    endloop
  endfacet
  facet normal 0 0.707107 0.707107
    outer loop
      vertex 40 22.4853 35.4853
      vertex 56 25.3137 32.6569
      vertex 40 25.3137 32.6569
    endloop
  endfacet
  facet normal 0 0.707112 -0.707102
    outer loop
      vertex 40 18 25.3431
      vertex 56 25.3137 32.6569
      vertex 56 18 25.3431
    endloop
  endfacet
  facet normal 0 0.707112 -0.707102
    outer loop
      vertex 56 25.3137 32.6569
      vertex 40 18 25.3431
      vertex 40 25.3137 32.6569
    endloop
  endfacet
  facet normal 0 -0.707107 0.707107
    outer loop
      vertex 40 14 27
      vertex 56 22.4853 35.4853
      vertex 40 22.4853 35.4853
    endloop
  endfacet
  facet normal 0 -0.707107 0.707107
    outer loop
      vertex 56 22.4853 35.4853
      vertex 40 14 27
      vertex 56 14 27
    endloop
  endfacet
endsolid OpenSCAD_Model
