solid OpenSCAD_Model
  facet normal -0.9397 0.341999 4.94168e-06
    outer loop
      vertex 24.413 36.1745 57
      vertex 24.87 37.43 69.7136
      vertex 25.7077 39.7317 71.1278
    endloop
  endfacet
  facet normal -0.939689 0.34203 1.5119e-06
    outer loop
      vertex 24.87 37.43 69.7136
      vertex 24.413 36.1745 57
      vertex 23.7048 34.2288 57
    endloop
  endfacet
  facet normal -0.939699 0.342004 -3.6238e-06
    outer loop
      vertex 24.87 37.43 69.7136
      vertex 24.3863 36.101 72.1631
      vertex 25.7077 39.7317 71.1278
    endloop
  endfacet
  facet normal -0.939682 0.342048 2.35546e-05
    outer loop
      vertex 24.3863 36.101 72.1631
      vertex 24.87 37.43 69.7136
      vertex 24.2092 35.6146 70.2313
    endloop
  endfacet
  facet normal -0.0885328 -0.24324 -0.965917
    outer loop
      vertex 48.6412 26.7221 70.2313
      vertex 24.87 37.43 69.7136
      vertex 49.302 28.5374 69.7136
    endloop
  endfacet
  facet normal -0.0885279 -0.243229 -0.965921
    outer loop
      vertex 24.87 37.43 69.7136
      vertex 48.6412 26.7221 70.2313
      vertex 24.2092 35.6146 70.2313
    endloop
  endfacet
  facet normal 0.93969 -0.342027 3.52997e-06
    outer loop
      vertex 48.8183 27.2085 72.1631
      vertex 49.302 28.5374 69.7136
      vertex 50.1398 30.8392 71.1278
    endloop
  endfacet
  facet normal 0.939677 -0.342064 -1.9128e-05
    outer loop
      vertex 49.302 28.5374 69.7136
      vertex 48.8183 27.2085 72.1631
      vertex 48.6412 26.7221 70.2313
    endloop
  endfacet
  facet normal 0.939691 -0.342024 -2.21175e-06
    outer loop
      vertex 49.302 28.5374 69.7136
      vertex 48.845 27.2819 57
      vertex 50.1398 30.8392 71.1278
    endloop
  endfacet
  facet normal 0.939699 -0.342003 -4.54548e-06
    outer loop
      vertex 48.845 27.2819 57
      vertex 49.302 28.5374 69.7136
      vertex 48.1369 25.3363 57
    endloop
  endfacet
  facet normal 0.330364 0.907673 -0.258824
    outer loop
      vertex 48.845 27.2819 57
      vertex 25.7077 39.7317 71.1278
      vertex 50.1398 30.8392 71.1278
    endloop
  endfacet
  facet normal 0.330369 0.907673 -0.258816
    outer loop
      vertex 25.7077 39.7317 71.1278
      vertex 48.845 27.2819 57
      vertex 24.413 36.1745 57
    endloop
  endfacet
  facet normal -0.330364 -0.907673 0.258824
    outer loop
      vertex 48.1369 25.3363 57
      vertex 24.87 37.43 69.7136
      vertex 23.7048 34.2288 57
    endloop
  endfacet
  facet normal -0.330369 -0.907674 0.258815
    outer loop
      vertex 24.87 37.43 69.7136
      vertex 48.1369 25.3363 57
      vertex 49.302 28.5374 69.7136
    endloop
  endfacet
  facet normal 0.0885223 0.243215 0.965925
    outer loop
      vertex 25.7077 39.7317 71.1278
      vertex 48.8183 27.2085 72.1631
      vertex 50.1398 30.8392 71.1278
    endloop
  endfacet
  facet normal 0.0885234 0.243217 0.965924
    outer loop
      vertex 48.8183 27.2085 72.1631
      vertex 25.7077 39.7317 71.1278
      vertex 24.3863 36.101 72.1631
    endloop
  endfacet
  facet normal -0.330365 -0.907672 0.258826
    outer loop
      vertex 48.6412 26.7221 70.2313
      vertex 24.3863 36.101 72.1631
      vertex 24.2092 35.6146 70.2313
    endloop
  endfacet
  facet normal -0.330365 -0.907672 0.258826
    outer loop
      vertex 24.3863 36.101 72.1631
      vertex 48.6412 26.7221 70.2313
      vertex 48.8183 27.2085 72.1631
    endloop
  endfacet
  facet normal -1 0 0
    outer loop
      vertex 20 14 55
      vertex 20 46 57
      vertex 20 46 55
    endloop
  endfacet
  facet normal -1 -0 0
    outer loop
      vertex 20 46 57
      vertex 20 14 55
      vertex 20 14 57
    endloop
  endfacet
  facet normal 0 0 1
    outer loop
      vertex 23.7048 34.2288 57
      vertex 47.9598 24.8498 57
      vertex 48.1369 25.3363 57
    endloop
  endfacet
  facet normal 0 0 1
    outer loop
      vertex 47.9598 24.8498 57
      vertex 23.7048 34.2288 57
      vertex 23.5278 33.7424 57
    endloop
  endfacet
  facet normal 0 0 1
    outer loop
      vertex 52 46 57
      vertex 48.845 27.2819 57
      vertex 52 14 57
    endloop
  endfacet
  facet normal 0 0 1
    outer loop
      vertex 52 46 57
      vertex 24.413 36.1745 57
      vertex 48.845 27.2819 57
    endloop
  endfacet
  facet normal 0 0 1
    outer loop
      vertex 20 46 57
      vertex 23.5278 33.7424 57
      vertex 23.7048 34.2288 57
    endloop
  endfacet
  facet normal 0 0 1
    outer loop
      vertex 20 46 57
      vertex 23.7048 34.2288 57
      vertex 24.413 36.1745 57
    endloop
  endfacet
  facet normal 0 0 1
    outer loop
      vertex 23.5278 33.7424 57
      vertex 20 46 57
      vertex 23.4294 33.472 57
    endloop
  endfacet
  facet normal 0 0 1
    outer loop
      vertex 23.4294 33.472 57
      vertex 20 46 57
      vertex 22.4655 30.8238 57
    endloop
  endfacet
  facet normal -0 0 1
    outer loop
      vertex 20 46 57
      vertex 24.413 36.1745 57
      vertex 52 46 57
    endloop
  endfacet
  facet normal -0 0 1
    outer loop
      vertex 48.1369 25.3363 57
      vertex 52 14 57
      vertex 48.845 27.2819 57
    endloop
  endfacet
  facet normal -0 0 1
    outer loop
      vertex 47.9598 24.8498 57
      vertex 52 14 57
      vertex 48.1369 25.3363 57
    endloop
  endfacet
  facet normal -0 0 1
    outer loop
      vertex 47.1408 22.5996 57
      vertex 52 14 57
      vertex 47.9598 24.8498 57
    endloop
  endfacet
  facet normal -0 0 1
    outer loop
      vertex 46.8976 21.9313 57
      vertex 52 14 57
      vertex 47.1408 22.5996 57
    endloop
  endfacet
  facet normal 0 0 1
    outer loop
      vertex 20 14 57
      vertex 46.8976 21.9313 57
      vertex 22.4655 30.8238 57
    endloop
  endfacet
  facet normal 0 0 1
    outer loop
      vertex 46.8976 21.9313 57
      vertex 20 14 57
      vertex 52 14 57
    endloop
  endfacet
  facet normal 0 0 1
    outer loop
      vertex 20 14 57
      vertex 22.4655 30.8238 57
      vertex 20 46 57
    endloop
  endfacet
  facet normal 1 -0 0
    outer loop
      vertex 52 14 57
      vertex 52 46 55
      vertex 52 46 57
    endloop
  endfacet
  facet normal 1 0 0
    outer loop
      vertex 52 46 55
      vertex 52 14 57
      vertex 52 14 55
    endloop
  endfacet
  facet normal 0 1 -0
    outer loop
      vertex 52 46 55
      vertex 20 46 57
      vertex 52 46 57
    endloop
  endfacet
  facet normal 0 1 0
    outer loop
      vertex 20 46 57
      vertex 52 46 55
      vertex 20 46 55
    endloop
  endfacet
  facet normal 0 0 1
    outer loop
      vertex 54 48 55
      vertex 52 46 55
      vertex 54 12 55
    endloop
  endfacet
  facet normal 0 0 1
    outer loop
      vertex 54 48 55
      vertex 20 46 55
      vertex 52 46 55
    endloop
  endfacet
  facet normal 0 0 1
    outer loop
      vertex 20 46 55
      vertex 18 48 55
      vertex 20 14 55
    endloop
  endfacet
  facet normal -0 0 1
    outer loop
      vertex 18 48 55
      vertex 20 46 55
      vertex 54 48 55
    endloop
  endfacet
  facet normal -0 0 1
    outer loop
      vertex 52 14 55
      vertex 54 12 55
      vertex 52 46 55
    endloop
  endfacet
  facet normal -0 0 1
    outer loop
      vertex 20 14 55
      vertex 54 12 55
      vertex 52 14 55
    endloop
  endfacet
  facet normal 0 0 1
    outer loop
      vertex 20 14 55
      vertex 18 12 55
      vertex 54 12 55
    endloop
  endfacet
  facet normal 0 0 1
    outer loop
      vertex 18 12 55
      vertex 20 14 55
      vertex 18 48 55
    endloop
  endfacet
  facet normal 0 -1 0
    outer loop
      vertex 20 14 55
      vertex 52 14 57
      vertex 20 14 57
    endloop
  endfacet
  facet normal 0 -1 -0
    outer loop
      vertex 52 14 57
      vertex 20 14 55
      vertex 52 14 55
    endloop
  endfacet
  facet normal -1 0 0
    outer loop
      vertex 18 12 53
      vertex 18 48 55
      vertex 18 48 53
    endloop
  endfacet
  facet normal -1 -0 0
    outer loop
      vertex 18 48 55
      vertex 18 12 53
      vertex 18 12 55
    endloop
  endfacet
  facet normal 1 -0 0
    outer loop
      vertex 54 12 55
      vertex 54 48 53
      vertex 54 48 55
    endloop
  endfacet
  facet normal 1 0 0
    outer loop
      vertex 54 48 53
      vertex 54 12 55
      vertex 54 12 53
    endloop
  endfacet
  facet normal 0 0 -1
    outer loop
      vertex 18 12 53
      vertex 54 48 53
      vertex 54 12 53
    endloop
  endfacet
  facet normal -0 0 -1
    outer loop
      vertex 54 48 53
      vertex 18 12 53
      vertex 18 48 53
    endloop
  endfacet
  facet normal 0 -1 0
    outer loop
      vertex 18 12 53
      vertex 54 12 55
      vertex 18 12 55
    endloop
  endfacet
  facet normal 0 -1 -0
    outer loop
      vertex 54 12 55
      vertex 18 12 53
      vertex 54 12 53
    endloop
  endfacet
  facet normal 0 1 -0
    outer loop
      vertex 54 48 53
      vertex 18 48 55
      vertex 54 48 55
    endloop
  endfacet
  facet normal 0 1 0
    outer loop
      vertex 18 48 55
      vertex 54 48 53
      vertex 18 48 53
    endloop
  endfacet
  facet normal -0.939693 0.342018 9.96592e-06
    outer loop
      vertex 47.9598 24.8498 57
      vertex 47.6319 23.949 53.4223
      vertex 47.1408 22.5996 57
    endloop
  endfacet
  facet normal -0.93969 0.342026 1.35145e-05
    outer loop
      vertex 46.6408 21.226 54.1988
      vertex 47.1408 22.5996 57
      vertex 47.6319 23.949 53.4223
    endloop
  endfacet
  facet normal -0.939711 0.341969 4.54184e-05
    outer loop
      vertex 47.1408 22.5996 57
      vertex 46.6408 21.226 54.1988
      vertex 46.8976 21.9313 57
    endloop
  endfacet
  facet normal 0.939689 -0.342031 5.79282e-06
    outer loop
      vertex 23.4294 33.472 57
      vertex 22.4655 30.8238 57
      vertex 22.2088 30.1185 54.1988
    endloop
  endfacet
  facet normal -0.330364 -0.907669 0.258838
    outer loop
      vertex 47.6319 23.949 53.4223
      vertex 23.5278 33.7424 57
      vertex 23.1999 32.8415 53.4223
    endloop
  endfacet
  facet normal -0.330369 -0.907674 0.258814
    outer loop
      vertex 23.5278 33.7424 57
      vertex 47.6319 23.949 53.4223
      vertex 47.9598 24.8498 57
    endloop
  endfacet
  facet normal 0.939712 -0.341966 -1.51534e-05
    outer loop
      vertex 23.4294 33.472 57
      vertex 23.1999 32.8415 53.4223
      vertex 23.5278 33.7424 57
    endloop
  endfacet
  facet normal 0.939691 -0.342024 -3.66907e-06
    outer loop
      vertex 23.1999 32.8415 53.4223
      vertex 23.4294 33.472 57
      vertex 22.2088 30.1185 54.1988
    endloop
  endfacet
  facet normal 0.0885262 0.243224 0.965922
    outer loop
      vertex 23.1999 32.8415 53.4223
      vertex 46.6408 21.226 54.1988
      vertex 47.6319 23.949 53.4223
    endloop
  endfacet
  facet normal 0.0885262 0.243224 0.965922
    outer loop
      vertex 46.6408 21.226 54.1988
      vertex 23.1999 32.8415 53.4223
      vertex 22.2088 30.1185 54.1988
    endloop
  endfacet
  facet normal 0.330364 0.907673 -0.258824
    outer loop
      vertex 46.6408 21.226 54.1988
      vertex 22.4655 30.8238 57
      vertex 46.8976 21.9313 57
    endloop
  endfacet
  facet normal 0.330366 0.907675 -0.258813
    outer loop
      vertex 22.4655 30.8238 57
      vertex 46.6408 21.226 54.1988
      vertex 22.2088 30.1185 54.1988
    endloop
  endfacet
endsolid OpenSCAD_Model
