solid OpenSCAD_Model
  facet normal -0.939691 -0.342024 -2.21175e-06
    outer loop
      vertex 23.155 27.2819 18
      vertex 22.698 28.5374 30.7136
      vertex 21.8602 30.8392 32.1278
    endloop
  endfacet
  facet normal -0.939699 -0.342003 -4.54548e-06
    outer loop
      vertex 22.698 28.5374 30.7136
      vertex 23.155 27.2819 18
      vertex 23.8631 25.3363 18
    endloop
  endfacet
  facet normal -0.93969 -0.342027 3.52997e-06
    outer loop
      vertex 22.698 28.5374 30.7136
      vertex 23.1817 27.2085 33.1631
      vertex 21.8602 30.8392 32.1278
    endloop
  endfacet
  facet normal -0.939677 -0.342064 -1.9128e-05
    outer loop
      vertex 23.1817 27.2085 33.1631
      vertex 22.698 28.5374 30.7136
      vertex 23.3588 26.7221 31.2313
    endloop
  endfacet
  facet normal 0.0885279 -0.243229 -0.965921
    outer loop
      vertex 23.3588 26.7221 31.2313
      vertex 47.13 37.43 30.7136
      vertex 47.7908 35.6146 31.2313
    endloop
  endfacet
  facet normal 0.0885328 -0.24324 -0.965917
    outer loop
      vertex 47.13 37.43 30.7136
      vertex 23.3588 26.7221 31.2313
      vertex 22.698 28.5374 30.7136
    endloop
  endfacet
  facet normal 0.939699 0.342004 -3.6238e-06
    outer loop
      vertex 47.6137 36.101 33.1631
      vertex 47.13 37.43 30.7136
      vertex 46.2923 39.7317 32.1278
    endloop
  endfacet
  facet normal 0.939682 0.342048 2.35546e-05
    outer loop
      vertex 47.13 37.43 30.7136
      vertex 47.6137 36.101 33.1631
      vertex 47.7908 35.6146 31.2313
    endloop
  endfacet
  facet normal 0.9397 0.341999 4.94168e-06
    outer loop
      vertex 47.13 37.43 30.7136
      vertex 47.587 36.1745 18
      vertex 46.2923 39.7317 32.1278
    endloop
  endfacet
  facet normal 0.939689 0.34203 1.5119e-06
    outer loop
      vertex 47.587 36.1745 18
      vertex 47.13 37.43 30.7136
      vertex 48.2952 34.2288 18
    endloop
  endfacet
  facet normal -0.330369 0.907673 -0.258816
    outer loop
      vertex 23.155 27.2819 18
      vertex 46.2923 39.7317 32.1278
      vertex 47.587 36.1745 18
    endloop
  endfacet
  facet normal -0.330364 0.907673 -0.258824
    outer loop
      vertex 46.2923 39.7317 32.1278
      vertex 23.155 27.2819 18
      vertex 21.8602 30.8392 32.1278
    endloop
  endfacet
  facet normal 0.330369 -0.907674 0.258815
    outer loop
      vertex 23.8631 25.3363 18
      vertex 47.13 37.43 30.7136
      vertex 22.698 28.5374 30.7136
    endloop
  endfacet
  facet normal 0.330364 -0.907673 0.258824
    outer loop
      vertex 47.13 37.43 30.7136
      vertex 23.8631 25.3363 18
      vertex 48.2952 34.2288 18
    endloop
  endfacet
  facet normal -0.0885234 0.243217 0.965924
    outer loop
      vertex 46.2923 39.7317 32.1278
      vertex 23.1817 27.2085 33.1631
      vertex 47.6137 36.101 33.1631
    endloop
  endfacet
  facet normal -0.0885223 0.243215 0.965925
    outer loop
      vertex 23.1817 27.2085 33.1631
      vertex 46.2923 39.7317 32.1278
      vertex 21.8602 30.8392 32.1278
    endloop
  endfacet
  facet normal 0.330365 -0.907672 0.258826
    outer loop
      vertex 23.3588 26.7221 31.2313
      vertex 47.6137 36.101 33.1631
      vertex 23.1817 27.2085 33.1631
    endloop
  endfacet
  facet normal 0.330365 -0.907672 0.258826
    outer loop
      vertex 47.6137 36.101 33.1631
      vertex 23.3588 26.7221 31.2313
      vertex 47.7908 35.6146 31.2313
    endloop
  endfacet
  facet normal -1 0 0
    outer loop
      vertex 20 14 16
      vertex 20 46 18
      vertex 20 46 16
    endloop
  endfacet
  facet normal -1 -0 0
    outer loop
      vertex 20 46 18
      vertex 20 14 16
      vertex 20 14 18
    endloop
  endfacet
  facet normal 0 0 1
    outer loop
      vertex 52 46 18
      vertex 49.5345 30.8238 18
      vertex 52 14 18
    endloop
  endfacet
  facet normal 0 0 1
    outer loop
      vertex 52 46 18
      vertex 48.5706 33.472 18
      vertex 49.5345 30.8238 18
    endloop
  endfacet
  facet normal 0 0 1
    outer loop
      vertex 52 46 18
      vertex 48.4722 33.7424 18
      vertex 48.5706 33.472 18
    endloop
  endfacet
  facet normal 0 0 1
    outer loop
      vertex 52 46 18
      vertex 48.2952 34.2288 18
      vertex 48.4722 33.7424 18
    endloop
  endfacet
  facet normal 0 0 1
    outer loop
      vertex 52 46 18
      vertex 47.587 36.1745 18
      vertex 48.2952 34.2288 18
    endloop
  endfacet
  facet normal -0 0 1
    outer loop
      vertex 20 46 18
      vertex 47.587 36.1745 18
      vertex 52 46 18
    endloop
  endfacet
  facet normal 0 0 1
    outer loop
      vertex 47.587 36.1745 18
      vertex 20 46 18
      vertex 23.155 27.2819 18
    endloop
  endfacet
  facet normal -0 0 1
    outer loop
      vertex 25.1024 21.9313 18
      vertex 52 14 18
      vertex 49.5345 30.8238 18
    endloop
  endfacet
  facet normal 0 0 1
    outer loop
      vertex 20 14 18
      vertex 23.8631 25.3363 18
      vertex 23.155 27.2819 18
    endloop
  endfacet
  facet normal 0 0 1
    outer loop
      vertex 25.1024 21.9313 18
      vertex 20 14 18
      vertex 52 14 18
    endloop
  endfacet
  facet normal 0 0 1
    outer loop
      vertex 24.8592 22.5996 18
      vertex 20 14 18
      vertex 25.1024 21.9313 18
    endloop
  endfacet
  facet normal 0 0 1
    outer loop
      vertex 24.0402 24.8498 18
      vertex 20 14 18
      vertex 24.8592 22.5996 18
    endloop
  endfacet
  facet normal 0 0 1
    outer loop
      vertex 23.8631 25.3363 18
      vertex 20 14 18
      vertex 24.0402 24.8498 18
    endloop
  endfacet
  facet normal 0 0 1
    outer loop
      vertex 20 14 18
      vertex 23.155 27.2819 18
      vertex 20 46 18
    endloop
  endfacet
  facet normal 0 0 1
    outer loop
      vertex 48.2952 34.2288 18
      vertex 24.0402 24.8498 18
      vertex 48.4722 33.7424 18
    endloop
  endfacet
  facet normal 0 -0 1
    outer loop
      vertex 24.0402 24.8498 18
      vertex 48.2952 34.2288 18
      vertex 23.8631 25.3363 18
    endloop
  endfacet
  facet normal 1 -0 0
    outer loop
      vertex 52 14 18
      vertex 52 46 16
      vertex 52 46 18
    endloop
  endfacet
  facet normal 1 0 0
    outer loop
      vertex 52 46 16
      vertex 52 14 18
      vertex 52 14 16
    endloop
  endfacet
  facet normal 0 1 -0
    outer loop
      vertex 52 46 16
      vertex 20 46 18
      vertex 52 46 18
    endloop
  endfacet
  facet normal 0 1 0
    outer loop
      vertex 20 46 18
      vertex 52 46 16
      vertex 20 46 16
    endloop
  endfacet
  facet normal 0 0 1
    outer loop
      vertex 54 48 16
      vertex 52 46 16
      vertex 54 12 16
    endloop
  endfacet
  facet normal 0 0 1
    outer loop
      vertex 54 48 16
      vertex 20 46 16
      vertex 52 46 16
    endloop
  endfacet
  facet normal 0 0 1
    outer loop
      vertex 20 46 16
      vertex 18 48 16
      vertex 20 14 16
    endloop
  endfacet
  facet normal -0 0 1
    outer loop
      vertex 18 48 16
      vertex 20 46 16
      vertex 54 48 16
    endloop
  endfacet
  facet normal -0 0 1
    outer loop
      vertex 52 14 16
      vertex 54 12 16
      vertex 52 46 16
    endloop
  endfacet
  facet normal -0 0 1
    outer loop
      vertex 20 14 16
      vertex 54 12 16
      vertex 52 14 16
    endloop
  endfacet
  facet normal 0 0 1
    outer loop
      vertex 20 14 16
      vertex 18 12 16
      vertex 54 12 16
    endloop
  endfacet
  facet normal 0 0 1
    outer loop
      vertex 18 12 16
      vertex 20 14 16
      vertex 18 48 16
    endloop
  endfacet
  facet normal 0 -1 0
    outer loop
      vertex 20 14 16
      vertex 52 14 18
      vertex 20 14 18
    endloop
  endfacet
  facet normal 0 -1 -0
    outer loop
      vertex 52 14 18
      vertex 20 14 16
      vertex 52 14 16
    endloop
  endfacet
  facet normal -1 0 0
    outer loop
      vertex 18 12 14
      vertex 18 48 16
      vertex 18 48 14
    endloop
  endfacet
  facet normal -1 -0 0
    outer loop
      vertex 18 48 16
      vertex 18 12 14
      vertex 18 12 16
    endloop
  endfacet
  facet normal 1 -0 0
    outer loop
      vertex 54 12 16
      vertex 54 48 14
      vertex 54 48 16
    endloop
  endfacet
  facet normal 1 0 0
    outer loop
      vertex 54 48 14
      vertex 54 12 16
      vertex 54 12 14
    endloop
  endfacet
  facet normal 0 1 -0
    outer loop
      vertex 54 48 14
      vertex 18 48 16
      vertex 54 48 16
    endloop
  endfacet
  facet normal 0 1 0
    outer loop
      vertex 18 48 16
      vertex 54 48 14
      vertex 18 48 14
    endloop
  endfacet
  facet normal 0 0 -1
    outer loop
      vertex 18 12 14
      vertex 54 48 14
      vertex 54 12 14
    endloop
  endfacet
  facet normal -0 0 -1
    outer loop
      vertex 54 48 14
      vertex 18 12 14
      vertex 18 48 14
    endloop
  endfacet
  facet normal 0 -1 0
    outer loop
      vertex 18 12 14
      vertex 54 12 16
      vertex 18 12 16
    endloop
  endfacet
  facet normal 0 -1 -0
    outer loop
      vertex 54 12 16
      vertex 18 12 14
      vertex 54 12 14
    endloop
  endfacet
  facet normal -0.330366 0.907675 -0.258813
    outer loop
      vertex 25.3592 21.226 15.1988
      vertex 49.5345 30.8238 18
      vertex 49.7912 30.1185 15.1988
    endloop
  endfacet
  facet normal -0.330364 0.907673 -0.258824
    outer loop
      vertex 49.5345 30.8238 18
      vertex 25.3592 21.226 15.1988
      vertex 25.1024 21.9313 18
    endloop
  endfacet
  facet normal -0.939689 -0.342031 5.79282e-06
    outer loop
      vertex 49.7912 30.1185 15.1988
      vertex 49.5345 30.8238 18
      vertex 48.5706 33.472 18
    endloop
  endfacet
  facet normal -0.939712 -0.341966 -1.51534e-05
    outer loop
      vertex 48.8001 32.8415 14.4223
      vertex 48.5706 33.472 18
      vertex 48.4722 33.7424 18
    endloop
  endfacet
  facet normal -0.939691 -0.342024 -3.66907e-06
    outer loop
      vertex 48.5706 33.472 18
      vertex 48.8001 32.8415 14.4223
      vertex 49.7912 30.1185 15.1988
    endloop
  endfacet
  facet normal 0.939711 0.341969 4.54184e-05
    outer loop
      vertex 25.3592 21.226 15.1988
      vertex 24.8592 22.5996 18
      vertex 25.1024 21.9313 18
    endloop
  endfacet
  facet normal 0.93969 0.342026 1.35145e-05
    outer loop
      vertex 24.8592 22.5996 18
      vertex 25.3592 21.226 15.1988
      vertex 24.3681 23.949 14.4223
    endloop
  endfacet
  facet normal 0.330369 -0.907674 0.258814
    outer loop
      vertex 24.3681 23.949 14.4223
      vertex 48.4722 33.7424 18
      vertex 24.0402 24.8498 18
    endloop
  endfacet
  facet normal 0.330364 -0.907669 0.258838
    outer loop
      vertex 48.4722 33.7424 18
      vertex 24.3681 23.949 14.4223
      vertex 48.8001 32.8415 14.4223
    endloop
  endfacet
  facet normal 0.939693 0.342018 9.96592e-06
    outer loop
      vertex 24.8592 22.5996 18
      vertex 24.3681 23.949 14.4223
      vertex 24.0402 24.8498 18
    endloop
  endfacet
  facet normal -0.0885262 0.243224 0.965922
    outer loop
      vertex 48.8001 32.8415 14.4223
      vertex 25.3592 21.226 15.1988
      vertex 49.7912 30.1185 15.1988
    endloop
  endfacet
  facet normal -0.0885262 0.243224 0.965922
    outer loop
      vertex 25.3592 21.226 15.1988
      vertex 48.8001 32.8415 14.4223
      vertex 24.3681 23.949 14.4223
    endloop
  endfacet
endsolid OpenSCAD_Model
