%FSLAX45Y45*%
G04 Gerber Fmt 4.5, Leading zero omitted, Abs format (unit mm)*
G04 Created by KiCad (PCBNEW (6.0.0)) date 2022-07-19 14:30:06*
%MOMM*%
%LPD*%
G01*
G04 APERTURE LIST*
%TA.AperFunction,Profile*%
%ADD10C,0.050000*%
%TD*%
%ADD11C,0.200000*%
%ADD12C,0.320000*%
G04 APERTURE END LIST*
D10*
X3900000Y-6000000D02*
X3900000Y-12000000D01*
X15200000Y-6000000D02*
X3900000Y-6000000D01*
X15200000Y-6000000D02*
X15200000Y-12000000D01*
X3900000Y-12000000D02*
X15200000Y-12000000D01*
D11*
D12*
X4340000Y-6440000D02*
X4660000Y-6760000D01*
X4660000Y-6440000D02*
X4340000Y-6760000D01*
X4340000Y-11240000D02*
X4660000Y-11560000D01*
X4660000Y-11240000D02*
X4340000Y-11560000D01*
X14440000Y-6440000D02*
X14760000Y-6760000D01*
X14760000Y-6440000D02*
X14440000Y-6760000D01*
X14440000Y-11240000D02*
X14760000Y-11560000D01*
X14760000Y-11240000D02*
X14440000Y-11560000D01*
D11*
X4155119Y-12312976D02*
X4155119Y-12112976D01*
X4202738Y-12112976D01*
X4231310Y-12122500D01*
X4250357Y-12141548D01*
X4259881Y-12160595D01*
X4269405Y-12198690D01*
X4269405Y-12227262D01*
X4259881Y-12265357D01*
X4250357Y-12284405D01*
X4231310Y-12303452D01*
X4202738Y-12312976D01*
X4155119Y-12312976D01*
X4355119Y-12312976D02*
X4355119Y-12179643D01*
X4355119Y-12217738D02*
X4364643Y-12198690D01*
X4374167Y-12189167D01*
X4393214Y-12179643D01*
X4412262Y-12179643D01*
X4478929Y-12312976D02*
X4478929Y-12179643D01*
X4478929Y-12112976D02*
X4469405Y-12122500D01*
X4478929Y-12132024D01*
X4488452Y-12122500D01*
X4478929Y-12112976D01*
X4478929Y-12132024D01*
X4602738Y-12312976D02*
X4583690Y-12303452D01*
X4574167Y-12284405D01*
X4574167Y-12112976D01*
X4707500Y-12312976D02*
X4688452Y-12303452D01*
X4678929Y-12284405D01*
X4678929Y-12112976D01*
X4936071Y-12312976D02*
X4936071Y-12112976D01*
X5002738Y-12255833D01*
X5069405Y-12112976D01*
X5069405Y-12312976D01*
X5250357Y-12312976D02*
X5250357Y-12208214D01*
X5240833Y-12189167D01*
X5221786Y-12179643D01*
X5183690Y-12179643D01*
X5164643Y-12189167D01*
X5250357Y-12303452D02*
X5231310Y-12312976D01*
X5183690Y-12312976D01*
X5164643Y-12303452D01*
X5155119Y-12284405D01*
X5155119Y-12265357D01*
X5164643Y-12246309D01*
X5183690Y-12236786D01*
X5231310Y-12236786D01*
X5250357Y-12227262D01*
X5345595Y-12179643D02*
X5345595Y-12379643D01*
X5345595Y-12189167D02*
X5364643Y-12179643D01*
X5402738Y-12179643D01*
X5421786Y-12189167D01*
X5431310Y-12198690D01*
X5440833Y-12217738D01*
X5440833Y-12274881D01*
X5431310Y-12293928D01*
X5421786Y-12303452D01*
X5402738Y-12312976D01*
X5364643Y-12312976D01*
X5345595Y-12303452D01*
X5526548Y-12293928D02*
X5536071Y-12303452D01*
X5526548Y-12312976D01*
X5517024Y-12303452D01*
X5526548Y-12293928D01*
X5526548Y-12312976D01*
X5526548Y-12189167D02*
X5536071Y-12198690D01*
X5526548Y-12208214D01*
X5517024Y-12198690D01*
X5526548Y-12189167D01*
X5526548Y-12208214D01*
X3697500Y-12542500D02*
X3897500Y-12742500D01*
X3897500Y-12542500D02*
X3697500Y-12742500D01*
X4136071Y-12532976D02*
X4259881Y-12532976D01*
X4193214Y-12609167D01*
X4221786Y-12609167D01*
X4240833Y-12618690D01*
X4250357Y-12628214D01*
X4259881Y-12647262D01*
X4259881Y-12694881D01*
X4250357Y-12713928D01*
X4240833Y-12723452D01*
X4221786Y-12732976D01*
X4164643Y-12732976D01*
X4145595Y-12723452D01*
X4136071Y-12713928D01*
X4345595Y-12713928D02*
X4355119Y-12723452D01*
X4345595Y-12732976D01*
X4336071Y-12723452D01*
X4345595Y-12713928D01*
X4345595Y-12732976D01*
X4431310Y-12552024D02*
X4440833Y-12542500D01*
X4459881Y-12532976D01*
X4507500Y-12532976D01*
X4526548Y-12542500D01*
X4536071Y-12552024D01*
X4545595Y-12571071D01*
X4545595Y-12590119D01*
X4536071Y-12618690D01*
X4421786Y-12732976D01*
X4545595Y-12732976D01*
X4669405Y-12532976D02*
X4688452Y-12532976D01*
X4707500Y-12542500D01*
X4717024Y-12552024D01*
X4726548Y-12571071D01*
X4736071Y-12609167D01*
X4736071Y-12656786D01*
X4726548Y-12694881D01*
X4717024Y-12713928D01*
X4707500Y-12723452D01*
X4688452Y-12732976D01*
X4669405Y-12732976D01*
X4650357Y-12723452D01*
X4640833Y-12713928D01*
X4631310Y-12694881D01*
X4621786Y-12656786D01*
X4621786Y-12609167D01*
X4631310Y-12571071D01*
X4640833Y-12552024D01*
X4650357Y-12542500D01*
X4669405Y-12532976D01*
X4859881Y-12532976D02*
X4878929Y-12532976D01*
X4897976Y-12542500D01*
X4907500Y-12552024D01*
X4917024Y-12571071D01*
X4926548Y-12609167D01*
X4926548Y-12656786D01*
X4917024Y-12694881D01*
X4907500Y-12713928D01*
X4897976Y-12723452D01*
X4878929Y-12732976D01*
X4859881Y-12732976D01*
X4840833Y-12723452D01*
X4831310Y-12713928D01*
X4821786Y-12694881D01*
X4812262Y-12656786D01*
X4812262Y-12609167D01*
X4821786Y-12571071D01*
X4831310Y-12552024D01*
X4840833Y-12542500D01*
X4859881Y-12532976D01*
X5012262Y-12732976D02*
X5012262Y-12599643D01*
X5012262Y-12618690D02*
X5021786Y-12609167D01*
X5040833Y-12599643D01*
X5069405Y-12599643D01*
X5088452Y-12609167D01*
X5097976Y-12628214D01*
X5097976Y-12732976D01*
X5097976Y-12628214D02*
X5107500Y-12609167D01*
X5126548Y-12599643D01*
X5155119Y-12599643D01*
X5174167Y-12609167D01*
X5183690Y-12628214D01*
X5183690Y-12732976D01*
X5278929Y-12732976D02*
X5278929Y-12599643D01*
X5278929Y-12618690D02*
X5288452Y-12609167D01*
X5307500Y-12599643D01*
X5336071Y-12599643D01*
X5355119Y-12609167D01*
X5364643Y-12628214D01*
X5364643Y-12732976D01*
X5364643Y-12628214D02*
X5374167Y-12609167D01*
X5393214Y-12599643D01*
X5421786Y-12599643D01*
X5440833Y-12609167D01*
X5450357Y-12628214D01*
X5450357Y-12732976D01*
X5840833Y-12523452D02*
X5669405Y-12780595D01*
X6097976Y-12532976D02*
X6117024Y-12532976D01*
X6136071Y-12542500D01*
X6145595Y-12552024D01*
X6155119Y-12571071D01*
X6164643Y-12609167D01*
X6164643Y-12656786D01*
X6155119Y-12694881D01*
X6145595Y-12713928D01*
X6136071Y-12723452D01*
X6117024Y-12732976D01*
X6097976Y-12732976D01*
X6078928Y-12723452D01*
X6069405Y-12713928D01*
X6059881Y-12694881D01*
X6050357Y-12656786D01*
X6050357Y-12609167D01*
X6059881Y-12571071D01*
X6069405Y-12552024D01*
X6078928Y-12542500D01*
X6097976Y-12532976D01*
X6250357Y-12713928D02*
X6259881Y-12723452D01*
X6250357Y-12732976D01*
X6240833Y-12723452D01*
X6250357Y-12713928D01*
X6250357Y-12732976D01*
X6450357Y-12732976D02*
X6336071Y-12732976D01*
X6393214Y-12732976D02*
X6393214Y-12532976D01*
X6374167Y-12561548D01*
X6355119Y-12580595D01*
X6336071Y-12590119D01*
X6526548Y-12552024D02*
X6536071Y-12542500D01*
X6555119Y-12532976D01*
X6602738Y-12532976D01*
X6621786Y-12542500D01*
X6631309Y-12552024D01*
X6640833Y-12571071D01*
X6640833Y-12590119D01*
X6631309Y-12618690D01*
X6517024Y-12732976D01*
X6640833Y-12732976D01*
X6812262Y-12532976D02*
X6774167Y-12532976D01*
X6755119Y-12542500D01*
X6745595Y-12552024D01*
X6726548Y-12580595D01*
X6717024Y-12618690D01*
X6717024Y-12694881D01*
X6726548Y-12713928D01*
X6736071Y-12723452D01*
X6755119Y-12732976D01*
X6793214Y-12732976D01*
X6812262Y-12723452D01*
X6821786Y-12713928D01*
X6831309Y-12694881D01*
X6831309Y-12647262D01*
X6821786Y-12628214D01*
X6812262Y-12618690D01*
X6793214Y-12609167D01*
X6755119Y-12609167D01*
X6736071Y-12618690D01*
X6726548Y-12628214D01*
X6717024Y-12647262D01*
X6955119Y-12532976D02*
X6974167Y-12532976D01*
X6993214Y-12542500D01*
X7002738Y-12552024D01*
X7012262Y-12571071D01*
X7021786Y-12609167D01*
X7021786Y-12656786D01*
X7012262Y-12694881D01*
X7002738Y-12713928D01*
X6993214Y-12723452D01*
X6974167Y-12732976D01*
X6955119Y-12732976D01*
X6936071Y-12723452D01*
X6926548Y-12713928D01*
X6917024Y-12694881D01*
X6907500Y-12656786D01*
X6907500Y-12609167D01*
X6917024Y-12571071D01*
X6926548Y-12552024D01*
X6936071Y-12542500D01*
X6955119Y-12532976D01*
X7097976Y-12532976D02*
X7097976Y-12571071D01*
X7174167Y-12532976D02*
X7174167Y-12571071D01*
X7469405Y-12809167D02*
X7459881Y-12799643D01*
X7440833Y-12771071D01*
X7431309Y-12752024D01*
X7421786Y-12723452D01*
X7412262Y-12675833D01*
X7412262Y-12637738D01*
X7421786Y-12590119D01*
X7431309Y-12561548D01*
X7440833Y-12542500D01*
X7459881Y-12513928D01*
X7469405Y-12504405D01*
X7631309Y-12599643D02*
X7631309Y-12732976D01*
X7583690Y-12523452D02*
X7536071Y-12666309D01*
X7659881Y-12666309D01*
X7888452Y-12732976D02*
X7888452Y-12532976D01*
X7974167Y-12732976D02*
X7974167Y-12628214D01*
X7964643Y-12609167D01*
X7945595Y-12599643D01*
X7917024Y-12599643D01*
X7897976Y-12609167D01*
X7888452Y-12618690D01*
X8097976Y-12732976D02*
X8078928Y-12723452D01*
X8069405Y-12713928D01*
X8059881Y-12694881D01*
X8059881Y-12637738D01*
X8069405Y-12618690D01*
X8078928Y-12609167D01*
X8097976Y-12599643D01*
X8126548Y-12599643D01*
X8145595Y-12609167D01*
X8155119Y-12618690D01*
X8164643Y-12637738D01*
X8164643Y-12694881D01*
X8155119Y-12713928D01*
X8145595Y-12723452D01*
X8126548Y-12732976D01*
X8097976Y-12732976D01*
X8278928Y-12732976D02*
X8259881Y-12723452D01*
X8250357Y-12704405D01*
X8250357Y-12532976D01*
X8431310Y-12723452D02*
X8412262Y-12732976D01*
X8374167Y-12732976D01*
X8355119Y-12723452D01*
X8345595Y-12704405D01*
X8345595Y-12628214D01*
X8355119Y-12609167D01*
X8374167Y-12599643D01*
X8412262Y-12599643D01*
X8431310Y-12609167D01*
X8440833Y-12628214D01*
X8440833Y-12647262D01*
X8345595Y-12666309D01*
X8517024Y-12723452D02*
X8536071Y-12732976D01*
X8574167Y-12732976D01*
X8593214Y-12723452D01*
X8602738Y-12704405D01*
X8602738Y-12694881D01*
X8593214Y-12675833D01*
X8574167Y-12666309D01*
X8545595Y-12666309D01*
X8526548Y-12656786D01*
X8517024Y-12637738D01*
X8517024Y-12628214D01*
X8526548Y-12609167D01*
X8545595Y-12599643D01*
X8574167Y-12599643D01*
X8593214Y-12609167D01*
X8669405Y-12809167D02*
X8678929Y-12799643D01*
X8697976Y-12771071D01*
X8707500Y-12752024D01*
X8717024Y-12723452D01*
X8726548Y-12675833D01*
X8726548Y-12637738D01*
X8717024Y-12590119D01*
X8707500Y-12561548D01*
X8697976Y-12542500D01*
X8678929Y-12513928D01*
X8669405Y-12504405D01*
X9031310Y-12809167D02*
X9021786Y-12799643D01*
X9002738Y-12771071D01*
X8993214Y-12752024D01*
X8983690Y-12723452D01*
X8974167Y-12675833D01*
X8974167Y-12637738D01*
X8983690Y-12590119D01*
X8993214Y-12561548D01*
X9002738Y-12542500D01*
X9021786Y-12513928D01*
X9031310Y-12504405D01*
X9107500Y-12599643D02*
X9107500Y-12732976D01*
X9107500Y-12618690D02*
X9117024Y-12609167D01*
X9136071Y-12599643D01*
X9164643Y-12599643D01*
X9183690Y-12609167D01*
X9193214Y-12628214D01*
X9193214Y-12732976D01*
X9317024Y-12732976D02*
X9297976Y-12723452D01*
X9288452Y-12713928D01*
X9278929Y-12694881D01*
X9278929Y-12637738D01*
X9288452Y-12618690D01*
X9297976Y-12609167D01*
X9317024Y-12599643D01*
X9345595Y-12599643D01*
X9364643Y-12609167D01*
X9374167Y-12618690D01*
X9383690Y-12637738D01*
X9383690Y-12694881D01*
X9374167Y-12713928D01*
X9364643Y-12723452D01*
X9345595Y-12732976D01*
X9317024Y-12732976D01*
X9440833Y-12599643D02*
X9517024Y-12599643D01*
X9469405Y-12532976D02*
X9469405Y-12704405D01*
X9478929Y-12723452D01*
X9497976Y-12732976D01*
X9517024Y-12732976D01*
X9736071Y-12599643D02*
X9736071Y-12799643D01*
X9736071Y-12609167D02*
X9755119Y-12599643D01*
X9793214Y-12599643D01*
X9812262Y-12609167D01*
X9821786Y-12618690D01*
X9831310Y-12637738D01*
X9831310Y-12694881D01*
X9821786Y-12713928D01*
X9812262Y-12723452D01*
X9793214Y-12732976D01*
X9755119Y-12732976D01*
X9736071Y-12723452D01*
X9945595Y-12732976D02*
X9926548Y-12723452D01*
X9917024Y-12704405D01*
X9917024Y-12532976D01*
X10107500Y-12732976D02*
X10107500Y-12628214D01*
X10097976Y-12609167D01*
X10078929Y-12599643D01*
X10040833Y-12599643D01*
X10021786Y-12609167D01*
X10107500Y-12723452D02*
X10088452Y-12732976D01*
X10040833Y-12732976D01*
X10021786Y-12723452D01*
X10012262Y-12704405D01*
X10012262Y-12685357D01*
X10021786Y-12666309D01*
X10040833Y-12656786D01*
X10088452Y-12656786D01*
X10107500Y-12647262D01*
X10174167Y-12599643D02*
X10250357Y-12599643D01*
X10202738Y-12532976D02*
X10202738Y-12704405D01*
X10212262Y-12723452D01*
X10231310Y-12732976D01*
X10250357Y-12732976D01*
X10393214Y-12723452D02*
X10374167Y-12732976D01*
X10336071Y-12732976D01*
X10317024Y-12723452D01*
X10307500Y-12704405D01*
X10307500Y-12628214D01*
X10317024Y-12609167D01*
X10336071Y-12599643D01*
X10374167Y-12599643D01*
X10393214Y-12609167D01*
X10402738Y-12628214D01*
X10402738Y-12647262D01*
X10307500Y-12666309D01*
X10574167Y-12732976D02*
X10574167Y-12532976D01*
X10574167Y-12723452D02*
X10555119Y-12732976D01*
X10517024Y-12732976D01*
X10497976Y-12723452D01*
X10488452Y-12713928D01*
X10478929Y-12694881D01*
X10478929Y-12637738D01*
X10488452Y-12618690D01*
X10497976Y-12609167D01*
X10517024Y-12599643D01*
X10555119Y-12599643D01*
X10574167Y-12609167D01*
X10650357Y-12809167D02*
X10659881Y-12799643D01*
X10678929Y-12771071D01*
X10688452Y-12752024D01*
X10697976Y-12723452D01*
X10707500Y-12675833D01*
X10707500Y-12637738D01*
X10697976Y-12590119D01*
X10688452Y-12561548D01*
X10678929Y-12542500D01*
X10659881Y-12513928D01*
X10650357Y-12504405D01*
M02*
