G04 #@! TF.GenerationSoftware,KiCad,Pcbnew,(6.0.0)*
G04 #@! TF.CreationDate,2022-07-19T14:29:55+02:00*
G04 #@! TF.ProjectId,mht-base,6e666c2d-6261-4736-952e-6b696361645f,rev?*
G04 #@! TF.SameCoordinates,Original*
G04 #@! TF.FileFunction,Soldermask,Top*
G04 #@! TF.FilePolarity,Negative*
%FSLAX46Y46*%
G04 Gerber Fmt 4.6, Leading zero omitted, Abs format (unit mm)*
G04 Created by KiCad (PCBNEW (6.0.0)) date 2022-07-19 14:29:55*
%MOMM*%
%LPD*%
G01*
G04 APERTURE LIST*
G04 Aperture macros list*
%AMRoundRect*
0 Rectangle with rounded corners*
0 $1 Rounding radius*
0 $2 $3 $4 $5 $6 $7 $8 $9 X,Y pos of 4 corners*
0 Add a 4 corners polygon primitive as box body*
4,1,4,$2,$3,$4,$5,$6,$7,$8,$9,$2,$3,0*
0 Add four circle primitives for the rounded corners*
1,1,$1+$1,$2,$3*
1,1,$1+$1,$4,$5*
1,1,$1+$1,$6,$7*
1,1,$1+$1,$8,$9*
0 Add four rect primitives between the rounded corners*
20,1,$1+$1,$2,$3,$4,$5,0*
20,1,$1+$1,$4,$5,$6,$7,0*
20,1,$1+$1,$6,$7,$8,$9,0*
20,1,$1+$1,$8,$9,$2,$3,0*%
%AMRotRect*
0 Rectangle, with rotation*
0 The origin of the aperture is its center*
0 $1 length*
0 $2 width*
0 $3 Rotation angle, in degrees counterclockwise*
0 Add horizontal line*
21,1,$1,$2,0,0,$3*%
G04 Aperture macros list end*
%ADD10RoundRect,0.250000X-0.250000X-0.475000X0.250000X-0.475000X0.250000X0.475000X-0.250000X0.475000X0*%
%ADD11R,2.100000X2.100000*%
%ADD12C,2.100000*%
%ADD13RoundRect,0.250000X-0.262500X-0.450000X0.262500X-0.450000X0.262500X0.450000X-0.262500X0.450000X0*%
%ADD14R,1.700000X1.700000*%
%ADD15O,1.700000X1.700000*%
%ADD16RoundRect,0.250000X-1.500000X-1.000000X1.500000X-1.000000X1.500000X1.000000X-1.500000X1.000000X0*%
%ADD17RoundRect,0.250000X0.250000X0.475000X-0.250000X0.475000X-0.250000X-0.475000X0.250000X-0.475000X0*%
%ADD18RoundRect,0.250000X-0.475000X0.250000X-0.475000X-0.250000X0.475000X-0.250000X0.475000X0.250000X0*%
%ADD19R,0.800000X0.300000*%
%ADD20C,3.200000*%
%ADD21R,2.500000X2.500000*%
%ADD22C,2.500000*%
%ADD23R,1.800000X1.800000*%
%ADD24C,1.800000*%
%ADD25RoundRect,0.250000X-0.925000X0.412500X-0.925000X-0.412500X0.925000X-0.412500X0.925000X0.412500X0*%
%ADD26R,1.400000X0.300000*%
%ADD27C,1.700000*%
%ADD28RoundRect,0.250000X-0.600000X0.600000X-0.600000X-0.600000X0.600000X-0.600000X0.600000X0.600000X0*%
%ADD29RoundRect,0.250000X0.425000X-0.450000X0.425000X0.450000X-0.425000X0.450000X-0.425000X-0.450000X0*%
%ADD30RoundRect,0.250000X-0.450000X0.262500X-0.450000X-0.262500X0.450000X-0.262500X0.450000X0.262500X0*%
%ADD31R,1.500000X2.000000*%
%ADD32R,3.800000X2.000000*%
%ADD33RotRect,1.600000X0.550000X45.000000*%
%ADD34RotRect,1.600000X0.550000X135.000000*%
%ADD35RoundRect,0.250000X-0.600000X-0.600000X0.600000X-0.600000X0.600000X0.600000X-0.600000X0.600000X0*%
%ADD36R,1.400000X0.400000*%
%ADD37R,1.450000X1.150000*%
%ADD38O,1.850000X1.050000*%
%ADD39R,1.900000X1.975000*%
G04 APERTURE END LIST*
D10*
X80050000Y-88000000D03*
X81950000Y-88000000D03*
D11*
X80500000Y-113000000D03*
D12*
X85500000Y-113000000D03*
X90500000Y-113000000D03*
X95500000Y-113000000D03*
D13*
X80087500Y-92000000D03*
X81912500Y-92000000D03*
D14*
X45720000Y-99060000D03*
D15*
X48260000Y-99060000D03*
X50800000Y-99060000D03*
X53340000Y-99060000D03*
X55880000Y-99060000D03*
X58420000Y-99060000D03*
X60960000Y-99060000D03*
X63500000Y-99060000D03*
D14*
X45720000Y-86360000D03*
D15*
X48260000Y-86360000D03*
X50800000Y-86360000D03*
X53340000Y-86360000D03*
X55880000Y-86360000D03*
X58420000Y-86360000D03*
X60960000Y-86360000D03*
X63500000Y-86360000D03*
D16*
X42750000Y-78000000D03*
X49250000Y-78000000D03*
D17*
X139450000Y-93500000D03*
X137550000Y-93500000D03*
D18*
X106500000Y-84600000D03*
X106500000Y-86500000D03*
D10*
X137550000Y-102500000D03*
X139450000Y-102500000D03*
D11*
X55500000Y-113000000D03*
D12*
X60500000Y-113000000D03*
X65500000Y-113000000D03*
X70500000Y-113000000D03*
D19*
X122900000Y-81050000D03*
X122900000Y-81550000D03*
X122900000Y-82050000D03*
X122900000Y-82550000D03*
X126000000Y-82550000D03*
X126000000Y-82050000D03*
X126000000Y-81550000D03*
X126000000Y-81050000D03*
D20*
X146000000Y-66000000D03*
D21*
X130500000Y-113300000D03*
D22*
X135500000Y-113300000D03*
D20*
X45000000Y-66000000D03*
D10*
X142950000Y-85150000D03*
X141050000Y-85150000D03*
D23*
X75000000Y-90000000D03*
D24*
X72460000Y-90000000D03*
D25*
X138000000Y-78462500D03*
X138000000Y-81537500D03*
D18*
X120450000Y-80850000D03*
X120450000Y-82750000D03*
D20*
X146000000Y-114000000D03*
D26*
X142200000Y-99000000D03*
X142200000Y-98500000D03*
X142200000Y-98000000D03*
X142200000Y-97500000D03*
X142200000Y-97000000D03*
X137800000Y-97000000D03*
X137800000Y-97500000D03*
X137800000Y-98000000D03*
X137800000Y-98500000D03*
X137800000Y-99000000D03*
D18*
X133000000Y-83050000D03*
X133000000Y-84950000D03*
D10*
X146100000Y-85150000D03*
X148000000Y-85150000D03*
D27*
X87880000Y-67787500D03*
X87880000Y-65247500D03*
X90420000Y-67787500D03*
X90420000Y-65247500D03*
X92960000Y-67787500D03*
X92960000Y-65247500D03*
X95500000Y-67787500D03*
X95500000Y-65247500D03*
X98040000Y-67787500D03*
X98040000Y-65247500D03*
X100580000Y-67787500D03*
X100580000Y-65247500D03*
X103120000Y-67787500D03*
D28*
X103120000Y-65247500D03*
D14*
X137105000Y-70950000D03*
D15*
X134565000Y-70950000D03*
X137105000Y-68410000D03*
X134565000Y-68410000D03*
X137105000Y-65870000D03*
X134565000Y-65870000D03*
X137105000Y-63330000D03*
X134565000Y-63330000D03*
D11*
X105500000Y-113000000D03*
D12*
X110500000Y-113000000D03*
X115500000Y-113000000D03*
X120500000Y-113000000D03*
D29*
X109500000Y-86550000D03*
X109500000Y-83850000D03*
D30*
X133000000Y-79087500D03*
X133000000Y-80912500D03*
D18*
X128450000Y-80850000D03*
X128450000Y-82750000D03*
D31*
X147300000Y-81650000D03*
X145000000Y-81650000D03*
D32*
X145000000Y-75350000D03*
D31*
X142700000Y-81650000D03*
D33*
X90514897Y-91025305D03*
X91080583Y-91590990D03*
X91646268Y-92156676D03*
X92211953Y-92722361D03*
X92777639Y-93288047D03*
X93343324Y-93853732D03*
X93909010Y-94419417D03*
X94474695Y-94985103D03*
D34*
X96525305Y-94985103D03*
X97090990Y-94419417D03*
X97656676Y-93853732D03*
X98222361Y-93288047D03*
X98788047Y-92722361D03*
X99353732Y-92156676D03*
X99919417Y-91590990D03*
X100485103Y-91025305D03*
D33*
X100485103Y-88974695D03*
X99919417Y-88409010D03*
X99353732Y-87843324D03*
X98788047Y-87277639D03*
X98222361Y-86711953D03*
X97656676Y-86146268D03*
X97090990Y-85580583D03*
X96525305Y-85014897D03*
D34*
X94474695Y-85014897D03*
X93909010Y-85580583D03*
X93343324Y-86146268D03*
X92777639Y-86711953D03*
X92211953Y-87277639D03*
X91646268Y-87843324D03*
X91080583Y-88409010D03*
X90514897Y-88974695D03*
D35*
X73247500Y-66955000D03*
D27*
X75787500Y-66955000D03*
X73247500Y-69495000D03*
X75787500Y-69495000D03*
X73247500Y-72035000D03*
X75787500Y-72035000D03*
D20*
X45000000Y-114000000D03*
D36*
X147900000Y-102300000D03*
X147900000Y-101650000D03*
X147900000Y-101000000D03*
X147900000Y-100350000D03*
X147900000Y-99700000D03*
D37*
X148320000Y-98680000D03*
D38*
X150550000Y-104575000D03*
D39*
X150550000Y-102237500D03*
D37*
X148320000Y-103320000D03*
D39*
X150550000Y-99762500D03*
D38*
X150550000Y-97425000D03*
D14*
X56200000Y-63000000D03*
D15*
X58740000Y-63000000D03*
X61280000Y-63000000D03*
X63820000Y-63000000D03*
D18*
X103500000Y-84600000D03*
X103500000Y-86500000D03*
M02*
