G04 #@! TF.GenerationSoftware,KiCad,Pcbnew,(6.0.0)*
G04 #@! TF.CreationDate,2022-07-19T14:29:55+02:00*
G04 #@! TF.ProjectId,mht-base,6e666c2d-6261-4736-952e-6b696361645f,rev?*
G04 #@! TF.SameCoordinates,Original*
G04 #@! TF.FileFunction,Legend,Top*
G04 #@! TF.FilePolarity,Positive*
%FSLAX46Y46*%
G04 Gerber Fmt 4.6, Leading zero omitted, Abs format (unit mm)*
G04 Created by KiCad (PCBNEW (6.0.0)) date 2022-07-19 14:29:55*
%MOMM*%
%LPD*%
G01*
G04 APERTURE LIST*
G04 Aperture macros list*
%AMRoundRect*
0 Rectangle with rounded corners*
0 $1 Rounding radius*
0 $2 $3 $4 $5 $6 $7 $8 $9 X,Y pos of 4 corners*
0 Add a 4 corners polygon primitive as box body*
4,1,4,$2,$3,$4,$5,$6,$7,$8,$9,$2,$3,0*
0 Add four circle primitives for the rounded corners*
1,1,$1+$1,$2,$3*
1,1,$1+$1,$4,$5*
1,1,$1+$1,$6,$7*
1,1,$1+$1,$8,$9*
0 Add four rect primitives between the rounded corners*
20,1,$1+$1,$2,$3,$4,$5,0*
20,1,$1+$1,$4,$5,$6,$7,0*
20,1,$1+$1,$6,$7,$8,$9,0*
20,1,$1+$1,$8,$9,$2,$3,0*%
%AMRotRect*
0 Rectangle, with rotation*
0 The origin of the aperture is its center*
0 $1 length*
0 $2 width*
0 $3 Rotation angle, in degrees counterclockwise*
0 Add horizontal line*
21,1,$1,$2,0,0,$3*%
G04 Aperture macros list end*
%ADD10C,0.120000*%
%ADD11C,0.375000*%
%ADD12C,0.250000*%
%ADD13C,0.200000*%
%ADD14C,0.150000*%
%ADD15RoundRect,0.250000X-0.250000X-0.475000X0.250000X-0.475000X0.250000X0.475000X-0.250000X0.475000X0*%
%ADD16R,2.100000X2.100000*%
%ADD17C,2.100000*%
%ADD18RoundRect,0.250000X-0.262500X-0.450000X0.262500X-0.450000X0.262500X0.450000X-0.262500X0.450000X0*%
%ADD19R,1.700000X1.700000*%
%ADD20O,1.700000X1.700000*%
%ADD21RoundRect,0.250000X-1.500000X-1.000000X1.500000X-1.000000X1.500000X1.000000X-1.500000X1.000000X0*%
%ADD22RoundRect,0.250000X0.250000X0.475000X-0.250000X0.475000X-0.250000X-0.475000X0.250000X-0.475000X0*%
%ADD23RoundRect,0.250000X-0.475000X0.250000X-0.475000X-0.250000X0.475000X-0.250000X0.475000X0.250000X0*%
%ADD24R,0.800000X0.300000*%
%ADD25C,3.200000*%
%ADD26R,2.500000X2.500000*%
%ADD27C,2.500000*%
%ADD28R,1.800000X1.800000*%
%ADD29C,1.800000*%
%ADD30RoundRect,0.250000X-0.925000X0.412500X-0.925000X-0.412500X0.925000X-0.412500X0.925000X0.412500X0*%
%ADD31R,1.400000X0.300000*%
%ADD32C,1.700000*%
%ADD33RoundRect,0.250000X-0.600000X0.600000X-0.600000X-0.600000X0.600000X-0.600000X0.600000X0.600000X0*%
%ADD34RoundRect,0.250000X0.425000X-0.450000X0.425000X0.450000X-0.425000X0.450000X-0.425000X-0.450000X0*%
%ADD35RoundRect,0.250000X-0.450000X0.262500X-0.450000X-0.262500X0.450000X-0.262500X0.450000X0.262500X0*%
%ADD36R,1.500000X2.000000*%
%ADD37R,3.800000X2.000000*%
%ADD38RotRect,1.600000X0.550000X45.000000*%
%ADD39RotRect,1.600000X0.550000X135.000000*%
%ADD40RoundRect,0.250000X-0.600000X-0.600000X0.600000X-0.600000X0.600000X0.600000X-0.600000X0.600000X0*%
%ADD41R,1.400000X0.400000*%
%ADD42R,1.450000X1.150000*%
%ADD43O,1.850000X1.050000*%
%ADD44R,1.900000X1.975000*%
G04 APERTURE END LIST*
D10*
X113565000Y-62000000D02*
X113565000Y-72280000D01*
X132500000Y-62000000D02*
X113565000Y-62000000D01*
X132500000Y-72280000D02*
X113565000Y-72280000D01*
D11*
X106362142Y-107250000D02*
X106433571Y-107035714D01*
X106433571Y-106678571D01*
X106362142Y-106535714D01*
X106290714Y-106464285D01*
X106147857Y-106392857D01*
X106005000Y-106392857D01*
X105862142Y-106464285D01*
X105790714Y-106535714D01*
X105719285Y-106678571D01*
X105647857Y-106964285D01*
X105576428Y-107107142D01*
X105505000Y-107178571D01*
X105362142Y-107250000D01*
X105219285Y-107250000D01*
X105076428Y-107178571D01*
X105005000Y-107107142D01*
X104933571Y-106964285D01*
X104933571Y-106607142D01*
X105005000Y-106392857D01*
X106433571Y-105750000D02*
X104933571Y-105750000D01*
X105005000Y-104250000D02*
X104933571Y-104392857D01*
X104933571Y-104607142D01*
X105005000Y-104821428D01*
X105147857Y-104964285D01*
X105290714Y-105035714D01*
X105576428Y-105107142D01*
X105790714Y-105107142D01*
X106076428Y-105035714D01*
X106219285Y-104964285D01*
X106362142Y-104821428D01*
X106433571Y-104607142D01*
X106433571Y-104464285D01*
X106362142Y-104250000D01*
X106290714Y-104178571D01*
X105790714Y-104178571D01*
X105790714Y-104464285D01*
X106433571Y-102750000D02*
X106433571Y-103607142D01*
X106433571Y-103178571D02*
X104933571Y-103178571D01*
X105147857Y-103321428D01*
X105290714Y-103464285D01*
X105362142Y-103607142D01*
X111192142Y-107250000D02*
X111263571Y-107035714D01*
X111263571Y-106678571D01*
X111192142Y-106535714D01*
X111120714Y-106464285D01*
X110977857Y-106392857D01*
X110835000Y-106392857D01*
X110692142Y-106464285D01*
X110620714Y-106535714D01*
X110549285Y-106678571D01*
X110477857Y-106964285D01*
X110406428Y-107107142D01*
X110335000Y-107178571D01*
X110192142Y-107250000D01*
X110049285Y-107250000D01*
X109906428Y-107178571D01*
X109835000Y-107107142D01*
X109763571Y-106964285D01*
X109763571Y-106607142D01*
X109835000Y-106392857D01*
X111263571Y-105750000D02*
X109763571Y-105750000D01*
X109835000Y-104250000D02*
X109763571Y-104392857D01*
X109763571Y-104607142D01*
X109835000Y-104821428D01*
X109977857Y-104964285D01*
X110120714Y-105035714D01*
X110406428Y-105107142D01*
X110620714Y-105107142D01*
X110906428Y-105035714D01*
X111049285Y-104964285D01*
X111192142Y-104821428D01*
X111263571Y-104607142D01*
X111263571Y-104464285D01*
X111192142Y-104250000D01*
X111120714Y-104178571D01*
X110620714Y-104178571D01*
X110620714Y-104464285D01*
X109906428Y-103607142D02*
X109835000Y-103535714D01*
X109763571Y-103392857D01*
X109763571Y-103035714D01*
X109835000Y-102892857D01*
X109906428Y-102821428D01*
X110049285Y-102750000D01*
X110192142Y-102750000D01*
X110406428Y-102821428D01*
X111263571Y-103678571D01*
X111263571Y-102750000D01*
X115522142Y-106928571D02*
X115522142Y-105785714D01*
X116093571Y-106357142D02*
X114950714Y-106357142D01*
X114593571Y-104357142D02*
X114593571Y-105071428D01*
X115307857Y-105142857D01*
X115236428Y-105071428D01*
X115165000Y-104928571D01*
X115165000Y-104571428D01*
X115236428Y-104428571D01*
X115307857Y-104357142D01*
X115450714Y-104285714D01*
X115807857Y-104285714D01*
X115950714Y-104357142D01*
X116022142Y-104428571D01*
X116093571Y-104571428D01*
X116093571Y-104928571D01*
X116022142Y-105071428D01*
X115950714Y-105142857D01*
X114593571Y-103857142D02*
X116093571Y-103357142D01*
X114593571Y-102857142D01*
X119495000Y-106142857D02*
X119423571Y-106285714D01*
X119423571Y-106500000D01*
X119495000Y-106714285D01*
X119637857Y-106857142D01*
X119780714Y-106928571D01*
X120066428Y-107000000D01*
X120280714Y-107000000D01*
X120566428Y-106928571D01*
X120709285Y-106857142D01*
X120852142Y-106714285D01*
X120923571Y-106500000D01*
X120923571Y-106357142D01*
X120852142Y-106142857D01*
X120780714Y-106071428D01*
X120280714Y-106071428D01*
X120280714Y-106357142D01*
X120923571Y-105428571D02*
X119423571Y-105428571D01*
X120923571Y-104571428D01*
X119423571Y-104571428D01*
X120923571Y-103857142D02*
X119423571Y-103857142D01*
X119423571Y-103500000D01*
X119495000Y-103285714D01*
X119637857Y-103142857D01*
X119780714Y-103071428D01*
X120066428Y-103000000D01*
X120280714Y-103000000D01*
X120566428Y-103071428D01*
X120709285Y-103142857D01*
X120852142Y-103285714D01*
X120923571Y-103500000D01*
X120923571Y-103857142D01*
D12*
X148885119Y-118452380D02*
X148885119Y-117452380D01*
X148980357Y-118071428D02*
X149266071Y-118452380D01*
X149266071Y-117785714D02*
X148885119Y-118166666D01*
X149694642Y-118452380D02*
X149694642Y-117785714D01*
X149694642Y-117452380D02*
X149647023Y-117500000D01*
X149694642Y-117547619D01*
X149742261Y-117500000D01*
X149694642Y-117452380D01*
X149694642Y-117547619D01*
X150599404Y-117785714D02*
X150599404Y-118452380D01*
X150170833Y-117785714D02*
X150170833Y-118309523D01*
X150218452Y-118404761D01*
X150313690Y-118452380D01*
X150456547Y-118452380D01*
X150551785Y-118404761D01*
X150599404Y-118357142D01*
X103900595Y-97952380D02*
X103900595Y-97285714D01*
X103900595Y-97380952D02*
X103948214Y-97333333D01*
X104043452Y-97285714D01*
X104186309Y-97285714D01*
X104281547Y-97333333D01*
X104329166Y-97428571D01*
X104329166Y-97952380D01*
X104329166Y-97428571D02*
X104376785Y-97333333D01*
X104472023Y-97285714D01*
X104614880Y-97285714D01*
X104710119Y-97333333D01*
X104757738Y-97428571D01*
X104757738Y-97952380D01*
X105233928Y-97952380D02*
X105233928Y-96952380D01*
X105662500Y-97952380D02*
X105662500Y-97428571D01*
X105614880Y-97333333D01*
X105519642Y-97285714D01*
X105376785Y-97285714D01*
X105281547Y-97333333D01*
X105233928Y-97380952D01*
X105995833Y-97285714D02*
X106376785Y-97285714D01*
X106138690Y-96952380D02*
X106138690Y-97809523D01*
X106186309Y-97904761D01*
X106281547Y-97952380D01*
X106376785Y-97952380D01*
X106710119Y-97571428D02*
X107472023Y-97571428D01*
X107948214Y-97952380D02*
X107948214Y-96952380D01*
X107948214Y-97333333D02*
X108043452Y-97285714D01*
X108233928Y-97285714D01*
X108329166Y-97333333D01*
X108376785Y-97380952D01*
X108424404Y-97476190D01*
X108424404Y-97761904D01*
X108376785Y-97857142D01*
X108329166Y-97904761D01*
X108233928Y-97952380D01*
X108043452Y-97952380D01*
X107948214Y-97904761D01*
X109281547Y-97952380D02*
X109281547Y-97428571D01*
X109233928Y-97333333D01*
X109138690Y-97285714D01*
X108948214Y-97285714D01*
X108852976Y-97333333D01*
X109281547Y-97904761D02*
X109186309Y-97952380D01*
X108948214Y-97952380D01*
X108852976Y-97904761D01*
X108805357Y-97809523D01*
X108805357Y-97714285D01*
X108852976Y-97619047D01*
X108948214Y-97571428D01*
X109186309Y-97571428D01*
X109281547Y-97523809D01*
X109710119Y-97904761D02*
X109805357Y-97952380D01*
X109995833Y-97952380D01*
X110091071Y-97904761D01*
X110138690Y-97809523D01*
X110138690Y-97761904D01*
X110091071Y-97666666D01*
X109995833Y-97619047D01*
X109852976Y-97619047D01*
X109757738Y-97571428D01*
X109710119Y-97476190D01*
X109710119Y-97428571D01*
X109757738Y-97333333D01*
X109852976Y-97285714D01*
X109995833Y-97285714D01*
X110091071Y-97333333D01*
X110948214Y-97904761D02*
X110852976Y-97952380D01*
X110662500Y-97952380D01*
X110567261Y-97904761D01*
X110519642Y-97809523D01*
X110519642Y-97428571D01*
X110567261Y-97333333D01*
X110662500Y-97285714D01*
X110852976Y-97285714D01*
X110948214Y-97333333D01*
X110995833Y-97428571D01*
X110995833Y-97523809D01*
X110519642Y-97619047D01*
X112757738Y-97952380D02*
X112424404Y-97476190D01*
X112186309Y-97952380D02*
X112186309Y-96952380D01*
X112567261Y-96952380D01*
X112662500Y-97000000D01*
X112710119Y-97047619D01*
X112757738Y-97142857D01*
X112757738Y-97285714D01*
X112710119Y-97380952D01*
X112662500Y-97428571D01*
X112567261Y-97476190D01*
X112186309Y-97476190D01*
X113186309Y-97428571D02*
X113519642Y-97428571D01*
X113662500Y-97952380D02*
X113186309Y-97952380D01*
X113186309Y-96952380D01*
X113662500Y-96952380D01*
X113948214Y-96952380D02*
X114281547Y-97952380D01*
X114614880Y-96952380D01*
X115662500Y-97666666D02*
X116138690Y-97666666D01*
X115567261Y-97952380D02*
X115900595Y-96952380D01*
X116233928Y-97952380D01*
X103900595Y-99952380D02*
X103900595Y-98952380D01*
X104329166Y-99952380D02*
X104329166Y-99428571D01*
X104281547Y-99333333D01*
X104186309Y-99285714D01*
X104043452Y-99285714D01*
X103948214Y-99333333D01*
X103900595Y-99380952D01*
X104662500Y-99285714D02*
X105043452Y-99285714D01*
X104805357Y-98952380D02*
X104805357Y-99809523D01*
X104852976Y-99904761D01*
X104948214Y-99952380D01*
X105043452Y-99952380D01*
X105233928Y-99285714D02*
X105614880Y-99285714D01*
X105376785Y-98952380D02*
X105376785Y-99809523D01*
X105424404Y-99904761D01*
X105519642Y-99952380D01*
X105614880Y-99952380D01*
X105948214Y-99285714D02*
X105948214Y-100285714D01*
X105948214Y-99333333D02*
X106043452Y-99285714D01*
X106233928Y-99285714D01*
X106329166Y-99333333D01*
X106376785Y-99380952D01*
X106424404Y-99476190D01*
X106424404Y-99761904D01*
X106376785Y-99857142D01*
X106329166Y-99904761D01*
X106233928Y-99952380D01*
X106043452Y-99952380D01*
X105948214Y-99904761D01*
X106805357Y-99904761D02*
X106900595Y-99952380D01*
X107091071Y-99952380D01*
X107186309Y-99904761D01*
X107233928Y-99809523D01*
X107233928Y-99761904D01*
X107186309Y-99666666D01*
X107091071Y-99619047D01*
X106948214Y-99619047D01*
X106852976Y-99571428D01*
X106805357Y-99476190D01*
X106805357Y-99428571D01*
X106852976Y-99333333D01*
X106948214Y-99285714D01*
X107091071Y-99285714D01*
X107186309Y-99333333D01*
X107662500Y-99857142D02*
X107710119Y-99904761D01*
X107662500Y-99952380D01*
X107614880Y-99904761D01*
X107662500Y-99857142D01*
X107662500Y-99952380D01*
X107662500Y-99333333D02*
X107710119Y-99380952D01*
X107662500Y-99428571D01*
X107614880Y-99380952D01*
X107662500Y-99333333D01*
X107662500Y-99428571D01*
X108852976Y-98904761D02*
X107995833Y-100190476D01*
X109900595Y-98904761D02*
X109043452Y-100190476D01*
X110662500Y-99285714D02*
X110662500Y-100095238D01*
X110614880Y-100190476D01*
X110567261Y-100238095D01*
X110472023Y-100285714D01*
X110329166Y-100285714D01*
X110233928Y-100238095D01*
X110662500Y-99904761D02*
X110567261Y-99952380D01*
X110376785Y-99952380D01*
X110281547Y-99904761D01*
X110233928Y-99857142D01*
X110186309Y-99761904D01*
X110186309Y-99476190D01*
X110233928Y-99380952D01*
X110281547Y-99333333D01*
X110376785Y-99285714D01*
X110567261Y-99285714D01*
X110662500Y-99333333D01*
X111138690Y-99952380D02*
X111138690Y-99285714D01*
X111138690Y-98952380D02*
X111091071Y-99000000D01*
X111138690Y-99047619D01*
X111186309Y-99000000D01*
X111138690Y-98952380D01*
X111138690Y-99047619D01*
X111472023Y-99285714D02*
X111852976Y-99285714D01*
X111614880Y-98952380D02*
X111614880Y-99809523D01*
X111662500Y-99904761D01*
X111757738Y-99952380D01*
X111852976Y-99952380D01*
X112186309Y-99952380D02*
X112186309Y-98952380D01*
X112614880Y-99952380D02*
X112614880Y-99428571D01*
X112567261Y-99333333D01*
X112472023Y-99285714D01*
X112329166Y-99285714D01*
X112233928Y-99333333D01*
X112186309Y-99380952D01*
X113519642Y-99285714D02*
X113519642Y-99952380D01*
X113091071Y-99285714D02*
X113091071Y-99809523D01*
X113138690Y-99904761D01*
X113233928Y-99952380D01*
X113376785Y-99952380D01*
X113472023Y-99904761D01*
X113519642Y-99857142D01*
X113995833Y-99952380D02*
X113995833Y-98952380D01*
X113995833Y-99333333D02*
X114091071Y-99285714D01*
X114281547Y-99285714D01*
X114376785Y-99333333D01*
X114424404Y-99380952D01*
X114472023Y-99476190D01*
X114472023Y-99761904D01*
X114424404Y-99857142D01*
X114376785Y-99904761D01*
X114281547Y-99952380D01*
X114091071Y-99952380D01*
X113995833Y-99904761D01*
X114900595Y-99857142D02*
X114948214Y-99904761D01*
X114900595Y-99952380D01*
X114852976Y-99904761D01*
X114900595Y-99857142D01*
X114900595Y-99952380D01*
X115805357Y-99904761D02*
X115710119Y-99952380D01*
X115519642Y-99952380D01*
X115424404Y-99904761D01*
X115376785Y-99857142D01*
X115329166Y-99761904D01*
X115329166Y-99476190D01*
X115376785Y-99380952D01*
X115424404Y-99333333D01*
X115519642Y-99285714D01*
X115710119Y-99285714D01*
X115805357Y-99333333D01*
X116376785Y-99952380D02*
X116281547Y-99904761D01*
X116233928Y-99857142D01*
X116186309Y-99761904D01*
X116186309Y-99476190D01*
X116233928Y-99380952D01*
X116281547Y-99333333D01*
X116376785Y-99285714D01*
X116519642Y-99285714D01*
X116614880Y-99333333D01*
X116662500Y-99380952D01*
X116710119Y-99476190D01*
X116710119Y-99761904D01*
X116662500Y-99857142D01*
X116614880Y-99904761D01*
X116519642Y-99952380D01*
X116376785Y-99952380D01*
X117138690Y-99952380D02*
X117138690Y-99285714D01*
X117138690Y-99380952D02*
X117186309Y-99333333D01*
X117281547Y-99285714D01*
X117424404Y-99285714D01*
X117519642Y-99333333D01*
X117567261Y-99428571D01*
X117567261Y-99952380D01*
X117567261Y-99428571D02*
X117614880Y-99333333D01*
X117710119Y-99285714D01*
X117852976Y-99285714D01*
X117948214Y-99333333D01*
X117995833Y-99428571D01*
X117995833Y-99952380D01*
X119186309Y-98904761D02*
X118329166Y-100190476D01*
X119519642Y-99952380D02*
X119519642Y-98952380D01*
X119614880Y-99571428D02*
X119900595Y-99952380D01*
X119900595Y-99285714D02*
X119519642Y-99666666D01*
X120329166Y-99952380D02*
X120329166Y-99285714D01*
X120329166Y-98952380D02*
X120281547Y-99000000D01*
X120329166Y-99047619D01*
X120376785Y-99000000D01*
X120329166Y-98952380D01*
X120329166Y-99047619D01*
X121233928Y-99285714D02*
X121233928Y-99952380D01*
X120805357Y-99285714D02*
X120805357Y-99809523D01*
X120852976Y-99904761D01*
X120948214Y-99952380D01*
X121091071Y-99952380D01*
X121186309Y-99904761D01*
X121233928Y-99857142D01*
X122424404Y-98904761D02*
X121567261Y-100190476D01*
X122757738Y-99952380D02*
X122757738Y-98952380D01*
X123091071Y-99666666D01*
X123424404Y-98952380D01*
X123424404Y-99952380D01*
X123900595Y-99952380D02*
X123900595Y-99285714D01*
X123900595Y-98952380D02*
X123852976Y-99000000D01*
X123900595Y-99047619D01*
X123948214Y-99000000D01*
X123900595Y-98952380D01*
X123900595Y-99047619D01*
X124376785Y-99285714D02*
X124376785Y-99952380D01*
X124376785Y-99380952D02*
X124424404Y-99333333D01*
X124519642Y-99285714D01*
X124662500Y-99285714D01*
X124757738Y-99333333D01*
X124805357Y-99428571D01*
X124805357Y-99952380D01*
X125281547Y-99952380D02*
X125281547Y-99285714D01*
X125281547Y-98952380D02*
X125233928Y-99000000D01*
X125281547Y-99047619D01*
X125329166Y-99000000D01*
X125281547Y-98952380D01*
X125281547Y-99047619D01*
X125757738Y-99952380D02*
X125757738Y-98952380D01*
X125757738Y-99428571D02*
X126329166Y-99428571D01*
X126329166Y-99952380D02*
X126329166Y-98952380D01*
X127186309Y-99904761D02*
X127091071Y-99952380D01*
X126900595Y-99952380D01*
X126805357Y-99904761D01*
X126757738Y-99809523D01*
X126757738Y-99428571D01*
X126805357Y-99333333D01*
X126900595Y-99285714D01*
X127091071Y-99285714D01*
X127186309Y-99333333D01*
X127233928Y-99428571D01*
X127233928Y-99523809D01*
X126757738Y-99619047D01*
X127805357Y-99952380D02*
X127710119Y-99904761D01*
X127662500Y-99809523D01*
X127662500Y-98952380D01*
X128186309Y-99952380D02*
X128186309Y-99285714D01*
X128186309Y-99380952D02*
X128233928Y-99333333D01*
X128329166Y-99285714D01*
X128472023Y-99285714D01*
X128567261Y-99333333D01*
X128614880Y-99428571D01*
X128614880Y-99952380D01*
X128614880Y-99428571D02*
X128662500Y-99333333D01*
X128757738Y-99285714D01*
X128900595Y-99285714D01*
X128995833Y-99333333D01*
X129043452Y-99428571D01*
X129043452Y-99952380D01*
X129900595Y-99904761D02*
X129805357Y-99952380D01*
X129614880Y-99952380D01*
X129519642Y-99904761D01*
X129472023Y-99809523D01*
X129472023Y-99428571D01*
X129519642Y-99333333D01*
X129614880Y-99285714D01*
X129805357Y-99285714D01*
X129900595Y-99333333D01*
X129948214Y-99428571D01*
X129948214Y-99523809D01*
X129472023Y-99619047D01*
X130233928Y-99285714D02*
X130614880Y-99285714D01*
X130376785Y-98952380D02*
X130376785Y-99809523D01*
X130424404Y-99904761D01*
X130519642Y-99952380D01*
X130614880Y-99952380D01*
X130805357Y-98952380D02*
X131376785Y-98952380D01*
X131091071Y-99952380D02*
X131091071Y-98952380D01*
X131710119Y-99952380D02*
X131710119Y-99285714D01*
X131710119Y-99476190D02*
X131757738Y-99380952D01*
X131805357Y-99333333D01*
X131900595Y-99285714D01*
X131995833Y-99285714D01*
X132757738Y-99952380D02*
X132757738Y-99428571D01*
X132710119Y-99333333D01*
X132614880Y-99285714D01*
X132424404Y-99285714D01*
X132329166Y-99333333D01*
X132757738Y-99904761D02*
X132662500Y-99952380D01*
X132424404Y-99952380D01*
X132329166Y-99904761D01*
X132281547Y-99809523D01*
X132281547Y-99714285D01*
X132329166Y-99619047D01*
X132424404Y-99571428D01*
X132662500Y-99571428D01*
X132757738Y-99523809D01*
X133662500Y-99904761D02*
X133567261Y-99952380D01*
X133376785Y-99952380D01*
X133281547Y-99904761D01*
X133233928Y-99857142D01*
X133186309Y-99761904D01*
X133186309Y-99476190D01*
X133233928Y-99380952D01*
X133281547Y-99333333D01*
X133376785Y-99285714D01*
X133567261Y-99285714D01*
X133662500Y-99333333D01*
X134091071Y-99952380D02*
X134091071Y-98952380D01*
X134186309Y-99571428D02*
X134472023Y-99952380D01*
X134472023Y-99285714D02*
X134091071Y-99666666D01*
X135281547Y-99904761D02*
X135186309Y-99952380D01*
X134995833Y-99952380D01*
X134900595Y-99904761D01*
X134852976Y-99809523D01*
X134852976Y-99428571D01*
X134900595Y-99333333D01*
X134995833Y-99285714D01*
X135186309Y-99285714D01*
X135281547Y-99333333D01*
X135329166Y-99428571D01*
X135329166Y-99523809D01*
X134852976Y-99619047D01*
X135757738Y-99952380D02*
X135757738Y-99285714D01*
X135757738Y-99476190D02*
X135805357Y-99380952D01*
X135852976Y-99333333D01*
X135948214Y-99285714D01*
X136043452Y-99285714D01*
D13*
X80864285Y-75073904D02*
X80864285Y-74273904D01*
X81054761Y-74273904D01*
X81169047Y-74312000D01*
X81245238Y-74388190D01*
X81283333Y-74464380D01*
X81321428Y-74616761D01*
X81321428Y-74731047D01*
X81283333Y-74883428D01*
X81245238Y-74959619D01*
X81169047Y-75035809D01*
X81054761Y-75073904D01*
X80864285Y-75073904D01*
X81626190Y-74845333D02*
X82007142Y-74845333D01*
X81550000Y-75073904D02*
X81816666Y-74273904D01*
X82083333Y-75073904D01*
X82235714Y-74273904D02*
X82692857Y-74273904D01*
X82464285Y-75073904D02*
X82464285Y-74273904D01*
X83950000Y-74273904D02*
X83569047Y-74273904D01*
X83530952Y-74654857D01*
X83569047Y-74616761D01*
X83645238Y-74578666D01*
X83835714Y-74578666D01*
X83911904Y-74616761D01*
X83950000Y-74654857D01*
X83988095Y-74731047D01*
X83988095Y-74921523D01*
X83950000Y-74997714D01*
X83911904Y-75035809D01*
X83835714Y-75073904D01*
X83645238Y-75073904D01*
X83569047Y-75035809D01*
X83530952Y-74997714D01*
X84216666Y-74273904D02*
X84483333Y-75073904D01*
X84750000Y-74273904D01*
X80997619Y-76361904D02*
X80997619Y-75561904D01*
X81454761Y-76361904D01*
X81454761Y-75561904D01*
X82292857Y-76285714D02*
X82254761Y-76323809D01*
X82140476Y-76361904D01*
X82064285Y-76361904D01*
X81950000Y-76323809D01*
X81873809Y-76247619D01*
X81835714Y-76171428D01*
X81797619Y-76019047D01*
X81797619Y-75904761D01*
X81835714Y-75752380D01*
X81873809Y-75676190D01*
X81950000Y-75600000D01*
X82064285Y-75561904D01*
X82140476Y-75561904D01*
X82254761Y-75600000D01*
X82292857Y-75638095D01*
X83245238Y-76361904D02*
X83245238Y-75561904D01*
X83702380Y-76361904D01*
X83702380Y-75561904D01*
X84540476Y-76285714D02*
X84502380Y-76323809D01*
X84388095Y-76361904D01*
X84311904Y-76361904D01*
X84197619Y-76323809D01*
X84121428Y-76247619D01*
X84083333Y-76171428D01*
X84045238Y-76019047D01*
X84045238Y-75904761D01*
X84083333Y-75752380D01*
X84121428Y-75676190D01*
X84197619Y-75600000D01*
X84311904Y-75561904D01*
X84388095Y-75561904D01*
X84502380Y-75600000D01*
X84540476Y-75638095D01*
X80597619Y-77649904D02*
X80597619Y-76849904D01*
X81054761Y-77649904D01*
X81054761Y-76849904D01*
X81892857Y-77573714D02*
X81854761Y-77611809D01*
X81740476Y-77649904D01*
X81664285Y-77649904D01*
X81550000Y-77611809D01*
X81473809Y-77535619D01*
X81435714Y-77459428D01*
X81397619Y-77307047D01*
X81397619Y-77192761D01*
X81435714Y-77040380D01*
X81473809Y-76964190D01*
X81550000Y-76888000D01*
X81664285Y-76849904D01*
X81740476Y-76849904D01*
X81854761Y-76888000D01*
X81892857Y-76926095D01*
X83264285Y-76888000D02*
X83188095Y-76849904D01*
X83073809Y-76849904D01*
X82959523Y-76888000D01*
X82883333Y-76964190D01*
X82845238Y-77040380D01*
X82807142Y-77192761D01*
X82807142Y-77307047D01*
X82845238Y-77459428D01*
X82883333Y-77535619D01*
X82959523Y-77611809D01*
X83073809Y-77649904D01*
X83150000Y-77649904D01*
X83264285Y-77611809D01*
X83302380Y-77573714D01*
X83302380Y-77307047D01*
X83150000Y-77307047D01*
X83645238Y-77649904D02*
X83645238Y-76849904D01*
X84102380Y-77649904D01*
X84102380Y-76849904D01*
X84483333Y-77649904D02*
X84483333Y-76849904D01*
X84673809Y-76849904D01*
X84788095Y-76888000D01*
X84864285Y-76964190D01*
X84902380Y-77040380D01*
X84940476Y-77192761D01*
X84940476Y-77307047D01*
X84902380Y-77459428D01*
X84864285Y-77535619D01*
X84788095Y-77611809D01*
X84673809Y-77649904D01*
X84483333Y-77649904D01*
X45676857Y-95840476D02*
X45676857Y-95573809D01*
X46095904Y-95459523D02*
X46095904Y-95840476D01*
X45295904Y-95840476D01*
X45295904Y-95459523D01*
X46095904Y-95116666D02*
X45295904Y-95116666D01*
X46095904Y-94659523D01*
X45295904Y-94659523D01*
X48367142Y-96278571D02*
X48367142Y-95669047D01*
X48671904Y-95973809D02*
X48062380Y-95973809D01*
X47871904Y-94907142D02*
X47871904Y-95288095D01*
X48252857Y-95326190D01*
X48214761Y-95288095D01*
X48176666Y-95211904D01*
X48176666Y-95021428D01*
X48214761Y-94945238D01*
X48252857Y-94907142D01*
X48329047Y-94869047D01*
X48519523Y-94869047D01*
X48595714Y-94907142D01*
X48633809Y-94945238D01*
X48671904Y-95021428D01*
X48671904Y-95211904D01*
X48633809Y-95288095D01*
X48595714Y-95326190D01*
X47871904Y-94640476D02*
X48671904Y-94373809D01*
X47871904Y-94107142D01*
X50943142Y-96278571D02*
X50943142Y-95669047D01*
X51247904Y-95973809D02*
X50638380Y-95973809D01*
X50447904Y-94907142D02*
X50447904Y-95288095D01*
X50828857Y-95326190D01*
X50790761Y-95288095D01*
X50752666Y-95211904D01*
X50752666Y-95021428D01*
X50790761Y-94945238D01*
X50828857Y-94907142D01*
X50905047Y-94869047D01*
X51095523Y-94869047D01*
X51171714Y-94907142D01*
X51209809Y-94945238D01*
X51247904Y-95021428D01*
X51247904Y-95211904D01*
X51209809Y-95288095D01*
X51171714Y-95326190D01*
X50447904Y-94640476D02*
X51247904Y-94373809D01*
X50447904Y-94107142D01*
X53823904Y-95878571D02*
X53023904Y-95878571D01*
X53823904Y-95421428D01*
X53023904Y-95421428D01*
X53747714Y-94583333D02*
X53785809Y-94621428D01*
X53823904Y-94735714D01*
X53823904Y-94811904D01*
X53785809Y-94926190D01*
X53709619Y-95002380D01*
X53633428Y-95040476D01*
X53481047Y-95078571D01*
X53366761Y-95078571D01*
X53214380Y-95040476D01*
X53138190Y-95002380D01*
X53062000Y-94926190D01*
X53023904Y-94811904D01*
X53023904Y-94735714D01*
X53062000Y-94621428D01*
X53100095Y-94583333D01*
X56399904Y-95878571D02*
X55599904Y-95878571D01*
X56399904Y-95421428D01*
X55599904Y-95421428D01*
X56323714Y-94583333D02*
X56361809Y-94621428D01*
X56399904Y-94735714D01*
X56399904Y-94811904D01*
X56361809Y-94926190D01*
X56285619Y-95002380D01*
X56209428Y-95040476D01*
X56057047Y-95078571D01*
X55942761Y-95078571D01*
X55790380Y-95040476D01*
X55714190Y-95002380D01*
X55638000Y-94926190D01*
X55599904Y-94811904D01*
X55599904Y-94735714D01*
X55638000Y-94621428D01*
X55676095Y-94583333D01*
X58975904Y-95878571D02*
X58175904Y-95878571D01*
X58975904Y-95421428D01*
X58175904Y-95421428D01*
X58899714Y-94583333D02*
X58937809Y-94621428D01*
X58975904Y-94735714D01*
X58975904Y-94811904D01*
X58937809Y-94926190D01*
X58861619Y-95002380D01*
X58785428Y-95040476D01*
X58633047Y-95078571D01*
X58518761Y-95078571D01*
X58366380Y-95040476D01*
X58290190Y-95002380D01*
X58214000Y-94926190D01*
X58175904Y-94811904D01*
X58175904Y-94735714D01*
X58214000Y-94621428D01*
X58252095Y-94583333D01*
X61513809Y-96545238D02*
X61551904Y-96430952D01*
X61551904Y-96240476D01*
X61513809Y-96164285D01*
X61475714Y-96126190D01*
X61399523Y-96088095D01*
X61323333Y-96088095D01*
X61247142Y-96126190D01*
X61209047Y-96164285D01*
X61170952Y-96240476D01*
X61132857Y-96392857D01*
X61094761Y-96469047D01*
X61056666Y-96507142D01*
X60980476Y-96545238D01*
X60904285Y-96545238D01*
X60828095Y-96507142D01*
X60790000Y-96469047D01*
X60751904Y-96392857D01*
X60751904Y-96202380D01*
X60790000Y-96088095D01*
X60751904Y-95859523D02*
X60751904Y-95402380D01*
X61551904Y-95630952D02*
X60751904Y-95630952D01*
X61132857Y-95135714D02*
X61132857Y-94869047D01*
X61551904Y-94754761D02*
X61551904Y-95135714D01*
X60751904Y-95135714D01*
X60751904Y-94754761D01*
X61551904Y-94411904D02*
X60751904Y-94411904D01*
X60751904Y-94107142D01*
X60790000Y-94030952D01*
X60828095Y-93992857D01*
X60904285Y-93954761D01*
X61018571Y-93954761D01*
X61094761Y-93992857D01*
X61132857Y-94030952D01*
X61170952Y-94107142D01*
X61170952Y-94411904D01*
X64127904Y-96050000D02*
X63327904Y-96050000D01*
X63327904Y-95859523D01*
X63366000Y-95745238D01*
X63442190Y-95669047D01*
X63518380Y-95630952D01*
X63670761Y-95592857D01*
X63785047Y-95592857D01*
X63937428Y-95630952D01*
X64013619Y-95669047D01*
X64089809Y-95745238D01*
X64127904Y-95859523D01*
X64127904Y-96050000D01*
X64127904Y-95250000D02*
X63327904Y-95250000D01*
X64127904Y-94411904D02*
X63746952Y-94678571D01*
X64127904Y-94869047D02*
X63327904Y-94869047D01*
X63327904Y-94564285D01*
X63366000Y-94488095D01*
X63404095Y-94450000D01*
X63480285Y-94411904D01*
X63594571Y-94411904D01*
X63670761Y-94450000D01*
X63708857Y-94488095D01*
X63746952Y-94564285D01*
X63746952Y-94869047D01*
D11*
X55862142Y-107642857D02*
X55862142Y-106500000D01*
X56433571Y-107071428D02*
X55290714Y-107071428D01*
X56433571Y-105000000D02*
X56433571Y-105857142D01*
X56433571Y-105428571D02*
X54933571Y-105428571D01*
X55147857Y-105571428D01*
X55290714Y-105714285D01*
X55362142Y-105857142D01*
X55076428Y-104428571D02*
X55005000Y-104357142D01*
X54933571Y-104214285D01*
X54933571Y-103857142D01*
X55005000Y-103714285D01*
X55076428Y-103642857D01*
X55219285Y-103571428D01*
X55362142Y-103571428D01*
X55576428Y-103642857D01*
X56433571Y-104500000D01*
X56433571Y-103571428D01*
X54933571Y-103142857D02*
X56433571Y-102642857D01*
X54933571Y-102142857D01*
X59835000Y-106142857D02*
X59763571Y-106285714D01*
X59763571Y-106500000D01*
X59835000Y-106714285D01*
X59977857Y-106857142D01*
X60120714Y-106928571D01*
X60406428Y-107000000D01*
X60620714Y-107000000D01*
X60906428Y-106928571D01*
X61049285Y-106857142D01*
X61192142Y-106714285D01*
X61263571Y-106500000D01*
X61263571Y-106357142D01*
X61192142Y-106142857D01*
X61120714Y-106071428D01*
X60620714Y-106071428D01*
X60620714Y-106357142D01*
X61263571Y-105428571D02*
X59763571Y-105428571D01*
X61263571Y-104571428D01*
X59763571Y-104571428D01*
X61263571Y-103857142D02*
X59763571Y-103857142D01*
X59763571Y-103500000D01*
X59835000Y-103285714D01*
X59977857Y-103142857D01*
X60120714Y-103071428D01*
X60406428Y-103000000D01*
X60620714Y-103000000D01*
X60906428Y-103071428D01*
X61049285Y-103142857D01*
X61192142Y-103285714D01*
X61263571Y-103500000D01*
X61263571Y-103857142D01*
X65522142Y-106928571D02*
X65522142Y-105785714D01*
X66093571Y-106357142D02*
X64950714Y-106357142D01*
X64593571Y-104357142D02*
X64593571Y-105071428D01*
X65307857Y-105142857D01*
X65236428Y-105071428D01*
X65165000Y-104928571D01*
X65165000Y-104571428D01*
X65236428Y-104428571D01*
X65307857Y-104357142D01*
X65450714Y-104285714D01*
X65807857Y-104285714D01*
X65950714Y-104357142D01*
X66022142Y-104428571D01*
X66093571Y-104571428D01*
X66093571Y-104928571D01*
X66022142Y-105071428D01*
X65950714Y-105142857D01*
X64593571Y-103857142D02*
X66093571Y-103357142D01*
X64593571Y-102857142D01*
X69495000Y-106142857D02*
X69423571Y-106285714D01*
X69423571Y-106500000D01*
X69495000Y-106714285D01*
X69637857Y-106857142D01*
X69780714Y-106928571D01*
X70066428Y-107000000D01*
X70280714Y-107000000D01*
X70566428Y-106928571D01*
X70709285Y-106857142D01*
X70852142Y-106714285D01*
X70923571Y-106500000D01*
X70923571Y-106357142D01*
X70852142Y-106142857D01*
X70780714Y-106071428D01*
X70280714Y-106071428D01*
X70280714Y-106357142D01*
X70923571Y-105428571D02*
X69423571Y-105428571D01*
X70923571Y-104571428D01*
X69423571Y-104571428D01*
X70923571Y-103857142D02*
X69423571Y-103857142D01*
X69423571Y-103500000D01*
X69495000Y-103285714D01*
X69637857Y-103142857D01*
X69780714Y-103071428D01*
X70066428Y-103000000D01*
X70280714Y-103000000D01*
X70566428Y-103071428D01*
X70709285Y-103142857D01*
X70852142Y-103285714D01*
X70923571Y-103500000D01*
X70923571Y-103857142D01*
D13*
X45791142Y-91409523D02*
X45791142Y-90800000D01*
X46095904Y-91104761D02*
X45486380Y-91104761D01*
X46095904Y-90000000D02*
X46095904Y-90457142D01*
X46095904Y-90228571D02*
X45295904Y-90228571D01*
X45410190Y-90304761D01*
X45486380Y-90380952D01*
X45524476Y-90457142D01*
X45372095Y-89695238D02*
X45334000Y-89657142D01*
X45295904Y-89580952D01*
X45295904Y-89390476D01*
X45334000Y-89314285D01*
X45372095Y-89276190D01*
X45448285Y-89238095D01*
X45524476Y-89238095D01*
X45638761Y-89276190D01*
X46095904Y-89733333D01*
X46095904Y-89238095D01*
X45295904Y-89009523D02*
X46095904Y-88742857D01*
X45295904Y-88476190D01*
X47910000Y-90609523D02*
X47871904Y-90685714D01*
X47871904Y-90800000D01*
X47910000Y-90914285D01*
X47986190Y-90990476D01*
X48062380Y-91028571D01*
X48214761Y-91066666D01*
X48329047Y-91066666D01*
X48481428Y-91028571D01*
X48557619Y-90990476D01*
X48633809Y-90914285D01*
X48671904Y-90800000D01*
X48671904Y-90723809D01*
X48633809Y-90609523D01*
X48595714Y-90571428D01*
X48329047Y-90571428D01*
X48329047Y-90723809D01*
X48671904Y-90228571D02*
X47871904Y-90228571D01*
X48671904Y-89771428D01*
X47871904Y-89771428D01*
X48671904Y-89390476D02*
X47871904Y-89390476D01*
X47871904Y-89200000D01*
X47910000Y-89085714D01*
X47986190Y-89009523D01*
X48062380Y-88971428D01*
X48214761Y-88933333D01*
X48329047Y-88933333D01*
X48481428Y-88971428D01*
X48557619Y-89009523D01*
X48633809Y-89085714D01*
X48671904Y-89200000D01*
X48671904Y-89390476D01*
X51247904Y-90990476D02*
X50447904Y-90990476D01*
X51019333Y-90723809D01*
X50447904Y-90457142D01*
X51247904Y-90457142D01*
X50447904Y-89923809D02*
X50447904Y-89771428D01*
X50486000Y-89695238D01*
X50562190Y-89619047D01*
X50714571Y-89580952D01*
X50981238Y-89580952D01*
X51133619Y-89619047D01*
X51209809Y-89695238D01*
X51247904Y-89771428D01*
X51247904Y-89923809D01*
X51209809Y-90000000D01*
X51133619Y-90076190D01*
X50981238Y-90114285D01*
X50714571Y-90114285D01*
X50562190Y-90076190D01*
X50486000Y-90000000D01*
X50447904Y-89923809D01*
X50447904Y-89352380D02*
X50447904Y-88895238D01*
X51247904Y-89123809D02*
X50447904Y-89123809D01*
X53823904Y-90990476D02*
X53023904Y-90990476D01*
X53595333Y-90723809D01*
X53023904Y-90457142D01*
X53823904Y-90457142D01*
X53023904Y-89923809D02*
X53023904Y-89771428D01*
X53062000Y-89695238D01*
X53138190Y-89619047D01*
X53290571Y-89580952D01*
X53557238Y-89580952D01*
X53709619Y-89619047D01*
X53785809Y-89695238D01*
X53823904Y-89771428D01*
X53823904Y-89923809D01*
X53785809Y-90000000D01*
X53709619Y-90076190D01*
X53557238Y-90114285D01*
X53290571Y-90114285D01*
X53138190Y-90076190D01*
X53062000Y-90000000D01*
X53023904Y-89923809D01*
X53023904Y-89352380D02*
X53023904Y-88895238D01*
X53823904Y-89123809D02*
X53023904Y-89123809D01*
X56399904Y-90990476D02*
X55599904Y-90990476D01*
X56171333Y-90723809D01*
X55599904Y-90457142D01*
X56399904Y-90457142D01*
X55599904Y-89923809D02*
X55599904Y-89771428D01*
X55638000Y-89695238D01*
X55714190Y-89619047D01*
X55866571Y-89580952D01*
X56133238Y-89580952D01*
X56285619Y-89619047D01*
X56361809Y-89695238D01*
X56399904Y-89771428D01*
X56399904Y-89923809D01*
X56361809Y-90000000D01*
X56285619Y-90076190D01*
X56133238Y-90114285D01*
X55866571Y-90114285D01*
X55714190Y-90076190D01*
X55638000Y-90000000D01*
X55599904Y-89923809D01*
X55599904Y-89352380D02*
X55599904Y-88895238D01*
X56399904Y-89123809D02*
X55599904Y-89123809D01*
X58975904Y-90990476D02*
X58175904Y-90990476D01*
X58747333Y-90723809D01*
X58175904Y-90457142D01*
X58975904Y-90457142D01*
X58175904Y-89923809D02*
X58175904Y-89771428D01*
X58214000Y-89695238D01*
X58290190Y-89619047D01*
X58442571Y-89580952D01*
X58709238Y-89580952D01*
X58861619Y-89619047D01*
X58937809Y-89695238D01*
X58975904Y-89771428D01*
X58975904Y-89923809D01*
X58937809Y-90000000D01*
X58861619Y-90076190D01*
X58709238Y-90114285D01*
X58442571Y-90114285D01*
X58290190Y-90076190D01*
X58214000Y-90000000D01*
X58175904Y-89923809D01*
X58175904Y-89352380D02*
X58175904Y-88895238D01*
X58975904Y-89123809D02*
X58175904Y-89123809D01*
X61247142Y-91028571D02*
X61247142Y-90419047D01*
X61551904Y-90723809D02*
X60942380Y-90723809D01*
X60751904Y-89657142D02*
X60751904Y-90038095D01*
X61132857Y-90076190D01*
X61094761Y-90038095D01*
X61056666Y-89961904D01*
X61056666Y-89771428D01*
X61094761Y-89695238D01*
X61132857Y-89657142D01*
X61209047Y-89619047D01*
X61399523Y-89619047D01*
X61475714Y-89657142D01*
X61513809Y-89695238D01*
X61551904Y-89771428D01*
X61551904Y-89961904D01*
X61513809Y-90038095D01*
X61475714Y-90076190D01*
X60751904Y-89390476D02*
X61551904Y-89123809D01*
X60751904Y-88857142D01*
X63366000Y-90609523D02*
X63327904Y-90685714D01*
X63327904Y-90800000D01*
X63366000Y-90914285D01*
X63442190Y-90990476D01*
X63518380Y-91028571D01*
X63670761Y-91066666D01*
X63785047Y-91066666D01*
X63937428Y-91028571D01*
X64013619Y-90990476D01*
X64089809Y-90914285D01*
X64127904Y-90800000D01*
X64127904Y-90723809D01*
X64089809Y-90609523D01*
X64051714Y-90571428D01*
X63785047Y-90571428D01*
X63785047Y-90723809D01*
X64127904Y-90228571D02*
X63327904Y-90228571D01*
X64127904Y-89771428D01*
X63327904Y-89771428D01*
X64127904Y-89390476D02*
X63327904Y-89390476D01*
X63327904Y-89200000D01*
X63366000Y-89085714D01*
X63442190Y-89009523D01*
X63518380Y-88971428D01*
X63670761Y-88933333D01*
X63785047Y-88933333D01*
X63937428Y-88971428D01*
X64013619Y-89009523D01*
X64089809Y-89085714D01*
X64127904Y-89200000D01*
X64127904Y-89390476D01*
D11*
X80862142Y-106928571D02*
X80862142Y-105785714D01*
X81433571Y-106357142D02*
X80290714Y-106357142D01*
X79933571Y-104357142D02*
X79933571Y-105071428D01*
X80647857Y-105142857D01*
X80576428Y-105071428D01*
X80505000Y-104928571D01*
X80505000Y-104571428D01*
X80576428Y-104428571D01*
X80647857Y-104357142D01*
X80790714Y-104285714D01*
X81147857Y-104285714D01*
X81290714Y-104357142D01*
X81362142Y-104428571D01*
X81433571Y-104571428D01*
X81433571Y-104928571D01*
X81362142Y-105071428D01*
X81290714Y-105142857D01*
X79933571Y-103857142D02*
X81433571Y-103357142D01*
X79933571Y-102857142D01*
X86192142Y-106928571D02*
X86263571Y-106714285D01*
X86263571Y-106357142D01*
X86192142Y-106214285D01*
X86120714Y-106142857D01*
X85977857Y-106071428D01*
X85835000Y-106071428D01*
X85692142Y-106142857D01*
X85620714Y-106214285D01*
X85549285Y-106357142D01*
X85477857Y-106642857D01*
X85406428Y-106785714D01*
X85335000Y-106857142D01*
X85192142Y-106928571D01*
X85049285Y-106928571D01*
X84906428Y-106857142D01*
X84835000Y-106785714D01*
X84763571Y-106642857D01*
X84763571Y-106285714D01*
X84835000Y-106071428D01*
X86120714Y-104571428D02*
X86192142Y-104642857D01*
X86263571Y-104857142D01*
X86263571Y-105000000D01*
X86192142Y-105214285D01*
X86049285Y-105357142D01*
X85906428Y-105428571D01*
X85620714Y-105500000D01*
X85406428Y-105500000D01*
X85120714Y-105428571D01*
X84977857Y-105357142D01*
X84835000Y-105214285D01*
X84763571Y-105000000D01*
X84763571Y-104857142D01*
X84835000Y-104642857D01*
X84906428Y-104571428D01*
X86263571Y-103928571D02*
X84763571Y-103928571D01*
X86263571Y-103071428D02*
X85406428Y-103714285D01*
X84763571Y-103071428D02*
X85620714Y-103928571D01*
X91093571Y-107357142D02*
X89593571Y-107357142D01*
X90665000Y-106857142D01*
X89593571Y-106357142D01*
X91093571Y-106357142D01*
X89593571Y-105357142D02*
X89593571Y-105071428D01*
X89665000Y-104928571D01*
X89807857Y-104785714D01*
X90093571Y-104714285D01*
X90593571Y-104714285D01*
X90879285Y-104785714D01*
X91022142Y-104928571D01*
X91093571Y-105071428D01*
X91093571Y-105357142D01*
X91022142Y-105500000D01*
X90879285Y-105642857D01*
X90593571Y-105714285D01*
X90093571Y-105714285D01*
X89807857Y-105642857D01*
X89665000Y-105500000D01*
X89593571Y-105357142D01*
X91022142Y-104142857D02*
X91093571Y-103928571D01*
X91093571Y-103571428D01*
X91022142Y-103428571D01*
X90950714Y-103357142D01*
X90807857Y-103285714D01*
X90665000Y-103285714D01*
X90522142Y-103357142D01*
X90450714Y-103428571D01*
X90379285Y-103571428D01*
X90307857Y-103857142D01*
X90236428Y-104000000D01*
X90165000Y-104071428D01*
X90022142Y-104142857D01*
X89879285Y-104142857D01*
X89736428Y-104071428D01*
X89665000Y-104000000D01*
X89593571Y-103857142D01*
X89593571Y-103500000D01*
X89665000Y-103285714D01*
X91093571Y-102642857D02*
X89593571Y-102642857D01*
X94495000Y-106142857D02*
X94423571Y-106285714D01*
X94423571Y-106500000D01*
X94495000Y-106714285D01*
X94637857Y-106857142D01*
X94780714Y-106928571D01*
X95066428Y-107000000D01*
X95280714Y-107000000D01*
X95566428Y-106928571D01*
X95709285Y-106857142D01*
X95852142Y-106714285D01*
X95923571Y-106500000D01*
X95923571Y-106357142D01*
X95852142Y-106142857D01*
X95780714Y-106071428D01*
X95280714Y-106071428D01*
X95280714Y-106357142D01*
X95923571Y-105428571D02*
X94423571Y-105428571D01*
X95923571Y-104571428D01*
X94423571Y-104571428D01*
X95923571Y-103857142D02*
X94423571Y-103857142D01*
X94423571Y-103500000D01*
X94495000Y-103285714D01*
X94637857Y-103142857D01*
X94780714Y-103071428D01*
X95066428Y-103000000D01*
X95280714Y-103000000D01*
X95566428Y-103071428D01*
X95709285Y-103142857D01*
X95852142Y-103285714D01*
X95923571Y-103500000D01*
X95923571Y-103857142D01*
D13*
X127730952Y-62947904D02*
X128188095Y-62947904D01*
X127959523Y-63747904D02*
X127959523Y-62947904D01*
X128378571Y-62947904D02*
X128911904Y-63747904D01*
X128911904Y-62947904D02*
X128378571Y-63747904D01*
X129750000Y-62947904D02*
X130245238Y-62947904D01*
X129978571Y-63252666D01*
X130092857Y-63252666D01*
X130169047Y-63290761D01*
X130207142Y-63328857D01*
X130245238Y-63405047D01*
X130245238Y-63595523D01*
X130207142Y-63671714D01*
X130169047Y-63709809D01*
X130092857Y-63747904D01*
X129864285Y-63747904D01*
X129788095Y-63709809D01*
X129750000Y-63671714D01*
X130473809Y-62947904D02*
X130740476Y-63747904D01*
X131007142Y-62947904D01*
X131197619Y-62947904D02*
X131692857Y-62947904D01*
X131426190Y-63252666D01*
X131540476Y-63252666D01*
X131616666Y-63290761D01*
X131654761Y-63328857D01*
X131692857Y-63405047D01*
X131692857Y-63595523D01*
X131654761Y-63671714D01*
X131616666Y-63709809D01*
X131540476Y-63747904D01*
X131311904Y-63747904D01*
X131235714Y-63709809D01*
X131197619Y-63671714D01*
X127369047Y-66323904D02*
X127369047Y-65523904D01*
X127826190Y-66323904D01*
X127826190Y-65523904D01*
X128664285Y-66247714D02*
X128626190Y-66285809D01*
X128511904Y-66323904D01*
X128435714Y-66323904D01*
X128321428Y-66285809D01*
X128245238Y-66209619D01*
X128207142Y-66133428D01*
X128169047Y-65981047D01*
X128169047Y-65866761D01*
X128207142Y-65714380D01*
X128245238Y-65638190D01*
X128321428Y-65562000D01*
X128435714Y-65523904D01*
X128511904Y-65523904D01*
X128626190Y-65562000D01*
X128664285Y-65600095D01*
X130683333Y-66323904D02*
X130416666Y-65942952D01*
X130226190Y-66323904D02*
X130226190Y-65523904D01*
X130530952Y-65523904D01*
X130607142Y-65562000D01*
X130645238Y-65600095D01*
X130683333Y-65676285D01*
X130683333Y-65790571D01*
X130645238Y-65866761D01*
X130607142Y-65904857D01*
X130530952Y-65942952D01*
X130226190Y-65942952D01*
X131026190Y-65904857D02*
X131292857Y-65904857D01*
X131407142Y-66323904D02*
X131026190Y-66323904D01*
X131026190Y-65523904D01*
X131407142Y-65523904D01*
X131711904Y-66285809D02*
X131826190Y-66323904D01*
X132016666Y-66323904D01*
X132092857Y-66285809D01*
X132130952Y-66247714D01*
X132169047Y-66171523D01*
X132169047Y-66095333D01*
X132130952Y-66019142D01*
X132092857Y-65981047D01*
X132016666Y-65942952D01*
X131864285Y-65904857D01*
X131788095Y-65866761D01*
X131750000Y-65828666D01*
X131711904Y-65752476D01*
X131711904Y-65676285D01*
X131750000Y-65600095D01*
X131788095Y-65562000D01*
X131864285Y-65523904D01*
X132054761Y-65523904D01*
X132169047Y-65562000D01*
X127407142Y-68899904D02*
X127407142Y-68099904D01*
X127864285Y-68899904D01*
X127864285Y-68099904D01*
X128702380Y-68823714D02*
X128664285Y-68861809D01*
X128550000Y-68899904D01*
X128473809Y-68899904D01*
X128359523Y-68861809D01*
X128283333Y-68785619D01*
X128245238Y-68709428D01*
X128207142Y-68557047D01*
X128207142Y-68442761D01*
X128245238Y-68290380D01*
X128283333Y-68214190D01*
X128359523Y-68138000D01*
X128473809Y-68099904D01*
X128550000Y-68099904D01*
X128664285Y-68138000D01*
X128702380Y-68176095D01*
X130188095Y-68099904D02*
X130683333Y-68099904D01*
X130416666Y-68404666D01*
X130530952Y-68404666D01*
X130607142Y-68442761D01*
X130645238Y-68480857D01*
X130683333Y-68557047D01*
X130683333Y-68747523D01*
X130645238Y-68823714D01*
X130607142Y-68861809D01*
X130530952Y-68899904D01*
X130302380Y-68899904D01*
X130226190Y-68861809D01*
X130188095Y-68823714D01*
X130911904Y-68099904D02*
X131178571Y-68899904D01*
X131445238Y-68099904D01*
X131635714Y-68099904D02*
X132130952Y-68099904D01*
X131864285Y-68404666D01*
X131978571Y-68404666D01*
X132054761Y-68442761D01*
X132092857Y-68480857D01*
X132130952Y-68557047D01*
X132130952Y-68747523D01*
X132092857Y-68823714D01*
X132054761Y-68861809D01*
X131978571Y-68899904D01*
X131750000Y-68899904D01*
X131673809Y-68861809D01*
X131635714Y-68823714D01*
X128054761Y-70714000D02*
X127978571Y-70675904D01*
X127864285Y-70675904D01*
X127750000Y-70714000D01*
X127673809Y-70790190D01*
X127635714Y-70866380D01*
X127597619Y-71018761D01*
X127597619Y-71133047D01*
X127635714Y-71285428D01*
X127673809Y-71361619D01*
X127750000Y-71437809D01*
X127864285Y-71475904D01*
X127940476Y-71475904D01*
X128054761Y-71437809D01*
X128092857Y-71399714D01*
X128092857Y-71133047D01*
X127940476Y-71133047D01*
X128435714Y-71475904D02*
X128435714Y-70675904D01*
X128892857Y-71475904D01*
X128892857Y-70675904D01*
X129273809Y-71475904D02*
X129273809Y-70675904D01*
X129464285Y-70675904D01*
X129578571Y-70714000D01*
X129654761Y-70790190D01*
X129692857Y-70866380D01*
X129730952Y-71018761D01*
X129730952Y-71133047D01*
X129692857Y-71285428D01*
X129654761Y-71361619D01*
X129578571Y-71437809D01*
X129464285Y-71475904D01*
X129273809Y-71475904D01*
X131140476Y-71475904D02*
X130873809Y-71094952D01*
X130683333Y-71475904D02*
X130683333Y-70675904D01*
X130988095Y-70675904D01*
X131064285Y-70714000D01*
X131102380Y-70752095D01*
X131140476Y-70828285D01*
X131140476Y-70942571D01*
X131102380Y-71018761D01*
X131064285Y-71056857D01*
X130988095Y-71094952D01*
X130683333Y-71094952D01*
X131407142Y-70675904D02*
X131940476Y-71475904D01*
X131940476Y-70675904D02*
X131407142Y-71475904D01*
D11*
X131192142Y-106535714D02*
X131263571Y-106321428D01*
X131263571Y-105964285D01*
X131192142Y-105821428D01*
X131120714Y-105750000D01*
X130977857Y-105678571D01*
X130835000Y-105678571D01*
X130692142Y-105750000D01*
X130620714Y-105821428D01*
X130549285Y-105964285D01*
X130477857Y-106250000D01*
X130406428Y-106392857D01*
X130335000Y-106464285D01*
X130192142Y-106535714D01*
X130049285Y-106535714D01*
X129906428Y-106464285D01*
X129835000Y-106392857D01*
X129763571Y-106250000D01*
X129763571Y-105892857D01*
X129835000Y-105678571D01*
X131263571Y-105035714D02*
X129763571Y-105035714D01*
X129835000Y-103535714D02*
X129763571Y-103678571D01*
X129763571Y-103892857D01*
X129835000Y-104107142D01*
X129977857Y-104250000D01*
X130120714Y-104321428D01*
X130406428Y-104392857D01*
X130620714Y-104392857D01*
X130906428Y-104321428D01*
X131049285Y-104250000D01*
X131192142Y-104107142D01*
X131263571Y-103892857D01*
X131263571Y-103750000D01*
X131192142Y-103535714D01*
X131120714Y-103464285D01*
X130620714Y-103464285D01*
X130620714Y-103750000D01*
X134665000Y-106142857D02*
X134593571Y-106285714D01*
X134593571Y-106500000D01*
X134665000Y-106714285D01*
X134807857Y-106857142D01*
X134950714Y-106928571D01*
X135236428Y-107000000D01*
X135450714Y-107000000D01*
X135736428Y-106928571D01*
X135879285Y-106857142D01*
X136022142Y-106714285D01*
X136093571Y-106500000D01*
X136093571Y-106357142D01*
X136022142Y-106142857D01*
X135950714Y-106071428D01*
X135450714Y-106071428D01*
X135450714Y-106357142D01*
X136093571Y-105428571D02*
X134593571Y-105428571D01*
X136093571Y-104571428D01*
X134593571Y-104571428D01*
X136093571Y-103857142D02*
X134593571Y-103857142D01*
X134593571Y-103500000D01*
X134665000Y-103285714D01*
X134807857Y-103142857D01*
X134950714Y-103071428D01*
X135236428Y-103000000D01*
X135450714Y-103000000D01*
X135736428Y-103071428D01*
X135879285Y-103142857D01*
X136022142Y-103285714D01*
X136093571Y-103500000D01*
X136093571Y-103857142D01*
D14*
X80357142Y-86677142D02*
X80309523Y-86724761D01*
X80166666Y-86772380D01*
X80071428Y-86772380D01*
X79928571Y-86724761D01*
X79833333Y-86629523D01*
X79785714Y-86534285D01*
X79738095Y-86343809D01*
X79738095Y-86200952D01*
X79785714Y-86010476D01*
X79833333Y-85915238D01*
X79928571Y-85820000D01*
X80071428Y-85772380D01*
X80166666Y-85772380D01*
X80309523Y-85820000D01*
X80357142Y-85867619D01*
X81309523Y-86772380D02*
X80738095Y-86772380D01*
X81023809Y-86772380D02*
X81023809Y-85772380D01*
X80928571Y-85915238D01*
X80833333Y-86010476D01*
X80738095Y-86058095D01*
X81642857Y-85772380D02*
X82261904Y-85772380D01*
X81928571Y-86153333D01*
X82071428Y-86153333D01*
X82166666Y-86200952D01*
X82214285Y-86248571D01*
X82261904Y-86343809D01*
X82261904Y-86581904D01*
X82214285Y-86677142D01*
X82166666Y-86724761D01*
X82071428Y-86772380D01*
X81785714Y-86772380D01*
X81690476Y-86724761D01*
X81642857Y-86677142D01*
X75452380Y-114690476D02*
X76166666Y-114690476D01*
X76309523Y-114738095D01*
X76404761Y-114833333D01*
X76452380Y-114976190D01*
X76452380Y-115071428D01*
X76452380Y-113738095D02*
X76452380Y-114214285D01*
X75452380Y-114214285D01*
X75928571Y-113404761D02*
X75928571Y-113071428D01*
X76452380Y-112928571D02*
X76452380Y-113404761D01*
X75452380Y-113404761D01*
X75452380Y-112928571D01*
X76452380Y-112500000D02*
X75452380Y-112500000D01*
X75452380Y-112261904D01*
X75500000Y-112119047D01*
X75595238Y-112023809D01*
X75690476Y-111976190D01*
X75880952Y-111928571D01*
X76023809Y-111928571D01*
X76214285Y-111976190D01*
X76309523Y-112023809D01*
X76404761Y-112119047D01*
X76452380Y-112261904D01*
X76452380Y-112500000D01*
X76452380Y-110976190D02*
X76452380Y-111547619D01*
X76452380Y-111261904D02*
X75452380Y-111261904D01*
X75595238Y-111357142D01*
X75690476Y-111452380D01*
X75738095Y-111547619D01*
X80833333Y-90802380D02*
X80500000Y-90326190D01*
X80261904Y-90802380D02*
X80261904Y-89802380D01*
X80642857Y-89802380D01*
X80738095Y-89850000D01*
X80785714Y-89897619D01*
X80833333Y-89992857D01*
X80833333Y-90135714D01*
X80785714Y-90230952D01*
X80738095Y-90278571D01*
X80642857Y-90326190D01*
X80261904Y-90326190D01*
X81214285Y-89897619D02*
X81261904Y-89850000D01*
X81357142Y-89802380D01*
X81595238Y-89802380D01*
X81690476Y-89850000D01*
X81738095Y-89897619D01*
X81785714Y-89992857D01*
X81785714Y-90088095D01*
X81738095Y-90230952D01*
X81166666Y-90802380D01*
X81785714Y-90802380D01*
X42402380Y-101202857D02*
X43116666Y-101202857D01*
X43259523Y-101250476D01*
X43354761Y-101345714D01*
X43402380Y-101488571D01*
X43402380Y-101583809D01*
X43354761Y-100774285D02*
X43402380Y-100631428D01*
X43402380Y-100393333D01*
X43354761Y-100298095D01*
X43307142Y-100250476D01*
X43211904Y-100202857D01*
X43116666Y-100202857D01*
X43021428Y-100250476D01*
X42973809Y-100298095D01*
X42926190Y-100393333D01*
X42878571Y-100583809D01*
X42830952Y-100679047D01*
X42783333Y-100726666D01*
X42688095Y-100774285D01*
X42592857Y-100774285D01*
X42497619Y-100726666D01*
X42450000Y-100679047D01*
X42402380Y-100583809D01*
X42402380Y-100345714D01*
X42450000Y-100202857D01*
X42402380Y-99917142D02*
X42402380Y-99345714D01*
X43402380Y-99631428D02*
X42402380Y-99631428D01*
X42878571Y-99012380D02*
X42878571Y-98679047D01*
X43402380Y-98536190D02*
X43402380Y-99012380D01*
X42402380Y-99012380D01*
X42402380Y-98536190D01*
X43402380Y-98107619D02*
X42402380Y-98107619D01*
X42402380Y-97726666D01*
X42450000Y-97631428D01*
X42497619Y-97583809D01*
X42592857Y-97536190D01*
X42735714Y-97536190D01*
X42830952Y-97583809D01*
X42878571Y-97631428D01*
X42926190Y-97726666D01*
X42926190Y-98107619D01*
X43402380Y-96583809D02*
X43402380Y-97155238D01*
X43402380Y-96869523D02*
X42402380Y-96869523D01*
X42545238Y-96964761D01*
X42640476Y-97060000D01*
X42688095Y-97155238D01*
X42402380Y-88502857D02*
X43116666Y-88502857D01*
X43259523Y-88550476D01*
X43354761Y-88645714D01*
X43402380Y-88788571D01*
X43402380Y-88883809D01*
X43354761Y-88074285D02*
X43402380Y-87931428D01*
X43402380Y-87693333D01*
X43354761Y-87598095D01*
X43307142Y-87550476D01*
X43211904Y-87502857D01*
X43116666Y-87502857D01*
X43021428Y-87550476D01*
X42973809Y-87598095D01*
X42926190Y-87693333D01*
X42878571Y-87883809D01*
X42830952Y-87979047D01*
X42783333Y-88026666D01*
X42688095Y-88074285D01*
X42592857Y-88074285D01*
X42497619Y-88026666D01*
X42450000Y-87979047D01*
X42402380Y-87883809D01*
X42402380Y-87645714D01*
X42450000Y-87502857D01*
X42402380Y-87217142D02*
X42402380Y-86645714D01*
X43402380Y-86931428D02*
X42402380Y-86931428D01*
X42878571Y-86312380D02*
X42878571Y-85979047D01*
X43402380Y-85836190D02*
X43402380Y-86312380D01*
X42402380Y-86312380D01*
X42402380Y-85836190D01*
X43402380Y-85407619D02*
X42402380Y-85407619D01*
X42402380Y-85026666D01*
X42450000Y-84931428D01*
X42497619Y-84883809D01*
X42592857Y-84836190D01*
X42735714Y-84836190D01*
X42830952Y-84883809D01*
X42878571Y-84931428D01*
X42926190Y-85026666D01*
X42926190Y-85407619D01*
X42497619Y-84455238D02*
X42450000Y-84407619D01*
X42402380Y-84312380D01*
X42402380Y-84074285D01*
X42450000Y-83979047D01*
X42497619Y-83931428D01*
X42592857Y-83883809D01*
X42688095Y-83883809D01*
X42830952Y-83931428D01*
X43402380Y-84502857D01*
X43402380Y-83883809D01*
X45833333Y-73157142D02*
X45785714Y-73204761D01*
X45642857Y-73252380D01*
X45547619Y-73252380D01*
X45404761Y-73204761D01*
X45309523Y-73109523D01*
X45261904Y-73014285D01*
X45214285Y-72823809D01*
X45214285Y-72680952D01*
X45261904Y-72490476D01*
X45309523Y-72395238D01*
X45404761Y-72300000D01*
X45547619Y-72252380D01*
X45642857Y-72252380D01*
X45785714Y-72300000D01*
X45833333Y-72347619D01*
X46690476Y-72585714D02*
X46690476Y-73252380D01*
X46452380Y-72204761D02*
X46214285Y-72919047D01*
X46833333Y-72919047D01*
X141357142Y-93857142D02*
X141309523Y-93904761D01*
X141166666Y-93952380D01*
X141071428Y-93952380D01*
X140928571Y-93904761D01*
X140833333Y-93809523D01*
X140785714Y-93714285D01*
X140738095Y-93523809D01*
X140738095Y-93380952D01*
X140785714Y-93190476D01*
X140833333Y-93095238D01*
X140928571Y-93000000D01*
X141071428Y-92952380D01*
X141166666Y-92952380D01*
X141309523Y-93000000D01*
X141357142Y-93047619D01*
X142309523Y-93952380D02*
X141738095Y-93952380D01*
X142023809Y-93952380D02*
X142023809Y-92952380D01*
X141928571Y-93095238D01*
X141833333Y-93190476D01*
X141738095Y-93238095D01*
X142690476Y-93047619D02*
X142738095Y-93000000D01*
X142833333Y-92952380D01*
X143071428Y-92952380D01*
X143166666Y-93000000D01*
X143214285Y-93047619D01*
X143261904Y-93142857D01*
X143261904Y-93238095D01*
X143214285Y-93380952D01*
X142642857Y-93952380D01*
X143261904Y-93952380D01*
X106333333Y-88857142D02*
X106285714Y-88904761D01*
X106142857Y-88952380D01*
X106047619Y-88952380D01*
X105904761Y-88904761D01*
X105809523Y-88809523D01*
X105761904Y-88714285D01*
X105714285Y-88523809D01*
X105714285Y-88380952D01*
X105761904Y-88190476D01*
X105809523Y-88095238D01*
X105904761Y-88000000D01*
X106047619Y-87952380D01*
X106142857Y-87952380D01*
X106285714Y-88000000D01*
X106333333Y-88047619D01*
X106714285Y-88047619D02*
X106761904Y-88000000D01*
X106857142Y-87952380D01*
X107095238Y-87952380D01*
X107190476Y-88000000D01*
X107238095Y-88047619D01*
X107285714Y-88142857D01*
X107285714Y-88238095D01*
X107238095Y-88380952D01*
X106666666Y-88952380D01*
X107285714Y-88952380D01*
X141357142Y-102857142D02*
X141309523Y-102904761D01*
X141166666Y-102952380D01*
X141071428Y-102952380D01*
X140928571Y-102904761D01*
X140833333Y-102809523D01*
X140785714Y-102714285D01*
X140738095Y-102523809D01*
X140738095Y-102380952D01*
X140785714Y-102190476D01*
X140833333Y-102095238D01*
X140928571Y-102000000D01*
X141071428Y-101952380D01*
X141166666Y-101952380D01*
X141309523Y-102000000D01*
X141357142Y-102047619D01*
X142309523Y-102952380D02*
X141738095Y-102952380D01*
X142023809Y-102952380D02*
X142023809Y-101952380D01*
X141928571Y-102095238D01*
X141833333Y-102190476D01*
X141738095Y-102238095D01*
X143261904Y-102952380D02*
X142690476Y-102952380D01*
X142976190Y-102952380D02*
X142976190Y-101952380D01*
X142880952Y-102095238D01*
X142785714Y-102190476D01*
X142690476Y-102238095D01*
X50452380Y-114904761D02*
X51166666Y-114904761D01*
X51309523Y-114952380D01*
X51404761Y-115047619D01*
X51452380Y-115190476D01*
X51452380Y-115285714D01*
X51452380Y-114428571D02*
X50452380Y-114428571D01*
X50452380Y-114047619D01*
X50500000Y-113952380D01*
X50547619Y-113904761D01*
X50642857Y-113857142D01*
X50785714Y-113857142D01*
X50880952Y-113904761D01*
X50928571Y-113952380D01*
X50976190Y-114047619D01*
X50976190Y-114428571D01*
X50452380Y-113523809D02*
X51452380Y-113285714D01*
X50738095Y-113095238D01*
X51452380Y-112904761D01*
X50452380Y-112666666D01*
X51452380Y-111714285D02*
X50976190Y-112047619D01*
X51452380Y-112285714D02*
X50452380Y-112285714D01*
X50452380Y-111904761D01*
X50500000Y-111809523D01*
X50547619Y-111761904D01*
X50642857Y-111714285D01*
X50785714Y-111714285D01*
X50880952Y-111761904D01*
X50928571Y-111809523D01*
X50976190Y-111904761D01*
X50976190Y-112285714D01*
X51452380Y-110761904D02*
X51452380Y-111333333D01*
X51452380Y-111047619D02*
X50452380Y-111047619D01*
X50595238Y-111142857D01*
X50690476Y-111238095D01*
X50738095Y-111333333D01*
X123688095Y-78952380D02*
X123688095Y-79761904D01*
X123735714Y-79857142D01*
X123783333Y-79904761D01*
X123878571Y-79952380D01*
X124069047Y-79952380D01*
X124164285Y-79904761D01*
X124211904Y-79857142D01*
X124259523Y-79761904D01*
X124259523Y-78952380D01*
X124640476Y-78952380D02*
X125259523Y-78952380D01*
X124926190Y-79333333D01*
X125069047Y-79333333D01*
X125164285Y-79380952D01*
X125211904Y-79428571D01*
X125259523Y-79523809D01*
X125259523Y-79761904D01*
X125211904Y-79857142D01*
X125164285Y-79904761D01*
X125069047Y-79952380D01*
X124783333Y-79952380D01*
X124688095Y-79904761D01*
X124640476Y-79857142D01*
X125452380Y-115214785D02*
X126166666Y-115214785D01*
X126309523Y-115262404D01*
X126404761Y-115357642D01*
X126452380Y-115500500D01*
X126452380Y-115595738D01*
X126404761Y-114786214D02*
X126452380Y-114643357D01*
X126452380Y-114405261D01*
X126404761Y-114310023D01*
X126357142Y-114262404D01*
X126261904Y-114214785D01*
X126166666Y-114214785D01*
X126071428Y-114262404D01*
X126023809Y-114310023D01*
X125976190Y-114405261D01*
X125928571Y-114595738D01*
X125880952Y-114690976D01*
X125833333Y-114738595D01*
X125738095Y-114786214D01*
X125642857Y-114786214D01*
X125547619Y-114738595D01*
X125500000Y-114690976D01*
X125452380Y-114595738D01*
X125452380Y-114357642D01*
X125500000Y-114214785D01*
X125452380Y-113929071D02*
X125452380Y-113357642D01*
X126452380Y-113643357D02*
X125452380Y-113643357D01*
X125452380Y-112833833D02*
X125452380Y-112643357D01*
X125500000Y-112548119D01*
X125595238Y-112452880D01*
X125785714Y-112405261D01*
X126119047Y-112405261D01*
X126309523Y-112452880D01*
X126404761Y-112548119D01*
X126452380Y-112643357D01*
X126452380Y-112833833D01*
X126404761Y-112929071D01*
X126309523Y-113024309D01*
X126119047Y-113071928D01*
X125785714Y-113071928D01*
X125595238Y-113024309D01*
X125500000Y-112929071D01*
X125452380Y-112833833D01*
X126452380Y-111976690D02*
X125452380Y-111976690D01*
X125452380Y-111595738D01*
X125500000Y-111500500D01*
X125547619Y-111452880D01*
X125642857Y-111405261D01*
X125785714Y-111405261D01*
X125880952Y-111452880D01*
X125928571Y-111500500D01*
X125976190Y-111595738D01*
X125976190Y-111976690D01*
X126452380Y-110452880D02*
X126452380Y-111024309D01*
X126452380Y-110738595D02*
X125452380Y-110738595D01*
X125595238Y-110833833D01*
X125690476Y-110929071D01*
X125738095Y-111024309D01*
X141833333Y-87507142D02*
X141785714Y-87554761D01*
X141642857Y-87602380D01*
X141547619Y-87602380D01*
X141404761Y-87554761D01*
X141309523Y-87459523D01*
X141261904Y-87364285D01*
X141214285Y-87173809D01*
X141214285Y-87030952D01*
X141261904Y-86840476D01*
X141309523Y-86745238D01*
X141404761Y-86650000D01*
X141547619Y-86602380D01*
X141642857Y-86602380D01*
X141785714Y-86650000D01*
X141833333Y-86697619D01*
X142166666Y-86602380D02*
X142833333Y-86602380D01*
X142404761Y-87602380D01*
X72991904Y-94412380D02*
X72991904Y-93412380D01*
X73230000Y-93412380D01*
X73372857Y-93460000D01*
X73468095Y-93555238D01*
X73515714Y-93650476D01*
X73563333Y-93840952D01*
X73563333Y-93983809D01*
X73515714Y-94174285D01*
X73468095Y-94269523D01*
X73372857Y-94364761D01*
X73230000Y-94412380D01*
X72991904Y-94412380D01*
X74515714Y-94412380D02*
X73944285Y-94412380D01*
X74230000Y-94412380D02*
X74230000Y-93412380D01*
X74134761Y-93555238D01*
X74039523Y-93650476D01*
X73944285Y-93698095D01*
X137833333Y-83857142D02*
X137785714Y-83904761D01*
X137642857Y-83952380D01*
X137547619Y-83952380D01*
X137404761Y-83904761D01*
X137309523Y-83809523D01*
X137261904Y-83714285D01*
X137214285Y-83523809D01*
X137214285Y-83380952D01*
X137261904Y-83190476D01*
X137309523Y-83095238D01*
X137404761Y-83000000D01*
X137547619Y-82952380D01*
X137642857Y-82952380D01*
X137785714Y-83000000D01*
X137833333Y-83047619D01*
X138404761Y-83380952D02*
X138309523Y-83333333D01*
X138261904Y-83285714D01*
X138214285Y-83190476D01*
X138214285Y-83142857D01*
X138261904Y-83047619D01*
X138309523Y-83000000D01*
X138404761Y-82952380D01*
X138595238Y-82952380D01*
X138690476Y-83000000D01*
X138738095Y-83047619D01*
X138785714Y-83142857D01*
X138785714Y-83190476D01*
X138738095Y-83285714D01*
X138690476Y-83333333D01*
X138595238Y-83380952D01*
X138404761Y-83380952D01*
X138309523Y-83428571D01*
X138261904Y-83476190D01*
X138214285Y-83571428D01*
X138214285Y-83761904D01*
X138261904Y-83857142D01*
X138309523Y-83904761D01*
X138404761Y-83952380D01*
X138595238Y-83952380D01*
X138690476Y-83904761D01*
X138738095Y-83857142D01*
X138785714Y-83761904D01*
X138785714Y-83571428D01*
X138738095Y-83476190D01*
X138690476Y-83428571D01*
X138595238Y-83380952D01*
X120333333Y-79357142D02*
X120285714Y-79404761D01*
X120142857Y-79452380D01*
X120047619Y-79452380D01*
X119904761Y-79404761D01*
X119809523Y-79309523D01*
X119761904Y-79214285D01*
X119714285Y-79023809D01*
X119714285Y-78880952D01*
X119761904Y-78690476D01*
X119809523Y-78595238D01*
X119904761Y-78500000D01*
X120047619Y-78452380D01*
X120142857Y-78452380D01*
X120285714Y-78500000D01*
X120333333Y-78547619D01*
X121238095Y-78452380D02*
X120761904Y-78452380D01*
X120714285Y-78928571D01*
X120761904Y-78880952D01*
X120857142Y-78833333D01*
X121095238Y-78833333D01*
X121190476Y-78880952D01*
X121238095Y-78928571D01*
X121285714Y-79023809D01*
X121285714Y-79261904D01*
X121238095Y-79357142D01*
X121190476Y-79404761D01*
X121095238Y-79452380D01*
X120857142Y-79452380D01*
X120761904Y-79404761D01*
X120714285Y-79357142D01*
X143452380Y-98761904D02*
X144261904Y-98761904D01*
X144357142Y-98714285D01*
X144404761Y-98666666D01*
X144452380Y-98571428D01*
X144452380Y-98380952D01*
X144404761Y-98285714D01*
X144357142Y-98238095D01*
X144261904Y-98190476D01*
X143452380Y-98190476D01*
X143785714Y-97285714D02*
X144452380Y-97285714D01*
X143404761Y-97523809D02*
X144119047Y-97761904D01*
X144119047Y-97142857D01*
X135357142Y-84642857D02*
X135404761Y-84690476D01*
X135452380Y-84833333D01*
X135452380Y-84928571D01*
X135404761Y-85071428D01*
X135309523Y-85166666D01*
X135214285Y-85214285D01*
X135023809Y-85261904D01*
X134880952Y-85261904D01*
X134690476Y-85214285D01*
X134595238Y-85166666D01*
X134500000Y-85071428D01*
X134452380Y-84928571D01*
X134452380Y-84833333D01*
X134500000Y-84690476D01*
X134547619Y-84642857D01*
X135452380Y-83690476D02*
X135452380Y-84261904D01*
X135452380Y-83976190D02*
X134452380Y-83976190D01*
X134595238Y-84071428D01*
X134690476Y-84166666D01*
X134738095Y-84261904D01*
X134452380Y-83071428D02*
X134452380Y-82976190D01*
X134500000Y-82880952D01*
X134547619Y-82833333D01*
X134642857Y-82785714D01*
X134833333Y-82738095D01*
X135071428Y-82738095D01*
X135261904Y-82785714D01*
X135357142Y-82833333D01*
X135404761Y-82880952D01*
X135452380Y-82976190D01*
X135452380Y-83071428D01*
X135404761Y-83166666D01*
X135357142Y-83214285D01*
X135261904Y-83261904D01*
X135071428Y-83309523D01*
X134833333Y-83309523D01*
X134642857Y-83261904D01*
X134547619Y-83214285D01*
X134500000Y-83166666D01*
X134452380Y-83071428D01*
X146833333Y-87657142D02*
X146785714Y-87704761D01*
X146642857Y-87752380D01*
X146547619Y-87752380D01*
X146404761Y-87704761D01*
X146309523Y-87609523D01*
X146261904Y-87514285D01*
X146214285Y-87323809D01*
X146214285Y-87180952D01*
X146261904Y-86990476D01*
X146309523Y-86895238D01*
X146404761Y-86800000D01*
X146547619Y-86752380D01*
X146642857Y-86752380D01*
X146785714Y-86800000D01*
X146833333Y-86847619D01*
X147690476Y-86752380D02*
X147500000Y-86752380D01*
X147404761Y-86800000D01*
X147357142Y-86847619D01*
X147261904Y-86990476D01*
X147214285Y-87180952D01*
X147214285Y-87561904D01*
X147261904Y-87657142D01*
X147309523Y-87704761D01*
X147404761Y-87752380D01*
X147595238Y-87752380D01*
X147690476Y-87704761D01*
X147738095Y-87657142D01*
X147785714Y-87561904D01*
X147785714Y-87323809D01*
X147738095Y-87228571D01*
X147690476Y-87180952D01*
X147595238Y-87133333D01*
X147404761Y-87133333D01*
X147309523Y-87180952D01*
X147261904Y-87228571D01*
X147214285Y-87323809D01*
X93761904Y-72952380D02*
X93761904Y-73666666D01*
X93714285Y-73809523D01*
X93619047Y-73904761D01*
X93476190Y-73952380D01*
X93380952Y-73952380D01*
X94571428Y-73428571D02*
X94714285Y-73476190D01*
X94761904Y-73523809D01*
X94809523Y-73619047D01*
X94809523Y-73761904D01*
X94761904Y-73857142D01*
X94714285Y-73904761D01*
X94619047Y-73952380D01*
X94238095Y-73952380D01*
X94238095Y-72952380D01*
X94571428Y-72952380D01*
X94666666Y-73000000D01*
X94714285Y-73047619D01*
X94761904Y-73142857D01*
X94761904Y-73238095D01*
X94714285Y-73333333D01*
X94666666Y-73380952D01*
X94571428Y-73428571D01*
X94238095Y-73428571D01*
X95095238Y-72952380D02*
X95666666Y-72952380D01*
X95380952Y-73952380D02*
X95380952Y-72952380D01*
X96000000Y-73952380D02*
X96000000Y-72952380D01*
X96571428Y-73952380D01*
X96571428Y-72952380D01*
X97571428Y-73952380D02*
X97000000Y-73952380D01*
X97285714Y-73952380D02*
X97285714Y-72952380D01*
X97190476Y-73095238D01*
X97095238Y-73190476D01*
X97000000Y-73238095D01*
X134025476Y-73452380D02*
X134025476Y-74166666D01*
X133977857Y-74309523D01*
X133882619Y-74404761D01*
X133739761Y-74452380D01*
X133644523Y-74452380D01*
X134406428Y-73452380D02*
X134644523Y-74452380D01*
X134835000Y-73738095D01*
X135025476Y-74452380D01*
X135263571Y-73452380D01*
X135644523Y-74452380D02*
X135644523Y-73452380D01*
X136454047Y-73928571D02*
X136120714Y-73928571D01*
X136120714Y-74452380D02*
X136120714Y-73452380D01*
X136596904Y-73452380D01*
X136977857Y-74452380D02*
X136977857Y-73452380D01*
X137977857Y-74452380D02*
X137406428Y-74452380D01*
X137692142Y-74452380D02*
X137692142Y-73452380D01*
X137596904Y-73595238D01*
X137501666Y-73690476D01*
X137406428Y-73738095D01*
X100452380Y-115714285D02*
X101166666Y-115714285D01*
X101309523Y-115761904D01*
X101404761Y-115857142D01*
X101452380Y-116000000D01*
X101452380Y-116095238D01*
X101404761Y-115285714D02*
X101452380Y-115142857D01*
X101452380Y-114904761D01*
X101404761Y-114809523D01*
X101357142Y-114761904D01*
X101261904Y-114714285D01*
X101166666Y-114714285D01*
X101071428Y-114761904D01*
X101023809Y-114809523D01*
X100976190Y-114904761D01*
X100928571Y-115095238D01*
X100880952Y-115190476D01*
X100833333Y-115238095D01*
X100738095Y-115285714D01*
X100642857Y-115285714D01*
X100547619Y-115238095D01*
X100500000Y-115190476D01*
X100452380Y-115095238D01*
X100452380Y-114857142D01*
X100500000Y-114714285D01*
X100928571Y-114285714D02*
X100928571Y-113952380D01*
X101452380Y-113809523D02*
X101452380Y-114285714D01*
X100452380Y-114285714D01*
X100452380Y-113809523D01*
X101452380Y-112809523D02*
X100976190Y-113142857D01*
X101452380Y-113380952D02*
X100452380Y-113380952D01*
X100452380Y-113000000D01*
X100500000Y-112904761D01*
X100547619Y-112857142D01*
X100642857Y-112809523D01*
X100785714Y-112809523D01*
X100880952Y-112857142D01*
X100928571Y-112904761D01*
X100976190Y-113000000D01*
X100976190Y-113380952D01*
X100452380Y-112523809D02*
X101452380Y-112190476D01*
X100452380Y-111857142D01*
X100452380Y-111333333D02*
X100452380Y-111142857D01*
X100500000Y-111047619D01*
X100595238Y-110952380D01*
X100785714Y-110904761D01*
X101119047Y-110904761D01*
X101309523Y-110952380D01*
X101404761Y-111047619D01*
X101452380Y-111142857D01*
X101452380Y-111333333D01*
X101404761Y-111428571D01*
X101309523Y-111523809D01*
X101119047Y-111571428D01*
X100785714Y-111571428D01*
X100595238Y-111523809D01*
X100500000Y-111428571D01*
X100452380Y-111333333D01*
X101452380Y-109952380D02*
X101452380Y-110523809D01*
X101452380Y-110238095D02*
X100452380Y-110238095D01*
X100595238Y-110333333D01*
X100690476Y-110428571D01*
X100738095Y-110523809D01*
X109333333Y-88857142D02*
X109285714Y-88904761D01*
X109142857Y-88952380D01*
X109047619Y-88952380D01*
X108904761Y-88904761D01*
X108809523Y-88809523D01*
X108761904Y-88714285D01*
X108714285Y-88523809D01*
X108714285Y-88380952D01*
X108761904Y-88190476D01*
X108809523Y-88095238D01*
X108904761Y-88000000D01*
X109047619Y-87952380D01*
X109142857Y-87952380D01*
X109285714Y-88000000D01*
X109333333Y-88047619D01*
X110285714Y-88952380D02*
X109714285Y-88952380D01*
X110000000Y-88952380D02*
X110000000Y-87952380D01*
X109904761Y-88095238D01*
X109809523Y-88190476D01*
X109714285Y-88238095D01*
X135452380Y-80166666D02*
X134976190Y-80500000D01*
X135452380Y-80738095D02*
X134452380Y-80738095D01*
X134452380Y-80357142D01*
X134500000Y-80261904D01*
X134547619Y-80214285D01*
X134642857Y-80166666D01*
X134785714Y-80166666D01*
X134880952Y-80214285D01*
X134928571Y-80261904D01*
X134976190Y-80357142D01*
X134976190Y-80738095D01*
X135452380Y-79214285D02*
X135452380Y-79785714D01*
X135452380Y-79500000D02*
X134452380Y-79500000D01*
X134595238Y-79595238D01*
X134690476Y-79690476D01*
X134738095Y-79785714D01*
X128333333Y-79357142D02*
X128285714Y-79404761D01*
X128142857Y-79452380D01*
X128047619Y-79452380D01*
X127904761Y-79404761D01*
X127809523Y-79309523D01*
X127761904Y-79214285D01*
X127714285Y-79023809D01*
X127714285Y-78880952D01*
X127761904Y-78690476D01*
X127809523Y-78595238D01*
X127904761Y-78500000D01*
X128047619Y-78452380D01*
X128142857Y-78452380D01*
X128285714Y-78500000D01*
X128333333Y-78547619D01*
X128809523Y-79452380D02*
X129000000Y-79452380D01*
X129095238Y-79404761D01*
X129142857Y-79357142D01*
X129238095Y-79214285D01*
X129285714Y-79023809D01*
X129285714Y-78642857D01*
X129238095Y-78547619D01*
X129190476Y-78500000D01*
X129095238Y-78452380D01*
X128904761Y-78452380D01*
X128809523Y-78500000D01*
X128761904Y-78547619D01*
X128714285Y-78642857D01*
X128714285Y-78880952D01*
X128761904Y-78976190D01*
X128809523Y-79023809D01*
X128904761Y-79071428D01*
X129095238Y-79071428D01*
X129190476Y-79023809D01*
X129238095Y-78976190D01*
X129285714Y-78880952D01*
X144238095Y-72452380D02*
X144238095Y-73261904D01*
X144285714Y-73357142D01*
X144333333Y-73404761D01*
X144428571Y-73452380D01*
X144619047Y-73452380D01*
X144714285Y-73404761D01*
X144761904Y-73357142D01*
X144809523Y-73261904D01*
X144809523Y-72452380D01*
X145238095Y-72547619D02*
X145285714Y-72500000D01*
X145380952Y-72452380D01*
X145619047Y-72452380D01*
X145714285Y-72500000D01*
X145761904Y-72547619D01*
X145809523Y-72642857D01*
X145809523Y-72738095D01*
X145761904Y-72880952D01*
X145190476Y-73452380D01*
X145809523Y-73452380D01*
X90296030Y-85873526D02*
X90868450Y-86445946D01*
X90969465Y-86479618D01*
X91036809Y-86479618D01*
X91137824Y-86445946D01*
X91272511Y-86311259D01*
X91306183Y-86210244D01*
X91306183Y-86142900D01*
X91272511Y-86041885D01*
X90700091Y-85469465D01*
X92114305Y-85469465D02*
X91710244Y-85873526D01*
X91912274Y-85671496D02*
X91205168Y-84964389D01*
X91238839Y-85132748D01*
X91238839Y-85267435D01*
X91205168Y-85368450D01*
X72422261Y-78452380D02*
X72422261Y-79166666D01*
X72374642Y-79309523D01*
X72279404Y-79404761D01*
X72136547Y-79452380D01*
X72041309Y-79452380D01*
X72898452Y-78452380D02*
X72898452Y-79261904D01*
X72946071Y-79357142D01*
X72993690Y-79404761D01*
X73088928Y-79452380D01*
X73279404Y-79452380D01*
X73374642Y-79404761D01*
X73422261Y-79357142D01*
X73469880Y-79261904D01*
X73469880Y-78452380D01*
X73946071Y-79452380D02*
X73946071Y-78452380D01*
X74327023Y-78452380D01*
X74422261Y-78500000D01*
X74469880Y-78547619D01*
X74517500Y-78642857D01*
X74517500Y-78785714D01*
X74469880Y-78880952D01*
X74422261Y-78928571D01*
X74327023Y-78976190D01*
X73946071Y-78976190D01*
X74946071Y-79452380D02*
X74946071Y-78452380D01*
X75184166Y-78452380D01*
X75327023Y-78500000D01*
X75422261Y-78595238D01*
X75469880Y-78690476D01*
X75517500Y-78880952D01*
X75517500Y-79023809D01*
X75469880Y-79214285D01*
X75422261Y-79309523D01*
X75327023Y-79404761D01*
X75184166Y-79452380D01*
X74946071Y-79452380D01*
X75946071Y-79452380D02*
X75946071Y-78452380D01*
X76946071Y-79452380D02*
X76374642Y-79452380D01*
X76660357Y-79452380D02*
X76660357Y-78452380D01*
X76565119Y-78595238D01*
X76469880Y-78690476D01*
X76374642Y-78738095D01*
X145452380Y-102833333D02*
X146166666Y-102833333D01*
X146309523Y-102880952D01*
X146404761Y-102976190D01*
X146452380Y-103119047D01*
X146452380Y-103214285D01*
X145452380Y-102357142D02*
X146261904Y-102357142D01*
X146357142Y-102309523D01*
X146404761Y-102261904D01*
X146452380Y-102166666D01*
X146452380Y-101976190D01*
X146404761Y-101880952D01*
X146357142Y-101833333D01*
X146261904Y-101785714D01*
X145452380Y-101785714D01*
X146404761Y-101357142D02*
X146452380Y-101214285D01*
X146452380Y-100976190D01*
X146404761Y-100880952D01*
X146357142Y-100833333D01*
X146261904Y-100785714D01*
X146166666Y-100785714D01*
X146071428Y-100833333D01*
X146023809Y-100880952D01*
X145976190Y-100976190D01*
X145928571Y-101166666D01*
X145880952Y-101261904D01*
X145833333Y-101309523D01*
X145738095Y-101357142D01*
X145642857Y-101357142D01*
X145547619Y-101309523D01*
X145500000Y-101261904D01*
X145452380Y-101166666D01*
X145452380Y-100928571D01*
X145500000Y-100785714D01*
X145928571Y-100023809D02*
X145976190Y-99880952D01*
X146023809Y-99833333D01*
X146119047Y-99785714D01*
X146261904Y-99785714D01*
X146357142Y-99833333D01*
X146404761Y-99880952D01*
X146452380Y-99976190D01*
X146452380Y-100357142D01*
X145452380Y-100357142D01*
X145452380Y-100023809D01*
X145500000Y-99928571D01*
X145547619Y-99880952D01*
X145642857Y-99833333D01*
X145738095Y-99833333D01*
X145833333Y-99880952D01*
X145880952Y-99928571D01*
X145928571Y-100023809D01*
X145928571Y-100357142D01*
X146452380Y-98833333D02*
X146452380Y-99404761D01*
X146452380Y-99119047D02*
X145452380Y-99119047D01*
X145595238Y-99214285D01*
X145690476Y-99309523D01*
X145738095Y-99404761D01*
X57857142Y-66452380D02*
X57857142Y-67166666D01*
X57809523Y-67309523D01*
X57714285Y-67404761D01*
X57571428Y-67452380D01*
X57476190Y-67452380D01*
X58285714Y-67404761D02*
X58428571Y-67452380D01*
X58666666Y-67452380D01*
X58761904Y-67404761D01*
X58809523Y-67357142D01*
X58857142Y-67261904D01*
X58857142Y-67166666D01*
X58809523Y-67071428D01*
X58761904Y-67023809D01*
X58666666Y-66976190D01*
X58476190Y-66928571D01*
X58380952Y-66880952D01*
X58333333Y-66833333D01*
X58285714Y-66738095D01*
X58285714Y-66642857D01*
X58333333Y-66547619D01*
X58380952Y-66500000D01*
X58476190Y-66452380D01*
X58714285Y-66452380D01*
X58857142Y-66500000D01*
X59142857Y-66452380D02*
X59714285Y-66452380D01*
X59428571Y-67452380D02*
X59428571Y-66452380D01*
X60047619Y-66928571D02*
X60380952Y-66928571D01*
X60523809Y-67452380D02*
X60047619Y-67452380D01*
X60047619Y-66452380D01*
X60523809Y-66452380D01*
X60952380Y-67452380D02*
X60952380Y-66452380D01*
X61333333Y-66452380D01*
X61428571Y-66500000D01*
X61476190Y-66547619D01*
X61523809Y-66642857D01*
X61523809Y-66785714D01*
X61476190Y-66880952D01*
X61428571Y-66928571D01*
X61333333Y-66976190D01*
X60952380Y-66976190D01*
X61857142Y-66452380D02*
X62476190Y-66452380D01*
X62142857Y-66833333D01*
X62285714Y-66833333D01*
X62380952Y-66880952D01*
X62428571Y-66928571D01*
X62476190Y-67023809D01*
X62476190Y-67261904D01*
X62428571Y-67357142D01*
X62380952Y-67404761D01*
X62285714Y-67452380D01*
X62000000Y-67452380D01*
X61904761Y-67404761D01*
X61857142Y-67357142D01*
X103333333Y-88907142D02*
X103285714Y-88954761D01*
X103142857Y-89002380D01*
X103047619Y-89002380D01*
X102904761Y-88954761D01*
X102809523Y-88859523D01*
X102761904Y-88764285D01*
X102714285Y-88573809D01*
X102714285Y-88430952D01*
X102761904Y-88240476D01*
X102809523Y-88145238D01*
X102904761Y-88050000D01*
X103047619Y-88002380D01*
X103142857Y-88002380D01*
X103285714Y-88050000D01*
X103333333Y-88097619D01*
X103666666Y-88002380D02*
X104285714Y-88002380D01*
X103952380Y-88383333D01*
X104095238Y-88383333D01*
X104190476Y-88430952D01*
X104238095Y-88478571D01*
X104285714Y-88573809D01*
X104285714Y-88811904D01*
X104238095Y-88907142D01*
X104190476Y-88954761D01*
X104095238Y-89002380D01*
X103809523Y-89002380D01*
X103714285Y-88954761D01*
X103666666Y-88907142D01*
D10*
X80738748Y-87265000D02*
X81261252Y-87265000D01*
X80738748Y-88735000D02*
X81261252Y-88735000D01*
X77940000Y-117110000D02*
X98061000Y-117110000D01*
X89250000Y-108950000D02*
X91750000Y-108950000D01*
X79250000Y-108950000D02*
X79250000Y-109950000D01*
X81750000Y-108950000D02*
X81750000Y-109950000D01*
X86750000Y-108950000D02*
X86750000Y-109950000D01*
X77700000Y-117350000D02*
X78300000Y-117350000D01*
X98061000Y-108890000D02*
X98061000Y-117110000D01*
X86775000Y-111931000D02*
X86529000Y-112177000D01*
X77940000Y-108890000D02*
X98061000Y-108890000D01*
X84472000Y-113823000D02*
X84226000Y-114069000D01*
X94472000Y-113823000D02*
X94226000Y-114069000D01*
X79250000Y-109950000D02*
X81750000Y-109950000D01*
X94250000Y-108950000D02*
X96750000Y-108950000D01*
X77940000Y-110950000D02*
X98061000Y-110950000D01*
X96570000Y-111725000D02*
X96359000Y-111936000D01*
X77700000Y-116510000D02*
X77700000Y-117350000D01*
X77940000Y-108890000D02*
X77940000Y-117110000D01*
X84250000Y-109950000D02*
X86750000Y-109950000D01*
X77940000Y-115850000D02*
X98061000Y-115850000D01*
X91570000Y-111725000D02*
X91359000Y-111936000D01*
X79250000Y-108950000D02*
X81750000Y-108950000D01*
X91750000Y-108950000D02*
X91750000Y-109950000D01*
X96750000Y-108950000D02*
X96750000Y-109950000D01*
X94630000Y-114075000D02*
X94431000Y-114274000D01*
X94250000Y-109950000D02*
X96750000Y-109950000D01*
X84250000Y-108950000D02*
X86750000Y-108950000D01*
X89250000Y-108950000D02*
X89250000Y-109950000D01*
X86570000Y-111725000D02*
X86359000Y-111936000D01*
X84250000Y-108950000D02*
X84250000Y-109950000D01*
X96775000Y-111931000D02*
X96529000Y-112177000D01*
X89250000Y-109950000D02*
X91750000Y-109950000D01*
X94250000Y-108950000D02*
X94250000Y-109950000D01*
X77940000Y-116450000D02*
X98061000Y-116450000D01*
X89472000Y-113823000D02*
X89226000Y-114069000D01*
X91775000Y-111931000D02*
X91529000Y-112177000D01*
X89630000Y-114075000D02*
X89431000Y-114274000D01*
X84630000Y-114075000D02*
X84431000Y-114274000D01*
X79213000Y-111919000D02*
G75*
G03*
X79211938Y-114079734I1287002J-1081000D01*
G01*
X79419000Y-114287000D02*
G75*
G03*
X80528507Y-114680511I1081001J1287002D01*
G01*
X80500000Y-114680000D02*
G75*
G03*
X81579883Y-114286955I2J1679994D01*
G01*
X81580000Y-111713000D02*
G75*
G03*
X79420092Y-111712922I-1080000J-1287001D01*
G01*
X81787000Y-114080000D02*
G75*
G03*
X81787078Y-111920092I-1287001J1080000D01*
G01*
X97180000Y-113000000D02*
G75*
G03*
X97180000Y-113000000I-1680000J0D01*
G01*
X87180000Y-113000000D02*
G75*
G03*
X87180000Y-113000000I-1680000J0D01*
G01*
X92180000Y-113000000D02*
G75*
G03*
X92180000Y-113000000I-1680000J0D01*
G01*
X80772936Y-92735000D02*
X81227064Y-92735000D01*
X80772936Y-91265000D02*
X81227064Y-91265000D01*
X46990000Y-100390000D02*
X46990000Y-97730000D01*
X64830000Y-100390000D02*
X64830000Y-97730000D01*
X44390000Y-99060000D02*
X44390000Y-97730000D01*
X44390000Y-97730000D02*
X45720000Y-97730000D01*
X46990000Y-100390000D02*
X64830000Y-100390000D01*
X46990000Y-97730000D02*
X64830000Y-97730000D01*
X64830000Y-87690000D02*
X64830000Y-85030000D01*
X44390000Y-85030000D02*
X45720000Y-85030000D01*
X46990000Y-87690000D02*
X46990000Y-85030000D01*
X46990000Y-87690000D02*
X64830000Y-87690000D01*
X46990000Y-85030000D02*
X64830000Y-85030000D01*
X44390000Y-86360000D02*
X44390000Y-85030000D01*
X50260000Y-82260000D02*
X50260000Y-79510000D01*
X41740000Y-81195563D02*
X41740000Y-79510000D01*
X42804437Y-73740000D02*
X50260000Y-73740000D01*
X41000000Y-74990000D02*
X41000000Y-75990000D01*
X42804437Y-82260000D02*
X50260000Y-82260000D01*
X41740000Y-74804437D02*
X41740000Y-76490000D01*
X41740000Y-74804437D02*
X42804437Y-73740000D01*
X40500000Y-75490000D02*
X41500000Y-75490000D01*
X41740000Y-81195563D02*
X42804437Y-82260000D01*
X50260000Y-73740000D02*
X50260000Y-76490000D01*
X138761252Y-92765000D02*
X138238748Y-92765000D01*
X138761252Y-94235000D02*
X138238748Y-94235000D01*
X107235000Y-85288748D02*
X107235000Y-85811252D01*
X105765000Y-85288748D02*
X105765000Y-85811252D01*
X138238748Y-101765000D02*
X138761252Y-101765000D01*
X138238748Y-103235000D02*
X138761252Y-103235000D01*
X64250000Y-109950000D02*
X66750000Y-109950000D01*
X66570000Y-111725000D02*
X66359000Y-111936000D01*
X54250000Y-108950000D02*
X56750000Y-108950000D01*
X69472000Y-113823000D02*
X69226000Y-114069000D01*
X52940000Y-108890000D02*
X52940000Y-117110000D01*
X69630000Y-114075000D02*
X69431000Y-114274000D01*
X54250000Y-108950000D02*
X54250000Y-109950000D01*
X52700000Y-117350000D02*
X53300000Y-117350000D01*
X59250000Y-108950000D02*
X61750000Y-108950000D01*
X59250000Y-108950000D02*
X59250000Y-109950000D01*
X61570000Y-111725000D02*
X61359000Y-111936000D01*
X61750000Y-108950000D02*
X61750000Y-109950000D01*
X56750000Y-108950000D02*
X56750000Y-109950000D01*
X59250000Y-109950000D02*
X61750000Y-109950000D01*
X69250000Y-108950000D02*
X69250000Y-109950000D01*
X52940000Y-115850000D02*
X73061000Y-115850000D01*
X64250000Y-108950000D02*
X64250000Y-109950000D01*
X61775000Y-111931000D02*
X61529000Y-112177000D01*
X69250000Y-109950000D02*
X71750000Y-109950000D01*
X52940000Y-117110000D02*
X73061000Y-117110000D01*
X59472000Y-113823000D02*
X59226000Y-114069000D01*
X64630000Y-114075000D02*
X64431000Y-114274000D01*
X69250000Y-108950000D02*
X71750000Y-108950000D01*
X52700000Y-116510000D02*
X52700000Y-117350000D01*
X52940000Y-108890000D02*
X73061000Y-108890000D01*
X71750000Y-108950000D02*
X71750000Y-109950000D01*
X64250000Y-108950000D02*
X66750000Y-108950000D01*
X59630000Y-114075000D02*
X59431000Y-114274000D01*
X64472000Y-113823000D02*
X64226000Y-114069000D01*
X66775000Y-111931000D02*
X66529000Y-112177000D01*
X54250000Y-109950000D02*
X56750000Y-109950000D01*
X73061000Y-108890000D02*
X73061000Y-117110000D01*
X52940000Y-110950000D02*
X73061000Y-110950000D01*
X52940000Y-116450000D02*
X73061000Y-116450000D01*
X71570000Y-111725000D02*
X71359000Y-111936000D01*
X71775000Y-111931000D02*
X71529000Y-112177000D01*
X66750000Y-108950000D02*
X66750000Y-109950000D01*
X55500000Y-114680000D02*
G75*
G03*
X56579883Y-114286955I2J1679994D01*
G01*
X56580000Y-111713000D02*
G75*
G03*
X54420092Y-111712922I-1080000J-1287001D01*
G01*
X54419000Y-114287000D02*
G75*
G03*
X55528507Y-114680511I1081001J1287002D01*
G01*
X54213000Y-111919000D02*
G75*
G03*
X54211938Y-114079734I1287002J-1081000D01*
G01*
X56787000Y-114080000D02*
G75*
G03*
X56787078Y-111920092I-1287001J1080000D01*
G01*
X62180000Y-113000000D02*
G75*
G03*
X62180000Y-113000000I-1680000J0D01*
G01*
X67180000Y-113000000D02*
G75*
G03*
X67180000Y-113000000I-1680000J0D01*
G01*
X72180000Y-113000000D02*
G75*
G03*
X72180000Y-113000000I-1680000J0D01*
G01*
X125550000Y-82900000D02*
X123350000Y-82900000D01*
X125550000Y-80700000D02*
X122550000Y-80700000D01*
X136775000Y-112231000D02*
X136681000Y-112324000D01*
X127940000Y-110900000D02*
X138060000Y-110900000D01*
X127940000Y-109140000D02*
X138060000Y-109140000D01*
X138060000Y-109140000D02*
X138060000Y-116861000D01*
X127700000Y-116260000D02*
X127700000Y-117100000D01*
X127940000Y-116861000D02*
X138060000Y-116861000D01*
X134490000Y-114516000D02*
X134431000Y-114574000D01*
X127940000Y-109140000D02*
X127940000Y-116861000D01*
X136570000Y-112025000D02*
X136511000Y-112084000D01*
X127940000Y-116200000D02*
X138060000Y-116200000D01*
X127940000Y-115600000D02*
X138060000Y-115600000D01*
X127700000Y-117100000D02*
X128300000Y-117100000D01*
X134320000Y-114276000D02*
X134226000Y-114369000D01*
X129016000Y-112511000D02*
G75*
G03*
X129016047Y-114089089I1483995J-789000D01*
G01*
X131984000Y-114089000D02*
G75*
G03*
X131983953Y-112510911I-1483995J789000D01*
G01*
X131289000Y-111816000D02*
G75*
G03*
X129710911Y-111816047I-789000J-1483995D01*
G01*
X130500000Y-114980000D02*
G75*
G03*
X131288712Y-114783352I2J1679991D01*
G01*
X129711000Y-114784000D02*
G75*
G03*
X130529383Y-114980450I788998J1483995D01*
G01*
X137180000Y-113300000D02*
G75*
G03*
X137180000Y-113300000I-1680000J0D01*
G01*
X131050000Y-110300000D02*
G75*
G03*
X131050000Y-110300000I-550000J0D01*
G01*
X136050000Y-110300000D02*
G75*
G03*
X136050000Y-110300000I-550000J0D01*
G01*
X141738748Y-85885000D02*
X142261252Y-85885000D01*
X141738748Y-84415000D02*
X142261252Y-84415000D01*
X76290000Y-91545000D02*
X76290000Y-88455000D01*
X76290000Y-88455170D02*
G75*
G03*
X70740000Y-90000462I-2560000J-1544830D01*
G01*
X70740000Y-89999538D02*
G75*
G03*
X76290000Y-91544830I2990000J-462D01*
G01*
X76230000Y-90000000D02*
G75*
G03*
X76230000Y-90000000I-2500000J0D01*
G01*
X139510000Y-81750000D02*
X139510000Y-77540000D01*
X136490000Y-77540000D02*
X136490000Y-81750000D01*
X139510000Y-77540000D02*
X136490000Y-77540000D01*
X121185000Y-81538748D02*
X121185000Y-82061252D01*
X119715000Y-81538748D02*
X119715000Y-82061252D01*
D14*
X141675000Y-96325000D02*
X141675000Y-96625000D01*
X138325000Y-96325000D02*
X138325000Y-96625000D01*
X141675000Y-99450000D02*
X142900000Y-99450000D01*
X141675000Y-96325000D02*
X138325000Y-96325000D01*
X141675000Y-99675000D02*
X141675000Y-99450000D01*
X141675000Y-99675000D02*
X138325000Y-99675000D01*
X138325000Y-99675000D02*
X138325000Y-99375000D01*
D10*
X132265000Y-83738748D02*
X132265000Y-84261252D01*
X133735000Y-83738748D02*
X133735000Y-84261252D01*
X146788748Y-85885000D02*
X147311252Y-85885000D01*
X146788748Y-84415000D02*
X147311252Y-84415000D01*
X103120000Y-61567500D02*
X103620000Y-60567500D01*
X93450000Y-63267500D02*
X93450000Y-61957500D01*
X83970000Y-63267500D02*
X93450000Y-63267500D01*
X93450000Y-63267500D02*
X93450000Y-63267500D01*
X97550000Y-63267500D02*
X107030000Y-63267500D01*
X108330000Y-61957500D02*
X108330000Y-71077500D01*
X108330000Y-71077500D02*
X82670000Y-71077500D01*
X107030000Y-69767500D02*
X83970000Y-69767500D01*
X102620000Y-60567500D02*
X103120000Y-61567500D01*
X82670000Y-71077500D02*
X82670000Y-61957500D01*
X107030000Y-63267500D02*
X107030000Y-69767500D01*
X103620000Y-60567500D02*
X102620000Y-60567500D01*
X97550000Y-61957500D02*
X97550000Y-63267500D01*
X82670000Y-61957500D02*
X108330000Y-61957500D01*
X83970000Y-69767500D02*
X83970000Y-63267500D01*
X138435000Y-70950000D02*
X138435000Y-72280000D01*
X133235000Y-72280000D02*
X133235000Y-62000000D01*
X138435000Y-62000000D02*
X133235000Y-62000000D01*
X138435000Y-72280000D02*
X137105000Y-72280000D01*
X138435000Y-69680000D02*
X138435000Y-62000000D01*
X135835000Y-69680000D02*
X135835000Y-72280000D01*
X135835000Y-72280000D02*
X133235000Y-72280000D01*
X138435000Y-69680000D02*
X135835000Y-69680000D01*
X104250000Y-108950000D02*
X104250000Y-109950000D01*
X121750000Y-108950000D02*
X121750000Y-109950000D01*
X102940000Y-116450000D02*
X123061000Y-116450000D01*
X104250000Y-109950000D02*
X106750000Y-109950000D01*
X111750000Y-108950000D02*
X111750000Y-109950000D01*
X102700000Y-117350000D02*
X103300000Y-117350000D01*
X119250000Y-108950000D02*
X119250000Y-109950000D01*
X116570000Y-111725000D02*
X116359000Y-111936000D01*
X119472000Y-113823000D02*
X119226000Y-114069000D01*
X106750000Y-108950000D02*
X106750000Y-109950000D01*
X102940000Y-117110000D02*
X123061000Y-117110000D01*
X114250000Y-108950000D02*
X114250000Y-109950000D01*
X102940000Y-115850000D02*
X123061000Y-115850000D01*
X102940000Y-108890000D02*
X102940000Y-117110000D01*
X116750000Y-108950000D02*
X116750000Y-109950000D01*
X109250000Y-108950000D02*
X111750000Y-108950000D01*
X121775000Y-111931000D02*
X121529000Y-112177000D01*
X114630000Y-114075000D02*
X114431000Y-114274000D01*
X116775000Y-111931000D02*
X116529000Y-112177000D01*
X109630000Y-114075000D02*
X109431000Y-114274000D01*
X102940000Y-108890000D02*
X123061000Y-108890000D01*
X114250000Y-108950000D02*
X116750000Y-108950000D01*
X114472000Y-113823000D02*
X114226000Y-114069000D01*
X109250000Y-108950000D02*
X109250000Y-109950000D01*
X114250000Y-109950000D02*
X116750000Y-109950000D01*
X121570000Y-111725000D02*
X121359000Y-111936000D01*
X119250000Y-109950000D02*
X121750000Y-109950000D01*
X111775000Y-111931000D02*
X111529000Y-112177000D01*
X104250000Y-108950000D02*
X106750000Y-108950000D01*
X102700000Y-116510000D02*
X102700000Y-117350000D01*
X119250000Y-108950000D02*
X121750000Y-108950000D01*
X102940000Y-110950000D02*
X123061000Y-110950000D01*
X109250000Y-109950000D02*
X111750000Y-109950000D01*
X111570000Y-111725000D02*
X111359000Y-111936000D01*
X123061000Y-108890000D02*
X123061000Y-117110000D01*
X119630000Y-114075000D02*
X119431000Y-114274000D01*
X109472000Y-113823000D02*
X109226000Y-114069000D01*
X106787000Y-114080000D02*
G75*
G03*
X106787078Y-111920092I-1287001J1080000D01*
G01*
X104419000Y-114287000D02*
G75*
G03*
X105528507Y-114680511I1081001J1287002D01*
G01*
X106580000Y-111713000D02*
G75*
G03*
X104420092Y-111712922I-1080000J-1287001D01*
G01*
X104213000Y-111919000D02*
G75*
G03*
X104211938Y-114079734I1287002J-1081000D01*
G01*
X105500000Y-114680000D02*
G75*
G03*
X106579883Y-114286955I2J1679994D01*
G01*
X117180000Y-113000000D02*
G75*
G03*
X117180000Y-113000000I-1680000J0D01*
G01*
X122180000Y-113000000D02*
G75*
G03*
X122180000Y-113000000I-1680000J0D01*
G01*
X112180000Y-113000000D02*
G75*
G03*
X112180000Y-113000000I-1680000J0D01*
G01*
X108565000Y-87510000D02*
X110435000Y-87510000D01*
X110435000Y-87510000D02*
X110435000Y-83600000D01*
X108565000Y-83600000D02*
X108565000Y-87510000D01*
X133735000Y-79772936D02*
X133735000Y-80227064D01*
X132265000Y-79772936D02*
X132265000Y-80227064D01*
X127715000Y-81538748D02*
X127715000Y-82061252D01*
X129185000Y-81538748D02*
X129185000Y-82061252D01*
X148410000Y-76590000D02*
X147150000Y-76590000D01*
X141590000Y-76590000D02*
X142850000Y-76590000D01*
X148410000Y-80350000D02*
X148410000Y-76590000D01*
X141590000Y-82600000D02*
X141590000Y-76590000D01*
D14*
X90532575Y-90159099D02*
X89524948Y-91166726D01*
X90373476Y-90000000D02*
X90532575Y-90159099D01*
X100626524Y-90000000D02*
X100396714Y-89770190D01*
X95500000Y-84873476D02*
X95270190Y-85103286D01*
X95500000Y-84873476D02*
X95729810Y-85103286D01*
X100626524Y-90000000D02*
X100396714Y-90229810D01*
X90373476Y-90000000D02*
X90603286Y-89770190D01*
X95500000Y-95126524D02*
X95270190Y-94896714D01*
X95500000Y-95126524D02*
X95729810Y-94896714D01*
D10*
X69957500Y-61745000D02*
X79077500Y-61745000D01*
X69957500Y-77245000D02*
X69957500Y-61745000D01*
X77767500Y-75945000D02*
X71267500Y-75945000D01*
X68567500Y-66455000D02*
X68567500Y-67455000D01*
X71267500Y-67445000D02*
X71267500Y-63045000D01*
X71267500Y-71545000D02*
X69957500Y-71545000D01*
X71267500Y-71545000D02*
X71267500Y-71545000D01*
X79077500Y-77245000D02*
X69957500Y-77245000D01*
X69567500Y-66955000D02*
X68567500Y-66455000D01*
X77767500Y-63045000D02*
X77767500Y-75945000D01*
X69957500Y-67445000D02*
X71267500Y-67445000D01*
X71267500Y-63045000D02*
X77767500Y-63045000D01*
X68567500Y-67455000D02*
X69567500Y-66955000D01*
X71267500Y-75945000D02*
X71267500Y-71545000D01*
X79077500Y-61745000D02*
X79077500Y-77245000D01*
X146950000Y-102700000D02*
X146950000Y-102250000D01*
X149500000Y-97300000D02*
X147750000Y-97300000D01*
X151900000Y-97250000D02*
X151650000Y-97250000D01*
X146950000Y-102700000D02*
X147400000Y-102700000D01*
X151900000Y-104750000D02*
X151650000Y-104750000D01*
X147750000Y-104725000D02*
X147750000Y-104250000D01*
X147750000Y-97300000D02*
X147750000Y-97750000D01*
X149500000Y-104725000D02*
X147750000Y-104725000D01*
X57470000Y-64330000D02*
X57470000Y-61670000D01*
X54870000Y-64330000D02*
X54870000Y-63000000D01*
X65150000Y-64330000D02*
X65150000Y-61670000D01*
X56200000Y-64330000D02*
X54870000Y-64330000D01*
X57470000Y-64330000D02*
X65150000Y-64330000D01*
X57470000Y-61670000D02*
X65150000Y-61670000D01*
X102765000Y-85288748D02*
X102765000Y-85811252D01*
X104235000Y-85288748D02*
X104235000Y-85811252D01*
%LPC*%
D15*
X80050000Y-88000000D03*
X81950000Y-88000000D03*
D16*
X80500000Y-113000000D03*
D17*
X85500000Y-113000000D03*
X90500000Y-113000000D03*
X95500000Y-113000000D03*
D18*
X80087500Y-92000000D03*
X81912500Y-92000000D03*
D19*
X45720000Y-99060000D03*
D20*
X48260000Y-99060000D03*
X50800000Y-99060000D03*
X53340000Y-99060000D03*
X55880000Y-99060000D03*
X58420000Y-99060000D03*
X60960000Y-99060000D03*
X63500000Y-99060000D03*
D19*
X45720000Y-86360000D03*
D20*
X48260000Y-86360000D03*
X50800000Y-86360000D03*
X53340000Y-86360000D03*
X55880000Y-86360000D03*
X58420000Y-86360000D03*
X60960000Y-86360000D03*
X63500000Y-86360000D03*
D21*
X42750000Y-78000000D03*
X49250000Y-78000000D03*
D22*
X139450000Y-93500000D03*
X137550000Y-93500000D03*
D23*
X106500000Y-84600000D03*
X106500000Y-86500000D03*
D15*
X137550000Y-102500000D03*
X139450000Y-102500000D03*
D16*
X55500000Y-113000000D03*
D17*
X60500000Y-113000000D03*
X65500000Y-113000000D03*
X70500000Y-113000000D03*
D24*
X122900000Y-81050000D03*
X122900000Y-81550000D03*
X122900000Y-82050000D03*
X122900000Y-82550000D03*
X126000000Y-82550000D03*
X126000000Y-82050000D03*
X126000000Y-81550000D03*
X126000000Y-81050000D03*
D25*
X146000000Y-66000000D03*
D26*
X130500000Y-113300000D03*
D27*
X135500000Y-113300000D03*
D25*
X45000000Y-66000000D03*
D15*
X142950000Y-85150000D03*
X141050000Y-85150000D03*
D28*
X75000000Y-90000000D03*
D29*
X72460000Y-90000000D03*
D30*
X138000000Y-78462500D03*
X138000000Y-81537500D03*
D23*
X120450000Y-80850000D03*
X120450000Y-82750000D03*
D25*
X146000000Y-114000000D03*
D31*
X142200000Y-99000000D03*
X142200000Y-98500000D03*
X142200000Y-98000000D03*
X142200000Y-97500000D03*
X142200000Y-97000000D03*
X137800000Y-97000000D03*
X137800000Y-97500000D03*
X137800000Y-98000000D03*
X137800000Y-98500000D03*
X137800000Y-99000000D03*
D23*
X133000000Y-83050000D03*
X133000000Y-84950000D03*
D15*
X146100000Y-85150000D03*
X148000000Y-85150000D03*
D32*
X87880000Y-67787500D03*
X87880000Y-65247500D03*
X90420000Y-67787500D03*
X90420000Y-65247500D03*
X92960000Y-67787500D03*
X92960000Y-65247500D03*
X95500000Y-67787500D03*
X95500000Y-65247500D03*
X98040000Y-67787500D03*
X98040000Y-65247500D03*
X100580000Y-67787500D03*
X100580000Y-65247500D03*
X103120000Y-67787500D03*
D33*
X103120000Y-65247500D03*
D19*
X137105000Y-70950000D03*
D20*
X134565000Y-70950000D03*
X137105000Y-68410000D03*
X134565000Y-68410000D03*
X137105000Y-65870000D03*
X134565000Y-65870000D03*
X137105000Y-63330000D03*
X134565000Y-63330000D03*
D16*
X105500000Y-113000000D03*
D17*
X110500000Y-113000000D03*
X115500000Y-113000000D03*
X120500000Y-113000000D03*
D34*
X109500000Y-86550000D03*
X109500000Y-83850000D03*
D35*
X133000000Y-79087500D03*
X133000000Y-80912500D03*
D23*
X128450000Y-80850000D03*
X128450000Y-82750000D03*
D36*
X147300000Y-81650000D03*
X145000000Y-81650000D03*
D37*
X145000000Y-75350000D03*
D36*
X142700000Y-81650000D03*
D38*
X90514897Y-91025305D03*
X91080583Y-91590990D03*
X91646268Y-92156676D03*
X92211953Y-92722361D03*
X92777639Y-93288047D03*
X93343324Y-93853732D03*
X93909010Y-94419417D03*
X94474695Y-94985103D03*
D39*
X96525305Y-94985103D03*
X97090990Y-94419417D03*
X97656676Y-93853732D03*
X98222361Y-93288047D03*
X98788047Y-92722361D03*
X99353732Y-92156676D03*
X99919417Y-91590990D03*
X100485103Y-91025305D03*
D38*
X100485103Y-88974695D03*
X99919417Y-88409010D03*
X99353732Y-87843324D03*
X98788047Y-87277639D03*
X98222361Y-86711953D03*
X97656676Y-86146268D03*
X97090990Y-85580583D03*
X96525305Y-85014897D03*
D39*
X94474695Y-85014897D03*
X93909010Y-85580583D03*
X93343324Y-86146268D03*
X92777639Y-86711953D03*
X92211953Y-87277639D03*
X91646268Y-87843324D03*
X91080583Y-88409010D03*
X90514897Y-88974695D03*
D40*
X73247500Y-66955000D03*
D32*
X75787500Y-66955000D03*
X73247500Y-69495000D03*
X75787500Y-69495000D03*
X73247500Y-72035000D03*
X75787500Y-72035000D03*
D25*
X45000000Y-114000000D03*
D41*
X147900000Y-102300000D03*
X147900000Y-101650000D03*
X147900000Y-101000000D03*
X147900000Y-100350000D03*
X147900000Y-99700000D03*
D42*
X148320000Y-98680000D03*
D43*
X150550000Y-104575000D03*
D44*
X150550000Y-102237500D03*
D42*
X148320000Y-103320000D03*
D44*
X150550000Y-99762500D03*
D43*
X150550000Y-97425000D03*
D19*
X56200000Y-63000000D03*
D20*
X58740000Y-63000000D03*
X61280000Y-63000000D03*
X63820000Y-63000000D03*
D23*
X103500000Y-84600000D03*
X103500000Y-86500000D03*
M02*
