G04 #@! TF.GenerationSoftware,KiCad,Pcbnew,(6.0.0)*
G04 #@! TF.CreationDate,2022-07-19T14:29:55+02:00*
G04 #@! TF.ProjectId,mht-base,6e666c2d-6261-4736-952e-6b696361645f,rev?*
G04 #@! TF.SameCoordinates,Original*
G04 #@! TF.FileFunction,Soldermask,Bot*
G04 #@! TF.FilePolarity,Negative*
%FSLAX46Y46*%
G04 Gerber Fmt 4.6, Leading zero omitted, Abs format (unit mm)*
G04 Created by KiCad (PCBNEW (6.0.0)) date 2022-07-19 14:29:55*
%MOMM*%
%LPD*%
G01*
G04 APERTURE LIST*
G04 Aperture macros list*
%AMRoundRect*
0 Rectangle with rounded corners*
0 $1 Rounding radius*
0 $2 $3 $4 $5 $6 $7 $8 $9 X,Y pos of 4 corners*
0 Add a 4 corners polygon primitive as box body*
4,1,4,$2,$3,$4,$5,$6,$7,$8,$9,$2,$3,0*
0 Add four circle primitives for the rounded corners*
1,1,$1+$1,$2,$3*
1,1,$1+$1,$4,$5*
1,1,$1+$1,$6,$7*
1,1,$1+$1,$8,$9*
0 Add four rect primitives between the rounded corners*
20,1,$1+$1,$2,$3,$4,$5,0*
20,1,$1+$1,$4,$5,$6,$7,0*
20,1,$1+$1,$6,$7,$8,$9,0*
20,1,$1+$1,$8,$9,$2,$3,0*%
G04 Aperture macros list end*
%ADD10R,2.100000X2.100000*%
%ADD11C,2.100000*%
%ADD12R,1.700000X1.700000*%
%ADD13O,1.700000X1.700000*%
%ADD14C,3.200000*%
%ADD15R,2.500000X2.500000*%
%ADD16C,2.500000*%
%ADD17R,1.800000X1.800000*%
%ADD18C,1.800000*%
%ADD19C,1.700000*%
%ADD20RoundRect,0.250000X-0.600000X0.600000X-0.600000X-0.600000X0.600000X-0.600000X0.600000X0.600000X0*%
%ADD21RoundRect,0.250000X-0.600000X-0.600000X0.600000X-0.600000X0.600000X0.600000X-0.600000X0.600000X0*%
%ADD22O,1.850000X1.050000*%
G04 APERTURE END LIST*
D10*
X80500000Y-113000000D03*
D11*
X85500000Y-113000000D03*
X90500000Y-113000000D03*
X95500000Y-113000000D03*
D12*
X45720000Y-99060000D03*
D13*
X48260000Y-99060000D03*
X50800000Y-99060000D03*
X53340000Y-99060000D03*
X55880000Y-99060000D03*
X58420000Y-99060000D03*
X60960000Y-99060000D03*
X63500000Y-99060000D03*
D12*
X45720000Y-86360000D03*
D13*
X48260000Y-86360000D03*
X50800000Y-86360000D03*
X53340000Y-86360000D03*
X55880000Y-86360000D03*
X58420000Y-86360000D03*
X60960000Y-86360000D03*
X63500000Y-86360000D03*
D10*
X55500000Y-113000000D03*
D11*
X60500000Y-113000000D03*
X65500000Y-113000000D03*
X70500000Y-113000000D03*
D14*
X146000000Y-66000000D03*
D15*
X130500000Y-113300000D03*
D16*
X135500000Y-113300000D03*
D14*
X45000000Y-66000000D03*
D17*
X75000000Y-90000000D03*
D18*
X72460000Y-90000000D03*
D14*
X146000000Y-114000000D03*
D19*
X87880000Y-67787500D03*
X87880000Y-65247500D03*
X90420000Y-67787500D03*
X90420000Y-65247500D03*
X92960000Y-67787500D03*
X92960000Y-65247500D03*
X95500000Y-67787500D03*
X95500000Y-65247500D03*
X98040000Y-67787500D03*
X98040000Y-65247500D03*
X100580000Y-67787500D03*
X100580000Y-65247500D03*
X103120000Y-67787500D03*
D20*
X103120000Y-65247500D03*
D12*
X137105000Y-70950000D03*
D13*
X134565000Y-70950000D03*
X137105000Y-68410000D03*
X134565000Y-68410000D03*
X137105000Y-65870000D03*
X134565000Y-65870000D03*
X137105000Y-63330000D03*
X134565000Y-63330000D03*
D10*
X105500000Y-113000000D03*
D11*
X110500000Y-113000000D03*
X115500000Y-113000000D03*
X120500000Y-113000000D03*
D21*
X73247500Y-66955000D03*
D19*
X75787500Y-66955000D03*
X73247500Y-69495000D03*
X75787500Y-69495000D03*
X73247500Y-72035000D03*
X75787500Y-72035000D03*
D14*
X45000000Y-114000000D03*
D22*
X150550000Y-104575000D03*
X150550000Y-97425000D03*
D12*
X56200000Y-63000000D03*
D13*
X58740000Y-63000000D03*
X61280000Y-63000000D03*
X63820000Y-63000000D03*
M02*
