G04 #@! TF.GenerationSoftware,KiCad,Pcbnew,(6.0.0)*
G04 #@! TF.CreationDate,2022-07-19T14:29:55+02:00*
G04 #@! TF.ProjectId,mht-base,6e666c2d-6261-4736-952e-6b696361645f,rev?*
G04 #@! TF.SameCoordinates,Original*
G04 #@! TF.FileFunction,Legend,Bot*
G04 #@! TF.FilePolarity,Positive*
%FSLAX46Y46*%
G04 Gerber Fmt 4.6, Leading zero omitted, Abs format (unit mm)*
G04 Created by KiCad (PCBNEW (6.0.0)) date 2022-07-19 14:29:55*
%MOMM*%
%LPD*%
G01*
G04 APERTURE LIST*
G04 Aperture macros list*
%AMRoundRect*
0 Rectangle with rounded corners*
0 $1 Rounding radius*
0 $2 $3 $4 $5 $6 $7 $8 $9 X,Y pos of 4 corners*
0 Add a 4 corners polygon primitive as box body*
4,1,4,$2,$3,$4,$5,$6,$7,$8,$9,$2,$3,0*
0 Add four circle primitives for the rounded corners*
1,1,$1+$1,$2,$3*
1,1,$1+$1,$4,$5*
1,1,$1+$1,$6,$7*
1,1,$1+$1,$8,$9*
0 Add four rect primitives between the rounded corners*
20,1,$1+$1,$2,$3,$4,$5,0*
20,1,$1+$1,$4,$5,$6,$7,0*
20,1,$1+$1,$6,$7,$8,$9,0*
20,1,$1+$1,$8,$9,$2,$3,0*%
G04 Aperture macros list end*
%ADD10C,0.250000*%
%ADD11R,2.100000X2.100000*%
%ADD12C,2.100000*%
%ADD13R,1.700000X1.700000*%
%ADD14O,1.700000X1.700000*%
%ADD15C,3.200000*%
%ADD16R,2.500000X2.500000*%
%ADD17C,2.500000*%
%ADD18R,1.800000X1.800000*%
%ADD19C,1.800000*%
%ADD20C,1.700000*%
%ADD21RoundRect,0.250000X-0.600000X0.600000X-0.600000X-0.600000X0.600000X-0.600000X0.600000X0.600000X0*%
%ADD22RoundRect,0.250000X-0.600000X-0.600000X0.600000X-0.600000X0.600000X0.600000X-0.600000X0.600000X0*%
%ADD23O,1.850000X1.050000*%
G04 APERTURE END LIST*
D10*
X150313690Y-117952380D02*
X150313690Y-118666666D01*
X150361309Y-118809523D01*
X150456547Y-118904761D01*
X150599404Y-118952380D01*
X150694642Y-118952380D01*
X149361309Y-118952380D02*
X149837500Y-118952380D01*
X149837500Y-117952380D01*
X148456547Y-118857142D02*
X148504166Y-118904761D01*
X148647023Y-118952380D01*
X148742261Y-118952380D01*
X148885119Y-118904761D01*
X148980357Y-118809523D01*
X149027976Y-118714285D01*
X149075595Y-118523809D01*
X149075595Y-118380952D01*
X149027976Y-118190476D01*
X148980357Y-118095238D01*
X148885119Y-118000000D01*
X148742261Y-117952380D01*
X148647023Y-117952380D01*
X148504166Y-118000000D01*
X148456547Y-118047619D01*
X147742261Y-117952380D02*
X147742261Y-118666666D01*
X147789880Y-118809523D01*
X147885119Y-118904761D01*
X148027976Y-118952380D01*
X148123214Y-118952380D01*
X146789880Y-118952380D02*
X147266071Y-118952380D01*
X147266071Y-117952380D01*
X145885119Y-118857142D02*
X145932738Y-118904761D01*
X146075595Y-118952380D01*
X146170833Y-118952380D01*
X146313690Y-118904761D01*
X146408928Y-118809523D01*
X146456547Y-118714285D01*
X146504166Y-118523809D01*
X146504166Y-118380952D01*
X146456547Y-118190476D01*
X146408928Y-118095238D01*
X146313690Y-118000000D01*
X146170833Y-117952380D01*
X146075595Y-117952380D01*
X145932738Y-118000000D01*
X145885119Y-118047619D01*
X145170833Y-117952380D02*
X145170833Y-118666666D01*
X145218452Y-118809523D01*
X145313690Y-118904761D01*
X145456547Y-118952380D01*
X145551785Y-118952380D01*
X144218452Y-118952380D02*
X144694642Y-118952380D01*
X144694642Y-117952380D01*
X143313690Y-118857142D02*
X143361309Y-118904761D01*
X143504166Y-118952380D01*
X143599404Y-118952380D01*
X143742261Y-118904761D01*
X143837500Y-118809523D01*
X143885119Y-118714285D01*
X143932738Y-118523809D01*
X143932738Y-118380952D01*
X143885119Y-118190476D01*
X143837500Y-118095238D01*
X143742261Y-118000000D01*
X143599404Y-117952380D01*
X143504166Y-117952380D01*
X143361309Y-118000000D01*
X143313690Y-118047619D01*
X142599404Y-117952380D02*
X142599404Y-118666666D01*
X142647023Y-118809523D01*
X142742261Y-118904761D01*
X142885119Y-118952380D01*
X142980357Y-118952380D01*
X141647023Y-118952380D02*
X142123214Y-118952380D01*
X142123214Y-117952380D01*
X140742261Y-118857142D02*
X140789880Y-118904761D01*
X140932738Y-118952380D01*
X141027976Y-118952380D01*
X141170833Y-118904761D01*
X141266071Y-118809523D01*
X141313690Y-118714285D01*
X141361309Y-118523809D01*
X141361309Y-118380952D01*
X141313690Y-118190476D01*
X141266071Y-118095238D01*
X141170833Y-118000000D01*
X141027976Y-117952380D01*
X140932738Y-117952380D01*
X140789880Y-118000000D01*
X140742261Y-118047619D01*
X42114880Y-118952380D02*
X42114880Y-117952380D01*
X42019642Y-118571428D02*
X41733928Y-118952380D01*
X41733928Y-118285714D02*
X42114880Y-118666666D01*
X41305357Y-118952380D02*
X41305357Y-118285714D01*
X41305357Y-117952380D02*
X41352976Y-118000000D01*
X41305357Y-118047619D01*
X41257738Y-118000000D01*
X41305357Y-117952380D01*
X41305357Y-118047619D01*
X40400595Y-118285714D02*
X40400595Y-118952380D01*
X40829166Y-118285714D02*
X40829166Y-118809523D01*
X40781547Y-118904761D01*
X40686309Y-118952380D01*
X40543452Y-118952380D01*
X40448214Y-118904761D01*
X40400595Y-118857142D01*
X150599404Y-61952380D02*
X150599404Y-60952380D01*
X150170833Y-61952380D02*
X150170833Y-61428571D01*
X150218452Y-61333333D01*
X150313690Y-61285714D01*
X150456547Y-61285714D01*
X150551785Y-61333333D01*
X150599404Y-61380952D01*
X149837500Y-61285714D02*
X149456547Y-61285714D01*
X149694642Y-60952380D02*
X149694642Y-61809523D01*
X149647023Y-61904761D01*
X149551785Y-61952380D01*
X149456547Y-61952380D01*
X149266071Y-61285714D02*
X148885119Y-61285714D01*
X149123214Y-60952380D02*
X149123214Y-61809523D01*
X149075595Y-61904761D01*
X148980357Y-61952380D01*
X148885119Y-61952380D01*
X148551785Y-61285714D02*
X148551785Y-62285714D01*
X148551785Y-61333333D02*
X148456547Y-61285714D01*
X148266071Y-61285714D01*
X148170833Y-61333333D01*
X148123214Y-61380952D01*
X148075595Y-61476190D01*
X148075595Y-61761904D01*
X148123214Y-61857142D01*
X148170833Y-61904761D01*
X148266071Y-61952380D01*
X148456547Y-61952380D01*
X148551785Y-61904761D01*
X147694642Y-61904761D02*
X147599404Y-61952380D01*
X147408928Y-61952380D01*
X147313690Y-61904761D01*
X147266071Y-61809523D01*
X147266071Y-61761904D01*
X147313690Y-61666666D01*
X147408928Y-61619047D01*
X147551785Y-61619047D01*
X147647023Y-61571428D01*
X147694642Y-61476190D01*
X147694642Y-61428571D01*
X147647023Y-61333333D01*
X147551785Y-61285714D01*
X147408928Y-61285714D01*
X147313690Y-61333333D01*
X146837500Y-61857142D02*
X146789880Y-61904761D01*
X146837500Y-61952380D01*
X146885119Y-61904761D01*
X146837500Y-61857142D01*
X146837500Y-61952380D01*
X146837500Y-61333333D02*
X146789880Y-61380952D01*
X146837500Y-61428571D01*
X146885119Y-61380952D01*
X146837500Y-61333333D01*
X146837500Y-61428571D01*
X145647023Y-60904761D02*
X146504166Y-62190476D01*
X144599404Y-60904761D02*
X145456547Y-62190476D01*
X143837500Y-61285714D02*
X143837500Y-62095238D01*
X143885119Y-62190476D01*
X143932738Y-62238095D01*
X144027976Y-62285714D01*
X144170833Y-62285714D01*
X144266071Y-62238095D01*
X143837500Y-61904761D02*
X143932738Y-61952380D01*
X144123214Y-61952380D01*
X144218452Y-61904761D01*
X144266071Y-61857142D01*
X144313690Y-61761904D01*
X144313690Y-61476190D01*
X144266071Y-61380952D01*
X144218452Y-61333333D01*
X144123214Y-61285714D01*
X143932738Y-61285714D01*
X143837500Y-61333333D01*
X143361309Y-61952380D02*
X143361309Y-61285714D01*
X143361309Y-60952380D02*
X143408928Y-61000000D01*
X143361309Y-61047619D01*
X143313690Y-61000000D01*
X143361309Y-60952380D01*
X143361309Y-61047619D01*
X143027976Y-61285714D02*
X142647023Y-61285714D01*
X142885119Y-60952380D02*
X142885119Y-61809523D01*
X142837500Y-61904761D01*
X142742261Y-61952380D01*
X142647023Y-61952380D01*
X142313690Y-61952380D02*
X142313690Y-60952380D01*
X141885119Y-61952380D02*
X141885119Y-61428571D01*
X141932738Y-61333333D01*
X142027976Y-61285714D01*
X142170833Y-61285714D01*
X142266071Y-61333333D01*
X142313690Y-61380952D01*
X140980357Y-61285714D02*
X140980357Y-61952380D01*
X141408928Y-61285714D02*
X141408928Y-61809523D01*
X141361309Y-61904761D01*
X141266071Y-61952380D01*
X141123214Y-61952380D01*
X141027976Y-61904761D01*
X140980357Y-61857142D01*
X140504166Y-61952380D02*
X140504166Y-60952380D01*
X140504166Y-61333333D02*
X140408928Y-61285714D01*
X140218452Y-61285714D01*
X140123214Y-61333333D01*
X140075595Y-61380952D01*
X140027976Y-61476190D01*
X140027976Y-61761904D01*
X140075595Y-61857142D01*
X140123214Y-61904761D01*
X140218452Y-61952380D01*
X140408928Y-61952380D01*
X140504166Y-61904761D01*
X139599404Y-61857142D02*
X139551785Y-61904761D01*
X139599404Y-61952380D01*
X139647023Y-61904761D01*
X139599404Y-61857142D01*
X139599404Y-61952380D01*
X138694642Y-61904761D02*
X138789880Y-61952380D01*
X138980357Y-61952380D01*
X139075595Y-61904761D01*
X139123214Y-61857142D01*
X139170833Y-61761904D01*
X139170833Y-61476190D01*
X139123214Y-61380952D01*
X139075595Y-61333333D01*
X138980357Y-61285714D01*
X138789880Y-61285714D01*
X138694642Y-61333333D01*
X138123214Y-61952380D02*
X138218452Y-61904761D01*
X138266071Y-61857142D01*
X138313690Y-61761904D01*
X138313690Y-61476190D01*
X138266071Y-61380952D01*
X138218452Y-61333333D01*
X138123214Y-61285714D01*
X137980357Y-61285714D01*
X137885119Y-61333333D01*
X137837500Y-61380952D01*
X137789880Y-61476190D01*
X137789880Y-61761904D01*
X137837500Y-61857142D01*
X137885119Y-61904761D01*
X137980357Y-61952380D01*
X138123214Y-61952380D01*
X137361309Y-61952380D02*
X137361309Y-61285714D01*
X137361309Y-61380952D02*
X137313690Y-61333333D01*
X137218452Y-61285714D01*
X137075595Y-61285714D01*
X136980357Y-61333333D01*
X136932738Y-61428571D01*
X136932738Y-61952380D01*
X136932738Y-61428571D02*
X136885119Y-61333333D01*
X136789880Y-61285714D01*
X136647023Y-61285714D01*
X136551785Y-61333333D01*
X136504166Y-61428571D01*
X136504166Y-61952380D01*
X135313690Y-60904761D02*
X136170833Y-62190476D01*
X134980357Y-61952380D02*
X134980357Y-60952380D01*
X134885119Y-61571428D02*
X134599404Y-61952380D01*
X134599404Y-61285714D02*
X134980357Y-61666666D01*
X134170833Y-61952380D02*
X134170833Y-61285714D01*
X134170833Y-60952380D02*
X134218452Y-61000000D01*
X134170833Y-61047619D01*
X134123214Y-61000000D01*
X134170833Y-60952380D01*
X134170833Y-61047619D01*
X133266071Y-61285714D02*
X133266071Y-61952380D01*
X133694642Y-61285714D02*
X133694642Y-61809523D01*
X133647023Y-61904761D01*
X133551785Y-61952380D01*
X133408928Y-61952380D01*
X133313690Y-61904761D01*
X133266071Y-61857142D01*
X132075595Y-60904761D02*
X132932738Y-62190476D01*
X131742261Y-61952380D02*
X131742261Y-60952380D01*
X131408928Y-61666666D01*
X131075595Y-60952380D01*
X131075595Y-61952380D01*
X130599404Y-61952380D02*
X130599404Y-61285714D01*
X130599404Y-60952380D02*
X130647023Y-61000000D01*
X130599404Y-61047619D01*
X130551785Y-61000000D01*
X130599404Y-60952380D01*
X130599404Y-61047619D01*
X130123214Y-61285714D02*
X130123214Y-61952380D01*
X130123214Y-61380952D02*
X130075595Y-61333333D01*
X129980357Y-61285714D01*
X129837500Y-61285714D01*
X129742261Y-61333333D01*
X129694642Y-61428571D01*
X129694642Y-61952380D01*
X129218452Y-61952380D02*
X129218452Y-61285714D01*
X129218452Y-60952380D02*
X129266071Y-61000000D01*
X129218452Y-61047619D01*
X129170833Y-61000000D01*
X129218452Y-60952380D01*
X129218452Y-61047619D01*
X128742261Y-61952380D02*
X128742261Y-60952380D01*
X128742261Y-61428571D02*
X128170833Y-61428571D01*
X128170833Y-61952380D02*
X128170833Y-60952380D01*
X127313690Y-61904761D02*
X127408928Y-61952380D01*
X127599404Y-61952380D01*
X127694642Y-61904761D01*
X127742261Y-61809523D01*
X127742261Y-61428571D01*
X127694642Y-61333333D01*
X127599404Y-61285714D01*
X127408928Y-61285714D01*
X127313690Y-61333333D01*
X127266071Y-61428571D01*
X127266071Y-61523809D01*
X127742261Y-61619047D01*
X126694642Y-61952380D02*
X126789880Y-61904761D01*
X126837500Y-61809523D01*
X126837500Y-60952380D01*
X126313690Y-61952380D02*
X126313690Y-61285714D01*
X126313690Y-61380952D02*
X126266071Y-61333333D01*
X126170833Y-61285714D01*
X126027976Y-61285714D01*
X125932738Y-61333333D01*
X125885119Y-61428571D01*
X125885119Y-61952380D01*
X125885119Y-61428571D02*
X125837500Y-61333333D01*
X125742261Y-61285714D01*
X125599404Y-61285714D01*
X125504166Y-61333333D01*
X125456547Y-61428571D01*
X125456547Y-61952380D01*
X124599404Y-61904761D02*
X124694642Y-61952380D01*
X124885119Y-61952380D01*
X124980357Y-61904761D01*
X125027976Y-61809523D01*
X125027976Y-61428571D01*
X124980357Y-61333333D01*
X124885119Y-61285714D01*
X124694642Y-61285714D01*
X124599404Y-61333333D01*
X124551785Y-61428571D01*
X124551785Y-61523809D01*
X125027976Y-61619047D01*
X124266071Y-61285714D02*
X123885119Y-61285714D01*
X124123214Y-60952380D02*
X124123214Y-61809523D01*
X124075595Y-61904761D01*
X123980357Y-61952380D01*
X123885119Y-61952380D01*
X123694642Y-60952380D02*
X123123214Y-60952380D01*
X123408928Y-61952380D02*
X123408928Y-60952380D01*
X122789880Y-61952380D02*
X122789880Y-61285714D01*
X122789880Y-61476190D02*
X122742261Y-61380952D01*
X122694642Y-61333333D01*
X122599404Y-61285714D01*
X122504166Y-61285714D01*
X121742261Y-61952380D02*
X121742261Y-61428571D01*
X121789880Y-61333333D01*
X121885119Y-61285714D01*
X122075595Y-61285714D01*
X122170833Y-61333333D01*
X121742261Y-61904761D02*
X121837500Y-61952380D01*
X122075595Y-61952380D01*
X122170833Y-61904761D01*
X122218452Y-61809523D01*
X122218452Y-61714285D01*
X122170833Y-61619047D01*
X122075595Y-61571428D01*
X121837500Y-61571428D01*
X121742261Y-61523809D01*
X120837500Y-61904761D02*
X120932738Y-61952380D01*
X121123214Y-61952380D01*
X121218452Y-61904761D01*
X121266071Y-61857142D01*
X121313690Y-61761904D01*
X121313690Y-61476190D01*
X121266071Y-61380952D01*
X121218452Y-61333333D01*
X121123214Y-61285714D01*
X120932738Y-61285714D01*
X120837500Y-61333333D01*
X120408928Y-61952380D02*
X120408928Y-60952380D01*
X120313690Y-61571428D02*
X120027976Y-61952380D01*
X120027976Y-61285714D02*
X120408928Y-61666666D01*
X119218452Y-61904761D02*
X119313690Y-61952380D01*
X119504166Y-61952380D01*
X119599404Y-61904761D01*
X119647023Y-61809523D01*
X119647023Y-61428571D01*
X119599404Y-61333333D01*
X119504166Y-61285714D01*
X119313690Y-61285714D01*
X119218452Y-61333333D01*
X119170833Y-61428571D01*
X119170833Y-61523809D01*
X119647023Y-61619047D01*
X118742261Y-61952380D02*
X118742261Y-61285714D01*
X118742261Y-61476190D02*
X118694642Y-61380952D01*
X118647023Y-61333333D01*
X118551785Y-61285714D01*
X118456547Y-61285714D01*
X52733928Y-61952380D02*
X52733928Y-61285714D01*
X52733928Y-61380952D02*
X52686309Y-61333333D01*
X52591071Y-61285714D01*
X52448214Y-61285714D01*
X52352976Y-61333333D01*
X52305357Y-61428571D01*
X52305357Y-61952380D01*
X52305357Y-61428571D02*
X52257738Y-61333333D01*
X52162500Y-61285714D01*
X52019642Y-61285714D01*
X51924404Y-61333333D01*
X51876785Y-61428571D01*
X51876785Y-61952380D01*
X51400595Y-61952380D02*
X51400595Y-60952380D01*
X50972023Y-61952380D02*
X50972023Y-61428571D01*
X51019642Y-61333333D01*
X51114880Y-61285714D01*
X51257738Y-61285714D01*
X51352976Y-61333333D01*
X51400595Y-61380952D01*
X50638690Y-61285714D02*
X50257738Y-61285714D01*
X50495833Y-60952380D02*
X50495833Y-61809523D01*
X50448214Y-61904761D01*
X50352976Y-61952380D01*
X50257738Y-61952380D01*
X49924404Y-61571428D02*
X49162500Y-61571428D01*
X48686309Y-61952380D02*
X48686309Y-60952380D01*
X48686309Y-61333333D02*
X48591071Y-61285714D01*
X48400595Y-61285714D01*
X48305357Y-61333333D01*
X48257738Y-61380952D01*
X48210119Y-61476190D01*
X48210119Y-61761904D01*
X48257738Y-61857142D01*
X48305357Y-61904761D01*
X48400595Y-61952380D01*
X48591071Y-61952380D01*
X48686309Y-61904761D01*
X47352976Y-61952380D02*
X47352976Y-61428571D01*
X47400595Y-61333333D01*
X47495833Y-61285714D01*
X47686309Y-61285714D01*
X47781547Y-61333333D01*
X47352976Y-61904761D02*
X47448214Y-61952380D01*
X47686309Y-61952380D01*
X47781547Y-61904761D01*
X47829166Y-61809523D01*
X47829166Y-61714285D01*
X47781547Y-61619047D01*
X47686309Y-61571428D01*
X47448214Y-61571428D01*
X47352976Y-61523809D01*
X46924404Y-61904761D02*
X46829166Y-61952380D01*
X46638690Y-61952380D01*
X46543452Y-61904761D01*
X46495833Y-61809523D01*
X46495833Y-61761904D01*
X46543452Y-61666666D01*
X46638690Y-61619047D01*
X46781547Y-61619047D01*
X46876785Y-61571428D01*
X46924404Y-61476190D01*
X46924404Y-61428571D01*
X46876785Y-61333333D01*
X46781547Y-61285714D01*
X46638690Y-61285714D01*
X46543452Y-61333333D01*
X45686309Y-61904761D02*
X45781547Y-61952380D01*
X45972023Y-61952380D01*
X46067261Y-61904761D01*
X46114880Y-61809523D01*
X46114880Y-61428571D01*
X46067261Y-61333333D01*
X45972023Y-61285714D01*
X45781547Y-61285714D01*
X45686309Y-61333333D01*
X45638690Y-61428571D01*
X45638690Y-61523809D01*
X46114880Y-61619047D01*
X43876785Y-61952380D02*
X44210119Y-61476190D01*
X44448214Y-61952380D02*
X44448214Y-60952380D01*
X44067261Y-60952380D01*
X43972023Y-61000000D01*
X43924404Y-61047619D01*
X43876785Y-61142857D01*
X43876785Y-61285714D01*
X43924404Y-61380952D01*
X43972023Y-61428571D01*
X44067261Y-61476190D01*
X44448214Y-61476190D01*
X43448214Y-61428571D02*
X43114880Y-61428571D01*
X42972023Y-61952380D02*
X43448214Y-61952380D01*
X43448214Y-60952380D01*
X42972023Y-60952380D01*
X42686309Y-60952380D02*
X42352976Y-61952380D01*
X42019642Y-60952380D01*
X40591071Y-61428571D02*
X40448214Y-61476190D01*
X40400595Y-61523809D01*
X40352976Y-61619047D01*
X40352976Y-61761904D01*
X40400595Y-61857142D01*
X40448214Y-61904761D01*
X40543452Y-61952380D01*
X40924404Y-61952380D01*
X40924404Y-60952380D01*
X40591071Y-60952380D01*
X40495833Y-61000000D01*
X40448214Y-61047619D01*
X40400595Y-61142857D01*
X40400595Y-61238095D01*
X40448214Y-61333333D01*
X40495833Y-61380952D01*
X40591071Y-61428571D01*
X40924404Y-61428571D01*
%LPC*%
D11*
X80500000Y-113000000D03*
D12*
X85500000Y-113000000D03*
X90500000Y-113000000D03*
X95500000Y-113000000D03*
D13*
X45720000Y-99060000D03*
D14*
X48260000Y-99060000D03*
X50800000Y-99060000D03*
X53340000Y-99060000D03*
X55880000Y-99060000D03*
X58420000Y-99060000D03*
X60960000Y-99060000D03*
X63500000Y-99060000D03*
D13*
X45720000Y-86360000D03*
D14*
X48260000Y-86360000D03*
X50800000Y-86360000D03*
X53340000Y-86360000D03*
X55880000Y-86360000D03*
X58420000Y-86360000D03*
X60960000Y-86360000D03*
X63500000Y-86360000D03*
D11*
X55500000Y-113000000D03*
D12*
X60500000Y-113000000D03*
X65500000Y-113000000D03*
X70500000Y-113000000D03*
D15*
X146000000Y-66000000D03*
D16*
X130500000Y-113300000D03*
D17*
X135500000Y-113300000D03*
D15*
X45000000Y-66000000D03*
D18*
X75000000Y-90000000D03*
D19*
X72460000Y-90000000D03*
D15*
X146000000Y-114000000D03*
D20*
X87880000Y-67787500D03*
X87880000Y-65247500D03*
X90420000Y-67787500D03*
X90420000Y-65247500D03*
X92960000Y-67787500D03*
X92960000Y-65247500D03*
X95500000Y-67787500D03*
X95500000Y-65247500D03*
X98040000Y-67787500D03*
X98040000Y-65247500D03*
X100580000Y-67787500D03*
X100580000Y-65247500D03*
X103120000Y-67787500D03*
D21*
X103120000Y-65247500D03*
D13*
X137105000Y-70950000D03*
D14*
X134565000Y-70950000D03*
X137105000Y-68410000D03*
X134565000Y-68410000D03*
X137105000Y-65870000D03*
X134565000Y-65870000D03*
X137105000Y-63330000D03*
X134565000Y-63330000D03*
D11*
X105500000Y-113000000D03*
D12*
X110500000Y-113000000D03*
X115500000Y-113000000D03*
X120500000Y-113000000D03*
D22*
X73247500Y-66955000D03*
D20*
X75787500Y-66955000D03*
X73247500Y-69495000D03*
X75787500Y-69495000D03*
X73247500Y-72035000D03*
X75787500Y-72035000D03*
D15*
X45000000Y-114000000D03*
D23*
X150550000Y-104575000D03*
X150550000Y-97425000D03*
D13*
X56200000Y-63000000D03*
D14*
X58740000Y-63000000D03*
X61280000Y-63000000D03*
X63820000Y-63000000D03*
M02*
