%FSLAX45Y45*%
G04 Gerber Fmt 4.5, Leading zero omitted, Abs format (unit mm)*
G04 Created by KiCad (PCBNEW (6.0.0)) date 2022-07-19 14:30:06*
%MOMM*%
%LPD*%
G01*
G04 APERTURE LIST*
%TA.AperFunction,Profile*%
%ADD10C,0.050000*%
%TD*%
%ADD11C,0.200000*%
%ADD12C,0.040000*%
%ADD13C,0.045000*%
%ADD14C,0.090000*%
%ADD15C,0.100000*%
%ADD16C,0.110000*%
%ADD17C,0.130000*%
G04 APERTURE END LIST*
D10*
X3900000Y-6000000D02*
X3900000Y-12000000D01*
X15200000Y-6000000D02*
X3900000Y-6000000D01*
X15200000Y-6000000D02*
X15200000Y-12000000D01*
X3900000Y-12000000D02*
X15200000Y-12000000D01*
D11*
D12*
X8530000Y-9430000D02*
X8570000Y-9470000D01*
X8570000Y-9430000D02*
X8530000Y-9470000D01*
X8530000Y-9680000D02*
X8570000Y-9720000D01*
X8570000Y-9680000D02*
X8530000Y-9720000D01*
X8530000Y-9930000D02*
X8570000Y-9970000D01*
X8570000Y-9930000D02*
X8530000Y-9970000D01*
X8580000Y-8480000D02*
X8620000Y-8520000D01*
X8620000Y-8480000D02*
X8580000Y-8520000D01*
X8580000Y-8630000D02*
X8620000Y-8670000D01*
X8620000Y-8630000D02*
X8580000Y-8670000D01*
X8730000Y-9130000D02*
X8770000Y-9170000D01*
X8770000Y-9130000D02*
X8730000Y-9170000D01*
X9430000Y-9030000D02*
X9470000Y-9070000D01*
X9470000Y-9030000D02*
X9430000Y-9070000D01*
X9530000Y-8730000D02*
X9570000Y-8770000D01*
X9570000Y-8730000D02*
X9530000Y-8770000D01*
X9730000Y-9880000D02*
X9770000Y-9920000D01*
X9770000Y-9880000D02*
X9730000Y-9920000D01*
X9880000Y-9880000D02*
X9920000Y-9920000D01*
X9920000Y-9880000D02*
X9880000Y-9920000D01*
X10030000Y-9880000D02*
X10070000Y-9920000D01*
X10070000Y-9880000D02*
X10030000Y-9920000D01*
X10080000Y-10180000D02*
X10120000Y-10220000D01*
X10120000Y-10180000D02*
X10080000Y-10220000D01*
X10180000Y-9880000D02*
X10220000Y-9920000D01*
X10220000Y-9880000D02*
X10180000Y-9920000D01*
X10230000Y-10080000D02*
X10270000Y-10120000D01*
X10270000Y-10080000D02*
X10230000Y-10120000D01*
X11180000Y-10430000D02*
X11220000Y-10470000D01*
X11220000Y-10430000D02*
X11180000Y-10470000D01*
X11265000Y-8365000D02*
X11305000Y-8405000D01*
X11305000Y-8365000D02*
X11265000Y-8405000D01*
X11380000Y-10330000D02*
X11420000Y-10370000D01*
X11420000Y-10330000D02*
X11380000Y-10370000D01*
X12030000Y-7780000D02*
X12070000Y-7820000D01*
X12070000Y-7780000D02*
X12030000Y-7820000D01*
X12580000Y-8780000D02*
X12620000Y-8820000D01*
X12620000Y-8780000D02*
X12580000Y-8820000D01*
X12830000Y-8480000D02*
X12870000Y-8520000D01*
X12870000Y-8480000D02*
X12830000Y-8520000D01*
X13030000Y-9480000D02*
X13070000Y-9520000D01*
X13070000Y-9480000D02*
X13030000Y-9520000D01*
X13080000Y-8030000D02*
X13120000Y-8070000D01*
X13120000Y-8030000D02*
X13080000Y-8070000D01*
X13480000Y-8180000D02*
X13520000Y-8220000D01*
X13520000Y-8180000D02*
X13480000Y-8220000D01*
X13780000Y-8480000D02*
X13820000Y-8520000D01*
X13820000Y-8480000D02*
X13780000Y-8520000D01*
X14530000Y-9330000D02*
X14570000Y-9370000D01*
X14570000Y-9330000D02*
X14530000Y-9370000D01*
D13*
X15077500Y-9742500D02*
G75*
G03*
X15077500Y-9742500I-22500J0D01*
G01*
D11*
X15015000Y-9755000D02*
X15095000Y-9755000D01*
X15015000Y-9730000D02*
X15095000Y-9730000D01*
X15095000Y-9755000D02*
G75*
G03*
X15095000Y-9730000I0J12500D01*
G01*
X15015000Y-9730000D02*
G75*
G03*
X15015000Y-9755000I0J-12500D01*
G01*
D13*
X15077500Y-10457500D02*
G75*
G03*
X15077500Y-10457500I-22500J0D01*
G01*
D11*
X15095000Y-10445000D02*
X15015000Y-10445000D01*
X15095000Y-10470000D02*
X15015000Y-10470000D01*
X15015000Y-10445000D02*
G75*
G03*
X15015000Y-10470000I0J-12500D01*
G01*
X15095000Y-10470000D02*
G75*
G03*
X15095000Y-10445000I0J12500D01*
G01*
D14*
X7246000Y-8955000D02*
X7246000Y-9045000D01*
X7201000Y-9000000D02*
X7291000Y-9000000D01*
X7500000Y-8955000D02*
X7500000Y-9045000D01*
X7455000Y-9000000D02*
X7545000Y-9000000D01*
D15*
X4607356Y-8671356D02*
X4607356Y-8600644D01*
X4536644Y-8600644D01*
X4536644Y-8671356D01*
X4607356Y-8671356D01*
X4607356Y-9941356D02*
X4607356Y-9870644D01*
X4536644Y-9870644D01*
X4536644Y-9941356D01*
X4607356Y-9941356D01*
X4861356Y-8671356D02*
X4861356Y-8600644D01*
X4790644Y-8600644D01*
X4790644Y-8671356D01*
X4861356Y-8671356D01*
X4861356Y-9941356D02*
X4861356Y-9870644D01*
X4790644Y-9870644D01*
X4790644Y-9941356D01*
X4861356Y-9941356D01*
X5115356Y-8671356D02*
X5115356Y-8600644D01*
X5044644Y-8600644D01*
X5044644Y-8671356D01*
X5115356Y-8671356D01*
X5115356Y-9941356D02*
X5115356Y-9870644D01*
X5044644Y-9870644D01*
X5044644Y-9941356D01*
X5115356Y-9941356D01*
X5369356Y-8671356D02*
X5369356Y-8600644D01*
X5298644Y-8600644D01*
X5298644Y-8671356D01*
X5369356Y-8671356D01*
X5369356Y-9941356D02*
X5369356Y-9870644D01*
X5298644Y-9870644D01*
X5298644Y-9941356D01*
X5369356Y-9941356D01*
X5623356Y-8671356D02*
X5623356Y-8600644D01*
X5552644Y-8600644D01*
X5552644Y-8671356D01*
X5623356Y-8671356D01*
X5623356Y-9941356D02*
X5623356Y-9870644D01*
X5552644Y-9870644D01*
X5552644Y-9941356D01*
X5623356Y-9941356D01*
X5655356Y-6335356D02*
X5655356Y-6264644D01*
X5584644Y-6264644D01*
X5584644Y-6335356D01*
X5655356Y-6335356D01*
X5877356Y-8671356D02*
X5877356Y-8600644D01*
X5806644Y-8600644D01*
X5806644Y-8671356D01*
X5877356Y-8671356D01*
X5877356Y-9941356D02*
X5877356Y-9870644D01*
X5806644Y-9870644D01*
X5806644Y-9941356D01*
X5877356Y-9941356D01*
X5909356Y-6335356D02*
X5909356Y-6264644D01*
X5838644Y-6264644D01*
X5838644Y-6335356D01*
X5909356Y-6335356D01*
X6131356Y-8671356D02*
X6131356Y-8600644D01*
X6060644Y-8600644D01*
X6060644Y-8671356D01*
X6131356Y-8671356D01*
X6131356Y-9941356D02*
X6131356Y-9870644D01*
X6060644Y-9870644D01*
X6060644Y-9941356D01*
X6131356Y-9941356D01*
X6163356Y-6335356D02*
X6163356Y-6264644D01*
X6092644Y-6264644D01*
X6092644Y-6335356D01*
X6163356Y-6335356D01*
X6385356Y-8671356D02*
X6385356Y-8600644D01*
X6314644Y-8600644D01*
X6314644Y-8671356D01*
X6385356Y-8671356D01*
X6385356Y-9941356D02*
X6385356Y-9870644D01*
X6314644Y-9870644D01*
X6314644Y-9941356D01*
X6385356Y-9941356D01*
X6417356Y-6335356D02*
X6417356Y-6264644D01*
X6346644Y-6264644D01*
X6346644Y-6335356D01*
X6417356Y-6335356D01*
X7360106Y-6730856D02*
X7360106Y-6660144D01*
X7289394Y-6660144D01*
X7289394Y-6730856D01*
X7360106Y-6730856D01*
X7360106Y-6984856D02*
X7360106Y-6914144D01*
X7289394Y-6914144D01*
X7289394Y-6984856D01*
X7360106Y-6984856D01*
X7360106Y-7238856D02*
X7360106Y-7168144D01*
X7289394Y-7168144D01*
X7289394Y-7238856D01*
X7360106Y-7238856D01*
X7614106Y-6730856D02*
X7614106Y-6660144D01*
X7543394Y-6660144D01*
X7543394Y-6730856D01*
X7614106Y-6730856D01*
X7614106Y-6984856D02*
X7614106Y-6914144D01*
X7543394Y-6914144D01*
X7543394Y-6984856D01*
X7614106Y-6984856D01*
X7614106Y-7238856D02*
X7614106Y-7168144D01*
X7543394Y-7168144D01*
X7543394Y-7238856D01*
X7614106Y-7238856D01*
X8823356Y-6560106D02*
X8823356Y-6489394D01*
X8752644Y-6489394D01*
X8752644Y-6560106D01*
X8823356Y-6560106D01*
X8823356Y-6814106D02*
X8823356Y-6743394D01*
X8752644Y-6743394D01*
X8752644Y-6814106D01*
X8823356Y-6814106D01*
X9077356Y-6560106D02*
X9077356Y-6489394D01*
X9006644Y-6489394D01*
X9006644Y-6560106D01*
X9077356Y-6560106D01*
X9077356Y-6814106D02*
X9077356Y-6743394D01*
X9006644Y-6743394D01*
X9006644Y-6814106D01*
X9077356Y-6814106D01*
X9331356Y-6560106D02*
X9331356Y-6489394D01*
X9260644Y-6489394D01*
X9260644Y-6560106D01*
X9331356Y-6560106D01*
X9331356Y-6814106D02*
X9331356Y-6743394D01*
X9260644Y-6743394D01*
X9260644Y-6814106D01*
X9331356Y-6814106D01*
X9585356Y-6560106D02*
X9585356Y-6489394D01*
X9514644Y-6489394D01*
X9514644Y-6560106D01*
X9585356Y-6560106D01*
X9585356Y-6814106D02*
X9585356Y-6743394D01*
X9514644Y-6743394D01*
X9514644Y-6814106D01*
X9585356Y-6814106D01*
X9839356Y-6560106D02*
X9839356Y-6489394D01*
X9768644Y-6489394D01*
X9768644Y-6560106D01*
X9839356Y-6560106D01*
X9839356Y-6814106D02*
X9839356Y-6743394D01*
X9768644Y-6743394D01*
X9768644Y-6814106D01*
X9839356Y-6814106D01*
X10093356Y-6560106D02*
X10093356Y-6489394D01*
X10022644Y-6489394D01*
X10022644Y-6560106D01*
X10093356Y-6560106D01*
X10093356Y-6814106D02*
X10093356Y-6743394D01*
X10022644Y-6743394D01*
X10022644Y-6814106D01*
X10093356Y-6814106D01*
X10347356Y-6560106D02*
X10347356Y-6489394D01*
X10276644Y-6489394D01*
X10276644Y-6560106D01*
X10347356Y-6560106D01*
X10347356Y-6814106D02*
X10347356Y-6743394D01*
X10276644Y-6743394D01*
X10276644Y-6814106D01*
X10347356Y-6814106D01*
X13491856Y-6368356D02*
X13491856Y-6297644D01*
X13421144Y-6297644D01*
X13421144Y-6368356D01*
X13491856Y-6368356D01*
X13491856Y-6622356D02*
X13491856Y-6551644D01*
X13421144Y-6551644D01*
X13421144Y-6622356D01*
X13491856Y-6622356D01*
X13491856Y-6876356D02*
X13491856Y-6805644D01*
X13421144Y-6805644D01*
X13421144Y-6876356D01*
X13491856Y-6876356D01*
X13491856Y-7130356D02*
X13491856Y-7059644D01*
X13421144Y-7059644D01*
X13421144Y-7130356D01*
X13491856Y-7130356D01*
X13745856Y-6368356D02*
X13745856Y-6297644D01*
X13675144Y-6297644D01*
X13675144Y-6368356D01*
X13745856Y-6368356D01*
X13745856Y-6622356D02*
X13745856Y-6551644D01*
X13675144Y-6551644D01*
X13675144Y-6622356D01*
X13745856Y-6622356D01*
X13745856Y-6876356D02*
X13745856Y-6805644D01*
X13675144Y-6805644D01*
X13675144Y-6876356D01*
X13745856Y-6876356D01*
X13745856Y-7130356D02*
X13745856Y-7059644D01*
X13675144Y-7059644D01*
X13675144Y-7130356D01*
X13745856Y-7130356D01*
D16*
X5550000Y-11355000D02*
X5605000Y-11300000D01*
X5550000Y-11245000D01*
X5495000Y-11300000D01*
X5550000Y-11355000D01*
X6050000Y-11355000D02*
X6105000Y-11300000D01*
X6050000Y-11245000D01*
X5995000Y-11300000D01*
X6050000Y-11355000D01*
X6550000Y-11355000D02*
X6605000Y-11300000D01*
X6550000Y-11245000D01*
X6495000Y-11300000D01*
X6550000Y-11355000D01*
X7050000Y-11355000D02*
X7105000Y-11300000D01*
X7050000Y-11245000D01*
X6995000Y-11300000D01*
X7050000Y-11355000D01*
X8050000Y-11355000D02*
X8105000Y-11300000D01*
X8050000Y-11245000D01*
X7995000Y-11300000D01*
X8050000Y-11355000D01*
X8550000Y-11355000D02*
X8605000Y-11300000D01*
X8550000Y-11245000D01*
X8495000Y-11300000D01*
X8550000Y-11355000D01*
X9050000Y-11355000D02*
X9105000Y-11300000D01*
X9050000Y-11245000D01*
X8995000Y-11300000D01*
X9050000Y-11355000D01*
X9550000Y-11355000D02*
X9605000Y-11300000D01*
X9550000Y-11245000D01*
X9495000Y-11300000D01*
X9550000Y-11355000D01*
X10550000Y-11355000D02*
X10605000Y-11300000D01*
X10550000Y-11245000D01*
X10495000Y-11300000D01*
X10550000Y-11355000D01*
X11050000Y-11355000D02*
X11105000Y-11300000D01*
X11050000Y-11245000D01*
X10995000Y-11300000D01*
X11050000Y-11355000D01*
X11550000Y-11355000D02*
X11605000Y-11300000D01*
X11550000Y-11245000D01*
X11495000Y-11300000D01*
X11550000Y-11355000D01*
X12050000Y-11355000D02*
X12105000Y-11300000D01*
X12050000Y-11245000D01*
X11995000Y-11300000D01*
X12050000Y-11355000D01*
D17*
X12985000Y-11265000D02*
X13115000Y-11395000D01*
X13115000Y-11265000D02*
X12985000Y-11395000D01*
X13115000Y-11330000D02*
G75*
G03*
X13115000Y-11330000I-65000J0D01*
G01*
X13485000Y-11265000D02*
X13615000Y-11395000D01*
X13615000Y-11265000D02*
X13485000Y-11395000D01*
X13615000Y-11330000D02*
G75*
G03*
X13615000Y-11330000I-65000J0D01*
G01*
D11*
X4155119Y-12312976D02*
X4155119Y-12112976D01*
X4202738Y-12112976D01*
X4231310Y-12122500D01*
X4250357Y-12141548D01*
X4259881Y-12160595D01*
X4269405Y-12198690D01*
X4269405Y-12227262D01*
X4259881Y-12265357D01*
X4250357Y-12284405D01*
X4231310Y-12303452D01*
X4202738Y-12312976D01*
X4155119Y-12312976D01*
X4355119Y-12312976D02*
X4355119Y-12179643D01*
X4355119Y-12217738D02*
X4364643Y-12198690D01*
X4374167Y-12189167D01*
X4393214Y-12179643D01*
X4412262Y-12179643D01*
X4478929Y-12312976D02*
X4478929Y-12179643D01*
X4478929Y-12112976D02*
X4469405Y-12122500D01*
X4478929Y-12132024D01*
X4488452Y-12122500D01*
X4478929Y-12112976D01*
X4478929Y-12132024D01*
X4602738Y-12312976D02*
X4583690Y-12303452D01*
X4574167Y-12284405D01*
X4574167Y-12112976D01*
X4707500Y-12312976D02*
X4688452Y-12303452D01*
X4678929Y-12284405D01*
X4678929Y-12112976D01*
X4936071Y-12312976D02*
X4936071Y-12112976D01*
X5002738Y-12255833D01*
X5069405Y-12112976D01*
X5069405Y-12312976D01*
X5250357Y-12312976D02*
X5250357Y-12208214D01*
X5240833Y-12189167D01*
X5221786Y-12179643D01*
X5183690Y-12179643D01*
X5164643Y-12189167D01*
X5250357Y-12303452D02*
X5231310Y-12312976D01*
X5183690Y-12312976D01*
X5164643Y-12303452D01*
X5155119Y-12284405D01*
X5155119Y-12265357D01*
X5164643Y-12246309D01*
X5183690Y-12236786D01*
X5231310Y-12236786D01*
X5250357Y-12227262D01*
X5345595Y-12179643D02*
X5345595Y-12379643D01*
X5345595Y-12189167D02*
X5364643Y-12179643D01*
X5402738Y-12179643D01*
X5421786Y-12189167D01*
X5431310Y-12198690D01*
X5440833Y-12217738D01*
X5440833Y-12274881D01*
X5431310Y-12293928D01*
X5421786Y-12303452D01*
X5402738Y-12312976D01*
X5364643Y-12312976D01*
X5345595Y-12303452D01*
X5526548Y-12293928D02*
X5536071Y-12303452D01*
X5526548Y-12312976D01*
X5517024Y-12303452D01*
X5526548Y-12293928D01*
X5526548Y-12312976D01*
X5526548Y-12189167D02*
X5536071Y-12198690D01*
X5526548Y-12208214D01*
X5517024Y-12198690D01*
X5526548Y-12189167D01*
X5526548Y-12208214D01*
D12*
X3857500Y-12622500D02*
X3897500Y-12662500D01*
X3897500Y-12622500D02*
X3857500Y-12662500D01*
D11*
X4193214Y-12532976D02*
X4212262Y-12532976D01*
X4231310Y-12542500D01*
X4240833Y-12552024D01*
X4250357Y-12571071D01*
X4259881Y-12609167D01*
X4259881Y-12656786D01*
X4250357Y-12694881D01*
X4240833Y-12713928D01*
X4231310Y-12723452D01*
X4212262Y-12732976D01*
X4193214Y-12732976D01*
X4174167Y-12723452D01*
X4164643Y-12713928D01*
X4155119Y-12694881D01*
X4145595Y-12656786D01*
X4145595Y-12609167D01*
X4155119Y-12571071D01*
X4164643Y-12552024D01*
X4174167Y-12542500D01*
X4193214Y-12532976D01*
X4345595Y-12713928D02*
X4355119Y-12723452D01*
X4345595Y-12732976D01*
X4336071Y-12723452D01*
X4345595Y-12713928D01*
X4345595Y-12732976D01*
X4526548Y-12599643D02*
X4526548Y-12732976D01*
X4478929Y-12523452D02*
X4431310Y-12666309D01*
X4555119Y-12666309D01*
X4669405Y-12532976D02*
X4688452Y-12532976D01*
X4707500Y-12542500D01*
X4717024Y-12552024D01*
X4726548Y-12571071D01*
X4736071Y-12609167D01*
X4736071Y-12656786D01*
X4726548Y-12694881D01*
X4717024Y-12713928D01*
X4707500Y-12723452D01*
X4688452Y-12732976D01*
X4669405Y-12732976D01*
X4650357Y-12723452D01*
X4640833Y-12713928D01*
X4631310Y-12694881D01*
X4621786Y-12656786D01*
X4621786Y-12609167D01*
X4631310Y-12571071D01*
X4640833Y-12552024D01*
X4650357Y-12542500D01*
X4669405Y-12532976D01*
X4859881Y-12532976D02*
X4878929Y-12532976D01*
X4897976Y-12542500D01*
X4907500Y-12552024D01*
X4917024Y-12571071D01*
X4926548Y-12609167D01*
X4926548Y-12656786D01*
X4917024Y-12694881D01*
X4907500Y-12713928D01*
X4897976Y-12723452D01*
X4878929Y-12732976D01*
X4859881Y-12732976D01*
X4840833Y-12723452D01*
X4831310Y-12713928D01*
X4821786Y-12694881D01*
X4812262Y-12656786D01*
X4812262Y-12609167D01*
X4821786Y-12571071D01*
X4831310Y-12552024D01*
X4840833Y-12542500D01*
X4859881Y-12532976D01*
X5012262Y-12732976D02*
X5012262Y-12599643D01*
X5012262Y-12618690D02*
X5021786Y-12609167D01*
X5040833Y-12599643D01*
X5069405Y-12599643D01*
X5088452Y-12609167D01*
X5097976Y-12628214D01*
X5097976Y-12732976D01*
X5097976Y-12628214D02*
X5107500Y-12609167D01*
X5126548Y-12599643D01*
X5155119Y-12599643D01*
X5174167Y-12609167D01*
X5183690Y-12628214D01*
X5183690Y-12732976D01*
X5278929Y-12732976D02*
X5278929Y-12599643D01*
X5278929Y-12618690D02*
X5288452Y-12609167D01*
X5307500Y-12599643D01*
X5336071Y-12599643D01*
X5355119Y-12609167D01*
X5364643Y-12628214D01*
X5364643Y-12732976D01*
X5364643Y-12628214D02*
X5374167Y-12609167D01*
X5393214Y-12599643D01*
X5421786Y-12599643D01*
X5440833Y-12609167D01*
X5450357Y-12628214D01*
X5450357Y-12732976D01*
X5840833Y-12523452D02*
X5669405Y-12780595D01*
X6097976Y-12532976D02*
X6117024Y-12532976D01*
X6136071Y-12542500D01*
X6145595Y-12552024D01*
X6155119Y-12571071D01*
X6164643Y-12609167D01*
X6164643Y-12656786D01*
X6155119Y-12694881D01*
X6145595Y-12713928D01*
X6136071Y-12723452D01*
X6117024Y-12732976D01*
X6097976Y-12732976D01*
X6078928Y-12723452D01*
X6069405Y-12713928D01*
X6059881Y-12694881D01*
X6050357Y-12656786D01*
X6050357Y-12609167D01*
X6059881Y-12571071D01*
X6069405Y-12552024D01*
X6078928Y-12542500D01*
X6097976Y-12532976D01*
X6250357Y-12713928D02*
X6259881Y-12723452D01*
X6250357Y-12732976D01*
X6240833Y-12723452D01*
X6250357Y-12713928D01*
X6250357Y-12732976D01*
X6383690Y-12532976D02*
X6402738Y-12532976D01*
X6421786Y-12542500D01*
X6431309Y-12552024D01*
X6440833Y-12571071D01*
X6450357Y-12609167D01*
X6450357Y-12656786D01*
X6440833Y-12694881D01*
X6431309Y-12713928D01*
X6421786Y-12723452D01*
X6402738Y-12732976D01*
X6383690Y-12732976D01*
X6364643Y-12723452D01*
X6355119Y-12713928D01*
X6345595Y-12694881D01*
X6336071Y-12656786D01*
X6336071Y-12609167D01*
X6345595Y-12571071D01*
X6355119Y-12552024D01*
X6364643Y-12542500D01*
X6383690Y-12532976D01*
X6640833Y-12732976D02*
X6526548Y-12732976D01*
X6583690Y-12732976D02*
X6583690Y-12532976D01*
X6564643Y-12561548D01*
X6545595Y-12580595D01*
X6526548Y-12590119D01*
X6821786Y-12532976D02*
X6726548Y-12532976D01*
X6717024Y-12628214D01*
X6726548Y-12618690D01*
X6745595Y-12609167D01*
X6793214Y-12609167D01*
X6812262Y-12618690D01*
X6821786Y-12628214D01*
X6831309Y-12647262D01*
X6831309Y-12694881D01*
X6821786Y-12713928D01*
X6812262Y-12723452D01*
X6793214Y-12732976D01*
X6745595Y-12732976D01*
X6726548Y-12723452D01*
X6717024Y-12713928D01*
X6897976Y-12532976D02*
X7031309Y-12532976D01*
X6945595Y-12732976D01*
X7097976Y-12532976D02*
X7097976Y-12571071D01*
X7174167Y-12532976D02*
X7174167Y-12571071D01*
X7469405Y-12809167D02*
X7459881Y-12799643D01*
X7440833Y-12771071D01*
X7431309Y-12752024D01*
X7421786Y-12723452D01*
X7412262Y-12675833D01*
X7412262Y-12637738D01*
X7421786Y-12590119D01*
X7431309Y-12561548D01*
X7440833Y-12542500D01*
X7459881Y-12513928D01*
X7469405Y-12504405D01*
X7536071Y-12552024D02*
X7545595Y-12542500D01*
X7564643Y-12532976D01*
X7612262Y-12532976D01*
X7631309Y-12542500D01*
X7640833Y-12552024D01*
X7650357Y-12571071D01*
X7650357Y-12590119D01*
X7640833Y-12618690D01*
X7526548Y-12732976D01*
X7650357Y-12732976D01*
X7831309Y-12532976D02*
X7736071Y-12532976D01*
X7726548Y-12628214D01*
X7736071Y-12618690D01*
X7755119Y-12609167D01*
X7802738Y-12609167D01*
X7821786Y-12618690D01*
X7831309Y-12628214D01*
X7840833Y-12647262D01*
X7840833Y-12694881D01*
X7831309Y-12713928D01*
X7821786Y-12723452D01*
X7802738Y-12732976D01*
X7755119Y-12732976D01*
X7736071Y-12723452D01*
X7726548Y-12713928D01*
X8078928Y-12732976D02*
X8078928Y-12532976D01*
X8164643Y-12732976D02*
X8164643Y-12628214D01*
X8155119Y-12609167D01*
X8136071Y-12599643D01*
X8107500Y-12599643D01*
X8088452Y-12609167D01*
X8078928Y-12618690D01*
X8288452Y-12732976D02*
X8269405Y-12723452D01*
X8259881Y-12713928D01*
X8250357Y-12694881D01*
X8250357Y-12637738D01*
X8259881Y-12618690D01*
X8269405Y-12609167D01*
X8288452Y-12599643D01*
X8317024Y-12599643D01*
X8336071Y-12609167D01*
X8345595Y-12618690D01*
X8355119Y-12637738D01*
X8355119Y-12694881D01*
X8345595Y-12713928D01*
X8336071Y-12723452D01*
X8317024Y-12732976D01*
X8288452Y-12732976D01*
X8469405Y-12732976D02*
X8450357Y-12723452D01*
X8440833Y-12704405D01*
X8440833Y-12532976D01*
X8621786Y-12723452D02*
X8602738Y-12732976D01*
X8564643Y-12732976D01*
X8545595Y-12723452D01*
X8536071Y-12704405D01*
X8536071Y-12628214D01*
X8545595Y-12609167D01*
X8564643Y-12599643D01*
X8602738Y-12599643D01*
X8621786Y-12609167D01*
X8631310Y-12628214D01*
X8631310Y-12647262D01*
X8536071Y-12666309D01*
X8707500Y-12723452D02*
X8726548Y-12732976D01*
X8764643Y-12732976D01*
X8783690Y-12723452D01*
X8793214Y-12704405D01*
X8793214Y-12694881D01*
X8783690Y-12675833D01*
X8764643Y-12666309D01*
X8736071Y-12666309D01*
X8717024Y-12656786D01*
X8707500Y-12637738D01*
X8707500Y-12628214D01*
X8717024Y-12609167D01*
X8736071Y-12599643D01*
X8764643Y-12599643D01*
X8783690Y-12609167D01*
X8859881Y-12809167D02*
X8869405Y-12799643D01*
X8888452Y-12771071D01*
X8897976Y-12752024D01*
X8907500Y-12723452D01*
X8917024Y-12675833D01*
X8917024Y-12637738D01*
X8907500Y-12590119D01*
X8897976Y-12561548D01*
X8888452Y-12542500D01*
X8869405Y-12513928D01*
X8859881Y-12504405D01*
D13*
X3897500Y-12906500D02*
G75*
G03*
X3897500Y-12906500I-22500J0D01*
G01*
D11*
X4193214Y-12796976D02*
X4212262Y-12796976D01*
X4231310Y-12806500D01*
X4240833Y-12816024D01*
X4250357Y-12835071D01*
X4259881Y-12873167D01*
X4259881Y-12920786D01*
X4250357Y-12958881D01*
X4240833Y-12977928D01*
X4231310Y-12987452D01*
X4212262Y-12996976D01*
X4193214Y-12996976D01*
X4174167Y-12987452D01*
X4164643Y-12977928D01*
X4155119Y-12958881D01*
X4145595Y-12920786D01*
X4145595Y-12873167D01*
X4155119Y-12835071D01*
X4164643Y-12816024D01*
X4174167Y-12806500D01*
X4193214Y-12796976D01*
X4345595Y-12977928D02*
X4355119Y-12987452D01*
X4345595Y-12996976D01*
X4336071Y-12987452D01*
X4345595Y-12977928D01*
X4345595Y-12996976D01*
X4526548Y-12863643D02*
X4526548Y-12996976D01*
X4478929Y-12787452D02*
X4431310Y-12930309D01*
X4555119Y-12930309D01*
X4726548Y-12796976D02*
X4631310Y-12796976D01*
X4621786Y-12892214D01*
X4631310Y-12882690D01*
X4650357Y-12873167D01*
X4697976Y-12873167D01*
X4717024Y-12882690D01*
X4726548Y-12892214D01*
X4736071Y-12911262D01*
X4736071Y-12958881D01*
X4726548Y-12977928D01*
X4717024Y-12987452D01*
X4697976Y-12996976D01*
X4650357Y-12996976D01*
X4631310Y-12987452D01*
X4621786Y-12977928D01*
X4859881Y-12796976D02*
X4878929Y-12796976D01*
X4897976Y-12806500D01*
X4907500Y-12816024D01*
X4917024Y-12835071D01*
X4926548Y-12873167D01*
X4926548Y-12920786D01*
X4917024Y-12958881D01*
X4907500Y-12977928D01*
X4897976Y-12987452D01*
X4878929Y-12996976D01*
X4859881Y-12996976D01*
X4840833Y-12987452D01*
X4831310Y-12977928D01*
X4821786Y-12958881D01*
X4812262Y-12920786D01*
X4812262Y-12873167D01*
X4821786Y-12835071D01*
X4831310Y-12816024D01*
X4840833Y-12806500D01*
X4859881Y-12796976D01*
X5012262Y-12996976D02*
X5012262Y-12863643D01*
X5012262Y-12882690D02*
X5021786Y-12873167D01*
X5040833Y-12863643D01*
X5069405Y-12863643D01*
X5088452Y-12873167D01*
X5097976Y-12892214D01*
X5097976Y-12996976D01*
X5097976Y-12892214D02*
X5107500Y-12873167D01*
X5126548Y-12863643D01*
X5155119Y-12863643D01*
X5174167Y-12873167D01*
X5183690Y-12892214D01*
X5183690Y-12996976D01*
X5278929Y-12996976D02*
X5278929Y-12863643D01*
X5278929Y-12882690D02*
X5288452Y-12873167D01*
X5307500Y-12863643D01*
X5336071Y-12863643D01*
X5355119Y-12873167D01*
X5364643Y-12892214D01*
X5364643Y-12996976D01*
X5364643Y-12892214D02*
X5374167Y-12873167D01*
X5393214Y-12863643D01*
X5421786Y-12863643D01*
X5440833Y-12873167D01*
X5450357Y-12892214D01*
X5450357Y-12996976D01*
X5840833Y-12787452D02*
X5669405Y-13044595D01*
X6097976Y-12796976D02*
X6117024Y-12796976D01*
X6136071Y-12806500D01*
X6145595Y-12816024D01*
X6155119Y-12835071D01*
X6164643Y-12873167D01*
X6164643Y-12920786D01*
X6155119Y-12958881D01*
X6145595Y-12977928D01*
X6136071Y-12987452D01*
X6117024Y-12996976D01*
X6097976Y-12996976D01*
X6078928Y-12987452D01*
X6069405Y-12977928D01*
X6059881Y-12958881D01*
X6050357Y-12920786D01*
X6050357Y-12873167D01*
X6059881Y-12835071D01*
X6069405Y-12816024D01*
X6078928Y-12806500D01*
X6097976Y-12796976D01*
X6250357Y-12977928D02*
X6259881Y-12987452D01*
X6250357Y-12996976D01*
X6240833Y-12987452D01*
X6250357Y-12977928D01*
X6250357Y-12996976D01*
X6383690Y-12796976D02*
X6402738Y-12796976D01*
X6421786Y-12806500D01*
X6431309Y-12816024D01*
X6440833Y-12835071D01*
X6450357Y-12873167D01*
X6450357Y-12920786D01*
X6440833Y-12958881D01*
X6431309Y-12977928D01*
X6421786Y-12987452D01*
X6402738Y-12996976D01*
X6383690Y-12996976D01*
X6364643Y-12987452D01*
X6355119Y-12977928D01*
X6345595Y-12958881D01*
X6336071Y-12920786D01*
X6336071Y-12873167D01*
X6345595Y-12835071D01*
X6355119Y-12816024D01*
X6364643Y-12806500D01*
X6383690Y-12796976D01*
X6640833Y-12996976D02*
X6526548Y-12996976D01*
X6583690Y-12996976D02*
X6583690Y-12796976D01*
X6564643Y-12825548D01*
X6545595Y-12844595D01*
X6526548Y-12854119D01*
X6707500Y-12796976D02*
X6840833Y-12796976D01*
X6755119Y-12996976D01*
X6897976Y-12796976D02*
X7031309Y-12796976D01*
X6945595Y-12996976D01*
X7097976Y-12796976D02*
X7097976Y-12835071D01*
X7174167Y-12796976D02*
X7174167Y-12835071D01*
X7469405Y-13073167D02*
X7459881Y-13063643D01*
X7440833Y-13035071D01*
X7431309Y-13016024D01*
X7421786Y-12987452D01*
X7412262Y-12939833D01*
X7412262Y-12901738D01*
X7421786Y-12854119D01*
X7431309Y-12825548D01*
X7440833Y-12806500D01*
X7459881Y-12777928D01*
X7469405Y-12768405D01*
X7583690Y-12796976D02*
X7602738Y-12796976D01*
X7621786Y-12806500D01*
X7631309Y-12816024D01*
X7640833Y-12835071D01*
X7650357Y-12873167D01*
X7650357Y-12920786D01*
X7640833Y-12958881D01*
X7631309Y-12977928D01*
X7621786Y-12987452D01*
X7602738Y-12996976D01*
X7583690Y-12996976D01*
X7564643Y-12987452D01*
X7555119Y-12977928D01*
X7545595Y-12958881D01*
X7536071Y-12920786D01*
X7536071Y-12873167D01*
X7545595Y-12835071D01*
X7555119Y-12816024D01*
X7564643Y-12806500D01*
X7583690Y-12796976D01*
X7888452Y-12996976D02*
X7888452Y-12796976D01*
X7974167Y-12996976D02*
X7974167Y-12892214D01*
X7964643Y-12873167D01*
X7945595Y-12863643D01*
X7917024Y-12863643D01*
X7897976Y-12873167D01*
X7888452Y-12882690D01*
X8097976Y-12996976D02*
X8078928Y-12987452D01*
X8069405Y-12977928D01*
X8059881Y-12958881D01*
X8059881Y-12901738D01*
X8069405Y-12882690D01*
X8078928Y-12873167D01*
X8097976Y-12863643D01*
X8126548Y-12863643D01*
X8145595Y-12873167D01*
X8155119Y-12882690D01*
X8164643Y-12901738D01*
X8164643Y-12958881D01*
X8155119Y-12977928D01*
X8145595Y-12987452D01*
X8126548Y-12996976D01*
X8097976Y-12996976D01*
X8278928Y-12996976D02*
X8259881Y-12987452D01*
X8250357Y-12968405D01*
X8250357Y-12796976D01*
X8431310Y-12987452D02*
X8412262Y-12996976D01*
X8374167Y-12996976D01*
X8355119Y-12987452D01*
X8345595Y-12968405D01*
X8345595Y-12892214D01*
X8355119Y-12873167D01*
X8374167Y-12863643D01*
X8412262Y-12863643D01*
X8431310Y-12873167D01*
X8440833Y-12892214D01*
X8440833Y-12911262D01*
X8345595Y-12930309D01*
X8517024Y-12987452D02*
X8536071Y-12996976D01*
X8574167Y-12996976D01*
X8593214Y-12987452D01*
X8602738Y-12968405D01*
X8602738Y-12958881D01*
X8593214Y-12939833D01*
X8574167Y-12930309D01*
X8545595Y-12930309D01*
X8526548Y-12920786D01*
X8517024Y-12901738D01*
X8517024Y-12892214D01*
X8526548Y-12873167D01*
X8545595Y-12863643D01*
X8574167Y-12863643D01*
X8593214Y-12873167D01*
X8840833Y-12920786D02*
X8993214Y-12920786D01*
X8917024Y-12996976D02*
X8917024Y-12844595D01*
X9231310Y-12816024D02*
X9240833Y-12806500D01*
X9259881Y-12796976D01*
X9307500Y-12796976D01*
X9326548Y-12806500D01*
X9336071Y-12816024D01*
X9345595Y-12835071D01*
X9345595Y-12854119D01*
X9336071Y-12882690D01*
X9221786Y-12996976D01*
X9345595Y-12996976D01*
X9574167Y-12987452D02*
X9593214Y-12996976D01*
X9631310Y-12996976D01*
X9650357Y-12987452D01*
X9659881Y-12968405D01*
X9659881Y-12958881D01*
X9650357Y-12939833D01*
X9631310Y-12930309D01*
X9602738Y-12930309D01*
X9583690Y-12920786D01*
X9574167Y-12901738D01*
X9574167Y-12892214D01*
X9583690Y-12873167D01*
X9602738Y-12863643D01*
X9631310Y-12863643D01*
X9650357Y-12873167D01*
X9774167Y-12996976D02*
X9755119Y-12987452D01*
X9745595Y-12968405D01*
X9745595Y-12796976D01*
X9878929Y-12996976D02*
X9859881Y-12987452D01*
X9850357Y-12977928D01*
X9840833Y-12958881D01*
X9840833Y-12901738D01*
X9850357Y-12882690D01*
X9859881Y-12873167D01*
X9878929Y-12863643D01*
X9907500Y-12863643D01*
X9926548Y-12873167D01*
X9936071Y-12882690D01*
X9945595Y-12901738D01*
X9945595Y-12958881D01*
X9936071Y-12977928D01*
X9926548Y-12987452D01*
X9907500Y-12996976D01*
X9878929Y-12996976D01*
X10002738Y-12863643D02*
X10078929Y-12863643D01*
X10031310Y-12796976D02*
X10031310Y-12968405D01*
X10040833Y-12987452D01*
X10059881Y-12996976D01*
X10078929Y-12996976D01*
X10136071Y-12987452D02*
X10155119Y-12996976D01*
X10193214Y-12996976D01*
X10212262Y-12987452D01*
X10221786Y-12968405D01*
X10221786Y-12958881D01*
X10212262Y-12939833D01*
X10193214Y-12930309D01*
X10164643Y-12930309D01*
X10145595Y-12920786D01*
X10136071Y-12901738D01*
X10136071Y-12892214D01*
X10145595Y-12873167D01*
X10164643Y-12863643D01*
X10193214Y-12863643D01*
X10212262Y-12873167D01*
X10288452Y-13073167D02*
X10297976Y-13063643D01*
X10317024Y-13035071D01*
X10326548Y-13016024D01*
X10336071Y-12987452D01*
X10345595Y-12939833D01*
X10345595Y-12901738D01*
X10336071Y-12854119D01*
X10326548Y-12825548D01*
X10317024Y-12806500D01*
X10297976Y-12777928D01*
X10288452Y-12768405D01*
D14*
X3852500Y-13125500D02*
X3852500Y-13215500D01*
X3807500Y-13170500D02*
X3897500Y-13170500D01*
D11*
X4193214Y-13060976D02*
X4212262Y-13060976D01*
X4231310Y-13070500D01*
X4240833Y-13080024D01*
X4250357Y-13099071D01*
X4259881Y-13137167D01*
X4259881Y-13184786D01*
X4250357Y-13222881D01*
X4240833Y-13241928D01*
X4231310Y-13251452D01*
X4212262Y-13260976D01*
X4193214Y-13260976D01*
X4174167Y-13251452D01*
X4164643Y-13241928D01*
X4155119Y-13222881D01*
X4145595Y-13184786D01*
X4145595Y-13137167D01*
X4155119Y-13099071D01*
X4164643Y-13080024D01*
X4174167Y-13070500D01*
X4193214Y-13060976D01*
X4345595Y-13241928D02*
X4355119Y-13251452D01*
X4345595Y-13260976D01*
X4336071Y-13251452D01*
X4345595Y-13241928D01*
X4345595Y-13260976D01*
X4450357Y-13260976D02*
X4488452Y-13260976D01*
X4507500Y-13251452D01*
X4517024Y-13241928D01*
X4536071Y-13213357D01*
X4545595Y-13175262D01*
X4545595Y-13099071D01*
X4536071Y-13080024D01*
X4526548Y-13070500D01*
X4507500Y-13060976D01*
X4469405Y-13060976D01*
X4450357Y-13070500D01*
X4440833Y-13080024D01*
X4431310Y-13099071D01*
X4431310Y-13146690D01*
X4440833Y-13165738D01*
X4450357Y-13175262D01*
X4469405Y-13184786D01*
X4507500Y-13184786D01*
X4526548Y-13175262D01*
X4536071Y-13165738D01*
X4545595Y-13146690D01*
X4669405Y-13060976D02*
X4688452Y-13060976D01*
X4707500Y-13070500D01*
X4717024Y-13080024D01*
X4726548Y-13099071D01*
X4736071Y-13137167D01*
X4736071Y-13184786D01*
X4726548Y-13222881D01*
X4717024Y-13241928D01*
X4707500Y-13251452D01*
X4688452Y-13260976D01*
X4669405Y-13260976D01*
X4650357Y-13251452D01*
X4640833Y-13241928D01*
X4631310Y-13222881D01*
X4621786Y-13184786D01*
X4621786Y-13137167D01*
X4631310Y-13099071D01*
X4640833Y-13080024D01*
X4650357Y-13070500D01*
X4669405Y-13060976D01*
X4859881Y-13060976D02*
X4878929Y-13060976D01*
X4897976Y-13070500D01*
X4907500Y-13080024D01*
X4917024Y-13099071D01*
X4926548Y-13137167D01*
X4926548Y-13184786D01*
X4917024Y-13222881D01*
X4907500Y-13241928D01*
X4897976Y-13251452D01*
X4878929Y-13260976D01*
X4859881Y-13260976D01*
X4840833Y-13251452D01*
X4831310Y-13241928D01*
X4821786Y-13222881D01*
X4812262Y-13184786D01*
X4812262Y-13137167D01*
X4821786Y-13099071D01*
X4831310Y-13080024D01*
X4840833Y-13070500D01*
X4859881Y-13060976D01*
X5012262Y-13260976D02*
X5012262Y-13127643D01*
X5012262Y-13146690D02*
X5021786Y-13137167D01*
X5040833Y-13127643D01*
X5069405Y-13127643D01*
X5088452Y-13137167D01*
X5097976Y-13156214D01*
X5097976Y-13260976D01*
X5097976Y-13156214D02*
X5107500Y-13137167D01*
X5126548Y-13127643D01*
X5155119Y-13127643D01*
X5174167Y-13137167D01*
X5183690Y-13156214D01*
X5183690Y-13260976D01*
X5278929Y-13260976D02*
X5278929Y-13127643D01*
X5278929Y-13146690D02*
X5288452Y-13137167D01*
X5307500Y-13127643D01*
X5336071Y-13127643D01*
X5355119Y-13137167D01*
X5364643Y-13156214D01*
X5364643Y-13260976D01*
X5364643Y-13156214D02*
X5374167Y-13137167D01*
X5393214Y-13127643D01*
X5421786Y-13127643D01*
X5440833Y-13137167D01*
X5450357Y-13156214D01*
X5450357Y-13260976D01*
X5840833Y-13051452D02*
X5669405Y-13308595D01*
X6097976Y-13060976D02*
X6117024Y-13060976D01*
X6136071Y-13070500D01*
X6145595Y-13080024D01*
X6155119Y-13099071D01*
X6164643Y-13137167D01*
X6164643Y-13184786D01*
X6155119Y-13222881D01*
X6145595Y-13241928D01*
X6136071Y-13251452D01*
X6117024Y-13260976D01*
X6097976Y-13260976D01*
X6078928Y-13251452D01*
X6069405Y-13241928D01*
X6059881Y-13222881D01*
X6050357Y-13184786D01*
X6050357Y-13137167D01*
X6059881Y-13099071D01*
X6069405Y-13080024D01*
X6078928Y-13070500D01*
X6097976Y-13060976D01*
X6250357Y-13241928D02*
X6259881Y-13251452D01*
X6250357Y-13260976D01*
X6240833Y-13251452D01*
X6250357Y-13241928D01*
X6250357Y-13260976D01*
X6383690Y-13060976D02*
X6402738Y-13060976D01*
X6421786Y-13070500D01*
X6431309Y-13080024D01*
X6440833Y-13099071D01*
X6450357Y-13137167D01*
X6450357Y-13184786D01*
X6440833Y-13222881D01*
X6431309Y-13241928D01*
X6421786Y-13251452D01*
X6402738Y-13260976D01*
X6383690Y-13260976D01*
X6364643Y-13251452D01*
X6355119Y-13241928D01*
X6345595Y-13222881D01*
X6336071Y-13184786D01*
X6336071Y-13137167D01*
X6345595Y-13099071D01*
X6355119Y-13080024D01*
X6364643Y-13070500D01*
X6383690Y-13060976D01*
X6517024Y-13060976D02*
X6640833Y-13060976D01*
X6574167Y-13137167D01*
X6602738Y-13137167D01*
X6621786Y-13146690D01*
X6631309Y-13156214D01*
X6640833Y-13175262D01*
X6640833Y-13222881D01*
X6631309Y-13241928D01*
X6621786Y-13251452D01*
X6602738Y-13260976D01*
X6545595Y-13260976D01*
X6526548Y-13251452D01*
X6517024Y-13241928D01*
X6821786Y-13060976D02*
X6726548Y-13060976D01*
X6717024Y-13156214D01*
X6726548Y-13146690D01*
X6745595Y-13137167D01*
X6793214Y-13137167D01*
X6812262Y-13146690D01*
X6821786Y-13156214D01*
X6831309Y-13175262D01*
X6831309Y-13222881D01*
X6821786Y-13241928D01*
X6812262Y-13251452D01*
X6793214Y-13260976D01*
X6745595Y-13260976D01*
X6726548Y-13251452D01*
X6717024Y-13241928D01*
X7002738Y-13127643D02*
X7002738Y-13260976D01*
X6955119Y-13051452D02*
X6907500Y-13194309D01*
X7031309Y-13194309D01*
X7097976Y-13060976D02*
X7097976Y-13099071D01*
X7174167Y-13060976D02*
X7174167Y-13099071D01*
X7469405Y-13337167D02*
X7459881Y-13327643D01*
X7440833Y-13299071D01*
X7431309Y-13280024D01*
X7421786Y-13251452D01*
X7412262Y-13203833D01*
X7412262Y-13165738D01*
X7421786Y-13118119D01*
X7431309Y-13089548D01*
X7440833Y-13070500D01*
X7459881Y-13041928D01*
X7469405Y-13032405D01*
X7536071Y-13080024D02*
X7545595Y-13070500D01*
X7564643Y-13060976D01*
X7612262Y-13060976D01*
X7631309Y-13070500D01*
X7640833Y-13080024D01*
X7650357Y-13099071D01*
X7650357Y-13118119D01*
X7640833Y-13146690D01*
X7526548Y-13260976D01*
X7650357Y-13260976D01*
X7888452Y-13260976D02*
X7888452Y-13060976D01*
X7974167Y-13260976D02*
X7974167Y-13156214D01*
X7964643Y-13137167D01*
X7945595Y-13127643D01*
X7917024Y-13127643D01*
X7897976Y-13137167D01*
X7888452Y-13146690D01*
X8097976Y-13260976D02*
X8078928Y-13251452D01*
X8069405Y-13241928D01*
X8059881Y-13222881D01*
X8059881Y-13165738D01*
X8069405Y-13146690D01*
X8078928Y-13137167D01*
X8097976Y-13127643D01*
X8126548Y-13127643D01*
X8145595Y-13137167D01*
X8155119Y-13146690D01*
X8164643Y-13165738D01*
X8164643Y-13222881D01*
X8155119Y-13241928D01*
X8145595Y-13251452D01*
X8126548Y-13260976D01*
X8097976Y-13260976D01*
X8278928Y-13260976D02*
X8259881Y-13251452D01*
X8250357Y-13232405D01*
X8250357Y-13060976D01*
X8431310Y-13251452D02*
X8412262Y-13260976D01*
X8374167Y-13260976D01*
X8355119Y-13251452D01*
X8345595Y-13232405D01*
X8345595Y-13156214D01*
X8355119Y-13137167D01*
X8374167Y-13127643D01*
X8412262Y-13127643D01*
X8431310Y-13137167D01*
X8440833Y-13156214D01*
X8440833Y-13175262D01*
X8345595Y-13194309D01*
X8517024Y-13251452D02*
X8536071Y-13260976D01*
X8574167Y-13260976D01*
X8593214Y-13251452D01*
X8602738Y-13232405D01*
X8602738Y-13222881D01*
X8593214Y-13203833D01*
X8574167Y-13194309D01*
X8545595Y-13194309D01*
X8526548Y-13184786D01*
X8517024Y-13165738D01*
X8517024Y-13156214D01*
X8526548Y-13137167D01*
X8545595Y-13127643D01*
X8574167Y-13127643D01*
X8593214Y-13137167D01*
X8669405Y-13337167D02*
X8678929Y-13327643D01*
X8697976Y-13299071D01*
X8707500Y-13280024D01*
X8717024Y-13251452D01*
X8726548Y-13203833D01*
X8726548Y-13165738D01*
X8717024Y-13118119D01*
X8707500Y-13089548D01*
X8697976Y-13070500D01*
X8678929Y-13041928D01*
X8669405Y-13032405D01*
D15*
X3882856Y-13469856D02*
X3882856Y-13399144D01*
X3812144Y-13399144D01*
X3812144Y-13469856D01*
X3882856Y-13469856D01*
D11*
X4259881Y-13524976D02*
X4145595Y-13524976D01*
X4202738Y-13524976D02*
X4202738Y-13324976D01*
X4183690Y-13353548D01*
X4164643Y-13372595D01*
X4145595Y-13382119D01*
X4345595Y-13505928D02*
X4355119Y-13515452D01*
X4345595Y-13524976D01*
X4336071Y-13515452D01*
X4345595Y-13505928D01*
X4345595Y-13524976D01*
X4478929Y-13324976D02*
X4497976Y-13324976D01*
X4517024Y-13334500D01*
X4526548Y-13344024D01*
X4536071Y-13363071D01*
X4545595Y-13401167D01*
X4545595Y-13448786D01*
X4536071Y-13486881D01*
X4526548Y-13505928D01*
X4517024Y-13515452D01*
X4497976Y-13524976D01*
X4478929Y-13524976D01*
X4459881Y-13515452D01*
X4450357Y-13505928D01*
X4440833Y-13486881D01*
X4431310Y-13448786D01*
X4431310Y-13401167D01*
X4440833Y-13363071D01*
X4450357Y-13344024D01*
X4459881Y-13334500D01*
X4478929Y-13324976D01*
X4669405Y-13324976D02*
X4688452Y-13324976D01*
X4707500Y-13334500D01*
X4717024Y-13344024D01*
X4726548Y-13363071D01*
X4736071Y-13401167D01*
X4736071Y-13448786D01*
X4726548Y-13486881D01*
X4717024Y-13505928D01*
X4707500Y-13515452D01*
X4688452Y-13524976D01*
X4669405Y-13524976D01*
X4650357Y-13515452D01*
X4640833Y-13505928D01*
X4631310Y-13486881D01*
X4621786Y-13448786D01*
X4621786Y-13401167D01*
X4631310Y-13363071D01*
X4640833Y-13344024D01*
X4650357Y-13334500D01*
X4669405Y-13324976D01*
X4859881Y-13324976D02*
X4878929Y-13324976D01*
X4897976Y-13334500D01*
X4907500Y-13344024D01*
X4917024Y-13363071D01*
X4926548Y-13401167D01*
X4926548Y-13448786D01*
X4917024Y-13486881D01*
X4907500Y-13505928D01*
X4897976Y-13515452D01*
X4878929Y-13524976D01*
X4859881Y-13524976D01*
X4840833Y-13515452D01*
X4831310Y-13505928D01*
X4821786Y-13486881D01*
X4812262Y-13448786D01*
X4812262Y-13401167D01*
X4821786Y-13363071D01*
X4831310Y-13344024D01*
X4840833Y-13334500D01*
X4859881Y-13324976D01*
X5012262Y-13524976D02*
X5012262Y-13391643D01*
X5012262Y-13410690D02*
X5021786Y-13401167D01*
X5040833Y-13391643D01*
X5069405Y-13391643D01*
X5088452Y-13401167D01*
X5097976Y-13420214D01*
X5097976Y-13524976D01*
X5097976Y-13420214D02*
X5107500Y-13401167D01*
X5126548Y-13391643D01*
X5155119Y-13391643D01*
X5174167Y-13401167D01*
X5183690Y-13420214D01*
X5183690Y-13524976D01*
X5278929Y-13524976D02*
X5278929Y-13391643D01*
X5278929Y-13410690D02*
X5288452Y-13401167D01*
X5307500Y-13391643D01*
X5336071Y-13391643D01*
X5355119Y-13401167D01*
X5364643Y-13420214D01*
X5364643Y-13524976D01*
X5364643Y-13420214D02*
X5374167Y-13401167D01*
X5393214Y-13391643D01*
X5421786Y-13391643D01*
X5440833Y-13401167D01*
X5450357Y-13420214D01*
X5450357Y-13524976D01*
X5840833Y-13315452D02*
X5669405Y-13572595D01*
X6097976Y-13324976D02*
X6117024Y-13324976D01*
X6136071Y-13334500D01*
X6145595Y-13344024D01*
X6155119Y-13363071D01*
X6164643Y-13401167D01*
X6164643Y-13448786D01*
X6155119Y-13486881D01*
X6145595Y-13505928D01*
X6136071Y-13515452D01*
X6117024Y-13524976D01*
X6097976Y-13524976D01*
X6078928Y-13515452D01*
X6069405Y-13505928D01*
X6059881Y-13486881D01*
X6050357Y-13448786D01*
X6050357Y-13401167D01*
X6059881Y-13363071D01*
X6069405Y-13344024D01*
X6078928Y-13334500D01*
X6097976Y-13324976D01*
X6250357Y-13505928D02*
X6259881Y-13515452D01*
X6250357Y-13524976D01*
X6240833Y-13515452D01*
X6250357Y-13505928D01*
X6250357Y-13524976D01*
X6383690Y-13324976D02*
X6402738Y-13324976D01*
X6421786Y-13334500D01*
X6431309Y-13344024D01*
X6440833Y-13363071D01*
X6450357Y-13401167D01*
X6450357Y-13448786D01*
X6440833Y-13486881D01*
X6431309Y-13505928D01*
X6421786Y-13515452D01*
X6402738Y-13524976D01*
X6383690Y-13524976D01*
X6364643Y-13515452D01*
X6355119Y-13505928D01*
X6345595Y-13486881D01*
X6336071Y-13448786D01*
X6336071Y-13401167D01*
X6345595Y-13363071D01*
X6355119Y-13344024D01*
X6364643Y-13334500D01*
X6383690Y-13324976D01*
X6517024Y-13324976D02*
X6640833Y-13324976D01*
X6574167Y-13401167D01*
X6602738Y-13401167D01*
X6621786Y-13410690D01*
X6631309Y-13420214D01*
X6640833Y-13439262D01*
X6640833Y-13486881D01*
X6631309Y-13505928D01*
X6621786Y-13515452D01*
X6602738Y-13524976D01*
X6545595Y-13524976D01*
X6526548Y-13515452D01*
X6517024Y-13505928D01*
X6736071Y-13524976D02*
X6774167Y-13524976D01*
X6793214Y-13515452D01*
X6802738Y-13505928D01*
X6821786Y-13477357D01*
X6831309Y-13439262D01*
X6831309Y-13363071D01*
X6821786Y-13344024D01*
X6812262Y-13334500D01*
X6793214Y-13324976D01*
X6755119Y-13324976D01*
X6736071Y-13334500D01*
X6726548Y-13344024D01*
X6717024Y-13363071D01*
X6717024Y-13410690D01*
X6726548Y-13429738D01*
X6736071Y-13439262D01*
X6755119Y-13448786D01*
X6793214Y-13448786D01*
X6812262Y-13439262D01*
X6821786Y-13429738D01*
X6831309Y-13410690D01*
X7002738Y-13391643D02*
X7002738Y-13524976D01*
X6955119Y-13315452D02*
X6907500Y-13458309D01*
X7031309Y-13458309D01*
X7097976Y-13324976D02*
X7097976Y-13363071D01*
X7174167Y-13324976D02*
X7174167Y-13363071D01*
X7469405Y-13601167D02*
X7459881Y-13591643D01*
X7440833Y-13563071D01*
X7431309Y-13544024D01*
X7421786Y-13515452D01*
X7412262Y-13467833D01*
X7412262Y-13429738D01*
X7421786Y-13382119D01*
X7431309Y-13353548D01*
X7440833Y-13334500D01*
X7459881Y-13305928D01*
X7469405Y-13296405D01*
X7631309Y-13391643D02*
X7631309Y-13524976D01*
X7583690Y-13315452D02*
X7536071Y-13458309D01*
X7659881Y-13458309D01*
X7764643Y-13410690D02*
X7745595Y-13401167D01*
X7736071Y-13391643D01*
X7726548Y-13372595D01*
X7726548Y-13363071D01*
X7736071Y-13344024D01*
X7745595Y-13334500D01*
X7764643Y-13324976D01*
X7802738Y-13324976D01*
X7821786Y-13334500D01*
X7831309Y-13344024D01*
X7840833Y-13363071D01*
X7840833Y-13372595D01*
X7831309Y-13391643D01*
X7821786Y-13401167D01*
X7802738Y-13410690D01*
X7764643Y-13410690D01*
X7745595Y-13420214D01*
X7736071Y-13429738D01*
X7726548Y-13448786D01*
X7726548Y-13486881D01*
X7736071Y-13505928D01*
X7745595Y-13515452D01*
X7764643Y-13524976D01*
X7802738Y-13524976D01*
X7821786Y-13515452D01*
X7831309Y-13505928D01*
X7840833Y-13486881D01*
X7840833Y-13448786D01*
X7831309Y-13429738D01*
X7821786Y-13420214D01*
X7802738Y-13410690D01*
X8078928Y-13524976D02*
X8078928Y-13324976D01*
X8164643Y-13524976D02*
X8164643Y-13420214D01*
X8155119Y-13401167D01*
X8136071Y-13391643D01*
X8107500Y-13391643D01*
X8088452Y-13401167D01*
X8078928Y-13410690D01*
X8288452Y-13524976D02*
X8269405Y-13515452D01*
X8259881Y-13505928D01*
X8250357Y-13486881D01*
X8250357Y-13429738D01*
X8259881Y-13410690D01*
X8269405Y-13401167D01*
X8288452Y-13391643D01*
X8317024Y-13391643D01*
X8336071Y-13401167D01*
X8345595Y-13410690D01*
X8355119Y-13429738D01*
X8355119Y-13486881D01*
X8345595Y-13505928D01*
X8336071Y-13515452D01*
X8317024Y-13524976D01*
X8288452Y-13524976D01*
X8469405Y-13524976D02*
X8450357Y-13515452D01*
X8440833Y-13496405D01*
X8440833Y-13324976D01*
X8621786Y-13515452D02*
X8602738Y-13524976D01*
X8564643Y-13524976D01*
X8545595Y-13515452D01*
X8536071Y-13496405D01*
X8536071Y-13420214D01*
X8545595Y-13401167D01*
X8564643Y-13391643D01*
X8602738Y-13391643D01*
X8621786Y-13401167D01*
X8631310Y-13420214D01*
X8631310Y-13439262D01*
X8536071Y-13458309D01*
X8707500Y-13515452D02*
X8726548Y-13524976D01*
X8764643Y-13524976D01*
X8783690Y-13515452D01*
X8793214Y-13496405D01*
X8793214Y-13486881D01*
X8783690Y-13467833D01*
X8764643Y-13458309D01*
X8736071Y-13458309D01*
X8717024Y-13448786D01*
X8707500Y-13429738D01*
X8707500Y-13420214D01*
X8717024Y-13401167D01*
X8736071Y-13391643D01*
X8764643Y-13391643D01*
X8783690Y-13401167D01*
X8859881Y-13601167D02*
X8869405Y-13591643D01*
X8888452Y-13563071D01*
X8897976Y-13544024D01*
X8907500Y-13515452D01*
X8917024Y-13467833D01*
X8917024Y-13429738D01*
X8907500Y-13382119D01*
X8897976Y-13353548D01*
X8888452Y-13334500D01*
X8869405Y-13305928D01*
X8859881Y-13296405D01*
D16*
X3842500Y-13753500D02*
X3897500Y-13698500D01*
X3842500Y-13643500D01*
X3787500Y-13698500D01*
X3842500Y-13753500D01*
D11*
X4259881Y-13788976D02*
X4145595Y-13788976D01*
X4202738Y-13788976D02*
X4202738Y-13588976D01*
X4183690Y-13617548D01*
X4164643Y-13636595D01*
X4145595Y-13646119D01*
X4345595Y-13769928D02*
X4355119Y-13779452D01*
X4345595Y-13788976D01*
X4336071Y-13779452D01*
X4345595Y-13769928D01*
X4345595Y-13788976D01*
X4545595Y-13788976D02*
X4431310Y-13788976D01*
X4488452Y-13788976D02*
X4488452Y-13588976D01*
X4469405Y-13617548D01*
X4450357Y-13636595D01*
X4431310Y-13646119D01*
X4669405Y-13588976D02*
X4688452Y-13588976D01*
X4707500Y-13598500D01*
X4717024Y-13608024D01*
X4726548Y-13627071D01*
X4736071Y-13665167D01*
X4736071Y-13712786D01*
X4726548Y-13750881D01*
X4717024Y-13769928D01*
X4707500Y-13779452D01*
X4688452Y-13788976D01*
X4669405Y-13788976D01*
X4650357Y-13779452D01*
X4640833Y-13769928D01*
X4631310Y-13750881D01*
X4621786Y-13712786D01*
X4621786Y-13665167D01*
X4631310Y-13627071D01*
X4640833Y-13608024D01*
X4650357Y-13598500D01*
X4669405Y-13588976D01*
X4859881Y-13588976D02*
X4878929Y-13588976D01*
X4897976Y-13598500D01*
X4907500Y-13608024D01*
X4917024Y-13627071D01*
X4926548Y-13665167D01*
X4926548Y-13712786D01*
X4917024Y-13750881D01*
X4907500Y-13769928D01*
X4897976Y-13779452D01*
X4878929Y-13788976D01*
X4859881Y-13788976D01*
X4840833Y-13779452D01*
X4831310Y-13769928D01*
X4821786Y-13750881D01*
X4812262Y-13712786D01*
X4812262Y-13665167D01*
X4821786Y-13627071D01*
X4831310Y-13608024D01*
X4840833Y-13598500D01*
X4859881Y-13588976D01*
X5012262Y-13788976D02*
X5012262Y-13655643D01*
X5012262Y-13674690D02*
X5021786Y-13665167D01*
X5040833Y-13655643D01*
X5069405Y-13655643D01*
X5088452Y-13665167D01*
X5097976Y-13684214D01*
X5097976Y-13788976D01*
X5097976Y-13684214D02*
X5107500Y-13665167D01*
X5126548Y-13655643D01*
X5155119Y-13655643D01*
X5174167Y-13665167D01*
X5183690Y-13684214D01*
X5183690Y-13788976D01*
X5278929Y-13788976D02*
X5278929Y-13655643D01*
X5278929Y-13674690D02*
X5288452Y-13665167D01*
X5307500Y-13655643D01*
X5336071Y-13655643D01*
X5355119Y-13665167D01*
X5364643Y-13684214D01*
X5364643Y-13788976D01*
X5364643Y-13684214D02*
X5374167Y-13665167D01*
X5393214Y-13655643D01*
X5421786Y-13655643D01*
X5440833Y-13665167D01*
X5450357Y-13684214D01*
X5450357Y-13788976D01*
X5840833Y-13579452D02*
X5669405Y-13836595D01*
X6097976Y-13588976D02*
X6117024Y-13588976D01*
X6136071Y-13598500D01*
X6145595Y-13608024D01*
X6155119Y-13627071D01*
X6164643Y-13665167D01*
X6164643Y-13712786D01*
X6155119Y-13750881D01*
X6145595Y-13769928D01*
X6136071Y-13779452D01*
X6117024Y-13788976D01*
X6097976Y-13788976D01*
X6078928Y-13779452D01*
X6069405Y-13769928D01*
X6059881Y-13750881D01*
X6050357Y-13712786D01*
X6050357Y-13665167D01*
X6059881Y-13627071D01*
X6069405Y-13608024D01*
X6078928Y-13598500D01*
X6097976Y-13588976D01*
X6250357Y-13769928D02*
X6259881Y-13779452D01*
X6250357Y-13788976D01*
X6240833Y-13779452D01*
X6250357Y-13769928D01*
X6250357Y-13788976D01*
X6383690Y-13588976D02*
X6402738Y-13588976D01*
X6421786Y-13598500D01*
X6431309Y-13608024D01*
X6440833Y-13627071D01*
X6450357Y-13665167D01*
X6450357Y-13712786D01*
X6440833Y-13750881D01*
X6431309Y-13769928D01*
X6421786Y-13779452D01*
X6402738Y-13788976D01*
X6383690Y-13788976D01*
X6364643Y-13779452D01*
X6355119Y-13769928D01*
X6345595Y-13750881D01*
X6336071Y-13712786D01*
X6336071Y-13665167D01*
X6345595Y-13627071D01*
X6355119Y-13608024D01*
X6364643Y-13598500D01*
X6383690Y-13588976D01*
X6621786Y-13655643D02*
X6621786Y-13788976D01*
X6574167Y-13579452D02*
X6526548Y-13722309D01*
X6650357Y-13722309D01*
X6707500Y-13588976D02*
X6831309Y-13588976D01*
X6764643Y-13665167D01*
X6793214Y-13665167D01*
X6812262Y-13674690D01*
X6821786Y-13684214D01*
X6831309Y-13703262D01*
X6831309Y-13750881D01*
X6821786Y-13769928D01*
X6812262Y-13779452D01*
X6793214Y-13788976D01*
X6736071Y-13788976D01*
X6717024Y-13779452D01*
X6707500Y-13769928D01*
X6897976Y-13588976D02*
X7021786Y-13588976D01*
X6955119Y-13665167D01*
X6983690Y-13665167D01*
X7002738Y-13674690D01*
X7012262Y-13684214D01*
X7021786Y-13703262D01*
X7021786Y-13750881D01*
X7012262Y-13769928D01*
X7002738Y-13779452D01*
X6983690Y-13788976D01*
X6926548Y-13788976D01*
X6907500Y-13779452D01*
X6897976Y-13769928D01*
X7097976Y-13588976D02*
X7097976Y-13627071D01*
X7174167Y-13588976D02*
X7174167Y-13627071D01*
X7469405Y-13865167D02*
X7459881Y-13855643D01*
X7440833Y-13827071D01*
X7431309Y-13808024D01*
X7421786Y-13779452D01*
X7412262Y-13731833D01*
X7412262Y-13693738D01*
X7421786Y-13646119D01*
X7431309Y-13617548D01*
X7440833Y-13598500D01*
X7459881Y-13569928D01*
X7469405Y-13560405D01*
X7650357Y-13788976D02*
X7536071Y-13788976D01*
X7593214Y-13788976D02*
X7593214Y-13588976D01*
X7574167Y-13617548D01*
X7555119Y-13636595D01*
X7536071Y-13646119D01*
X7726548Y-13608024D02*
X7736071Y-13598500D01*
X7755119Y-13588976D01*
X7802738Y-13588976D01*
X7821786Y-13598500D01*
X7831309Y-13608024D01*
X7840833Y-13627071D01*
X7840833Y-13646119D01*
X7831309Y-13674690D01*
X7717024Y-13788976D01*
X7840833Y-13788976D01*
X8078928Y-13788976D02*
X8078928Y-13588976D01*
X8164643Y-13788976D02*
X8164643Y-13684214D01*
X8155119Y-13665167D01*
X8136071Y-13655643D01*
X8107500Y-13655643D01*
X8088452Y-13665167D01*
X8078928Y-13674690D01*
X8288452Y-13788976D02*
X8269405Y-13779452D01*
X8259881Y-13769928D01*
X8250357Y-13750881D01*
X8250357Y-13693738D01*
X8259881Y-13674690D01*
X8269405Y-13665167D01*
X8288452Y-13655643D01*
X8317024Y-13655643D01*
X8336071Y-13665167D01*
X8345595Y-13674690D01*
X8355119Y-13693738D01*
X8355119Y-13750881D01*
X8345595Y-13769928D01*
X8336071Y-13779452D01*
X8317024Y-13788976D01*
X8288452Y-13788976D01*
X8469405Y-13788976D02*
X8450357Y-13779452D01*
X8440833Y-13760405D01*
X8440833Y-13588976D01*
X8621786Y-13779452D02*
X8602738Y-13788976D01*
X8564643Y-13788976D01*
X8545595Y-13779452D01*
X8536071Y-13760405D01*
X8536071Y-13684214D01*
X8545595Y-13665167D01*
X8564643Y-13655643D01*
X8602738Y-13655643D01*
X8621786Y-13665167D01*
X8631310Y-13684214D01*
X8631310Y-13703262D01*
X8536071Y-13722309D01*
X8707500Y-13779452D02*
X8726548Y-13788976D01*
X8764643Y-13788976D01*
X8783690Y-13779452D01*
X8793214Y-13760405D01*
X8793214Y-13750881D01*
X8783690Y-13731833D01*
X8764643Y-13722309D01*
X8736071Y-13722309D01*
X8717024Y-13712786D01*
X8707500Y-13693738D01*
X8707500Y-13684214D01*
X8717024Y-13665167D01*
X8736071Y-13655643D01*
X8764643Y-13655643D01*
X8783690Y-13665167D01*
X8859881Y-13865167D02*
X8869405Y-13855643D01*
X8888452Y-13827071D01*
X8897976Y-13808024D01*
X8907500Y-13779452D01*
X8917024Y-13731833D01*
X8917024Y-13693738D01*
X8907500Y-13646119D01*
X8897976Y-13617548D01*
X8888452Y-13598500D01*
X8869405Y-13569928D01*
X8859881Y-13560405D01*
D17*
X3767500Y-13897500D02*
X3897500Y-14027500D01*
X3897500Y-13897500D02*
X3767500Y-14027500D01*
X3897500Y-13962500D02*
G75*
G03*
X3897500Y-13962500I-65000J0D01*
G01*
D11*
X4259881Y-14052976D02*
X4145595Y-14052976D01*
X4202738Y-14052976D02*
X4202738Y-13852976D01*
X4183690Y-13881548D01*
X4164643Y-13900595D01*
X4145595Y-13910119D01*
X4345595Y-14033928D02*
X4355119Y-14043452D01*
X4345595Y-14052976D01*
X4336071Y-14043452D01*
X4345595Y-14033928D01*
X4345595Y-14052976D01*
X4421786Y-13852976D02*
X4545595Y-13852976D01*
X4478929Y-13929167D01*
X4507500Y-13929167D01*
X4526548Y-13938690D01*
X4536071Y-13948214D01*
X4545595Y-13967262D01*
X4545595Y-14014881D01*
X4536071Y-14033928D01*
X4526548Y-14043452D01*
X4507500Y-14052976D01*
X4450357Y-14052976D01*
X4431310Y-14043452D01*
X4421786Y-14033928D01*
X4669405Y-13852976D02*
X4688452Y-13852976D01*
X4707500Y-13862500D01*
X4717024Y-13872024D01*
X4726548Y-13891071D01*
X4736071Y-13929167D01*
X4736071Y-13976786D01*
X4726548Y-14014881D01*
X4717024Y-14033928D01*
X4707500Y-14043452D01*
X4688452Y-14052976D01*
X4669405Y-14052976D01*
X4650357Y-14043452D01*
X4640833Y-14033928D01*
X4631310Y-14014881D01*
X4621786Y-13976786D01*
X4621786Y-13929167D01*
X4631310Y-13891071D01*
X4640833Y-13872024D01*
X4650357Y-13862500D01*
X4669405Y-13852976D01*
X4859881Y-13852976D02*
X4878929Y-13852976D01*
X4897976Y-13862500D01*
X4907500Y-13872024D01*
X4917024Y-13891071D01*
X4926548Y-13929167D01*
X4926548Y-13976786D01*
X4917024Y-14014881D01*
X4907500Y-14033928D01*
X4897976Y-14043452D01*
X4878929Y-14052976D01*
X4859881Y-14052976D01*
X4840833Y-14043452D01*
X4831310Y-14033928D01*
X4821786Y-14014881D01*
X4812262Y-13976786D01*
X4812262Y-13929167D01*
X4821786Y-13891071D01*
X4831310Y-13872024D01*
X4840833Y-13862500D01*
X4859881Y-13852976D01*
X5012262Y-14052976D02*
X5012262Y-13919643D01*
X5012262Y-13938690D02*
X5021786Y-13929167D01*
X5040833Y-13919643D01*
X5069405Y-13919643D01*
X5088452Y-13929167D01*
X5097976Y-13948214D01*
X5097976Y-14052976D01*
X5097976Y-13948214D02*
X5107500Y-13929167D01*
X5126548Y-13919643D01*
X5155119Y-13919643D01*
X5174167Y-13929167D01*
X5183690Y-13948214D01*
X5183690Y-14052976D01*
X5278929Y-14052976D02*
X5278929Y-13919643D01*
X5278929Y-13938690D02*
X5288452Y-13929167D01*
X5307500Y-13919643D01*
X5336071Y-13919643D01*
X5355119Y-13929167D01*
X5364643Y-13948214D01*
X5364643Y-14052976D01*
X5364643Y-13948214D02*
X5374167Y-13929167D01*
X5393214Y-13919643D01*
X5421786Y-13919643D01*
X5440833Y-13929167D01*
X5450357Y-13948214D01*
X5450357Y-14052976D01*
X5840833Y-13843452D02*
X5669405Y-14100595D01*
X6097976Y-13852976D02*
X6117024Y-13852976D01*
X6136071Y-13862500D01*
X6145595Y-13872024D01*
X6155119Y-13891071D01*
X6164643Y-13929167D01*
X6164643Y-13976786D01*
X6155119Y-14014881D01*
X6145595Y-14033928D01*
X6136071Y-14043452D01*
X6117024Y-14052976D01*
X6097976Y-14052976D01*
X6078928Y-14043452D01*
X6069405Y-14033928D01*
X6059881Y-14014881D01*
X6050357Y-13976786D01*
X6050357Y-13929167D01*
X6059881Y-13891071D01*
X6069405Y-13872024D01*
X6078928Y-13862500D01*
X6097976Y-13852976D01*
X6250357Y-14033928D02*
X6259881Y-14043452D01*
X6250357Y-14052976D01*
X6240833Y-14043452D01*
X6250357Y-14033928D01*
X6250357Y-14052976D01*
X6383690Y-13852976D02*
X6402738Y-13852976D01*
X6421786Y-13862500D01*
X6431309Y-13872024D01*
X6440833Y-13891071D01*
X6450357Y-13929167D01*
X6450357Y-13976786D01*
X6440833Y-14014881D01*
X6431309Y-14033928D01*
X6421786Y-14043452D01*
X6402738Y-14052976D01*
X6383690Y-14052976D01*
X6364643Y-14043452D01*
X6355119Y-14033928D01*
X6345595Y-14014881D01*
X6336071Y-13976786D01*
X6336071Y-13929167D01*
X6345595Y-13891071D01*
X6355119Y-13872024D01*
X6364643Y-13862500D01*
X6383690Y-13852976D01*
X6631309Y-13852976D02*
X6536071Y-13852976D01*
X6526548Y-13948214D01*
X6536071Y-13938690D01*
X6555119Y-13929167D01*
X6602738Y-13929167D01*
X6621786Y-13938690D01*
X6631309Y-13948214D01*
X6640833Y-13967262D01*
X6640833Y-14014881D01*
X6631309Y-14033928D01*
X6621786Y-14043452D01*
X6602738Y-14052976D01*
X6555119Y-14052976D01*
X6536071Y-14043452D01*
X6526548Y-14033928D01*
X6831309Y-14052976D02*
X6717024Y-14052976D01*
X6774167Y-14052976D02*
X6774167Y-13852976D01*
X6755119Y-13881548D01*
X6736071Y-13900595D01*
X6717024Y-13910119D01*
X6907500Y-13872024D02*
X6917024Y-13862500D01*
X6936071Y-13852976D01*
X6983690Y-13852976D01*
X7002738Y-13862500D01*
X7012262Y-13872024D01*
X7021786Y-13891071D01*
X7021786Y-13910119D01*
X7012262Y-13938690D01*
X6897976Y-14052976D01*
X7021786Y-14052976D01*
X7097976Y-13852976D02*
X7097976Y-13891071D01*
X7174167Y-13852976D02*
X7174167Y-13891071D01*
X7469405Y-14129167D02*
X7459881Y-14119643D01*
X7440833Y-14091071D01*
X7431309Y-14072024D01*
X7421786Y-14043452D01*
X7412262Y-13995833D01*
X7412262Y-13957738D01*
X7421786Y-13910119D01*
X7431309Y-13881548D01*
X7440833Y-13862500D01*
X7459881Y-13833928D01*
X7469405Y-13824405D01*
X7536071Y-13872024D02*
X7545595Y-13862500D01*
X7564643Y-13852976D01*
X7612262Y-13852976D01*
X7631309Y-13862500D01*
X7640833Y-13872024D01*
X7650357Y-13891071D01*
X7650357Y-13910119D01*
X7640833Y-13938690D01*
X7526548Y-14052976D01*
X7650357Y-14052976D01*
X7888452Y-14052976D02*
X7888452Y-13852976D01*
X7974167Y-14052976D02*
X7974167Y-13948214D01*
X7964643Y-13929167D01*
X7945595Y-13919643D01*
X7917024Y-13919643D01*
X7897976Y-13929167D01*
X7888452Y-13938690D01*
X8097976Y-14052976D02*
X8078928Y-14043452D01*
X8069405Y-14033928D01*
X8059881Y-14014881D01*
X8059881Y-13957738D01*
X8069405Y-13938690D01*
X8078928Y-13929167D01*
X8097976Y-13919643D01*
X8126548Y-13919643D01*
X8145595Y-13929167D01*
X8155119Y-13938690D01*
X8164643Y-13957738D01*
X8164643Y-14014881D01*
X8155119Y-14033928D01*
X8145595Y-14043452D01*
X8126548Y-14052976D01*
X8097976Y-14052976D01*
X8278928Y-14052976D02*
X8259881Y-14043452D01*
X8250357Y-14024405D01*
X8250357Y-13852976D01*
X8431310Y-14043452D02*
X8412262Y-14052976D01*
X8374167Y-14052976D01*
X8355119Y-14043452D01*
X8345595Y-14024405D01*
X8345595Y-13948214D01*
X8355119Y-13929167D01*
X8374167Y-13919643D01*
X8412262Y-13919643D01*
X8431310Y-13929167D01*
X8440833Y-13948214D01*
X8440833Y-13967262D01*
X8345595Y-13986309D01*
X8517024Y-14043452D02*
X8536071Y-14052976D01*
X8574167Y-14052976D01*
X8593214Y-14043452D01*
X8602738Y-14024405D01*
X8602738Y-14014881D01*
X8593214Y-13995833D01*
X8574167Y-13986309D01*
X8545595Y-13986309D01*
X8526548Y-13976786D01*
X8517024Y-13957738D01*
X8517024Y-13948214D01*
X8526548Y-13929167D01*
X8545595Y-13919643D01*
X8574167Y-13919643D01*
X8593214Y-13929167D01*
X8669405Y-14129167D02*
X8678929Y-14119643D01*
X8697976Y-14091071D01*
X8707500Y-14072024D01*
X8717024Y-14043452D01*
X8726548Y-13995833D01*
X8726548Y-13957738D01*
X8717024Y-13910119D01*
X8707500Y-13881548D01*
X8697976Y-13862500D01*
X8678929Y-13833928D01*
X8669405Y-13824405D01*
M02*
