G04 #@! TF.GenerationSoftware,KiCad,Pcbnew,(6.0.0)*
G04 #@! TF.CreationDate,2022-07-19T14:29:55+02:00*
G04 #@! TF.ProjectId,mht-base,6e666c2d-6261-4736-952e-6b696361645f,rev?*
G04 #@! TF.SameCoordinates,Original*
G04 #@! TF.FileFunction,Copper,L2,Bot*
G04 #@! TF.FilePolarity,Positive*
%FSLAX46Y46*%
G04 Gerber Fmt 4.6, Leading zero omitted, Abs format (unit mm)*
G04 Created by KiCad (PCBNEW (6.0.0)) date 2022-07-19 14:29:55*
%MOMM*%
%LPD*%
G01*
G04 APERTURE LIST*
G04 Aperture macros list*
%AMRoundRect*
0 Rectangle with rounded corners*
0 $1 Rounding radius*
0 $2 $3 $4 $5 $6 $7 $8 $9 X,Y pos of 4 corners*
0 Add a 4 corners polygon primitive as box body*
4,1,4,$2,$3,$4,$5,$6,$7,$8,$9,$2,$3,0*
0 Add four circle primitives for the rounded corners*
1,1,$1+$1,$2,$3*
1,1,$1+$1,$4,$5*
1,1,$1+$1,$6,$7*
1,1,$1+$1,$8,$9*
0 Add four rect primitives between the rounded corners*
20,1,$1+$1,$2,$3,$4,$5,0*
20,1,$1+$1,$4,$5,$6,$7,0*
20,1,$1+$1,$6,$7,$8,$9,0*
20,1,$1+$1,$8,$9,$2,$3,0*%
G04 Aperture macros list end*
G04 #@! TA.AperFunction,ComponentPad*
%ADD10R,2.100000X2.100000*%
G04 #@! TD*
G04 #@! TA.AperFunction,ComponentPad*
%ADD11C,2.100000*%
G04 #@! TD*
G04 #@! TA.AperFunction,ComponentPad*
%ADD12R,1.700000X1.700000*%
G04 #@! TD*
G04 #@! TA.AperFunction,ComponentPad*
%ADD13O,1.700000X1.700000*%
G04 #@! TD*
G04 #@! TA.AperFunction,ComponentPad*
%ADD14R,2.500000X2.500000*%
G04 #@! TD*
G04 #@! TA.AperFunction,ComponentPad*
%ADD15C,2.500000*%
G04 #@! TD*
G04 #@! TA.AperFunction,ComponentPad*
%ADD16R,1.800000X1.800000*%
G04 #@! TD*
G04 #@! TA.AperFunction,ComponentPad*
%ADD17C,1.800000*%
G04 #@! TD*
G04 #@! TA.AperFunction,ComponentPad*
%ADD18C,1.700000*%
G04 #@! TD*
G04 #@! TA.AperFunction,ComponentPad*
%ADD19RoundRect,0.250000X-0.600000X0.600000X-0.600000X-0.600000X0.600000X-0.600000X0.600000X0.600000X0*%
G04 #@! TD*
G04 #@! TA.AperFunction,ComponentPad*
%ADD20RoundRect,0.250000X-0.600000X-0.600000X0.600000X-0.600000X0.600000X0.600000X-0.600000X0.600000X0*%
G04 #@! TD*
G04 #@! TA.AperFunction,ComponentPad*
%ADD21O,1.850000X1.050000*%
G04 #@! TD*
G04 #@! TA.AperFunction,ViaPad*
%ADD22C,0.800000*%
G04 #@! TD*
G04 #@! TA.AperFunction,Conductor*
%ADD23C,0.400000*%
G04 #@! TD*
G04 #@! TA.AperFunction,Conductor*
%ADD24C,0.250000*%
G04 #@! TD*
G04 #@! TA.AperFunction,Conductor*
%ADD25C,0.300000*%
G04 #@! TD*
G04 APERTURE END LIST*
D10*
X80500000Y-113000000D03*
D11*
X85500000Y-113000000D03*
X90500000Y-113000000D03*
X95500000Y-113000000D03*
D12*
X45720000Y-99060000D03*
D13*
X48260000Y-99060000D03*
X50800000Y-99060000D03*
X53340000Y-99060000D03*
X55880000Y-99060000D03*
X58420000Y-99060000D03*
X60960000Y-99060000D03*
X63500000Y-99060000D03*
D12*
X45720000Y-86360000D03*
D13*
X48260000Y-86360000D03*
X50800000Y-86360000D03*
X53340000Y-86360000D03*
X55880000Y-86360000D03*
X58420000Y-86360000D03*
X60960000Y-86360000D03*
X63500000Y-86360000D03*
D10*
X55500000Y-113000000D03*
D11*
X60500000Y-113000000D03*
X65500000Y-113000000D03*
X70500000Y-113000000D03*
D14*
X130500000Y-113300000D03*
D15*
X135500000Y-113300000D03*
D16*
X75000000Y-90000000D03*
D17*
X72460000Y-90000000D03*
D18*
X87880000Y-67787500D03*
X87880000Y-65247500D03*
X90420000Y-67787500D03*
X90420000Y-65247500D03*
X92960000Y-67787500D03*
X92960000Y-65247500D03*
X95500000Y-67787500D03*
X95500000Y-65247500D03*
X98040000Y-67787500D03*
X98040000Y-65247500D03*
X100580000Y-67787500D03*
X100580000Y-65247500D03*
X103120000Y-67787500D03*
D19*
X103120000Y-65247500D03*
D12*
X137105000Y-70950000D03*
D13*
X134565000Y-70950000D03*
X137105000Y-68410000D03*
X134565000Y-68410000D03*
X137105000Y-65870000D03*
X134565000Y-65870000D03*
X137105000Y-63330000D03*
X134565000Y-63330000D03*
D10*
X105500000Y-113000000D03*
D11*
X110500000Y-113000000D03*
X115500000Y-113000000D03*
X120500000Y-113000000D03*
D20*
X73247500Y-66955000D03*
D18*
X75787500Y-66955000D03*
X73247500Y-69495000D03*
X75787500Y-69495000D03*
X73247500Y-72035000D03*
X75787500Y-72035000D03*
D21*
X150550000Y-104575000D03*
X150550000Y-97425000D03*
D12*
X56200000Y-63000000D03*
D13*
X58740000Y-63000000D03*
X61280000Y-63000000D03*
X63820000Y-63000000D03*
D22*
X145500000Y-93500000D03*
X131000000Y-80500000D03*
X130500000Y-95000000D03*
X114000000Y-103500000D03*
X112000000Y-104500000D03*
X97500000Y-99000000D03*
X95500000Y-87500000D03*
X128500000Y-85000000D03*
X112850000Y-83850000D03*
X138000000Y-85000000D03*
X94500000Y-90500000D03*
X126000000Y-88000000D03*
X135000000Y-82000000D03*
X102000000Y-99000000D03*
X100500000Y-99000000D03*
X99000000Y-99000000D03*
X85500000Y-99500000D03*
X85500000Y-97000000D03*
X86000000Y-86500000D03*
X86000000Y-85000000D03*
X120500000Y-78000000D03*
X101000000Y-102000000D03*
X102500000Y-101000000D03*
X85500000Y-94500000D03*
X87500000Y-91500000D03*
D23*
X115500000Y-108000000D02*
X126000000Y-97500000D01*
X126000000Y-97500000D02*
X126000000Y-88000000D01*
X115500000Y-113000000D02*
X115500000Y-108000000D01*
X130500000Y-95000000D02*
X130500000Y-96500000D01*
D24*
X96800000Y-98300000D02*
X97500000Y-99000000D01*
X96800000Y-66487500D02*
X96800000Y-98300000D01*
X98040000Y-65247500D02*
X96800000Y-66487500D01*
D23*
X129000000Y-76500000D02*
X131000000Y-78500000D01*
X117000000Y-76500000D02*
X129000000Y-76500000D01*
X131000000Y-78500000D02*
X131000000Y-80500000D01*
X110500000Y-101000000D02*
X115000000Y-96500000D01*
X115000000Y-78500000D02*
X117000000Y-76500000D01*
X102500000Y-101000000D02*
X110500000Y-101000000D01*
X115000000Y-96500000D02*
X115000000Y-78500000D01*
X111000000Y-102000000D02*
X101000000Y-102000000D01*
X116058106Y-96941894D02*
X111000000Y-102000000D01*
X116058106Y-79441894D02*
X116058106Y-96941894D01*
X120500000Y-78000000D02*
X117500000Y-78000000D01*
X117500000Y-78000000D02*
X116058106Y-79441894D01*
X130500000Y-96500000D02*
X130500000Y-99500000D01*
D25*
X93500000Y-93000000D02*
X87000000Y-86500000D01*
X93500000Y-103500000D02*
X93500000Y-93000000D01*
X87000000Y-86500000D02*
X86000000Y-86500000D01*
X94500000Y-104500000D02*
X93500000Y-103500000D01*
X112000000Y-104500000D02*
X94500000Y-104500000D01*
D24*
X87000000Y-85000000D02*
X86000000Y-85000000D01*
X94500000Y-92500000D02*
X87000000Y-85000000D01*
X94500000Y-102500000D02*
X94500000Y-92500000D01*
X95500000Y-103500000D02*
X94500000Y-102500000D01*
X114000000Y-103500000D02*
X95500000Y-103500000D01*
D23*
X94500000Y-88500000D02*
X95500000Y-87500000D01*
X94500000Y-90500000D02*
X94500000Y-88500000D01*
D25*
X136500000Y-76500000D02*
X135000000Y-78000000D01*
X135000000Y-78000000D02*
X135000000Y-82000000D01*
D23*
X110500000Y-110000000D02*
X110500000Y-113000000D01*
X92000000Y-106500000D02*
X93500000Y-108000000D01*
X87500000Y-94500000D02*
X92000000Y-99000000D01*
X92000000Y-99000000D02*
X92000000Y-106500000D01*
X108500000Y-108000000D02*
X110500000Y-110000000D01*
X87500000Y-91500000D02*
X87500000Y-94500000D01*
X93500000Y-108000000D02*
X108500000Y-108000000D01*
X90000000Y-99000000D02*
X85500000Y-94500000D01*
X104500000Y-110000000D02*
X105500000Y-111000000D01*
X92500000Y-110000000D02*
X104500000Y-110000000D01*
X105500000Y-111000000D02*
X105500000Y-113000000D01*
X90000000Y-99000000D02*
X90000000Y-107500000D01*
X90000000Y-107500000D02*
X92500000Y-110000000D01*
X88000000Y-110500000D02*
X90500000Y-113000000D01*
X88000000Y-99500000D02*
X88000000Y-110500000D01*
X85500000Y-97000000D02*
X88000000Y-99500000D01*
D24*
X102000000Y-96500000D02*
X102000000Y-99000000D01*
X100580000Y-67787500D02*
X100580000Y-95080000D01*
X100580000Y-95080000D02*
X102000000Y-96500000D01*
X100500000Y-97000000D02*
X100500000Y-99000000D01*
X99300000Y-95800000D02*
X100500000Y-97000000D01*
X99300000Y-66527500D02*
X99300000Y-95800000D01*
X100580000Y-65247500D02*
X99300000Y-66527500D01*
X99000000Y-97500000D02*
X99000000Y-99000000D01*
X98040000Y-96540000D02*
X99000000Y-97500000D01*
X98040000Y-67787500D02*
X98040000Y-96540000D01*
D23*
X60960000Y-88960000D02*
X62000000Y-90000000D01*
X50800000Y-91700000D02*
X52500000Y-90000000D01*
X60960000Y-89040000D02*
X60960000Y-88960000D01*
X52500000Y-90000000D02*
X60000000Y-90000000D01*
X60000000Y-90000000D02*
X60960000Y-89040000D01*
X50800000Y-99060000D02*
X50800000Y-91700000D01*
X60960000Y-86360000D02*
X60960000Y-88960000D01*
X62000000Y-90000000D02*
X72460000Y-90000000D01*
D25*
X140000000Y-73000000D02*
X137000000Y-76000000D01*
X138870000Y-65870000D02*
X140000000Y-67000000D01*
X140000000Y-67000000D02*
X140000000Y-68765000D01*
X140000000Y-68765000D02*
X140000000Y-73000000D01*
X137105000Y-65870000D02*
X138870000Y-65870000D01*
X137000000Y-76000000D02*
X136500000Y-76500000D01*
D23*
X85500000Y-113000000D02*
X85500000Y-99500000D01*
X130500000Y-113300000D02*
X130500000Y-99500000D01*
G04 #@! TA.AperFunction,Conductor*
G36*
X111942121Y-60528002D02*
G01*
X111988614Y-60581658D01*
X112000000Y-60634000D01*
X112000000Y-74000000D01*
X133000000Y-74000000D01*
X133000000Y-71315152D01*
X133020002Y-71247031D01*
X133073658Y-71200538D01*
X133143932Y-71190434D01*
X133208512Y-71219928D01*
X133246896Y-71279654D01*
X133248917Y-71287451D01*
X133263565Y-71352446D01*
X133266645Y-71362275D01*
X133346770Y-71559603D01*
X133351413Y-71568794D01*
X133462694Y-71750388D01*
X133468777Y-71758699D01*
X133608213Y-71919667D01*
X133615580Y-71926883D01*
X133779434Y-72062916D01*
X133787881Y-72068831D01*
X133971756Y-72176279D01*
X133981042Y-72180729D01*
X134180001Y-72256703D01*
X134189899Y-72259579D01*
X134293250Y-72280606D01*
X134307299Y-72279410D01*
X134311000Y-72269065D01*
X134311000Y-70822000D01*
X134331002Y-70753879D01*
X134384658Y-70707386D01*
X134437000Y-70696000D01*
X134693000Y-70696000D01*
X134761121Y-70716002D01*
X134807614Y-70769658D01*
X134819000Y-70822000D01*
X134819000Y-72268517D01*
X134823064Y-72282359D01*
X134836478Y-72284393D01*
X134843184Y-72283534D01*
X134853262Y-72281392D01*
X135057255Y-72220191D01*
X135066842Y-72216433D01*
X135258095Y-72122739D01*
X135266945Y-72117464D01*
X135440328Y-71993792D01*
X135448193Y-71987145D01*
X135552897Y-71882805D01*
X135615268Y-71848889D01*
X135686075Y-71854077D01*
X135742837Y-71896723D01*
X135759819Y-71927826D01*
X135804385Y-72046705D01*
X135891739Y-72163261D01*
X136008295Y-72250615D01*
X136144684Y-72301745D01*
X136206866Y-72308500D01*
X138003134Y-72308500D01*
X138065316Y-72301745D01*
X138201705Y-72250615D01*
X138318261Y-72163261D01*
X138405615Y-72046705D01*
X138456745Y-71910316D01*
X138463500Y-71848134D01*
X138463500Y-70051866D01*
X138456745Y-69989684D01*
X138405615Y-69853295D01*
X138318261Y-69736739D01*
X138201705Y-69649385D01*
X138174905Y-69639338D01*
X138083203Y-69604960D01*
X138026439Y-69562318D01*
X138001739Y-69495756D01*
X138016947Y-69426408D01*
X138038493Y-69397727D01*
X138139435Y-69297137D01*
X138143096Y-69293489D01*
X138154570Y-69277522D01*
X138270435Y-69116277D01*
X138273453Y-69112077D01*
X138280866Y-69097079D01*
X138370136Y-68916453D01*
X138370137Y-68916451D01*
X138372430Y-68911811D01*
X138437370Y-68698069D01*
X138466529Y-68476590D01*
X138467243Y-68447357D01*
X138468074Y-68413365D01*
X138468074Y-68413361D01*
X138468156Y-68410000D01*
X138449852Y-68187361D01*
X138395431Y-67970702D01*
X138306354Y-67765840D01*
X138217455Y-67628423D01*
X138187822Y-67582617D01*
X138187820Y-67582614D01*
X138185014Y-67578277D01*
X138034670Y-67413051D01*
X138030619Y-67409852D01*
X138030615Y-67409848D01*
X137863414Y-67277800D01*
X137863410Y-67277798D01*
X137859359Y-67274598D01*
X137818053Y-67251796D01*
X137768084Y-67201364D01*
X137753312Y-67131921D01*
X137778428Y-67065516D01*
X137805780Y-67038909D01*
X137874827Y-66989658D01*
X137984860Y-66911173D01*
X138143096Y-66753489D01*
X138154570Y-66737522D01*
X138267060Y-66580974D01*
X138323055Y-66537326D01*
X138369383Y-66528500D01*
X138545049Y-66528500D01*
X138613170Y-66548502D01*
X138634144Y-66565404D01*
X139304595Y-67235854D01*
X139338620Y-67298167D01*
X139341500Y-67324950D01*
X139341500Y-72675050D01*
X139321498Y-72743171D01*
X139304595Y-72764145D01*
X136005073Y-76063667D01*
X136005070Y-76063671D01*
X134592396Y-77476345D01*
X134583613Y-77484337D01*
X134576920Y-77488584D01*
X134571494Y-77494362D01*
X134528395Y-77540258D01*
X134525640Y-77543100D01*
X134505073Y-77563667D01*
X134502356Y-77567170D01*
X134494648Y-77576195D01*
X134463028Y-77609867D01*
X134459207Y-77616818D01*
X134459206Y-77616819D01*
X134452697Y-77628658D01*
X134441843Y-77645182D01*
X134434018Y-77655271D01*
X134428696Y-77662132D01*
X134425549Y-77669404D01*
X134425548Y-77669406D01*
X134410346Y-77704535D01*
X134405124Y-77715195D01*
X134382876Y-77755663D01*
X134377541Y-77776441D01*
X134371142Y-77795131D01*
X134362620Y-77814824D01*
X134361380Y-77822655D01*
X134355394Y-77860448D01*
X134352987Y-77872071D01*
X134341500Y-77916812D01*
X134341500Y-77938259D01*
X134339949Y-77957969D01*
X134336594Y-77979152D01*
X134337340Y-77987043D01*
X134340941Y-78025138D01*
X134341500Y-78036996D01*
X134341500Y-81325241D01*
X134321498Y-81393362D01*
X134309136Y-81409551D01*
X134260960Y-81463056D01*
X134165473Y-81628444D01*
X134106458Y-81810072D01*
X134086496Y-82000000D01*
X134106458Y-82189928D01*
X134165473Y-82371556D01*
X134260960Y-82536944D01*
X134388747Y-82678866D01*
X134543248Y-82791118D01*
X134549276Y-82793802D01*
X134549278Y-82793803D01*
X134711681Y-82866109D01*
X134717712Y-82868794D01*
X134811112Y-82888647D01*
X134898056Y-82907128D01*
X134898061Y-82907128D01*
X134904513Y-82908500D01*
X135095487Y-82908500D01*
X135101939Y-82907128D01*
X135101944Y-82907128D01*
X135188888Y-82888647D01*
X135282288Y-82868794D01*
X135288319Y-82866109D01*
X135450722Y-82793803D01*
X135450724Y-82793802D01*
X135456752Y-82791118D01*
X135611253Y-82678866D01*
X135739040Y-82536944D01*
X135834527Y-82371556D01*
X135893542Y-82189928D01*
X135913504Y-82000000D01*
X135893542Y-81810072D01*
X135834527Y-81628444D01*
X135739040Y-81463056D01*
X135690864Y-81409551D01*
X135660146Y-81345544D01*
X135658500Y-81325241D01*
X135658500Y-78324950D01*
X135678502Y-78256829D01*
X135695405Y-78235855D01*
X136906803Y-77024456D01*
X136906806Y-77024454D01*
X140407605Y-73523655D01*
X140416385Y-73515665D01*
X140416387Y-73515663D01*
X140423080Y-73511416D01*
X140471605Y-73459742D01*
X140474359Y-73456901D01*
X140494927Y-73436333D01*
X140497647Y-73432826D01*
X140505353Y-73423804D01*
X140531544Y-73395913D01*
X140536972Y-73390133D01*
X140540794Y-73383181D01*
X140547303Y-73371342D01*
X140558157Y-73354818D01*
X140566445Y-73344132D01*
X140571304Y-73337868D01*
X140574452Y-73330594D01*
X140589654Y-73295465D01*
X140594876Y-73284805D01*
X140613305Y-73251284D01*
X140613306Y-73251282D01*
X140617124Y-73244337D01*
X140622459Y-73223559D01*
X140628858Y-73204869D01*
X140637380Y-73185176D01*
X140644606Y-73139552D01*
X140647013Y-73127929D01*
X140656528Y-73090868D01*
X140658500Y-73083188D01*
X140658500Y-73061741D01*
X140660051Y-73042031D01*
X140662166Y-73028677D01*
X140663406Y-73020848D01*
X140659059Y-72974859D01*
X140658500Y-72963004D01*
X140658500Y-67082056D01*
X140659059Y-67070200D01*
X140659059Y-67070197D01*
X140660788Y-67062463D01*
X140658562Y-66991631D01*
X140658500Y-66987673D01*
X140658500Y-66958568D01*
X140657944Y-66954168D01*
X140657012Y-66942330D01*
X140656748Y-66933903D01*
X140655562Y-66896169D01*
X140649580Y-66875579D01*
X140645570Y-66856216D01*
X140643875Y-66842796D01*
X140643875Y-66842795D01*
X140642882Y-66834936D01*
X140639966Y-66827571D01*
X140639965Y-66827567D01*
X140625874Y-66791979D01*
X140622035Y-66780769D01*
X140609145Y-66736400D01*
X140598229Y-66717943D01*
X140589534Y-66700193D01*
X140581635Y-66680244D01*
X140563512Y-66655300D01*
X140554477Y-66642864D01*
X140547960Y-66632943D01*
X140547427Y-66632041D01*
X140524452Y-66593193D01*
X140509291Y-66578032D01*
X140496449Y-66562997D01*
X140483841Y-66545643D01*
X140448242Y-66516193D01*
X140439463Y-66508204D01*
X140063962Y-66132703D01*
X143890743Y-66132703D01*
X143891302Y-66136947D01*
X143891302Y-66136951D01*
X143895562Y-66169306D01*
X143928268Y-66417734D01*
X144004129Y-66695036D01*
X144005813Y-66698984D01*
X144115014Y-66955000D01*
X144116923Y-66959476D01*
X144264561Y-67206161D01*
X144444313Y-67430528D01*
X144546164Y-67527181D01*
X144632015Y-67608650D01*
X144652851Y-67628423D01*
X144766184Y-67709861D01*
X144875805Y-67788632D01*
X144886317Y-67796186D01*
X144890112Y-67798195D01*
X144890113Y-67798196D01*
X144911869Y-67809715D01*
X145140392Y-67930712D01*
X145164699Y-67939607D01*
X145392909Y-68023120D01*
X145410373Y-68029511D01*
X145691264Y-68090755D01*
X145719841Y-68093004D01*
X145914282Y-68108307D01*
X145914291Y-68108307D01*
X145916739Y-68108500D01*
X146072271Y-68108500D01*
X146074407Y-68108354D01*
X146074418Y-68108354D01*
X146282548Y-68094165D01*
X146282554Y-68094164D01*
X146286825Y-68093873D01*
X146291020Y-68093004D01*
X146291022Y-68093004D01*
X146529431Y-68043632D01*
X146568342Y-68035574D01*
X146839343Y-67939607D01*
X147094812Y-67807750D01*
X147098313Y-67805289D01*
X147098317Y-67805287D01*
X147212417Y-67725096D01*
X147330023Y-67642441D01*
X147524789Y-67461453D01*
X147537479Y-67449661D01*
X147537481Y-67449658D01*
X147540622Y-67446740D01*
X147722713Y-67224268D01*
X147872927Y-66979142D01*
X147882048Y-66958365D01*
X147986757Y-66719830D01*
X147988483Y-66715898D01*
X148001362Y-66670688D01*
X148036167Y-66548502D01*
X148067244Y-66439406D01*
X148107751Y-66154784D01*
X148107845Y-66136951D01*
X148109235Y-65871583D01*
X148109235Y-65871576D01*
X148109257Y-65867297D01*
X148101005Y-65804612D01*
X148078090Y-65630562D01*
X148071732Y-65582266D01*
X147995871Y-65304964D01*
X147965896Y-65234688D01*
X147884763Y-65044476D01*
X147884761Y-65044472D01*
X147883077Y-65040524D01*
X147788856Y-64883092D01*
X147737643Y-64797521D01*
X147737640Y-64797517D01*
X147735439Y-64793839D01*
X147555687Y-64569472D01*
X147366283Y-64389734D01*
X147350258Y-64374527D01*
X147350255Y-64374525D01*
X147347149Y-64371577D01*
X147126830Y-64213261D01*
X147117172Y-64206321D01*
X147117171Y-64206320D01*
X147113683Y-64203814D01*
X147091843Y-64192250D01*
X146975572Y-64130688D01*
X146859608Y-64069288D01*
X146642553Y-63989857D01*
X146593658Y-63971964D01*
X146593656Y-63971963D01*
X146589627Y-63970489D01*
X146308736Y-63909245D01*
X146277685Y-63906801D01*
X146085718Y-63891693D01*
X146085709Y-63891693D01*
X146083261Y-63891500D01*
X145927729Y-63891500D01*
X145925593Y-63891646D01*
X145925582Y-63891646D01*
X145717452Y-63905835D01*
X145717446Y-63905836D01*
X145713175Y-63906127D01*
X145708980Y-63906996D01*
X145708978Y-63906996D01*
X145572416Y-63935277D01*
X145431658Y-63964426D01*
X145160657Y-64060393D01*
X145099342Y-64092040D01*
X145024463Y-64130688D01*
X144905188Y-64192250D01*
X144901687Y-64194711D01*
X144901683Y-64194713D01*
X144848810Y-64231873D01*
X144669977Y-64357559D01*
X144636518Y-64388651D01*
X144465988Y-64547118D01*
X144459378Y-64553260D01*
X144277287Y-64775732D01*
X144127073Y-65020858D01*
X144011517Y-65284102D01*
X144010342Y-65288229D01*
X144010341Y-65288230D01*
X143984803Y-65377881D01*
X143932756Y-65560594D01*
X143892249Y-65845216D01*
X143892227Y-65849505D01*
X143892226Y-65849512D01*
X143890765Y-66128417D01*
X143890743Y-66132703D01*
X140063962Y-66132703D01*
X139393655Y-65462396D01*
X139385663Y-65453613D01*
X139385663Y-65453612D01*
X139381416Y-65446920D01*
X139329741Y-65398394D01*
X139326900Y-65395640D01*
X139306333Y-65375073D01*
X139302826Y-65372353D01*
X139293804Y-65364647D01*
X139265913Y-65338456D01*
X139260133Y-65333028D01*
X139253181Y-65329206D01*
X139241342Y-65322697D01*
X139224818Y-65311843D01*
X139214132Y-65303555D01*
X139207868Y-65298696D01*
X139200596Y-65295549D01*
X139200594Y-65295548D01*
X139165465Y-65280346D01*
X139154805Y-65275124D01*
X139121284Y-65256695D01*
X139121282Y-65256694D01*
X139114337Y-65252876D01*
X139093559Y-65247541D01*
X139074869Y-65241142D01*
X139055176Y-65232620D01*
X139009552Y-65225394D01*
X138997929Y-65222987D01*
X138969928Y-65215798D01*
X138953188Y-65211500D01*
X138931741Y-65211500D01*
X138912031Y-65209949D01*
X138898677Y-65207834D01*
X138890848Y-65206594D01*
X138844859Y-65210941D01*
X138833004Y-65211500D01*
X138365632Y-65211500D01*
X138297511Y-65191498D01*
X138259840Y-65153940D01*
X138187822Y-65042617D01*
X138187820Y-65042614D01*
X138185014Y-65038277D01*
X138034670Y-64873051D01*
X138030619Y-64869852D01*
X138030615Y-64869848D01*
X137863414Y-64737800D01*
X137863410Y-64737798D01*
X137859359Y-64734598D01*
X137818053Y-64711796D01*
X137768084Y-64661364D01*
X137753312Y-64591921D01*
X137778428Y-64525516D01*
X137805780Y-64498909D01*
X137849603Y-64467650D01*
X137984860Y-64371173D01*
X137995593Y-64360478D01*
X138109118Y-64247348D01*
X138143096Y-64213489D01*
X138151493Y-64201804D01*
X138270435Y-64036277D01*
X138273453Y-64032077D01*
X138287889Y-64002869D01*
X138370136Y-63836453D01*
X138370137Y-63836451D01*
X138372430Y-63831811D01*
X138437370Y-63618069D01*
X138466529Y-63396590D01*
X138468156Y-63330000D01*
X138449852Y-63107361D01*
X138395431Y-62890702D01*
X138306354Y-62685840D01*
X138185014Y-62498277D01*
X138034670Y-62333051D01*
X138030619Y-62329852D01*
X138030615Y-62329848D01*
X137863414Y-62197800D01*
X137863410Y-62197798D01*
X137859359Y-62194598D01*
X137663789Y-62086638D01*
X137658920Y-62084914D01*
X137658916Y-62084912D01*
X137458087Y-62013795D01*
X137458083Y-62013794D01*
X137453212Y-62012069D01*
X137448119Y-62011162D01*
X137448116Y-62011161D01*
X137238373Y-61973800D01*
X137238367Y-61973799D01*
X137233284Y-61972894D01*
X137159452Y-61971992D01*
X137015081Y-61970228D01*
X137015079Y-61970228D01*
X137009911Y-61970165D01*
X136789091Y-62003955D01*
X136576756Y-62073357D01*
X136546443Y-62089137D01*
X136386080Y-62172617D01*
X136378607Y-62176507D01*
X136374474Y-62179610D01*
X136374471Y-62179612D01*
X136350247Y-62197800D01*
X136199965Y-62310635D01*
X136045629Y-62472138D01*
X135938201Y-62629621D01*
X135883293Y-62674621D01*
X135812768Y-62682792D01*
X135749021Y-62651538D01*
X135728324Y-62627054D01*
X135647822Y-62502617D01*
X135647820Y-62502614D01*
X135645014Y-62498277D01*
X135494670Y-62333051D01*
X135490619Y-62329852D01*
X135490615Y-62329848D01*
X135323414Y-62197800D01*
X135323410Y-62197798D01*
X135319359Y-62194598D01*
X135123789Y-62086638D01*
X135118920Y-62084914D01*
X135118916Y-62084912D01*
X134918087Y-62013795D01*
X134918083Y-62013794D01*
X134913212Y-62012069D01*
X134908119Y-62011162D01*
X134908116Y-62011161D01*
X134698373Y-61973800D01*
X134698367Y-61973799D01*
X134693284Y-61972894D01*
X134619452Y-61971992D01*
X134475081Y-61970228D01*
X134475079Y-61970228D01*
X134469911Y-61970165D01*
X134249091Y-62003955D01*
X134036756Y-62073357D01*
X134006443Y-62089137D01*
X133846080Y-62172617D01*
X133838607Y-62176507D01*
X133834474Y-62179610D01*
X133834471Y-62179612D01*
X133810247Y-62197800D01*
X133659965Y-62310635D01*
X133505629Y-62472138D01*
X133379743Y-62656680D01*
X133285688Y-62859305D01*
X133276981Y-62890702D01*
X133247417Y-62997304D01*
X133209938Y-63057602D01*
X133145809Y-63088065D01*
X133075391Y-63079021D01*
X133021041Y-63033342D01*
X133000000Y-62963632D01*
X133000000Y-60634000D01*
X133020002Y-60565879D01*
X133073658Y-60519386D01*
X133126000Y-60508000D01*
X151366000Y-60508000D01*
X151434121Y-60528002D01*
X151480614Y-60581658D01*
X151492000Y-60634000D01*
X151492000Y-96340476D01*
X151471998Y-96408597D01*
X151418342Y-96455090D01*
X151348068Y-96465194D01*
X151327909Y-96460580D01*
X151165916Y-96409193D01*
X151159799Y-96408507D01*
X151159795Y-96408506D01*
X151084941Y-96400110D01*
X151008183Y-96391500D01*
X150098996Y-96391500D01*
X149948287Y-96406277D01*
X149754258Y-96464858D01*
X149575302Y-96560010D01*
X149570528Y-96563904D01*
X149570526Y-96563905D01*
X149515680Y-96608637D01*
X149418237Y-96688110D01*
X149414310Y-96692857D01*
X149414308Y-96692859D01*
X149292973Y-96839528D01*
X149292971Y-96839531D01*
X149289044Y-96844278D01*
X149192644Y-97022565D01*
X149172604Y-97087303D01*
X149152637Y-97151808D01*
X149132710Y-97216180D01*
X149111524Y-97417750D01*
X149114481Y-97450240D01*
X149122819Y-97541852D01*
X149129894Y-97619596D01*
X149131632Y-97625502D01*
X149131633Y-97625506D01*
X149154410Y-97702894D01*
X149187119Y-97814029D01*
X149189972Y-97819486D01*
X149189973Y-97819489D01*
X149204219Y-97846739D01*
X149281019Y-97993645D01*
X149408019Y-98151601D01*
X149563281Y-98281881D01*
X149568673Y-98284845D01*
X149568677Y-98284848D01*
X149686752Y-98349760D01*
X149740891Y-98379523D01*
X149934084Y-98440807D01*
X149940201Y-98441493D01*
X149940205Y-98441494D01*
X150014348Y-98449810D01*
X150091817Y-98458500D01*
X151001004Y-98458500D01*
X151151713Y-98443723D01*
X151329582Y-98390021D01*
X151400576Y-98389480D01*
X151460593Y-98427408D01*
X151490577Y-98491762D01*
X151492000Y-98510643D01*
X151492000Y-103490476D01*
X151471998Y-103558597D01*
X151418342Y-103605090D01*
X151348068Y-103615194D01*
X151327909Y-103610580D01*
X151165916Y-103559193D01*
X151159799Y-103558507D01*
X151159795Y-103558506D01*
X151085652Y-103550190D01*
X151008183Y-103541500D01*
X150098996Y-103541500D01*
X149948287Y-103556277D01*
X149754258Y-103614858D01*
X149575302Y-103710010D01*
X149418237Y-103838110D01*
X149414310Y-103842857D01*
X149414308Y-103842859D01*
X149292973Y-103989528D01*
X149292971Y-103989531D01*
X149289044Y-103994278D01*
X149192644Y-104172565D01*
X149132710Y-104366180D01*
X149111524Y-104567750D01*
X149129894Y-104769596D01*
X149131632Y-104775502D01*
X149131633Y-104775506D01*
X149161587Y-104877279D01*
X149187119Y-104964029D01*
X149189972Y-104969486D01*
X149189973Y-104969489D01*
X149204692Y-104997644D01*
X149281019Y-105143645D01*
X149408019Y-105301601D01*
X149563281Y-105431881D01*
X149568673Y-105434845D01*
X149568677Y-105434848D01*
X149735494Y-105526556D01*
X149740891Y-105529523D01*
X149934084Y-105590807D01*
X149940201Y-105591493D01*
X149940205Y-105591494D01*
X150014348Y-105599810D01*
X150091817Y-105608500D01*
X151001004Y-105608500D01*
X151151713Y-105593723D01*
X151329582Y-105540021D01*
X151400576Y-105539480D01*
X151460593Y-105577408D01*
X151490577Y-105641762D01*
X151492000Y-105660643D01*
X151492000Y-119366000D01*
X151471998Y-119434121D01*
X151418342Y-119480614D01*
X151366000Y-119492000D01*
X39634000Y-119492000D01*
X39565879Y-119471998D01*
X39519386Y-119418342D01*
X39508000Y-119366000D01*
X39508000Y-114132703D01*
X42890743Y-114132703D01*
X42891302Y-114136947D01*
X42891302Y-114136951D01*
X42893084Y-114150488D01*
X42928268Y-114417734D01*
X43004129Y-114695036D01*
X43005813Y-114698984D01*
X43099506Y-114918642D01*
X43116923Y-114959476D01*
X43264561Y-115206161D01*
X43444313Y-115430528D01*
X43652851Y-115628423D01*
X43886317Y-115796186D01*
X43890112Y-115798195D01*
X43890113Y-115798196D01*
X43911869Y-115809715D01*
X44140392Y-115930712D01*
X44410373Y-116029511D01*
X44691264Y-116090755D01*
X44719841Y-116093004D01*
X44914282Y-116108307D01*
X44914291Y-116108307D01*
X44916739Y-116108500D01*
X45072271Y-116108500D01*
X45074407Y-116108354D01*
X45074418Y-116108354D01*
X45282548Y-116094165D01*
X45282554Y-116094164D01*
X45286825Y-116093873D01*
X45291020Y-116093004D01*
X45291022Y-116093004D01*
X45427584Y-116064723D01*
X45568342Y-116035574D01*
X45839343Y-115939607D01*
X46094812Y-115807750D01*
X46098313Y-115805289D01*
X46098317Y-115805287D01*
X46212417Y-115725096D01*
X46330023Y-115642441D01*
X46540622Y-115446740D01*
X46722713Y-115224268D01*
X46872927Y-114979142D01*
X46988483Y-114715898D01*
X47022029Y-114598134D01*
X128741500Y-114598134D01*
X128748255Y-114660316D01*
X128799385Y-114796705D01*
X128886739Y-114913261D01*
X129003295Y-115000615D01*
X129139684Y-115051745D01*
X129201866Y-115058500D01*
X131798134Y-115058500D01*
X131860316Y-115051745D01*
X131996705Y-115000615D01*
X132113261Y-114913261D01*
X132200615Y-114796705D01*
X132233444Y-114709133D01*
X134455612Y-114709133D01*
X134464325Y-114720653D01*
X134562018Y-114792284D01*
X134569928Y-114797227D01*
X134792890Y-114914533D01*
X134801453Y-114918256D01*
X135039304Y-115001318D01*
X135048313Y-115003732D01*
X135295842Y-115050727D01*
X135305098Y-115051781D01*
X135556857Y-115061673D01*
X135566171Y-115061347D01*
X135816615Y-115033920D01*
X135825792Y-115032219D01*
X136069431Y-114968074D01*
X136078251Y-114965037D01*
X136309736Y-114865583D01*
X136318008Y-114861276D01*
X136532249Y-114728700D01*
X136539188Y-114723658D01*
X136547518Y-114711019D01*
X136541456Y-114700666D01*
X135512812Y-113672022D01*
X135498868Y-113664408D01*
X135497035Y-113664539D01*
X135490420Y-113668790D01*
X134462270Y-114696940D01*
X134455612Y-114709133D01*
X132233444Y-114709133D01*
X132251745Y-114660316D01*
X132258500Y-114598134D01*
X132258500Y-113258523D01*
X133737898Y-113258523D01*
X133749987Y-113510175D01*
X133751124Y-113519435D01*
X133800274Y-113766535D01*
X133802768Y-113775528D01*
X133887900Y-114012639D01*
X133891700Y-114021174D01*
X134010946Y-114243101D01*
X134015957Y-114250968D01*
X134079446Y-114335990D01*
X134090704Y-114344439D01*
X134103123Y-114337667D01*
X135127978Y-113312812D01*
X135134356Y-113301132D01*
X135864408Y-113301132D01*
X135864539Y-113302965D01*
X135868790Y-113309580D01*
X136899913Y-114340703D01*
X136912293Y-114347463D01*
X136920634Y-114341219D01*
X137046765Y-114145127D01*
X137051212Y-114136936D01*
X137053119Y-114132703D01*
X143890743Y-114132703D01*
X143891302Y-114136947D01*
X143891302Y-114136951D01*
X143893084Y-114150488D01*
X143928268Y-114417734D01*
X144004129Y-114695036D01*
X144005813Y-114698984D01*
X144099506Y-114918642D01*
X144116923Y-114959476D01*
X144264561Y-115206161D01*
X144444313Y-115430528D01*
X144652851Y-115628423D01*
X144886317Y-115796186D01*
X144890112Y-115798195D01*
X144890113Y-115798196D01*
X144911869Y-115809715D01*
X145140392Y-115930712D01*
X145410373Y-116029511D01*
X145691264Y-116090755D01*
X145719841Y-116093004D01*
X145914282Y-116108307D01*
X145914291Y-116108307D01*
X145916739Y-116108500D01*
X146072271Y-116108500D01*
X146074407Y-116108354D01*
X146074418Y-116108354D01*
X146282548Y-116094165D01*
X146282554Y-116094164D01*
X146286825Y-116093873D01*
X146291020Y-116093004D01*
X146291022Y-116093004D01*
X146427584Y-116064723D01*
X146568342Y-116035574D01*
X146839343Y-115939607D01*
X147094812Y-115807750D01*
X147098313Y-115805289D01*
X147098317Y-115805287D01*
X147212417Y-115725096D01*
X147330023Y-115642441D01*
X147540622Y-115446740D01*
X147722713Y-115224268D01*
X147872927Y-114979142D01*
X147988483Y-114715898D01*
X148067244Y-114439406D01*
X148107751Y-114154784D01*
X148107845Y-114136951D01*
X148109235Y-113871583D01*
X148109235Y-113871576D01*
X148109257Y-113867297D01*
X148095992Y-113766535D01*
X148087881Y-113704933D01*
X148071732Y-113582266D01*
X147995871Y-113304964D01*
X147883077Y-113040524D01*
X147735439Y-112793839D01*
X147555687Y-112569472D01*
X147347149Y-112371577D01*
X147113683Y-112203814D01*
X147091843Y-112192250D01*
X146927424Y-112105195D01*
X146859608Y-112069288D01*
X146589627Y-111970489D01*
X146308736Y-111909245D01*
X146277685Y-111906801D01*
X146085718Y-111891693D01*
X146085709Y-111891693D01*
X146083261Y-111891500D01*
X145927729Y-111891500D01*
X145925593Y-111891646D01*
X145925582Y-111891646D01*
X145717452Y-111905835D01*
X145717446Y-111905836D01*
X145713175Y-111906127D01*
X145708980Y-111906996D01*
X145708978Y-111906996D01*
X145586862Y-111932285D01*
X145431658Y-111964426D01*
X145160657Y-112060393D01*
X144905188Y-112192250D01*
X144901687Y-112194711D01*
X144901683Y-112194713D01*
X144790768Y-112272666D01*
X144669977Y-112357559D01*
X144654892Y-112371577D01*
X144503252Y-112512490D01*
X144459378Y-112553260D01*
X144277287Y-112775732D01*
X144127073Y-113020858D01*
X144125347Y-113024791D01*
X144125346Y-113024792D01*
X144026763Y-113249370D01*
X144011517Y-113284102D01*
X143932756Y-113560594D01*
X143892249Y-113845216D01*
X143892227Y-113849505D01*
X143892226Y-113849512D01*
X143890869Y-114108641D01*
X143890743Y-114132703D01*
X137053119Y-114132703D01*
X137154691Y-113907222D01*
X137157882Y-113898455D01*
X137226269Y-113655976D01*
X137228129Y-113646834D01*
X137260116Y-113395396D01*
X137260597Y-113389108D01*
X137262847Y-113303160D01*
X137262696Y-113296851D01*
X137243912Y-113044074D01*
X137242536Y-113034868D01*
X137186929Y-112789126D01*
X137184205Y-112780215D01*
X137092888Y-112545392D01*
X137088877Y-112536983D01*
X136963854Y-112318240D01*
X136958643Y-112310514D01*
X136921391Y-112263261D01*
X136909466Y-112254790D01*
X136897934Y-112261276D01*
X135872022Y-113287188D01*
X135864408Y-113301132D01*
X135134356Y-113301132D01*
X135135592Y-113298868D01*
X135135461Y-113297035D01*
X135131210Y-113290420D01*
X134101321Y-112260531D01*
X134088013Y-112253264D01*
X134077974Y-112260386D01*
X134067761Y-112272666D01*
X134062346Y-112280258D01*
X133931646Y-112495646D01*
X133927408Y-112503963D01*
X133829981Y-112736299D01*
X133827020Y-112745149D01*
X133765006Y-112989331D01*
X133763384Y-112998528D01*
X133738143Y-113249198D01*
X133737898Y-113258523D01*
X132258500Y-113258523D01*
X132258500Y-112001866D01*
X132251745Y-111939684D01*
X132232671Y-111888803D01*
X134453216Y-111888803D01*
X134457789Y-111898579D01*
X135487188Y-112927978D01*
X135501132Y-112935592D01*
X135502965Y-112935461D01*
X135509580Y-112931210D01*
X136538419Y-111902371D01*
X136544803Y-111890681D01*
X136535391Y-111878570D01*
X136398593Y-111783670D01*
X136390565Y-111778942D01*
X136164593Y-111667505D01*
X136155960Y-111664017D01*
X135915998Y-111587205D01*
X135906938Y-111585029D01*
X135658260Y-111544529D01*
X135648973Y-111543717D01*
X135397053Y-111540419D01*
X135387742Y-111540989D01*
X135138097Y-111574964D01*
X135128978Y-111576902D01*
X134887098Y-111647404D01*
X134878367Y-111650667D01*
X134649558Y-111756151D01*
X134641406Y-111760670D01*
X134462353Y-111878062D01*
X134453216Y-111888803D01*
X132232671Y-111888803D01*
X132200615Y-111803295D01*
X132113261Y-111686739D01*
X131996705Y-111599385D01*
X131860316Y-111548255D01*
X131798134Y-111541500D01*
X131334500Y-111541500D01*
X131266379Y-111521498D01*
X131219886Y-111467842D01*
X131208500Y-111415500D01*
X131208500Y-95618744D01*
X131228502Y-95550623D01*
X131232564Y-95544683D01*
X131234621Y-95541852D01*
X131239040Y-95536944D01*
X131334527Y-95371556D01*
X131393542Y-95189928D01*
X131413504Y-95000000D01*
X131397331Y-94846121D01*
X131394232Y-94816635D01*
X131394232Y-94816633D01*
X131393542Y-94810072D01*
X131334527Y-94628444D01*
X131239040Y-94463056D01*
X131111253Y-94321134D01*
X130956752Y-94208882D01*
X130950724Y-94206198D01*
X130950722Y-94206197D01*
X130788319Y-94133891D01*
X130788318Y-94133891D01*
X130782288Y-94131206D01*
X130688887Y-94111353D01*
X130601944Y-94092872D01*
X130601939Y-94092872D01*
X130595487Y-94091500D01*
X130404513Y-94091500D01*
X130398061Y-94092872D01*
X130398056Y-94092872D01*
X130311112Y-94111353D01*
X130217712Y-94131206D01*
X130211682Y-94133891D01*
X130211681Y-94133891D01*
X130049278Y-94206197D01*
X130049276Y-94206198D01*
X130043248Y-94208882D01*
X129888747Y-94321134D01*
X129760960Y-94463056D01*
X129665473Y-94628444D01*
X129606458Y-94810072D01*
X129605768Y-94816633D01*
X129605768Y-94816635D01*
X129602669Y-94846121D01*
X129586496Y-95000000D01*
X129606458Y-95189928D01*
X129665473Y-95371556D01*
X129760960Y-95536944D01*
X129765379Y-95541852D01*
X129767436Y-95544683D01*
X129791295Y-95611551D01*
X129791500Y-95618744D01*
X129791500Y-111415500D01*
X129771498Y-111483621D01*
X129717842Y-111530114D01*
X129665500Y-111541500D01*
X129201866Y-111541500D01*
X129139684Y-111548255D01*
X129003295Y-111599385D01*
X128886739Y-111686739D01*
X128799385Y-111803295D01*
X128748255Y-111939684D01*
X128741500Y-112001866D01*
X128741500Y-114598134D01*
X47022029Y-114598134D01*
X47067244Y-114439406D01*
X47107751Y-114154784D01*
X47107845Y-114136951D01*
X47108048Y-114098134D01*
X53941500Y-114098134D01*
X53948255Y-114160316D01*
X53999385Y-114296705D01*
X54086739Y-114413261D01*
X54203295Y-114500615D01*
X54339684Y-114551745D01*
X54401866Y-114558500D01*
X56598134Y-114558500D01*
X56660316Y-114551745D01*
X56796705Y-114500615D01*
X56913261Y-114413261D01*
X57000615Y-114296705D01*
X57010990Y-114269030D01*
X59595800Y-114269030D01*
X59601527Y-114276680D01*
X59786272Y-114389893D01*
X59795067Y-114394375D01*
X60012490Y-114484434D01*
X60021875Y-114487483D01*
X60250708Y-114542422D01*
X60260455Y-114543965D01*
X60495070Y-114562430D01*
X60504930Y-114562430D01*
X60739545Y-114543965D01*
X60749292Y-114542422D01*
X60978125Y-114487483D01*
X60987510Y-114484434D01*
X61204933Y-114394375D01*
X61213728Y-114389893D01*
X61394805Y-114278928D01*
X61404267Y-114268470D01*
X61400484Y-114259694D01*
X60512812Y-113372022D01*
X60498868Y-113364408D01*
X60497035Y-113364539D01*
X60490420Y-113368790D01*
X59602560Y-114256650D01*
X59595800Y-114269030D01*
X57010990Y-114269030D01*
X57051745Y-114160316D01*
X57058500Y-114098134D01*
X57058500Y-113004930D01*
X58937570Y-113004930D01*
X58956035Y-113239545D01*
X58957578Y-113249292D01*
X59012517Y-113478125D01*
X59015566Y-113487510D01*
X59105625Y-113704933D01*
X59110107Y-113713728D01*
X59221072Y-113894805D01*
X59231530Y-113904267D01*
X59240306Y-113900484D01*
X60127978Y-113012812D01*
X60134356Y-113001132D01*
X60864408Y-113001132D01*
X60864539Y-113002965D01*
X60868790Y-113009580D01*
X61756650Y-113897440D01*
X61769030Y-113904200D01*
X61776680Y-113898473D01*
X61889893Y-113713728D01*
X61894375Y-113704933D01*
X61984434Y-113487510D01*
X61987483Y-113478125D01*
X62042422Y-113249292D01*
X62043965Y-113239545D01*
X62062430Y-113004930D01*
X62062430Y-113000000D01*
X63936681Y-113000000D01*
X63955928Y-113244557D01*
X63957082Y-113249364D01*
X63957083Y-113249370D01*
X63992141Y-113395396D01*
X64013195Y-113483092D01*
X64107073Y-113709732D01*
X64235248Y-113918896D01*
X64394567Y-114105433D01*
X64398323Y-114108641D01*
X64575182Y-114259694D01*
X64581104Y-114264752D01*
X64585327Y-114267340D01*
X64585330Y-114267342D01*
X64604237Y-114278928D01*
X64790268Y-114392927D01*
X64912443Y-114443534D01*
X65012335Y-114484911D01*
X65012337Y-114484912D01*
X65016908Y-114486805D01*
X65051997Y-114495229D01*
X65250630Y-114542917D01*
X65250636Y-114542918D01*
X65255443Y-114544072D01*
X65500000Y-114563319D01*
X65744557Y-114544072D01*
X65749364Y-114542918D01*
X65749370Y-114542917D01*
X65948003Y-114495229D01*
X65983092Y-114486805D01*
X65987663Y-114484912D01*
X65987665Y-114484911D01*
X66087557Y-114443534D01*
X66209732Y-114392927D01*
X66395763Y-114278928D01*
X66411915Y-114269030D01*
X69595800Y-114269030D01*
X69601527Y-114276680D01*
X69786272Y-114389893D01*
X69795067Y-114394375D01*
X70012490Y-114484434D01*
X70021875Y-114487483D01*
X70250708Y-114542422D01*
X70260455Y-114543965D01*
X70495070Y-114562430D01*
X70504930Y-114562430D01*
X70739545Y-114543965D01*
X70749292Y-114542422D01*
X70978125Y-114487483D01*
X70987510Y-114484434D01*
X71204933Y-114394375D01*
X71213728Y-114389893D01*
X71394805Y-114278928D01*
X71404267Y-114268470D01*
X71400484Y-114259694D01*
X71238924Y-114098134D01*
X78941500Y-114098134D01*
X78948255Y-114160316D01*
X78999385Y-114296705D01*
X79086739Y-114413261D01*
X79203295Y-114500615D01*
X79339684Y-114551745D01*
X79401866Y-114558500D01*
X81598134Y-114558500D01*
X81660316Y-114551745D01*
X81796705Y-114500615D01*
X81913261Y-114413261D01*
X82000615Y-114296705D01*
X82051745Y-114160316D01*
X82058500Y-114098134D01*
X82058500Y-113000000D01*
X83936681Y-113000000D01*
X83955928Y-113244557D01*
X83957082Y-113249364D01*
X83957083Y-113249370D01*
X83992141Y-113395396D01*
X84013195Y-113483092D01*
X84107073Y-113709732D01*
X84235248Y-113918896D01*
X84394567Y-114105433D01*
X84398323Y-114108641D01*
X84575182Y-114259694D01*
X84581104Y-114264752D01*
X84585327Y-114267340D01*
X84585330Y-114267342D01*
X84604237Y-114278928D01*
X84790268Y-114392927D01*
X84912443Y-114443534D01*
X85012335Y-114484911D01*
X85012337Y-114484912D01*
X85016908Y-114486805D01*
X85051997Y-114495229D01*
X85250630Y-114542917D01*
X85250636Y-114542918D01*
X85255443Y-114544072D01*
X85500000Y-114563319D01*
X85744557Y-114544072D01*
X85749364Y-114542918D01*
X85749370Y-114542917D01*
X85948003Y-114495229D01*
X85983092Y-114486805D01*
X85987663Y-114484912D01*
X85987665Y-114484911D01*
X86087557Y-114443534D01*
X86209732Y-114392927D01*
X86395763Y-114278928D01*
X86414670Y-114267342D01*
X86414673Y-114267340D01*
X86418896Y-114264752D01*
X86424819Y-114259694D01*
X86601677Y-114108641D01*
X86605433Y-114105433D01*
X86764752Y-113918896D01*
X86892927Y-113709732D01*
X86986805Y-113483092D01*
X87007859Y-113395396D01*
X87042917Y-113249370D01*
X87042918Y-113249364D01*
X87044072Y-113244557D01*
X87063319Y-113000000D01*
X87044072Y-112755443D01*
X87015299Y-112635592D01*
X86993643Y-112545392D01*
X86986805Y-112516908D01*
X86892927Y-112290268D01*
X86764752Y-112081104D01*
X86753401Y-112067813D01*
X86608641Y-111898323D01*
X86605433Y-111894567D01*
X86498568Y-111803295D01*
X86422663Y-111738465D01*
X86422660Y-111738463D01*
X86418896Y-111735248D01*
X86414673Y-111732660D01*
X86414670Y-111732658D01*
X86330955Y-111681358D01*
X86268665Y-111643187D01*
X86221034Y-111590541D01*
X86208500Y-111535755D01*
X86208500Y-100118744D01*
X86228502Y-100050623D01*
X86232564Y-100044683D01*
X86234621Y-100041852D01*
X86239040Y-100036944D01*
X86243031Y-100030031D01*
X86331223Y-99877279D01*
X86331224Y-99877278D01*
X86334527Y-99871556D01*
X86393542Y-99689928D01*
X86395152Y-99674616D01*
X86412814Y-99506565D01*
X86413504Y-99500000D01*
X86397536Y-99348069D01*
X86394232Y-99316635D01*
X86394232Y-99316633D01*
X86393542Y-99310072D01*
X86367232Y-99229099D01*
X86356192Y-99195121D01*
X86354164Y-99124154D01*
X86390827Y-99063356D01*
X86454539Y-99032030D01*
X86525073Y-99040123D01*
X86565120Y-99067090D01*
X87254595Y-99756565D01*
X87288621Y-99818877D01*
X87291500Y-99845660D01*
X87291500Y-110471088D01*
X87291208Y-110479658D01*
X87288256Y-110522966D01*
X87287275Y-110537352D01*
X87288580Y-110544829D01*
X87288580Y-110544830D01*
X87298261Y-110600299D01*
X87299223Y-110606821D01*
X87306898Y-110670242D01*
X87309581Y-110677343D01*
X87310222Y-110679952D01*
X87314685Y-110696262D01*
X87315450Y-110698798D01*
X87316757Y-110706284D01*
X87319811Y-110713241D01*
X87342442Y-110764795D01*
X87344935Y-110770904D01*
X87363505Y-110820048D01*
X87367513Y-110830656D01*
X87371817Y-110836919D01*
X87373054Y-110839285D01*
X87381299Y-110854097D01*
X87382632Y-110856351D01*
X87385685Y-110863305D01*
X87413607Y-110899692D01*
X87424579Y-110913991D01*
X87428459Y-110919332D01*
X87460339Y-110965720D01*
X87460344Y-110965725D01*
X87464643Y-110971981D01*
X87470313Y-110977032D01*
X87470314Y-110977034D01*
X87511170Y-111013435D01*
X87516446Y-111018416D01*
X88963636Y-112465606D01*
X88997662Y-112527918D01*
X88997060Y-112584115D01*
X88984702Y-112635592D01*
X88955928Y-112755443D01*
X88936681Y-113000000D01*
X88955928Y-113244557D01*
X88957082Y-113249364D01*
X88957083Y-113249370D01*
X88992141Y-113395396D01*
X89013195Y-113483092D01*
X89107073Y-113709732D01*
X89235248Y-113918896D01*
X89394567Y-114105433D01*
X89398323Y-114108641D01*
X89575182Y-114259694D01*
X89581104Y-114264752D01*
X89585327Y-114267340D01*
X89585330Y-114267342D01*
X89604237Y-114278928D01*
X89790268Y-114392927D01*
X89912443Y-114443534D01*
X90012335Y-114484911D01*
X90012337Y-114484912D01*
X90016908Y-114486805D01*
X90051997Y-114495229D01*
X90250630Y-114542917D01*
X90250636Y-114542918D01*
X90255443Y-114544072D01*
X90500000Y-114563319D01*
X90744557Y-114544072D01*
X90749364Y-114542918D01*
X90749370Y-114542917D01*
X90948003Y-114495229D01*
X90983092Y-114486805D01*
X90987663Y-114484912D01*
X90987665Y-114484911D01*
X91087557Y-114443534D01*
X91209732Y-114392927D01*
X91395763Y-114278928D01*
X91411915Y-114269030D01*
X94595800Y-114269030D01*
X94601527Y-114276680D01*
X94786272Y-114389893D01*
X94795067Y-114394375D01*
X95012490Y-114484434D01*
X95021875Y-114487483D01*
X95250708Y-114542422D01*
X95260455Y-114543965D01*
X95495070Y-114562430D01*
X95504930Y-114562430D01*
X95739545Y-114543965D01*
X95749292Y-114542422D01*
X95978125Y-114487483D01*
X95987510Y-114484434D01*
X96204933Y-114394375D01*
X96213728Y-114389893D01*
X96394805Y-114278928D01*
X96404267Y-114268470D01*
X96400484Y-114259694D01*
X95512812Y-113372022D01*
X95498868Y-113364408D01*
X95497035Y-113364539D01*
X95490420Y-113368790D01*
X94602560Y-114256650D01*
X94595800Y-114269030D01*
X91411915Y-114269030D01*
X91414670Y-114267342D01*
X91414673Y-114267340D01*
X91418896Y-114264752D01*
X91424819Y-114259694D01*
X91601677Y-114108641D01*
X91605433Y-114105433D01*
X91764752Y-113918896D01*
X91892927Y-113709732D01*
X91986805Y-113483092D01*
X92007859Y-113395396D01*
X92042917Y-113249370D01*
X92042918Y-113249364D01*
X92044072Y-113244557D01*
X92062931Y-113004930D01*
X93937570Y-113004930D01*
X93956035Y-113239545D01*
X93957578Y-113249292D01*
X94012517Y-113478125D01*
X94015566Y-113487510D01*
X94105625Y-113704933D01*
X94110107Y-113713728D01*
X94221072Y-113894805D01*
X94231530Y-113904267D01*
X94240306Y-113900484D01*
X95127978Y-113012812D01*
X95134356Y-113001132D01*
X95864408Y-113001132D01*
X95864539Y-113002965D01*
X95868790Y-113009580D01*
X96756650Y-113897440D01*
X96769030Y-113904200D01*
X96776680Y-113898473D01*
X96889893Y-113713728D01*
X96894375Y-113704933D01*
X96984434Y-113487510D01*
X96987483Y-113478125D01*
X97042422Y-113249292D01*
X97043965Y-113239545D01*
X97062430Y-113004930D01*
X97062430Y-112995070D01*
X97043965Y-112760455D01*
X97042422Y-112750708D01*
X96987483Y-112521875D01*
X96984434Y-112512490D01*
X96894375Y-112295067D01*
X96889893Y-112286272D01*
X96778928Y-112105195D01*
X96768470Y-112095733D01*
X96759694Y-112099516D01*
X95872022Y-112987188D01*
X95864408Y-113001132D01*
X95134356Y-113001132D01*
X95135592Y-112998868D01*
X95135461Y-112997035D01*
X95131210Y-112990420D01*
X94243350Y-112102560D01*
X94230970Y-112095800D01*
X94223320Y-112101527D01*
X94110107Y-112286272D01*
X94105625Y-112295067D01*
X94015566Y-112512490D01*
X94012517Y-112521875D01*
X93957578Y-112750708D01*
X93956035Y-112760455D01*
X93937570Y-112995070D01*
X93937570Y-113004930D01*
X92062931Y-113004930D01*
X92063319Y-113000000D01*
X92044072Y-112755443D01*
X92015299Y-112635592D01*
X91993643Y-112545392D01*
X91986805Y-112516908D01*
X91892927Y-112290268D01*
X91764752Y-112081104D01*
X91753401Y-112067813D01*
X91608641Y-111898323D01*
X91605433Y-111894567D01*
X91498568Y-111803295D01*
X91422663Y-111738465D01*
X91422660Y-111738463D01*
X91418896Y-111735248D01*
X91414673Y-111732660D01*
X91414670Y-111732658D01*
X91412829Y-111731530D01*
X94595733Y-111731530D01*
X94599516Y-111740306D01*
X95487188Y-112627978D01*
X95501132Y-112635592D01*
X95502965Y-112635461D01*
X95509580Y-112631210D01*
X96397440Y-111743350D01*
X96404200Y-111730970D01*
X96398473Y-111723320D01*
X96213728Y-111610107D01*
X96204933Y-111605625D01*
X95987510Y-111515566D01*
X95978125Y-111512517D01*
X95749292Y-111457578D01*
X95739545Y-111456035D01*
X95504930Y-111437570D01*
X95495070Y-111437570D01*
X95260455Y-111456035D01*
X95250708Y-111457578D01*
X95021875Y-111512517D01*
X95012490Y-111515566D01*
X94795067Y-111605625D01*
X94786272Y-111610107D01*
X94605195Y-111721072D01*
X94595733Y-111731530D01*
X91412829Y-111731530D01*
X91330955Y-111681358D01*
X91209732Y-111607073D01*
X91003137Y-111521498D01*
X90987665Y-111515089D01*
X90987663Y-111515088D01*
X90983092Y-111513195D01*
X90900437Y-111493351D01*
X90749370Y-111457083D01*
X90749364Y-111457082D01*
X90744557Y-111455928D01*
X90500000Y-111436681D01*
X90255443Y-111455928D01*
X90250636Y-111457082D01*
X90250630Y-111457083D01*
X90084115Y-111497060D01*
X90013207Y-111493513D01*
X89965606Y-111463636D01*
X88745405Y-110243435D01*
X88711379Y-110181123D01*
X88708500Y-110154340D01*
X88708500Y-99528922D01*
X88708792Y-99520352D01*
X88712210Y-99470224D01*
X88712210Y-99470220D01*
X88712726Y-99462648D01*
X88701736Y-99399681D01*
X88700775Y-99393165D01*
X88693102Y-99329758D01*
X88690419Y-99322657D01*
X88689778Y-99320048D01*
X88685309Y-99303715D01*
X88684548Y-99301195D01*
X88683243Y-99293717D01*
X88666935Y-99256565D01*
X88657559Y-99235204D01*
X88655068Y-99229099D01*
X88635175Y-99176456D01*
X88635173Y-99176452D01*
X88632487Y-99169344D01*
X88628184Y-99163083D01*
X88626947Y-99160717D01*
X88618720Y-99145937D01*
X88617369Y-99143652D01*
X88614315Y-99136695D01*
X88609695Y-99130675D01*
X88609692Y-99130669D01*
X88575421Y-99086009D01*
X88571541Y-99080668D01*
X88539661Y-99034280D01*
X88539656Y-99034275D01*
X88535357Y-99028019D01*
X88488829Y-98986564D01*
X88483554Y-98981584D01*
X86434665Y-96932695D01*
X86400639Y-96870383D01*
X86398450Y-96856770D01*
X86394232Y-96816637D01*
X86394232Y-96816635D01*
X86393542Y-96810072D01*
X86356192Y-96695121D01*
X86354164Y-96624154D01*
X86390827Y-96563356D01*
X86454539Y-96532030D01*
X86525073Y-96540123D01*
X86565120Y-96567090D01*
X89254595Y-99256565D01*
X89288621Y-99318877D01*
X89291500Y-99345660D01*
X89291500Y-107471088D01*
X89291208Y-107479658D01*
X89288292Y-107522439D01*
X89287275Y-107537352D01*
X89288580Y-107544829D01*
X89288580Y-107544830D01*
X89298261Y-107600299D01*
X89299223Y-107606821D01*
X89306898Y-107670242D01*
X89309581Y-107677343D01*
X89310222Y-107679952D01*
X89314685Y-107696262D01*
X89315450Y-107698798D01*
X89316757Y-107706284D01*
X89319811Y-107713241D01*
X89342442Y-107764795D01*
X89344935Y-107770904D01*
X89364435Y-107822509D01*
X89367513Y-107830656D01*
X89371817Y-107836919D01*
X89373054Y-107839285D01*
X89381299Y-107854097D01*
X89382632Y-107856351D01*
X89385685Y-107863305D01*
X89407987Y-107892368D01*
X89424579Y-107913991D01*
X89428459Y-107919332D01*
X89460339Y-107965720D01*
X89460344Y-107965725D01*
X89464643Y-107971981D01*
X89470313Y-107977032D01*
X89470314Y-107977034D01*
X89511170Y-108013435D01*
X89516446Y-108018416D01*
X91978550Y-110480520D01*
X91984404Y-110486785D01*
X92022439Y-110530385D01*
X92028653Y-110534752D01*
X92074719Y-110567128D01*
X92080014Y-110571061D01*
X92130282Y-110610476D01*
X92137198Y-110613599D01*
X92139484Y-110614983D01*
X92154165Y-110623357D01*
X92156525Y-110624622D01*
X92162739Y-110628990D01*
X92169818Y-110631750D01*
X92169820Y-110631751D01*
X92222275Y-110652202D01*
X92228344Y-110654753D01*
X92286573Y-110681045D01*
X92294040Y-110682429D01*
X92296595Y-110683230D01*
X92312848Y-110687859D01*
X92315428Y-110688522D01*
X92322509Y-110691282D01*
X92330040Y-110692273D01*
X92330042Y-110692274D01*
X92359661Y-110696173D01*
X92385861Y-110699622D01*
X92392359Y-110700652D01*
X92455186Y-110712296D01*
X92462766Y-110711859D01*
X92462767Y-110711859D01*
X92517392Y-110708709D01*
X92524646Y-110708500D01*
X104154340Y-110708500D01*
X104222461Y-110728502D01*
X104243435Y-110745405D01*
X104724435Y-111226405D01*
X104758461Y-111288717D01*
X104753396Y-111359532D01*
X104710849Y-111416368D01*
X104644329Y-111441179D01*
X104635340Y-111441500D01*
X104401866Y-111441500D01*
X104339684Y-111448255D01*
X104203295Y-111499385D01*
X104086739Y-111586739D01*
X103999385Y-111703295D01*
X103948255Y-111839684D01*
X103941500Y-111901866D01*
X103941500Y-114098134D01*
X103948255Y-114160316D01*
X103999385Y-114296705D01*
X104086739Y-114413261D01*
X104203295Y-114500615D01*
X104339684Y-114551745D01*
X104401866Y-114558500D01*
X106598134Y-114558500D01*
X106660316Y-114551745D01*
X106796705Y-114500615D01*
X106913261Y-114413261D01*
X107000615Y-114296705D01*
X107051745Y-114160316D01*
X107058500Y-114098134D01*
X107058500Y-111901866D01*
X107051745Y-111839684D01*
X107000615Y-111703295D01*
X106913261Y-111586739D01*
X106796705Y-111499385D01*
X106660316Y-111448255D01*
X106598134Y-111441500D01*
X106334500Y-111441500D01*
X106266379Y-111421498D01*
X106219886Y-111367842D01*
X106208500Y-111315500D01*
X106208500Y-111028927D01*
X106208792Y-111020358D01*
X106212210Y-110970225D01*
X106212210Y-110970221D01*
X106212726Y-110962648D01*
X106201736Y-110899681D01*
X106200775Y-110893165D01*
X106193102Y-110829758D01*
X106190419Y-110822657D01*
X106189778Y-110820048D01*
X106185313Y-110803728D01*
X106184548Y-110801195D01*
X106183243Y-110793717D01*
X106157552Y-110735190D01*
X106155067Y-110729102D01*
X106135172Y-110676449D01*
X106135171Y-110676447D01*
X106132487Y-110669344D01*
X106128186Y-110663085D01*
X106126949Y-110660720D01*
X106118727Y-110645948D01*
X106117372Y-110643656D01*
X106114316Y-110636695D01*
X106109691Y-110630668D01*
X106109689Y-110630664D01*
X106075407Y-110585987D01*
X106071529Y-110580650D01*
X106039659Y-110534278D01*
X106039658Y-110534277D01*
X106035357Y-110528019D01*
X105988847Y-110486580D01*
X105983571Y-110481600D01*
X105021435Y-109519465D01*
X105015581Y-109513198D01*
X104982556Y-109475340D01*
X104982553Y-109475337D01*
X104977561Y-109469615D01*
X104925280Y-109432871D01*
X104919986Y-109428939D01*
X104875693Y-109394209D01*
X104869718Y-109389524D01*
X104862802Y-109386401D01*
X104860516Y-109385017D01*
X104845835Y-109376643D01*
X104843475Y-109375378D01*
X104837261Y-109371010D01*
X104830182Y-109368250D01*
X104830180Y-109368249D01*
X104777725Y-109347798D01*
X104771656Y-109345247D01*
X104713427Y-109318955D01*
X104705960Y-109317571D01*
X104703405Y-109316770D01*
X104687152Y-109312141D01*
X104684572Y-109311478D01*
X104677491Y-109308718D01*
X104669960Y-109307727D01*
X104669958Y-109307726D01*
X104640339Y-109303827D01*
X104614139Y-109300378D01*
X104607641Y-109299348D01*
X104544814Y-109287704D01*
X104537234Y-109288141D01*
X104537233Y-109288141D01*
X104482608Y-109291291D01*
X104475354Y-109291500D01*
X92845660Y-109291500D01*
X92777539Y-109271498D01*
X92756565Y-109254595D01*
X90745405Y-107243435D01*
X90711379Y-107181123D01*
X90708500Y-107154340D01*
X90708500Y-99028912D01*
X90708792Y-99020338D01*
X90709702Y-99006996D01*
X90734293Y-98940394D01*
X90790988Y-98897660D01*
X90861787Y-98892362D01*
X90924505Y-98926475D01*
X91254595Y-99256565D01*
X91288621Y-99318877D01*
X91291500Y-99345660D01*
X91291500Y-106471088D01*
X91291208Y-106479658D01*
X91287275Y-106537352D01*
X91288580Y-106544829D01*
X91288580Y-106544830D01*
X91298261Y-106600299D01*
X91299223Y-106606821D01*
X91306898Y-106670242D01*
X91309581Y-106677343D01*
X91310222Y-106679952D01*
X91314685Y-106696262D01*
X91315450Y-106698798D01*
X91316757Y-106706284D01*
X91319811Y-106713241D01*
X91342442Y-106764795D01*
X91344933Y-106770899D01*
X91367513Y-106830656D01*
X91371817Y-106836919D01*
X91373054Y-106839285D01*
X91381299Y-106854097D01*
X91382632Y-106856351D01*
X91385685Y-106863305D01*
X91390307Y-106869328D01*
X91424579Y-106913991D01*
X91428459Y-106919332D01*
X91460339Y-106965720D01*
X91460344Y-106965725D01*
X91464643Y-106971981D01*
X91470313Y-106977032D01*
X91470314Y-106977034D01*
X91511170Y-107013435D01*
X91516446Y-107018416D01*
X92978557Y-108480528D01*
X92984411Y-108486793D01*
X93022439Y-108530385D01*
X93074729Y-108567136D01*
X93079971Y-108571028D01*
X93130282Y-108610476D01*
X93137201Y-108613600D01*
X93139493Y-108614988D01*
X93154165Y-108623357D01*
X93156525Y-108624622D01*
X93162739Y-108628990D01*
X93169818Y-108631750D01*
X93169820Y-108631751D01*
X93222275Y-108652202D01*
X93228344Y-108654753D01*
X93286573Y-108681045D01*
X93294046Y-108682430D01*
X93296612Y-108683234D01*
X93312835Y-108687855D01*
X93315427Y-108688520D01*
X93322509Y-108691282D01*
X93330044Y-108692274D01*
X93385861Y-108699622D01*
X93392377Y-108700654D01*
X93430770Y-108707770D01*
X93455186Y-108712295D01*
X93462766Y-108711858D01*
X93462767Y-108711858D01*
X93517380Y-108708709D01*
X93524633Y-108708500D01*
X108154340Y-108708500D01*
X108222461Y-108728502D01*
X108243435Y-108745405D01*
X109754595Y-110256566D01*
X109788621Y-110318878D01*
X109791500Y-110345661D01*
X109791500Y-111535755D01*
X109771498Y-111603876D01*
X109731335Y-111643187D01*
X109669045Y-111681358D01*
X109585330Y-111732658D01*
X109585327Y-111732660D01*
X109581104Y-111735248D01*
X109577340Y-111738463D01*
X109577337Y-111738465D01*
X109501432Y-111803295D01*
X109394567Y-111894567D01*
X109391359Y-111898323D01*
X109246600Y-112067813D01*
X109235248Y-112081104D01*
X109107073Y-112290268D01*
X109013195Y-112516908D01*
X109006357Y-112545392D01*
X108984702Y-112635592D01*
X108955928Y-112755443D01*
X108936681Y-113000000D01*
X108955928Y-113244557D01*
X108957082Y-113249364D01*
X108957083Y-113249370D01*
X108992141Y-113395396D01*
X109013195Y-113483092D01*
X109107073Y-113709732D01*
X109235248Y-113918896D01*
X109394567Y-114105433D01*
X109398323Y-114108641D01*
X109575182Y-114259694D01*
X109581104Y-114264752D01*
X109585327Y-114267340D01*
X109585330Y-114267342D01*
X109604237Y-114278928D01*
X109790268Y-114392927D01*
X109912443Y-114443534D01*
X110012335Y-114484911D01*
X110012337Y-114484912D01*
X110016908Y-114486805D01*
X110051997Y-114495229D01*
X110250630Y-114542917D01*
X110250636Y-114542918D01*
X110255443Y-114544072D01*
X110500000Y-114563319D01*
X110744557Y-114544072D01*
X110749364Y-114542918D01*
X110749370Y-114542917D01*
X110948003Y-114495229D01*
X110983092Y-114486805D01*
X110987663Y-114484912D01*
X110987665Y-114484911D01*
X111087557Y-114443534D01*
X111209732Y-114392927D01*
X111395763Y-114278928D01*
X111414670Y-114267342D01*
X111414673Y-114267340D01*
X111418896Y-114264752D01*
X111424819Y-114259694D01*
X111601677Y-114108641D01*
X111605433Y-114105433D01*
X111764752Y-113918896D01*
X111892927Y-113709732D01*
X111986805Y-113483092D01*
X112007859Y-113395396D01*
X112042917Y-113249370D01*
X112042918Y-113249364D01*
X112044072Y-113244557D01*
X112063319Y-113000000D01*
X113936681Y-113000000D01*
X113955928Y-113244557D01*
X113957082Y-113249364D01*
X113957083Y-113249370D01*
X113992141Y-113395396D01*
X114013195Y-113483092D01*
X114107073Y-113709732D01*
X114235248Y-113918896D01*
X114394567Y-114105433D01*
X114398323Y-114108641D01*
X114575182Y-114259694D01*
X114581104Y-114264752D01*
X114585327Y-114267340D01*
X114585330Y-114267342D01*
X114604237Y-114278928D01*
X114790268Y-114392927D01*
X114912443Y-114443534D01*
X115012335Y-114484911D01*
X115012337Y-114484912D01*
X115016908Y-114486805D01*
X115051997Y-114495229D01*
X115250630Y-114542917D01*
X115250636Y-114542918D01*
X115255443Y-114544072D01*
X115500000Y-114563319D01*
X115744557Y-114544072D01*
X115749364Y-114542918D01*
X115749370Y-114542917D01*
X115948003Y-114495229D01*
X115983092Y-114486805D01*
X115987663Y-114484912D01*
X115987665Y-114484911D01*
X116087557Y-114443534D01*
X116209732Y-114392927D01*
X116395763Y-114278928D01*
X116411915Y-114269030D01*
X119595800Y-114269030D01*
X119601527Y-114276680D01*
X119786272Y-114389893D01*
X119795067Y-114394375D01*
X120012490Y-114484434D01*
X120021875Y-114487483D01*
X120250708Y-114542422D01*
X120260455Y-114543965D01*
X120495070Y-114562430D01*
X120504930Y-114562430D01*
X120739545Y-114543965D01*
X120749292Y-114542422D01*
X120978125Y-114487483D01*
X120987510Y-114484434D01*
X121204933Y-114394375D01*
X121213728Y-114389893D01*
X121394805Y-114278928D01*
X121404267Y-114268470D01*
X121400484Y-114259694D01*
X120512812Y-113372022D01*
X120498868Y-113364408D01*
X120497035Y-113364539D01*
X120490420Y-113368790D01*
X119602560Y-114256650D01*
X119595800Y-114269030D01*
X116411915Y-114269030D01*
X116414670Y-114267342D01*
X116414673Y-114267340D01*
X116418896Y-114264752D01*
X116424819Y-114259694D01*
X116601677Y-114108641D01*
X116605433Y-114105433D01*
X116764752Y-113918896D01*
X116892927Y-113709732D01*
X116986805Y-113483092D01*
X117007859Y-113395396D01*
X117042917Y-113249370D01*
X117042918Y-113249364D01*
X117044072Y-113244557D01*
X117062931Y-113004930D01*
X118937570Y-113004930D01*
X118956035Y-113239545D01*
X118957578Y-113249292D01*
X119012517Y-113478125D01*
X119015566Y-113487510D01*
X119105625Y-113704933D01*
X119110107Y-113713728D01*
X119221072Y-113894805D01*
X119231530Y-113904267D01*
X119240306Y-113900484D01*
X120127978Y-113012812D01*
X120134356Y-113001132D01*
X120864408Y-113001132D01*
X120864539Y-113002965D01*
X120868790Y-113009580D01*
X121756650Y-113897440D01*
X121769030Y-113904200D01*
X121776680Y-113898473D01*
X121889893Y-113713728D01*
X121894375Y-113704933D01*
X121984434Y-113487510D01*
X121987483Y-113478125D01*
X122042422Y-113249292D01*
X122043965Y-113239545D01*
X122062430Y-113004930D01*
X122062430Y-112995070D01*
X122043965Y-112760455D01*
X122042422Y-112750708D01*
X121987483Y-112521875D01*
X121984434Y-112512490D01*
X121894375Y-112295067D01*
X121889893Y-112286272D01*
X121778928Y-112105195D01*
X121768470Y-112095733D01*
X121759694Y-112099516D01*
X120872022Y-112987188D01*
X120864408Y-113001132D01*
X120134356Y-113001132D01*
X120135592Y-112998868D01*
X120135461Y-112997035D01*
X120131210Y-112990420D01*
X119243350Y-112102560D01*
X119230970Y-112095800D01*
X119223320Y-112101527D01*
X119110107Y-112286272D01*
X119105625Y-112295067D01*
X119015566Y-112512490D01*
X119012517Y-112521875D01*
X118957578Y-112750708D01*
X118956035Y-112760455D01*
X118937570Y-112995070D01*
X118937570Y-113004930D01*
X117062931Y-113004930D01*
X117063319Y-113000000D01*
X117044072Y-112755443D01*
X117015299Y-112635592D01*
X116993643Y-112545392D01*
X116986805Y-112516908D01*
X116892927Y-112290268D01*
X116764752Y-112081104D01*
X116753401Y-112067813D01*
X116608641Y-111898323D01*
X116605433Y-111894567D01*
X116498568Y-111803295D01*
X116422663Y-111738465D01*
X116422660Y-111738463D01*
X116418896Y-111735248D01*
X116414673Y-111732660D01*
X116414670Y-111732658D01*
X116412829Y-111731530D01*
X119595733Y-111731530D01*
X119599516Y-111740306D01*
X120487188Y-112627978D01*
X120501132Y-112635592D01*
X120502965Y-112635461D01*
X120509580Y-112631210D01*
X121397440Y-111743350D01*
X121404200Y-111730970D01*
X121398473Y-111723320D01*
X121213728Y-111610107D01*
X121204933Y-111605625D01*
X120987510Y-111515566D01*
X120978125Y-111512517D01*
X120749292Y-111457578D01*
X120739545Y-111456035D01*
X120504930Y-111437570D01*
X120495070Y-111437570D01*
X120260455Y-111456035D01*
X120250708Y-111457578D01*
X120021875Y-111512517D01*
X120012490Y-111515566D01*
X119795067Y-111605625D01*
X119786272Y-111610107D01*
X119605195Y-111721072D01*
X119595733Y-111731530D01*
X116412829Y-111731530D01*
X116330955Y-111681358D01*
X116268665Y-111643187D01*
X116221034Y-111590541D01*
X116208500Y-111535755D01*
X116208500Y-108345660D01*
X116228502Y-108277539D01*
X116245405Y-108256565D01*
X126480528Y-98021443D01*
X126486793Y-98015589D01*
X126524664Y-97982552D01*
X126524665Y-97982551D01*
X126530385Y-97977561D01*
X126567136Y-97925271D01*
X126571028Y-97920029D01*
X126610476Y-97869718D01*
X126613600Y-97862799D01*
X126614988Y-97860507D01*
X126623357Y-97845835D01*
X126624622Y-97843475D01*
X126628990Y-97837261D01*
X126631777Y-97830114D01*
X126652202Y-97777725D01*
X126654759Y-97771642D01*
X126657862Y-97764771D01*
X126681045Y-97713427D01*
X126682430Y-97705954D01*
X126683234Y-97703388D01*
X126687855Y-97687165D01*
X126688520Y-97684573D01*
X126691282Y-97677491D01*
X126699622Y-97614139D01*
X126700654Y-97607623D01*
X126710911Y-97552281D01*
X126712295Y-97544814D01*
X126708709Y-97482620D01*
X126708500Y-97475367D01*
X126708500Y-88618744D01*
X126728502Y-88550623D01*
X126732564Y-88544683D01*
X126734621Y-88541852D01*
X126739040Y-88536944D01*
X126834527Y-88371556D01*
X126893542Y-88189928D01*
X126913504Y-88000000D01*
X126893542Y-87810072D01*
X126834527Y-87628444D01*
X126739040Y-87463056D01*
X126683321Y-87401173D01*
X126615675Y-87326045D01*
X126615674Y-87326044D01*
X126611253Y-87321134D01*
X126456752Y-87208882D01*
X126450724Y-87206198D01*
X126450722Y-87206197D01*
X126288319Y-87133891D01*
X126288318Y-87133891D01*
X126282288Y-87131206D01*
X126188888Y-87111353D01*
X126101944Y-87092872D01*
X126101939Y-87092872D01*
X126095487Y-87091500D01*
X125904513Y-87091500D01*
X125898061Y-87092872D01*
X125898056Y-87092872D01*
X125811112Y-87111353D01*
X125717712Y-87131206D01*
X125711682Y-87133891D01*
X125711681Y-87133891D01*
X125549278Y-87206197D01*
X125549276Y-87206198D01*
X125543248Y-87208882D01*
X125388747Y-87321134D01*
X125384326Y-87326044D01*
X125384325Y-87326045D01*
X125316680Y-87401173D01*
X125260960Y-87463056D01*
X125165473Y-87628444D01*
X125106458Y-87810072D01*
X125086496Y-88000000D01*
X125106458Y-88189928D01*
X125165473Y-88371556D01*
X125260960Y-88536944D01*
X125265379Y-88541852D01*
X125267436Y-88544683D01*
X125291295Y-88611551D01*
X125291500Y-88618744D01*
X125291500Y-97154340D01*
X125271498Y-97222461D01*
X125254595Y-97243435D01*
X115019480Y-107478550D01*
X115013215Y-107484404D01*
X114969615Y-107522439D01*
X114932872Y-107574719D01*
X114928939Y-107580014D01*
X114889524Y-107630282D01*
X114886401Y-107637198D01*
X114885017Y-107639484D01*
X114876643Y-107654165D01*
X114875378Y-107656525D01*
X114871010Y-107662739D01*
X114868250Y-107669818D01*
X114868249Y-107669820D01*
X114847798Y-107722275D01*
X114845247Y-107728344D01*
X114818955Y-107786573D01*
X114817571Y-107794040D01*
X114816770Y-107796595D01*
X114812141Y-107812848D01*
X114811478Y-107815428D01*
X114808718Y-107822509D01*
X114807727Y-107830040D01*
X114807726Y-107830042D01*
X114800379Y-107885852D01*
X114799348Y-107892359D01*
X114787704Y-107955186D01*
X114788141Y-107962766D01*
X114788141Y-107962767D01*
X114791291Y-108017392D01*
X114791500Y-108024646D01*
X114791500Y-111535755D01*
X114771498Y-111603876D01*
X114731335Y-111643187D01*
X114669045Y-111681358D01*
X114585330Y-111732658D01*
X114585327Y-111732660D01*
X114581104Y-111735248D01*
X114577340Y-111738463D01*
X114577337Y-111738465D01*
X114501432Y-111803295D01*
X114394567Y-111894567D01*
X114391359Y-111898323D01*
X114246600Y-112067813D01*
X114235248Y-112081104D01*
X114107073Y-112290268D01*
X114013195Y-112516908D01*
X114006357Y-112545392D01*
X113984702Y-112635592D01*
X113955928Y-112755443D01*
X113936681Y-113000000D01*
X112063319Y-113000000D01*
X112044072Y-112755443D01*
X112015299Y-112635592D01*
X111993643Y-112545392D01*
X111986805Y-112516908D01*
X111892927Y-112290268D01*
X111764752Y-112081104D01*
X111753401Y-112067813D01*
X111608641Y-111898323D01*
X111605433Y-111894567D01*
X111498568Y-111803295D01*
X111422663Y-111738465D01*
X111422660Y-111738463D01*
X111418896Y-111735248D01*
X111414673Y-111732660D01*
X111414670Y-111732658D01*
X111330955Y-111681358D01*
X111268665Y-111643187D01*
X111221034Y-111590541D01*
X111208500Y-111535755D01*
X111208500Y-110028912D01*
X111208792Y-110020342D01*
X111212209Y-109970224D01*
X111212209Y-109970220D01*
X111212725Y-109962648D01*
X111201738Y-109899697D01*
X111200776Y-109893175D01*
X111194014Y-109837298D01*
X111193102Y-109829758D01*
X111190419Y-109822657D01*
X111189778Y-109820048D01*
X111185315Y-109803738D01*
X111184550Y-109801202D01*
X111183243Y-109793716D01*
X111157556Y-109735200D01*
X111155065Y-109729096D01*
X111135173Y-109676452D01*
X111135172Y-109676451D01*
X111132487Y-109669344D01*
X111128183Y-109663081D01*
X111126946Y-109660715D01*
X111118701Y-109645903D01*
X111117368Y-109643649D01*
X111114315Y-109636695D01*
X111075413Y-109585998D01*
X111071541Y-109580668D01*
X111039661Y-109534280D01*
X111039656Y-109534275D01*
X111035357Y-109528019D01*
X111025757Y-109519465D01*
X110988830Y-109486565D01*
X110983554Y-109481584D01*
X109021450Y-107519480D01*
X109015596Y-107513215D01*
X108990462Y-107484404D01*
X108977561Y-107469615D01*
X108925280Y-107432871D01*
X108919986Y-107428939D01*
X108875693Y-107394209D01*
X108869718Y-107389524D01*
X108862802Y-107386401D01*
X108860516Y-107385017D01*
X108845835Y-107376643D01*
X108843475Y-107375378D01*
X108837261Y-107371010D01*
X108830182Y-107368250D01*
X108830180Y-107368249D01*
X108777725Y-107347798D01*
X108771656Y-107345247D01*
X108713427Y-107318955D01*
X108705960Y-107317571D01*
X108703405Y-107316770D01*
X108687152Y-107312141D01*
X108684572Y-107311478D01*
X108677491Y-107308718D01*
X108669960Y-107307727D01*
X108669958Y-107307726D01*
X108640339Y-107303827D01*
X108614139Y-107300378D01*
X108607641Y-107299348D01*
X108544814Y-107287704D01*
X108537234Y-107288141D01*
X108537233Y-107288141D01*
X108482608Y-107291291D01*
X108475354Y-107291500D01*
X93845660Y-107291500D01*
X93777539Y-107271498D01*
X93756565Y-107254595D01*
X92745405Y-106243435D01*
X92711379Y-106181123D01*
X92708500Y-106154340D01*
X92708500Y-103918690D01*
X92728502Y-103850569D01*
X92782158Y-103804076D01*
X92852432Y-103793972D01*
X92917012Y-103823466D01*
X92936434Y-103844626D01*
X92945521Y-103857133D01*
X92952033Y-103867048D01*
X92971507Y-103899977D01*
X92971510Y-103899981D01*
X92975547Y-103906807D01*
X92990711Y-103921971D01*
X93003551Y-103937004D01*
X93016159Y-103954357D01*
X93051752Y-103983802D01*
X93060532Y-103991792D01*
X93976345Y-104907605D01*
X93984335Y-104916385D01*
X93988584Y-104923080D01*
X93994362Y-104928506D01*
X93994363Y-104928507D01*
X94040257Y-104971604D01*
X94043099Y-104974359D01*
X94063667Y-104994927D01*
X94067170Y-104997644D01*
X94076195Y-105005352D01*
X94109867Y-105036972D01*
X94116818Y-105040793D01*
X94116819Y-105040794D01*
X94128658Y-105047303D01*
X94145182Y-105058157D01*
X94155271Y-105065982D01*
X94162132Y-105071304D01*
X94169404Y-105074451D01*
X94169406Y-105074452D01*
X94204535Y-105089654D01*
X94215196Y-105094876D01*
X94255663Y-105117124D01*
X94276441Y-105122459D01*
X94295131Y-105128858D01*
X94314824Y-105137380D01*
X94358596Y-105144313D01*
X94360448Y-105144606D01*
X94372071Y-105147013D01*
X94400072Y-105154202D01*
X94416812Y-105158500D01*
X94438259Y-105158500D01*
X94457969Y-105160051D01*
X94479152Y-105163406D01*
X94525141Y-105159059D01*
X94536996Y-105158500D01*
X111319776Y-105158500D01*
X111387897Y-105178502D01*
X111393834Y-105182562D01*
X111543248Y-105291118D01*
X111549276Y-105293802D01*
X111549278Y-105293803D01*
X111556012Y-105296801D01*
X111717712Y-105368794D01*
X111811113Y-105388647D01*
X111898056Y-105407128D01*
X111898061Y-105407128D01*
X111904513Y-105408500D01*
X112095487Y-105408500D01*
X112101939Y-105407128D01*
X112101944Y-105407128D01*
X112188887Y-105388647D01*
X112282288Y-105368794D01*
X112443988Y-105296801D01*
X112450722Y-105293803D01*
X112450724Y-105293802D01*
X112456752Y-105291118D01*
X112611253Y-105178866D01*
X112639934Y-105147013D01*
X112734621Y-105041852D01*
X112734622Y-105041851D01*
X112739040Y-105036944D01*
X112834527Y-104871556D01*
X112893542Y-104689928D01*
X112913504Y-104500000D01*
X112899432Y-104366109D01*
X112894232Y-104316635D01*
X112894232Y-104316633D01*
X112893542Y-104310072D01*
X112891503Y-104303797D01*
X112891502Y-104303792D01*
X112889762Y-104298438D01*
X112887733Y-104227471D01*
X112924394Y-104166672D01*
X112988106Y-104135346D01*
X113009594Y-104133500D01*
X113291800Y-104133500D01*
X113359921Y-104153502D01*
X113379147Y-104169843D01*
X113379420Y-104169540D01*
X113384332Y-104173963D01*
X113388747Y-104178866D01*
X113543248Y-104291118D01*
X113549276Y-104293802D01*
X113549278Y-104293803D01*
X113600560Y-104316635D01*
X113717712Y-104368794D01*
X113811113Y-104388647D01*
X113898056Y-104407128D01*
X113898061Y-104407128D01*
X113904513Y-104408500D01*
X114095487Y-104408500D01*
X114101939Y-104407128D01*
X114101944Y-104407128D01*
X114188887Y-104388647D01*
X114282288Y-104368794D01*
X114399440Y-104316635D01*
X114450722Y-104293803D01*
X114450724Y-104293802D01*
X114456752Y-104291118D01*
X114611253Y-104178866D01*
X114615675Y-104173955D01*
X114734621Y-104041852D01*
X114734622Y-104041851D01*
X114739040Y-104036944D01*
X114834527Y-103871556D01*
X114893542Y-103689928D01*
X114913504Y-103500000D01*
X114893542Y-103310072D01*
X114834527Y-103128444D01*
X114739040Y-102963056D01*
X114611253Y-102821134D01*
X114456752Y-102708882D01*
X114450724Y-102706198D01*
X114450722Y-102706197D01*
X114288319Y-102633891D01*
X114288318Y-102633891D01*
X114282288Y-102631206D01*
X114181078Y-102609693D01*
X114101944Y-102592872D01*
X114101939Y-102592872D01*
X114095487Y-102591500D01*
X113904513Y-102591500D01*
X113898061Y-102592872D01*
X113898056Y-102592872D01*
X113818922Y-102609693D01*
X113717712Y-102631206D01*
X113711682Y-102633891D01*
X113711681Y-102633891D01*
X113549278Y-102706197D01*
X113549276Y-102706198D01*
X113543248Y-102708882D01*
X113388747Y-102821134D01*
X113384332Y-102826037D01*
X113379420Y-102830460D01*
X113378295Y-102829211D01*
X113324986Y-102862051D01*
X113291800Y-102866500D01*
X111394041Y-102866500D01*
X111325920Y-102846498D01*
X111279427Y-102792842D01*
X111269323Y-102722568D01*
X111298817Y-102657988D01*
X111330795Y-102632692D01*
X111330655Y-102632488D01*
X111333693Y-102630400D01*
X111333694Y-102630399D01*
X111336915Y-102628186D01*
X111339271Y-102626954D01*
X111354097Y-102618701D01*
X111356351Y-102617368D01*
X111363305Y-102614315D01*
X111414002Y-102575413D01*
X111419332Y-102571541D01*
X111465720Y-102539661D01*
X111465725Y-102539656D01*
X111471981Y-102535357D01*
X111513436Y-102488829D01*
X111518416Y-102483554D01*
X116538634Y-97463337D01*
X116544899Y-97457483D01*
X116582770Y-97424446D01*
X116582771Y-97424445D01*
X116588491Y-97419455D01*
X116625242Y-97367165D01*
X116629134Y-97361923D01*
X116668582Y-97311612D01*
X116671706Y-97304693D01*
X116673094Y-97302401D01*
X116681463Y-97287729D01*
X116682728Y-97285369D01*
X116687096Y-97279155D01*
X116710309Y-97219617D01*
X116712865Y-97213536D01*
X116714330Y-97210293D01*
X116739151Y-97155321D01*
X116740536Y-97147848D01*
X116741340Y-97145282D01*
X116745961Y-97129059D01*
X116746626Y-97126467D01*
X116749388Y-97119385D01*
X116757728Y-97056033D01*
X116758760Y-97049517D01*
X116769017Y-96994175D01*
X116770401Y-96986708D01*
X116769848Y-96977107D01*
X116766815Y-96924514D01*
X116766606Y-96917261D01*
X116766606Y-79787554D01*
X116786608Y-79719433D01*
X116803511Y-79698459D01*
X117756565Y-78745405D01*
X117818877Y-78711379D01*
X117845660Y-78708500D01*
X119888595Y-78708500D01*
X119956716Y-78728502D01*
X119962656Y-78732564D01*
X120043248Y-78791118D01*
X120049276Y-78793802D01*
X120049278Y-78793803D01*
X120105598Y-78818878D01*
X120217712Y-78868794D01*
X120311112Y-78888647D01*
X120398056Y-78907128D01*
X120398061Y-78907128D01*
X120404513Y-78908500D01*
X120595487Y-78908500D01*
X120601939Y-78907128D01*
X120601944Y-78907128D01*
X120688888Y-78888647D01*
X120782288Y-78868794D01*
X120894402Y-78818878D01*
X120950722Y-78793803D01*
X120950724Y-78793802D01*
X120956752Y-78791118D01*
X121111253Y-78678866D01*
X121239040Y-78536944D01*
X121297314Y-78436010D01*
X121331223Y-78377279D01*
X121331224Y-78377278D01*
X121334527Y-78371556D01*
X121393542Y-78189928D01*
X121394959Y-78176452D01*
X121412814Y-78006565D01*
X121413504Y-78000000D01*
X121393542Y-77810072D01*
X121334527Y-77628444D01*
X121320465Y-77604087D01*
X121295507Y-77560859D01*
X121239040Y-77463056D01*
X121199199Y-77418808D01*
X121168483Y-77354802D01*
X121177248Y-77284349D01*
X121222711Y-77229818D01*
X121292837Y-77208500D01*
X128654340Y-77208500D01*
X128722461Y-77228502D01*
X128743435Y-77245405D01*
X130254595Y-78756566D01*
X130288621Y-78818878D01*
X130291500Y-78845661D01*
X130291500Y-79881256D01*
X130271498Y-79949377D01*
X130267436Y-79955317D01*
X130265379Y-79958148D01*
X130260960Y-79963056D01*
X130165473Y-80128444D01*
X130106458Y-80310072D01*
X130086496Y-80500000D01*
X130106458Y-80689928D01*
X130165473Y-80871556D01*
X130260960Y-81036944D01*
X130388747Y-81178866D01*
X130543248Y-81291118D01*
X130549276Y-81293802D01*
X130549278Y-81293803D01*
X130665491Y-81345544D01*
X130717712Y-81368794D01*
X130811113Y-81388647D01*
X130898056Y-81407128D01*
X130898061Y-81407128D01*
X130904513Y-81408500D01*
X131095487Y-81408500D01*
X131101939Y-81407128D01*
X131101944Y-81407128D01*
X131188887Y-81388647D01*
X131282288Y-81368794D01*
X131334509Y-81345544D01*
X131450722Y-81293803D01*
X131450724Y-81293802D01*
X131456752Y-81291118D01*
X131611253Y-81178866D01*
X131739040Y-81036944D01*
X131834527Y-80871556D01*
X131893542Y-80689928D01*
X131913504Y-80500000D01*
X131893542Y-80310072D01*
X131834527Y-80128444D01*
X131739040Y-79963056D01*
X131734621Y-79958148D01*
X131732564Y-79955317D01*
X131708705Y-79888449D01*
X131708500Y-79881256D01*
X131708500Y-78528912D01*
X131708792Y-78520342D01*
X131712209Y-78470224D01*
X131712209Y-78470220D01*
X131712725Y-78462648D01*
X131701738Y-78399697D01*
X131700776Y-78393175D01*
X131699890Y-78385852D01*
X131693102Y-78329758D01*
X131690419Y-78322657D01*
X131689778Y-78320048D01*
X131685315Y-78303738D01*
X131684550Y-78301202D01*
X131683243Y-78293716D01*
X131657556Y-78235200D01*
X131655065Y-78229096D01*
X131635173Y-78176452D01*
X131635172Y-78176451D01*
X131632487Y-78169344D01*
X131628183Y-78163081D01*
X131626946Y-78160715D01*
X131618701Y-78145903D01*
X131617368Y-78143649D01*
X131614315Y-78136695D01*
X131575413Y-78085998D01*
X131571541Y-78080668D01*
X131539661Y-78034280D01*
X131539656Y-78034275D01*
X131535357Y-78028019D01*
X131529095Y-78022439D01*
X131488830Y-77986565D01*
X131483554Y-77981584D01*
X129521450Y-76019480D01*
X129515596Y-76013215D01*
X129513812Y-76011170D01*
X129477561Y-75969615D01*
X129425280Y-75932871D01*
X129419986Y-75928939D01*
X129375693Y-75894209D01*
X129369718Y-75889524D01*
X129362802Y-75886401D01*
X129360516Y-75885017D01*
X129345835Y-75876643D01*
X129343475Y-75875378D01*
X129337261Y-75871010D01*
X129330182Y-75868250D01*
X129330180Y-75868249D01*
X129277725Y-75847798D01*
X129271656Y-75845247D01*
X129213427Y-75818955D01*
X129205960Y-75817571D01*
X129203405Y-75816770D01*
X129187152Y-75812141D01*
X129184572Y-75811478D01*
X129177491Y-75808718D01*
X129169960Y-75807727D01*
X129169958Y-75807726D01*
X129140339Y-75803827D01*
X129114139Y-75800378D01*
X129107641Y-75799348D01*
X129044814Y-75787704D01*
X129037234Y-75788141D01*
X129037233Y-75788141D01*
X128982608Y-75791291D01*
X128975354Y-75791500D01*
X117028912Y-75791500D01*
X117020342Y-75791208D01*
X116970224Y-75787791D01*
X116970220Y-75787791D01*
X116962648Y-75787275D01*
X116955171Y-75788580D01*
X116955170Y-75788580D01*
X116928692Y-75793201D01*
X116899697Y-75798262D01*
X116893179Y-75799223D01*
X116829758Y-75806898D01*
X116822657Y-75809581D01*
X116820048Y-75810222D01*
X116803738Y-75814685D01*
X116801202Y-75815450D01*
X116793716Y-75816757D01*
X116781586Y-75822082D01*
X116735205Y-75842442D01*
X116729101Y-75844933D01*
X116669344Y-75867513D01*
X116663081Y-75871817D01*
X116660715Y-75873054D01*
X116645903Y-75881299D01*
X116643649Y-75882632D01*
X116636695Y-75885685D01*
X116585998Y-75924587D01*
X116580668Y-75928459D01*
X116534280Y-75960339D01*
X116534275Y-75960344D01*
X116528019Y-75964643D01*
X116522968Y-75970313D01*
X116522966Y-75970314D01*
X116486565Y-76011170D01*
X116481584Y-76016446D01*
X114519480Y-77978550D01*
X114513215Y-77984404D01*
X114469615Y-78022439D01*
X114465248Y-78028653D01*
X114432872Y-78074719D01*
X114428939Y-78080014D01*
X114389524Y-78130282D01*
X114386401Y-78137198D01*
X114385017Y-78139484D01*
X114376643Y-78154165D01*
X114375378Y-78156525D01*
X114371010Y-78162739D01*
X114368250Y-78169818D01*
X114368249Y-78169820D01*
X114347798Y-78222275D01*
X114345247Y-78228344D01*
X114318955Y-78286573D01*
X114317571Y-78294040D01*
X114316770Y-78296595D01*
X114312141Y-78312848D01*
X114311478Y-78315428D01*
X114308718Y-78322509D01*
X114301508Y-78377279D01*
X114300379Y-78385852D01*
X114299348Y-78392359D01*
X114287704Y-78455186D01*
X114288141Y-78462766D01*
X114288141Y-78462767D01*
X114291291Y-78517392D01*
X114291500Y-78524646D01*
X114291500Y-96154340D01*
X114271498Y-96222461D01*
X114254595Y-96243435D01*
X110243435Y-100254595D01*
X110181123Y-100288621D01*
X110154340Y-100291500D01*
X103111405Y-100291500D01*
X103043284Y-100271498D01*
X103037344Y-100267436D01*
X102962094Y-100212763D01*
X102962093Y-100212762D01*
X102956752Y-100208882D01*
X102950724Y-100206198D01*
X102950722Y-100206197D01*
X102788319Y-100133891D01*
X102788318Y-100133891D01*
X102782288Y-100131206D01*
X102688887Y-100111353D01*
X102601944Y-100092872D01*
X102601939Y-100092872D01*
X102595487Y-100091500D01*
X102404513Y-100091500D01*
X102398061Y-100092872D01*
X102398056Y-100092872D01*
X102386080Y-100095418D01*
X102315289Y-100090016D01*
X102259515Y-100047849D01*
X102250416Y-100088740D01*
X102199975Y-100138703D01*
X102191366Y-100142936D01*
X102049278Y-100206197D01*
X102049276Y-100206198D01*
X102043248Y-100208882D01*
X101888747Y-100321134D01*
X101884326Y-100326044D01*
X101884325Y-100326045D01*
X101798320Y-100421564D01*
X101760960Y-100463056D01*
X101665473Y-100628444D01*
X101606458Y-100810072D01*
X101586496Y-101000000D01*
X101587186Y-101006565D01*
X101587186Y-101006567D01*
X101593085Y-101062697D01*
X101580312Y-101132535D01*
X101531810Y-101184381D01*
X101462977Y-101201775D01*
X101416529Y-101190974D01*
X101282288Y-101131206D01*
X101188888Y-101111353D01*
X101101944Y-101092872D01*
X101101939Y-101092872D01*
X101095487Y-101091500D01*
X100904513Y-101091500D01*
X100898061Y-101092872D01*
X100898056Y-101092872D01*
X100811112Y-101111353D01*
X100717712Y-101131206D01*
X100711682Y-101133891D01*
X100711681Y-101133891D01*
X100549278Y-101206197D01*
X100549276Y-101206198D01*
X100543248Y-101208882D01*
X100388747Y-101321134D01*
X100260960Y-101463056D01*
X100165473Y-101628444D01*
X100106458Y-101810072D01*
X100086496Y-102000000D01*
X100106458Y-102189928D01*
X100165473Y-102371556D01*
X100260960Y-102536944D01*
X100265378Y-102541851D01*
X100265379Y-102541852D01*
X100368329Y-102656190D01*
X100399047Y-102720197D01*
X100390282Y-102790651D01*
X100344819Y-102845182D01*
X100274693Y-102866500D01*
X95814595Y-102866500D01*
X95746474Y-102846498D01*
X95725499Y-102829595D01*
X95170404Y-102274499D01*
X95136379Y-102212187D01*
X95133500Y-102185404D01*
X95133500Y-92578768D01*
X95134027Y-92567585D01*
X95135702Y-92560092D01*
X95133562Y-92492001D01*
X95133500Y-92488044D01*
X95133500Y-92460144D01*
X95132996Y-92456153D01*
X95132063Y-92444311D01*
X95130923Y-92408036D01*
X95130674Y-92400111D01*
X95128462Y-92392497D01*
X95128461Y-92392492D01*
X95125023Y-92380659D01*
X95121012Y-92361295D01*
X95119467Y-92349064D01*
X95118474Y-92341203D01*
X95115557Y-92333836D01*
X95115556Y-92333831D01*
X95102198Y-92300092D01*
X95098354Y-92288865D01*
X95088230Y-92254022D01*
X95086018Y-92246407D01*
X95075707Y-92228972D01*
X95067012Y-92211224D01*
X95059552Y-92192383D01*
X95033564Y-92156613D01*
X95027048Y-92146693D01*
X95008580Y-92115465D01*
X95008578Y-92115462D01*
X95004542Y-92108638D01*
X94990221Y-92094317D01*
X94977380Y-92079283D01*
X94970131Y-92069306D01*
X94965472Y-92062893D01*
X94931395Y-92034702D01*
X94922616Y-92026712D01*
X87503652Y-84607747D01*
X87496112Y-84599461D01*
X87492000Y-84592982D01*
X87442348Y-84546356D01*
X87439507Y-84543602D01*
X87419770Y-84523865D01*
X87416573Y-84521385D01*
X87407551Y-84513680D01*
X87381100Y-84488841D01*
X87375321Y-84483414D01*
X87368375Y-84479595D01*
X87368372Y-84479593D01*
X87357566Y-84473652D01*
X87341047Y-84462801D01*
X87335048Y-84458148D01*
X87325041Y-84450386D01*
X87317772Y-84447241D01*
X87317768Y-84447238D01*
X87284463Y-84432826D01*
X87273813Y-84427609D01*
X87235060Y-84406305D01*
X87215437Y-84401267D01*
X87196734Y-84394863D01*
X87185420Y-84389967D01*
X87185419Y-84389967D01*
X87178145Y-84386819D01*
X87170322Y-84385580D01*
X87170312Y-84385577D01*
X87134476Y-84379901D01*
X87122856Y-84377495D01*
X87087711Y-84368472D01*
X87087710Y-84368472D01*
X87080030Y-84366500D01*
X87059776Y-84366500D01*
X87040065Y-84364949D01*
X87027886Y-84363020D01*
X87020057Y-84361780D01*
X87012165Y-84362526D01*
X86976039Y-84365941D01*
X86964181Y-84366500D01*
X86708200Y-84366500D01*
X86640079Y-84346498D01*
X86620853Y-84330157D01*
X86620580Y-84330460D01*
X86615668Y-84326037D01*
X86611253Y-84321134D01*
X86456752Y-84208882D01*
X86450724Y-84206198D01*
X86450722Y-84206197D01*
X86288319Y-84133891D01*
X86288318Y-84133891D01*
X86282288Y-84131206D01*
X86188888Y-84111353D01*
X86101944Y-84092872D01*
X86101939Y-84092872D01*
X86095487Y-84091500D01*
X85904513Y-84091500D01*
X85898061Y-84092872D01*
X85898056Y-84092872D01*
X85811112Y-84111353D01*
X85717712Y-84131206D01*
X85711682Y-84133891D01*
X85711681Y-84133891D01*
X85549278Y-84206197D01*
X85549276Y-84206198D01*
X85543248Y-84208882D01*
X85388747Y-84321134D01*
X85384326Y-84326044D01*
X85384325Y-84326045D01*
X85275203Y-84447238D01*
X85260960Y-84463056D01*
X85165473Y-84628444D01*
X85106458Y-84810072D01*
X85086496Y-85000000D01*
X85087186Y-85006565D01*
X85098622Y-85115369D01*
X85106458Y-85189928D01*
X85165473Y-85371556D01*
X85260960Y-85536944D01*
X85265378Y-85541851D01*
X85265379Y-85541852D01*
X85376883Y-85665690D01*
X85407601Y-85729697D01*
X85398836Y-85800151D01*
X85376883Y-85834310D01*
X85294438Y-85925875D01*
X85260960Y-85963056D01*
X85257659Y-85968774D01*
X85180092Y-86103124D01*
X85165473Y-86128444D01*
X85106458Y-86310072D01*
X85086496Y-86500000D01*
X85087186Y-86506565D01*
X85101509Y-86642837D01*
X85106458Y-86689928D01*
X85165473Y-86871556D01*
X85260960Y-87036944D01*
X85265378Y-87041851D01*
X85265379Y-87041852D01*
X85384325Y-87173955D01*
X85388747Y-87178866D01*
X85435402Y-87212763D01*
X85493147Y-87254717D01*
X85543248Y-87291118D01*
X85549276Y-87293802D01*
X85549278Y-87293803D01*
X85711681Y-87366109D01*
X85717712Y-87368794D01*
X85811112Y-87388647D01*
X85898056Y-87407128D01*
X85898061Y-87407128D01*
X85904513Y-87408500D01*
X86095487Y-87408500D01*
X86101939Y-87407128D01*
X86101944Y-87407128D01*
X86188888Y-87388647D01*
X86282288Y-87368794D01*
X86288319Y-87366109D01*
X86450722Y-87293803D01*
X86450724Y-87293802D01*
X86456752Y-87291118D01*
X86603168Y-87184740D01*
X86670033Y-87160883D01*
X86739185Y-87176963D01*
X86766322Y-87197582D01*
X92804595Y-93235855D01*
X92838621Y-93298167D01*
X92841500Y-93324950D01*
X92841500Y-98562058D01*
X92821498Y-98630179D01*
X92767842Y-98676672D01*
X92697568Y-98686776D01*
X92632988Y-98657282D01*
X92615226Y-98635998D01*
X92614316Y-98636696D01*
X92600656Y-98618895D01*
X92575413Y-98585998D01*
X92571541Y-98580668D01*
X92539661Y-98534280D01*
X92539656Y-98534275D01*
X92535357Y-98528019D01*
X92488829Y-98486564D01*
X92483554Y-98481584D01*
X88245405Y-94243435D01*
X88211379Y-94181123D01*
X88208500Y-94154340D01*
X88208500Y-92118744D01*
X88228502Y-92050623D01*
X88232564Y-92044683D01*
X88234621Y-92041852D01*
X88239040Y-92036944D01*
X88242516Y-92030923D01*
X88331223Y-91877279D01*
X88331224Y-91877278D01*
X88334527Y-91871556D01*
X88393542Y-91689928D01*
X88397194Y-91655186D01*
X88412814Y-91506565D01*
X88413504Y-91500000D01*
X88405335Y-91422275D01*
X88394232Y-91316635D01*
X88394232Y-91316633D01*
X88393542Y-91310072D01*
X88334527Y-91128444D01*
X88239040Y-90963056D01*
X88111253Y-90821134D01*
X87956752Y-90708882D01*
X87950724Y-90706198D01*
X87950722Y-90706197D01*
X87788319Y-90633891D01*
X87788318Y-90633891D01*
X87782288Y-90631206D01*
X87681078Y-90609693D01*
X87601944Y-90592872D01*
X87601939Y-90592872D01*
X87595487Y-90591500D01*
X87404513Y-90591500D01*
X87398061Y-90592872D01*
X87398056Y-90592872D01*
X87318922Y-90609693D01*
X87217712Y-90631206D01*
X87211682Y-90633891D01*
X87211681Y-90633891D01*
X87049278Y-90706197D01*
X87049276Y-90706198D01*
X87043248Y-90708882D01*
X86888747Y-90821134D01*
X86760960Y-90963056D01*
X86665473Y-91128444D01*
X86606458Y-91310072D01*
X86605768Y-91316633D01*
X86605768Y-91316635D01*
X86594665Y-91422275D01*
X86586496Y-91500000D01*
X86587186Y-91506565D01*
X86602807Y-91655186D01*
X86606458Y-91689928D01*
X86665473Y-91871556D01*
X86668776Y-91877278D01*
X86668777Y-91877279D01*
X86757484Y-92030923D01*
X86760960Y-92036944D01*
X86765379Y-92041852D01*
X86767436Y-92044683D01*
X86791295Y-92111551D01*
X86791500Y-92118744D01*
X86791500Y-94471088D01*
X86791208Y-94479662D01*
X86790298Y-94493004D01*
X86765707Y-94559606D01*
X86709012Y-94602340D01*
X86638213Y-94607638D01*
X86575495Y-94573525D01*
X86434665Y-94432695D01*
X86400639Y-94370383D01*
X86398450Y-94356770D01*
X86394232Y-94316637D01*
X86394232Y-94316635D01*
X86393542Y-94310072D01*
X86334527Y-94128444D01*
X86313990Y-94092872D01*
X86242341Y-93968774D01*
X86239040Y-93963056D01*
X86111253Y-93821134D01*
X85956752Y-93708882D01*
X85950724Y-93706198D01*
X85950722Y-93706197D01*
X85788319Y-93633891D01*
X85788318Y-93633891D01*
X85782288Y-93631206D01*
X85688887Y-93611353D01*
X85601944Y-93592872D01*
X85601939Y-93592872D01*
X85595487Y-93591500D01*
X85404513Y-93591500D01*
X85398061Y-93592872D01*
X85398056Y-93592872D01*
X85311113Y-93611353D01*
X85217712Y-93631206D01*
X85211682Y-93633891D01*
X85211681Y-93633891D01*
X85049278Y-93706197D01*
X85049276Y-93706198D01*
X85043248Y-93708882D01*
X84888747Y-93821134D01*
X84760960Y-93963056D01*
X84757659Y-93968774D01*
X84686011Y-94092872D01*
X84665473Y-94128444D01*
X84606458Y-94310072D01*
X84586496Y-94500000D01*
X84606458Y-94689928D01*
X84665473Y-94871556D01*
X84760960Y-95036944D01*
X84888747Y-95178866D01*
X84971235Y-95238797D01*
X85035421Y-95285431D01*
X85043248Y-95291118D01*
X85049276Y-95293802D01*
X85049278Y-95293803D01*
X85209799Y-95365271D01*
X85217712Y-95368794D01*
X85354411Y-95397850D01*
X85370569Y-95401285D01*
X85433467Y-95435437D01*
X85926962Y-95928932D01*
X85960988Y-95991244D01*
X85955923Y-96062059D01*
X85913376Y-96118895D01*
X85846856Y-96143706D01*
X85795030Y-96134609D01*
X85794600Y-96135932D01*
X85788320Y-96133892D01*
X85782288Y-96131206D01*
X85676110Y-96108637D01*
X85601944Y-96092872D01*
X85601939Y-96092872D01*
X85595487Y-96091500D01*
X85404513Y-96091500D01*
X85398061Y-96092872D01*
X85398056Y-96092872D01*
X85323890Y-96108637D01*
X85217712Y-96131206D01*
X85211682Y-96133891D01*
X85211681Y-96133891D01*
X85049278Y-96206197D01*
X85049276Y-96206198D01*
X85043248Y-96208882D01*
X84888747Y-96321134D01*
X84884326Y-96326044D01*
X84884325Y-96326045D01*
X84767184Y-96456144D01*
X84760960Y-96463056D01*
X84746527Y-96488055D01*
X84676909Y-96608637D01*
X84665473Y-96628444D01*
X84606458Y-96810072D01*
X84586496Y-97000000D01*
X84587186Y-97006565D01*
X84603549Y-97162246D01*
X84606458Y-97189928D01*
X84665473Y-97371556D01*
X84760960Y-97536944D01*
X84765378Y-97541851D01*
X84765379Y-97541852D01*
X84835380Y-97619596D01*
X84888747Y-97678866D01*
X85043248Y-97791118D01*
X85049276Y-97793802D01*
X85049278Y-97793803D01*
X85184302Y-97853919D01*
X85217712Y-97868794D01*
X85351313Y-97897192D01*
X85370569Y-97901285D01*
X85433467Y-97935437D01*
X85926962Y-98428932D01*
X85960988Y-98491244D01*
X85955923Y-98562059D01*
X85913376Y-98618895D01*
X85846856Y-98643706D01*
X85795030Y-98634609D01*
X85794600Y-98635932D01*
X85788320Y-98633892D01*
X85782288Y-98631206D01*
X85688888Y-98611353D01*
X85601944Y-98592872D01*
X85601939Y-98592872D01*
X85595487Y-98591500D01*
X85404513Y-98591500D01*
X85398061Y-98592872D01*
X85398056Y-98592872D01*
X85311112Y-98611353D01*
X85217712Y-98631206D01*
X85211682Y-98633891D01*
X85211681Y-98633891D01*
X85049278Y-98706197D01*
X85049276Y-98706198D01*
X85043248Y-98708882D01*
X85037907Y-98712762D01*
X85037906Y-98712763D01*
X85013226Y-98730694D01*
X84888747Y-98821134D01*
X84884326Y-98826044D01*
X84884325Y-98826045D01*
X84793898Y-98926475D01*
X84760960Y-98963056D01*
X84735840Y-99006565D01*
X84693057Y-99080668D01*
X84665473Y-99128444D01*
X84606458Y-99310072D01*
X84605768Y-99316633D01*
X84605768Y-99316635D01*
X84602464Y-99348069D01*
X84586496Y-99500000D01*
X84587186Y-99506565D01*
X84604849Y-99674616D01*
X84606458Y-99689928D01*
X84665473Y-99871556D01*
X84668776Y-99877278D01*
X84668777Y-99877279D01*
X84756969Y-100030031D01*
X84760960Y-100036944D01*
X84765379Y-100041852D01*
X84767436Y-100044683D01*
X84791295Y-100111551D01*
X84791500Y-100118744D01*
X84791500Y-111535755D01*
X84771498Y-111603876D01*
X84731335Y-111643187D01*
X84669045Y-111681358D01*
X84585330Y-111732658D01*
X84585327Y-111732660D01*
X84581104Y-111735248D01*
X84577340Y-111738463D01*
X84577337Y-111738465D01*
X84501432Y-111803295D01*
X84394567Y-111894567D01*
X84391359Y-111898323D01*
X84246600Y-112067813D01*
X84235248Y-112081104D01*
X84107073Y-112290268D01*
X84013195Y-112516908D01*
X84006357Y-112545392D01*
X83984702Y-112635592D01*
X83955928Y-112755443D01*
X83936681Y-113000000D01*
X82058500Y-113000000D01*
X82058500Y-111901866D01*
X82051745Y-111839684D01*
X82000615Y-111703295D01*
X81913261Y-111586739D01*
X81796705Y-111499385D01*
X81660316Y-111448255D01*
X81598134Y-111441500D01*
X79401866Y-111441500D01*
X79339684Y-111448255D01*
X79203295Y-111499385D01*
X79086739Y-111586739D01*
X78999385Y-111703295D01*
X78948255Y-111839684D01*
X78941500Y-111901866D01*
X78941500Y-114098134D01*
X71238924Y-114098134D01*
X70512812Y-113372022D01*
X70498868Y-113364408D01*
X70497035Y-113364539D01*
X70490420Y-113368790D01*
X69602560Y-114256650D01*
X69595800Y-114269030D01*
X66411915Y-114269030D01*
X66414670Y-114267342D01*
X66414673Y-114267340D01*
X66418896Y-114264752D01*
X66424819Y-114259694D01*
X66601677Y-114108641D01*
X66605433Y-114105433D01*
X66764752Y-113918896D01*
X66892927Y-113709732D01*
X66986805Y-113483092D01*
X67007859Y-113395396D01*
X67042917Y-113249370D01*
X67042918Y-113249364D01*
X67044072Y-113244557D01*
X67062931Y-113004930D01*
X68937570Y-113004930D01*
X68956035Y-113239545D01*
X68957578Y-113249292D01*
X69012517Y-113478125D01*
X69015566Y-113487510D01*
X69105625Y-113704933D01*
X69110107Y-113713728D01*
X69221072Y-113894805D01*
X69231530Y-113904267D01*
X69240306Y-113900484D01*
X70127978Y-113012812D01*
X70134356Y-113001132D01*
X70864408Y-113001132D01*
X70864539Y-113002965D01*
X70868790Y-113009580D01*
X71756650Y-113897440D01*
X71769030Y-113904200D01*
X71776680Y-113898473D01*
X71889893Y-113713728D01*
X71894375Y-113704933D01*
X71984434Y-113487510D01*
X71987483Y-113478125D01*
X72042422Y-113249292D01*
X72043965Y-113239545D01*
X72062430Y-113004930D01*
X72062430Y-112995070D01*
X72043965Y-112760455D01*
X72042422Y-112750708D01*
X71987483Y-112521875D01*
X71984434Y-112512490D01*
X71894375Y-112295067D01*
X71889893Y-112286272D01*
X71778928Y-112105195D01*
X71768470Y-112095733D01*
X71759694Y-112099516D01*
X70872022Y-112987188D01*
X70864408Y-113001132D01*
X70134356Y-113001132D01*
X70135592Y-112998868D01*
X70135461Y-112997035D01*
X70131210Y-112990420D01*
X69243350Y-112102560D01*
X69230970Y-112095800D01*
X69223320Y-112101527D01*
X69110107Y-112286272D01*
X69105625Y-112295067D01*
X69015566Y-112512490D01*
X69012517Y-112521875D01*
X68957578Y-112750708D01*
X68956035Y-112760455D01*
X68937570Y-112995070D01*
X68937570Y-113004930D01*
X67062931Y-113004930D01*
X67063319Y-113000000D01*
X67044072Y-112755443D01*
X67015299Y-112635592D01*
X66993643Y-112545392D01*
X66986805Y-112516908D01*
X66892927Y-112290268D01*
X66764752Y-112081104D01*
X66753401Y-112067813D01*
X66608641Y-111898323D01*
X66605433Y-111894567D01*
X66498568Y-111803295D01*
X66422663Y-111738465D01*
X66422660Y-111738463D01*
X66418896Y-111735248D01*
X66414673Y-111732660D01*
X66414670Y-111732658D01*
X66412829Y-111731530D01*
X69595733Y-111731530D01*
X69599516Y-111740306D01*
X70487188Y-112627978D01*
X70501132Y-112635592D01*
X70502965Y-112635461D01*
X70509580Y-112631210D01*
X71397440Y-111743350D01*
X71404200Y-111730970D01*
X71398473Y-111723320D01*
X71213728Y-111610107D01*
X71204933Y-111605625D01*
X70987510Y-111515566D01*
X70978125Y-111512517D01*
X70749292Y-111457578D01*
X70739545Y-111456035D01*
X70504930Y-111437570D01*
X70495070Y-111437570D01*
X70260455Y-111456035D01*
X70250708Y-111457578D01*
X70021875Y-111512517D01*
X70012490Y-111515566D01*
X69795067Y-111605625D01*
X69786272Y-111610107D01*
X69605195Y-111721072D01*
X69595733Y-111731530D01*
X66412829Y-111731530D01*
X66330955Y-111681358D01*
X66209732Y-111607073D01*
X66003137Y-111521498D01*
X65987665Y-111515089D01*
X65987663Y-111515088D01*
X65983092Y-111513195D01*
X65900437Y-111493351D01*
X65749370Y-111457083D01*
X65749364Y-111457082D01*
X65744557Y-111455928D01*
X65500000Y-111436681D01*
X65255443Y-111455928D01*
X65250636Y-111457082D01*
X65250630Y-111457083D01*
X65099563Y-111493351D01*
X65016908Y-111513195D01*
X65012337Y-111515088D01*
X65012335Y-111515089D01*
X64996863Y-111521498D01*
X64790268Y-111607073D01*
X64669045Y-111681358D01*
X64585330Y-111732658D01*
X64585327Y-111732660D01*
X64581104Y-111735248D01*
X64577340Y-111738463D01*
X64577337Y-111738465D01*
X64501432Y-111803295D01*
X64394567Y-111894567D01*
X64391359Y-111898323D01*
X64246600Y-112067813D01*
X64235248Y-112081104D01*
X64107073Y-112290268D01*
X64013195Y-112516908D01*
X64006357Y-112545392D01*
X63984702Y-112635592D01*
X63955928Y-112755443D01*
X63936681Y-113000000D01*
X62062430Y-113000000D01*
X62062430Y-112995070D01*
X62043965Y-112760455D01*
X62042422Y-112750708D01*
X61987483Y-112521875D01*
X61984434Y-112512490D01*
X61894375Y-112295067D01*
X61889893Y-112286272D01*
X61778928Y-112105195D01*
X61768470Y-112095733D01*
X61759694Y-112099516D01*
X60872022Y-112987188D01*
X60864408Y-113001132D01*
X60134356Y-113001132D01*
X60135592Y-112998868D01*
X60135461Y-112997035D01*
X60131210Y-112990420D01*
X59243350Y-112102560D01*
X59230970Y-112095800D01*
X59223320Y-112101527D01*
X59110107Y-112286272D01*
X59105625Y-112295067D01*
X59015566Y-112512490D01*
X59012517Y-112521875D01*
X58957578Y-112750708D01*
X58956035Y-112760455D01*
X58937570Y-112995070D01*
X58937570Y-113004930D01*
X57058500Y-113004930D01*
X57058500Y-111901866D01*
X57051745Y-111839684D01*
X57011200Y-111731530D01*
X59595733Y-111731530D01*
X59599516Y-111740306D01*
X60487188Y-112627978D01*
X60501132Y-112635592D01*
X60502965Y-112635461D01*
X60509580Y-112631210D01*
X61397440Y-111743350D01*
X61404200Y-111730970D01*
X61398473Y-111723320D01*
X61213728Y-111610107D01*
X61204933Y-111605625D01*
X60987510Y-111515566D01*
X60978125Y-111512517D01*
X60749292Y-111457578D01*
X60739545Y-111456035D01*
X60504930Y-111437570D01*
X60495070Y-111437570D01*
X60260455Y-111456035D01*
X60250708Y-111457578D01*
X60021875Y-111512517D01*
X60012490Y-111515566D01*
X59795067Y-111605625D01*
X59786272Y-111610107D01*
X59605195Y-111721072D01*
X59595733Y-111731530D01*
X57011200Y-111731530D01*
X57000615Y-111703295D01*
X56913261Y-111586739D01*
X56796705Y-111499385D01*
X56660316Y-111448255D01*
X56598134Y-111441500D01*
X54401866Y-111441500D01*
X54339684Y-111448255D01*
X54203295Y-111499385D01*
X54086739Y-111586739D01*
X53999385Y-111703295D01*
X53948255Y-111839684D01*
X53941500Y-111901866D01*
X53941500Y-114098134D01*
X47108048Y-114098134D01*
X47109235Y-113871583D01*
X47109235Y-113871576D01*
X47109257Y-113867297D01*
X47095992Y-113766535D01*
X47087881Y-113704933D01*
X47071732Y-113582266D01*
X46995871Y-113304964D01*
X46883077Y-113040524D01*
X46735439Y-112793839D01*
X46555687Y-112569472D01*
X46347149Y-112371577D01*
X46113683Y-112203814D01*
X46091843Y-112192250D01*
X45927424Y-112105195D01*
X45859608Y-112069288D01*
X45589627Y-111970489D01*
X45308736Y-111909245D01*
X45277685Y-111906801D01*
X45085718Y-111891693D01*
X45085709Y-111891693D01*
X45083261Y-111891500D01*
X44927729Y-111891500D01*
X44925593Y-111891646D01*
X44925582Y-111891646D01*
X44717452Y-111905835D01*
X44717446Y-111905836D01*
X44713175Y-111906127D01*
X44708980Y-111906996D01*
X44708978Y-111906996D01*
X44586862Y-111932285D01*
X44431658Y-111964426D01*
X44160657Y-112060393D01*
X43905188Y-112192250D01*
X43901687Y-112194711D01*
X43901683Y-112194713D01*
X43790768Y-112272666D01*
X43669977Y-112357559D01*
X43654892Y-112371577D01*
X43503252Y-112512490D01*
X43459378Y-112553260D01*
X43277287Y-112775732D01*
X43127073Y-113020858D01*
X43125347Y-113024791D01*
X43125346Y-113024792D01*
X43026763Y-113249370D01*
X43011517Y-113284102D01*
X42932756Y-113560594D01*
X42892249Y-113845216D01*
X42892227Y-113849505D01*
X42892226Y-113849512D01*
X42890869Y-114108641D01*
X42890743Y-114132703D01*
X39508000Y-114132703D01*
X39508000Y-99958134D01*
X44361500Y-99958134D01*
X44368255Y-100020316D01*
X44419385Y-100156705D01*
X44506739Y-100273261D01*
X44623295Y-100360615D01*
X44759684Y-100411745D01*
X44821866Y-100418500D01*
X46618134Y-100418500D01*
X46680316Y-100411745D01*
X46816705Y-100360615D01*
X46933261Y-100273261D01*
X47020615Y-100156705D01*
X47030174Y-100131206D01*
X47064598Y-100039382D01*
X47107240Y-99982618D01*
X47173802Y-99957918D01*
X47243150Y-99973126D01*
X47277817Y-100001114D01*
X47306250Y-100033938D01*
X47478126Y-100176632D01*
X47671000Y-100289338D01*
X47675825Y-100291180D01*
X47675826Y-100291181D01*
X47744097Y-100317251D01*
X47879692Y-100369030D01*
X47884760Y-100370061D01*
X47884763Y-100370062D01*
X47992017Y-100391883D01*
X48098597Y-100413567D01*
X48103772Y-100413757D01*
X48103774Y-100413757D01*
X48316673Y-100421564D01*
X48316677Y-100421564D01*
X48321837Y-100421753D01*
X48326957Y-100421097D01*
X48326959Y-100421097D01*
X48538288Y-100394025D01*
X48538289Y-100394025D01*
X48543416Y-100393368D01*
X48548366Y-100391883D01*
X48752429Y-100330661D01*
X48752434Y-100330659D01*
X48757384Y-100329174D01*
X48957994Y-100230896D01*
X49139860Y-100101173D01*
X49298096Y-99943489D01*
X49345673Y-99877279D01*
X49428453Y-99762077D01*
X49429776Y-99763028D01*
X49476645Y-99719857D01*
X49546580Y-99707625D01*
X49612026Y-99735144D01*
X49639875Y-99766994D01*
X49699987Y-99865088D01*
X49846250Y-100033938D01*
X50018126Y-100176632D01*
X50211000Y-100289338D01*
X50215825Y-100291180D01*
X50215826Y-100291181D01*
X50284097Y-100317251D01*
X50419692Y-100369030D01*
X50424760Y-100370061D01*
X50424763Y-100370062D01*
X50532017Y-100391883D01*
X50638597Y-100413567D01*
X50643772Y-100413757D01*
X50643774Y-100413757D01*
X50856673Y-100421564D01*
X50856677Y-100421564D01*
X50861837Y-100421753D01*
X50866957Y-100421097D01*
X50866959Y-100421097D01*
X51078288Y-100394025D01*
X51078289Y-100394025D01*
X51083416Y-100393368D01*
X51088366Y-100391883D01*
X51292429Y-100330661D01*
X51292434Y-100330659D01*
X51297384Y-100329174D01*
X51497994Y-100230896D01*
X51679860Y-100101173D01*
X51838096Y-99943489D01*
X51885673Y-99877279D01*
X51968453Y-99762077D01*
X51969776Y-99763028D01*
X52016645Y-99719857D01*
X52086580Y-99707625D01*
X52152026Y-99735144D01*
X52179875Y-99766994D01*
X52239987Y-99865088D01*
X52386250Y-100033938D01*
X52558126Y-100176632D01*
X52751000Y-100289338D01*
X52755825Y-100291180D01*
X52755826Y-100291181D01*
X52824097Y-100317251D01*
X52959692Y-100369030D01*
X52964760Y-100370061D01*
X52964763Y-100370062D01*
X53072017Y-100391883D01*
X53178597Y-100413567D01*
X53183772Y-100413757D01*
X53183774Y-100413757D01*
X53396673Y-100421564D01*
X53396677Y-100421564D01*
X53401837Y-100421753D01*
X53406957Y-100421097D01*
X53406959Y-100421097D01*
X53618288Y-100394025D01*
X53618289Y-100394025D01*
X53623416Y-100393368D01*
X53628366Y-100391883D01*
X53832429Y-100330661D01*
X53832434Y-100330659D01*
X53837384Y-100329174D01*
X54037994Y-100230896D01*
X54219860Y-100101173D01*
X54378096Y-99943489D01*
X54425673Y-99877279D01*
X54508453Y-99762077D01*
X54509776Y-99763028D01*
X54556645Y-99719857D01*
X54626580Y-99707625D01*
X54692026Y-99735144D01*
X54719875Y-99766994D01*
X54779987Y-99865088D01*
X54926250Y-100033938D01*
X55098126Y-100176632D01*
X55291000Y-100289338D01*
X55295825Y-100291180D01*
X55295826Y-100291181D01*
X55364097Y-100317251D01*
X55499692Y-100369030D01*
X55504760Y-100370061D01*
X55504763Y-100370062D01*
X55612017Y-100391883D01*
X55718597Y-100413567D01*
X55723772Y-100413757D01*
X55723774Y-100413757D01*
X55936673Y-100421564D01*
X55936677Y-100421564D01*
X55941837Y-100421753D01*
X55946957Y-100421097D01*
X55946959Y-100421097D01*
X56158288Y-100394025D01*
X56158289Y-100394025D01*
X56163416Y-100393368D01*
X56168366Y-100391883D01*
X56372429Y-100330661D01*
X56372434Y-100330659D01*
X56377384Y-100329174D01*
X56577994Y-100230896D01*
X56759860Y-100101173D01*
X56918096Y-99943489D01*
X56965673Y-99877279D01*
X57048453Y-99762077D01*
X57049776Y-99763028D01*
X57096645Y-99719857D01*
X57166580Y-99707625D01*
X57232026Y-99735144D01*
X57259875Y-99766994D01*
X57319987Y-99865088D01*
X57466250Y-100033938D01*
X57638126Y-100176632D01*
X57831000Y-100289338D01*
X57835825Y-100291180D01*
X57835826Y-100291181D01*
X57904097Y-100317251D01*
X58039692Y-100369030D01*
X58044760Y-100370061D01*
X58044763Y-100370062D01*
X58152017Y-100391883D01*
X58258597Y-100413567D01*
X58263772Y-100413757D01*
X58263774Y-100413757D01*
X58476673Y-100421564D01*
X58476677Y-100421564D01*
X58481837Y-100421753D01*
X58486957Y-100421097D01*
X58486959Y-100421097D01*
X58698288Y-100394025D01*
X58698289Y-100394025D01*
X58703416Y-100393368D01*
X58708366Y-100391883D01*
X58912429Y-100330661D01*
X58912434Y-100330659D01*
X58917384Y-100329174D01*
X59117994Y-100230896D01*
X59299860Y-100101173D01*
X59458096Y-99943489D01*
X59505673Y-99877279D01*
X59588453Y-99762077D01*
X59589776Y-99763028D01*
X59636645Y-99719857D01*
X59706580Y-99707625D01*
X59772026Y-99735144D01*
X59799875Y-99766994D01*
X59859987Y-99865088D01*
X60006250Y-100033938D01*
X60178126Y-100176632D01*
X60371000Y-100289338D01*
X60375825Y-100291180D01*
X60375826Y-100291181D01*
X60444097Y-100317251D01*
X60579692Y-100369030D01*
X60584760Y-100370061D01*
X60584763Y-100370062D01*
X60692017Y-100391883D01*
X60798597Y-100413567D01*
X60803772Y-100413757D01*
X60803774Y-100413757D01*
X61016673Y-100421564D01*
X61016677Y-100421564D01*
X61021837Y-100421753D01*
X61026957Y-100421097D01*
X61026959Y-100421097D01*
X61238288Y-100394025D01*
X61238289Y-100394025D01*
X61243416Y-100393368D01*
X61248366Y-100391883D01*
X61452429Y-100330661D01*
X61452434Y-100330659D01*
X61457384Y-100329174D01*
X61657994Y-100230896D01*
X61839860Y-100101173D01*
X61998096Y-99943489D01*
X62045673Y-99877279D01*
X62128453Y-99762077D01*
X62129776Y-99763028D01*
X62176645Y-99719857D01*
X62246580Y-99707625D01*
X62312026Y-99735144D01*
X62339875Y-99766994D01*
X62399987Y-99865088D01*
X62546250Y-100033938D01*
X62718126Y-100176632D01*
X62911000Y-100289338D01*
X62915825Y-100291180D01*
X62915826Y-100291181D01*
X62984097Y-100317251D01*
X63119692Y-100369030D01*
X63124760Y-100370061D01*
X63124763Y-100370062D01*
X63232017Y-100391883D01*
X63338597Y-100413567D01*
X63343772Y-100413757D01*
X63343774Y-100413757D01*
X63556673Y-100421564D01*
X63556677Y-100421564D01*
X63561837Y-100421753D01*
X63566957Y-100421097D01*
X63566959Y-100421097D01*
X63778288Y-100394025D01*
X63778289Y-100394025D01*
X63783416Y-100393368D01*
X63788366Y-100391883D01*
X63992429Y-100330661D01*
X63992434Y-100330659D01*
X63997384Y-100329174D01*
X64197994Y-100230896D01*
X64379860Y-100101173D01*
X64538096Y-99943489D01*
X64585673Y-99877279D01*
X64665435Y-99766277D01*
X64668453Y-99762077D01*
X64689320Y-99719857D01*
X64765136Y-99566453D01*
X64765137Y-99566451D01*
X64767430Y-99561811D01*
X64832370Y-99348069D01*
X64861529Y-99126590D01*
X64863156Y-99060000D01*
X64844852Y-98837361D01*
X64790431Y-98620702D01*
X64701354Y-98415840D01*
X64640086Y-98321134D01*
X64582822Y-98232617D01*
X64582820Y-98232614D01*
X64580014Y-98228277D01*
X64429670Y-98063051D01*
X64425619Y-98059852D01*
X64425615Y-98059848D01*
X64258414Y-97927800D01*
X64258410Y-97927798D01*
X64254359Y-97924598D01*
X64225198Y-97908500D01*
X64155755Y-97870166D01*
X64058789Y-97816638D01*
X64053920Y-97814914D01*
X64053916Y-97814912D01*
X63853087Y-97743795D01*
X63853083Y-97743794D01*
X63848212Y-97742069D01*
X63843119Y-97741162D01*
X63843116Y-97741161D01*
X63633373Y-97703800D01*
X63633367Y-97703799D01*
X63628284Y-97702894D01*
X63554452Y-97701992D01*
X63410081Y-97700228D01*
X63410079Y-97700228D01*
X63404911Y-97700165D01*
X63184091Y-97733955D01*
X62971756Y-97803357D01*
X62773607Y-97906507D01*
X62769474Y-97909610D01*
X62769471Y-97909612D01*
X62620526Y-98021443D01*
X62594965Y-98040635D01*
X62591393Y-98044373D01*
X62483729Y-98157037D01*
X62440629Y-98202138D01*
X62333201Y-98359621D01*
X62278293Y-98404621D01*
X62207768Y-98412792D01*
X62144021Y-98381538D01*
X62123324Y-98357054D01*
X62042822Y-98232617D01*
X62042820Y-98232614D01*
X62040014Y-98228277D01*
X61889670Y-98063051D01*
X61885619Y-98059852D01*
X61885615Y-98059848D01*
X61718414Y-97927800D01*
X61718410Y-97927798D01*
X61714359Y-97924598D01*
X61685198Y-97908500D01*
X61615755Y-97870166D01*
X61518789Y-97816638D01*
X61513920Y-97814914D01*
X61513916Y-97814912D01*
X61313087Y-97743795D01*
X61313083Y-97743794D01*
X61308212Y-97742069D01*
X61303119Y-97741162D01*
X61303116Y-97741161D01*
X61093373Y-97703800D01*
X61093367Y-97703799D01*
X61088284Y-97702894D01*
X61014452Y-97701992D01*
X60870081Y-97700228D01*
X60870079Y-97700228D01*
X60864911Y-97700165D01*
X60644091Y-97733955D01*
X60431756Y-97803357D01*
X60233607Y-97906507D01*
X60229474Y-97909610D01*
X60229471Y-97909612D01*
X60080526Y-98021443D01*
X60054965Y-98040635D01*
X60051393Y-98044373D01*
X59943729Y-98157037D01*
X59900629Y-98202138D01*
X59793201Y-98359621D01*
X59738293Y-98404621D01*
X59667768Y-98412792D01*
X59604021Y-98381538D01*
X59583324Y-98357054D01*
X59502822Y-98232617D01*
X59502820Y-98232614D01*
X59500014Y-98228277D01*
X59349670Y-98063051D01*
X59345619Y-98059852D01*
X59345615Y-98059848D01*
X59178414Y-97927800D01*
X59178410Y-97927798D01*
X59174359Y-97924598D01*
X59145198Y-97908500D01*
X59075755Y-97870166D01*
X58978789Y-97816638D01*
X58973920Y-97814914D01*
X58973916Y-97814912D01*
X58773087Y-97743795D01*
X58773083Y-97743794D01*
X58768212Y-97742069D01*
X58763119Y-97741162D01*
X58763116Y-97741161D01*
X58553373Y-97703800D01*
X58553367Y-97703799D01*
X58548284Y-97702894D01*
X58474452Y-97701992D01*
X58330081Y-97700228D01*
X58330079Y-97700228D01*
X58324911Y-97700165D01*
X58104091Y-97733955D01*
X57891756Y-97803357D01*
X57693607Y-97906507D01*
X57689474Y-97909610D01*
X57689471Y-97909612D01*
X57540526Y-98021443D01*
X57514965Y-98040635D01*
X57511393Y-98044373D01*
X57403729Y-98157037D01*
X57360629Y-98202138D01*
X57253201Y-98359621D01*
X57198293Y-98404621D01*
X57127768Y-98412792D01*
X57064021Y-98381538D01*
X57043324Y-98357054D01*
X56962822Y-98232617D01*
X56962820Y-98232614D01*
X56960014Y-98228277D01*
X56809670Y-98063051D01*
X56805619Y-98059852D01*
X56805615Y-98059848D01*
X56638414Y-97927800D01*
X56638410Y-97927798D01*
X56634359Y-97924598D01*
X56605198Y-97908500D01*
X56535755Y-97870166D01*
X56438789Y-97816638D01*
X56433920Y-97814914D01*
X56433916Y-97814912D01*
X56233087Y-97743795D01*
X56233083Y-97743794D01*
X56228212Y-97742069D01*
X56223119Y-97741162D01*
X56223116Y-97741161D01*
X56013373Y-97703800D01*
X56013367Y-97703799D01*
X56008284Y-97702894D01*
X55934452Y-97701992D01*
X55790081Y-97700228D01*
X55790079Y-97700228D01*
X55784911Y-97700165D01*
X55564091Y-97733955D01*
X55351756Y-97803357D01*
X55153607Y-97906507D01*
X55149474Y-97909610D01*
X55149471Y-97909612D01*
X55000526Y-98021443D01*
X54974965Y-98040635D01*
X54971393Y-98044373D01*
X54863729Y-98157037D01*
X54820629Y-98202138D01*
X54713201Y-98359621D01*
X54658293Y-98404621D01*
X54587768Y-98412792D01*
X54524021Y-98381538D01*
X54503324Y-98357054D01*
X54422822Y-98232617D01*
X54422820Y-98232614D01*
X54420014Y-98228277D01*
X54269670Y-98063051D01*
X54265619Y-98059852D01*
X54265615Y-98059848D01*
X54098414Y-97927800D01*
X54098410Y-97927798D01*
X54094359Y-97924598D01*
X54065198Y-97908500D01*
X53995755Y-97870166D01*
X53898789Y-97816638D01*
X53893920Y-97814914D01*
X53893916Y-97814912D01*
X53693087Y-97743795D01*
X53693083Y-97743794D01*
X53688212Y-97742069D01*
X53683119Y-97741162D01*
X53683116Y-97741161D01*
X53473373Y-97703800D01*
X53473367Y-97703799D01*
X53468284Y-97702894D01*
X53394452Y-97701992D01*
X53250081Y-97700228D01*
X53250079Y-97700228D01*
X53244911Y-97700165D01*
X53024091Y-97733955D01*
X52811756Y-97803357D01*
X52613607Y-97906507D01*
X52609474Y-97909610D01*
X52609471Y-97909612D01*
X52460526Y-98021443D01*
X52434965Y-98040635D01*
X52431393Y-98044373D01*
X52323729Y-98157037D01*
X52280629Y-98202138D01*
X52173201Y-98359621D01*
X52118293Y-98404621D01*
X52047768Y-98412792D01*
X51984021Y-98381538D01*
X51963324Y-98357054D01*
X51882822Y-98232617D01*
X51882820Y-98232614D01*
X51880014Y-98228277D01*
X51729670Y-98063051D01*
X51725619Y-98059852D01*
X51725615Y-98059848D01*
X51556408Y-97926216D01*
X51515345Y-97868298D01*
X51508500Y-97827334D01*
X51508500Y-92045660D01*
X51528502Y-91977539D01*
X51545405Y-91956565D01*
X52756565Y-90745405D01*
X52818877Y-90711379D01*
X52845660Y-90708500D01*
X59971088Y-90708500D01*
X59979658Y-90708792D01*
X60029776Y-90712209D01*
X60029780Y-90712209D01*
X60037352Y-90712725D01*
X60044829Y-90711420D01*
X60044830Y-90711420D01*
X60074756Y-90706197D01*
X60100303Y-90701738D01*
X60106821Y-90700777D01*
X60170242Y-90693102D01*
X60177343Y-90690419D01*
X60179952Y-90689778D01*
X60196262Y-90685315D01*
X60198798Y-90684550D01*
X60206284Y-90683243D01*
X60264800Y-90657556D01*
X60270904Y-90655065D01*
X60323548Y-90635173D01*
X60323549Y-90635172D01*
X60330656Y-90632487D01*
X60336919Y-90628183D01*
X60339285Y-90626946D01*
X60354097Y-90618701D01*
X60356351Y-90617368D01*
X60363305Y-90614315D01*
X60414002Y-90575413D01*
X60419332Y-90571541D01*
X60465720Y-90539661D01*
X60465725Y-90539656D01*
X60471981Y-90535357D01*
X60513436Y-90488829D01*
X60518416Y-90483554D01*
X60910904Y-90091066D01*
X60973216Y-90057040D01*
X61044031Y-90062105D01*
X61089094Y-90091066D01*
X61478564Y-90480536D01*
X61484418Y-90486801D01*
X61522439Y-90530385D01*
X61574729Y-90567136D01*
X61579971Y-90571028D01*
X61630282Y-90610476D01*
X61637201Y-90613600D01*
X61639493Y-90614988D01*
X61654165Y-90623357D01*
X61656525Y-90624622D01*
X61662739Y-90628990D01*
X61669818Y-90631750D01*
X61669820Y-90631751D01*
X61722275Y-90652202D01*
X61728344Y-90654753D01*
X61786573Y-90681045D01*
X61794046Y-90682430D01*
X61796612Y-90683234D01*
X61812835Y-90687855D01*
X61815427Y-90688520D01*
X61822509Y-90691282D01*
X61830044Y-90692274D01*
X61885861Y-90699622D01*
X61892377Y-90700654D01*
X61930770Y-90707770D01*
X61955186Y-90712295D01*
X61962766Y-90711858D01*
X61962767Y-90711858D01*
X62017380Y-90708709D01*
X62024633Y-90708500D01*
X71171590Y-90708500D01*
X71239711Y-90728502D01*
X71279023Y-90768665D01*
X71319501Y-90834719D01*
X71471147Y-91009784D01*
X71649349Y-91157730D01*
X71849322Y-91274584D01*
X71854147Y-91276426D01*
X71854148Y-91276427D01*
X71925815Y-91303794D01*
X72065694Y-91357209D01*
X72070760Y-91358240D01*
X72070761Y-91358240D01*
X72123846Y-91369040D01*
X72292656Y-91403385D01*
X72422089Y-91408131D01*
X72518949Y-91411683D01*
X72518953Y-91411683D01*
X72524113Y-91411872D01*
X72529233Y-91411216D01*
X72529235Y-91411216D01*
X72603166Y-91401745D01*
X72753847Y-91382442D01*
X72758795Y-91380957D01*
X72758802Y-91380956D01*
X72970747Y-91317369D01*
X72975690Y-91315886D01*
X73048914Y-91280014D01*
X73179049Y-91216262D01*
X73179052Y-91216260D01*
X73183684Y-91213991D01*
X73372243Y-91079494D01*
X73417309Y-91034585D01*
X73479681Y-91000669D01*
X73550487Y-91005857D01*
X73607249Y-91048503D01*
X73624231Y-91079607D01*
X73649385Y-91146705D01*
X73736739Y-91263261D01*
X73853295Y-91350615D01*
X73989684Y-91401745D01*
X74051866Y-91408500D01*
X75948134Y-91408500D01*
X76010316Y-91401745D01*
X76146705Y-91350615D01*
X76263261Y-91263261D01*
X76350615Y-91146705D01*
X76401745Y-91010316D01*
X76408500Y-90948134D01*
X76408500Y-89051866D01*
X76401745Y-88989684D01*
X76350615Y-88853295D01*
X76263261Y-88736739D01*
X76146705Y-88649385D01*
X76010316Y-88598255D01*
X75948134Y-88591500D01*
X74051866Y-88591500D01*
X73989684Y-88598255D01*
X73853295Y-88649385D01*
X73736739Y-88736739D01*
X73649385Y-88853295D01*
X73646233Y-88861703D01*
X73646232Y-88861705D01*
X73625538Y-88916906D01*
X73582897Y-88973671D01*
X73516335Y-88998371D01*
X73446986Y-88983164D01*
X73424167Y-88966666D01*
X73423887Y-88966358D01*
X73291373Y-88861705D01*
X73246177Y-88826011D01*
X73246172Y-88826008D01*
X73242123Y-88822810D01*
X73237607Y-88820317D01*
X73237604Y-88820315D01*
X73043879Y-88713373D01*
X73043875Y-88713371D01*
X73039355Y-88710876D01*
X73034486Y-88709152D01*
X73034482Y-88709150D01*
X72825903Y-88635288D01*
X72825899Y-88635287D01*
X72821028Y-88633562D01*
X72815935Y-88632655D01*
X72815932Y-88632654D01*
X72598095Y-88593851D01*
X72598089Y-88593850D01*
X72593006Y-88592945D01*
X72520096Y-88592054D01*
X72366581Y-88590179D01*
X72366579Y-88590179D01*
X72361411Y-88590116D01*
X72132464Y-88625150D01*
X71912314Y-88697106D01*
X71907726Y-88699494D01*
X71907722Y-88699496D01*
X71746477Y-88783435D01*
X71706872Y-88804052D01*
X71702739Y-88807155D01*
X71702736Y-88807157D01*
X71525790Y-88940012D01*
X71521655Y-88943117D01*
X71361639Y-89110564D01*
X71275727Y-89236506D01*
X71220818Y-89281507D01*
X71171641Y-89291500D01*
X62345660Y-89291500D01*
X62277539Y-89271498D01*
X62256565Y-89254595D01*
X61705405Y-88703435D01*
X61671379Y-88641123D01*
X61668500Y-88614340D01*
X61668500Y-87588297D01*
X61688502Y-87520176D01*
X61721332Y-87485718D01*
X61835656Y-87404172D01*
X61835659Y-87404170D01*
X61839860Y-87401173D01*
X61872353Y-87368794D01*
X61984152Y-87257384D01*
X61998096Y-87243489D01*
X62040311Y-87184741D01*
X62128453Y-87062077D01*
X62129640Y-87062930D01*
X62176960Y-87019362D01*
X62246897Y-87007145D01*
X62312338Y-87034678D01*
X62340166Y-87066511D01*
X62397694Y-87160388D01*
X62403777Y-87168699D01*
X62543213Y-87329667D01*
X62550580Y-87336883D01*
X62714434Y-87472916D01*
X62722881Y-87478831D01*
X62906756Y-87586279D01*
X62916042Y-87590729D01*
X63115001Y-87666703D01*
X63124899Y-87669579D01*
X63228250Y-87690606D01*
X63242299Y-87689410D01*
X63246000Y-87679065D01*
X63246000Y-87678517D01*
X63754000Y-87678517D01*
X63758064Y-87692359D01*
X63771478Y-87694393D01*
X63778184Y-87693534D01*
X63788262Y-87691392D01*
X63992255Y-87630191D01*
X64001842Y-87626433D01*
X64193095Y-87532739D01*
X64201945Y-87527464D01*
X64375328Y-87403792D01*
X64383200Y-87397139D01*
X64534052Y-87246812D01*
X64540730Y-87238965D01*
X64665003Y-87066020D01*
X64670313Y-87057183D01*
X64764670Y-86866267D01*
X64768469Y-86856672D01*
X64830377Y-86652910D01*
X64832555Y-86642837D01*
X64833986Y-86631962D01*
X64831775Y-86617778D01*
X64818617Y-86614000D01*
X63772115Y-86614000D01*
X63756876Y-86618475D01*
X63755671Y-86619865D01*
X63754000Y-86627548D01*
X63754000Y-87678517D01*
X63246000Y-87678517D01*
X63246000Y-86087885D01*
X63754000Y-86087885D01*
X63758475Y-86103124D01*
X63759865Y-86104329D01*
X63767548Y-86106000D01*
X64818344Y-86106000D01*
X64831875Y-86102027D01*
X64833180Y-86092947D01*
X64791214Y-85925875D01*
X64787894Y-85916124D01*
X64702972Y-85720814D01*
X64698105Y-85711739D01*
X64582426Y-85532926D01*
X64576136Y-85524757D01*
X64432806Y-85367240D01*
X64425273Y-85360215D01*
X64258139Y-85228222D01*
X64249552Y-85222517D01*
X64063117Y-85119599D01*
X64053705Y-85115369D01*
X63852959Y-85044280D01*
X63842988Y-85041646D01*
X63771837Y-85028972D01*
X63758540Y-85030432D01*
X63754000Y-85044989D01*
X63754000Y-86087885D01*
X63246000Y-86087885D01*
X63246000Y-85043102D01*
X63242082Y-85029758D01*
X63227806Y-85027771D01*
X63189324Y-85033660D01*
X63179288Y-85036051D01*
X62976868Y-85102212D01*
X62967359Y-85106209D01*
X62778463Y-85204542D01*
X62769738Y-85210036D01*
X62599433Y-85337905D01*
X62591726Y-85344748D01*
X62444590Y-85498717D01*
X62438109Y-85506722D01*
X62333498Y-85660074D01*
X62278587Y-85705076D01*
X62208062Y-85713247D01*
X62144315Y-85681993D01*
X62123618Y-85657509D01*
X62042822Y-85532617D01*
X62042820Y-85532614D01*
X62040014Y-85528277D01*
X61889670Y-85363051D01*
X61885619Y-85359852D01*
X61885615Y-85359848D01*
X61718414Y-85227800D01*
X61718410Y-85227798D01*
X61714359Y-85224598D01*
X61678028Y-85204542D01*
X61639665Y-85183365D01*
X61518789Y-85116638D01*
X61513920Y-85114914D01*
X61513916Y-85114912D01*
X61313087Y-85043795D01*
X61313083Y-85043794D01*
X61308212Y-85042069D01*
X61303119Y-85041162D01*
X61303116Y-85041161D01*
X61093373Y-85003800D01*
X61093367Y-85003799D01*
X61088284Y-85002894D01*
X61014452Y-85001992D01*
X60870081Y-85000228D01*
X60870079Y-85000228D01*
X60864911Y-85000165D01*
X60644091Y-85033955D01*
X60431756Y-85103357D01*
X60233607Y-85206507D01*
X60229474Y-85209610D01*
X60229471Y-85209612D01*
X60059100Y-85337530D01*
X60054965Y-85340635D01*
X59900629Y-85502138D01*
X59793201Y-85659621D01*
X59738293Y-85704621D01*
X59667768Y-85712792D01*
X59604021Y-85681538D01*
X59583324Y-85657054D01*
X59502822Y-85532617D01*
X59502820Y-85532614D01*
X59500014Y-85528277D01*
X59349670Y-85363051D01*
X59345619Y-85359852D01*
X59345615Y-85359848D01*
X59178414Y-85227800D01*
X59178410Y-85227798D01*
X59174359Y-85224598D01*
X59138028Y-85204542D01*
X59099665Y-85183365D01*
X58978789Y-85116638D01*
X58973920Y-85114914D01*
X58973916Y-85114912D01*
X58773087Y-85043795D01*
X58773083Y-85043794D01*
X58768212Y-85042069D01*
X58763119Y-85041162D01*
X58763116Y-85041161D01*
X58553373Y-85003800D01*
X58553367Y-85003799D01*
X58548284Y-85002894D01*
X58474452Y-85001992D01*
X58330081Y-85000228D01*
X58330079Y-85000228D01*
X58324911Y-85000165D01*
X58104091Y-85033955D01*
X57891756Y-85103357D01*
X57693607Y-85206507D01*
X57689474Y-85209610D01*
X57689471Y-85209612D01*
X57519100Y-85337530D01*
X57514965Y-85340635D01*
X57360629Y-85502138D01*
X57253201Y-85659621D01*
X57198293Y-85704621D01*
X57127768Y-85712792D01*
X57064021Y-85681538D01*
X57043324Y-85657054D01*
X56962822Y-85532617D01*
X56962820Y-85532614D01*
X56960014Y-85528277D01*
X56809670Y-85363051D01*
X56805619Y-85359852D01*
X56805615Y-85359848D01*
X56638414Y-85227800D01*
X56638410Y-85227798D01*
X56634359Y-85224598D01*
X56598028Y-85204542D01*
X56559665Y-85183365D01*
X56438789Y-85116638D01*
X56433920Y-85114914D01*
X56433916Y-85114912D01*
X56233087Y-85043795D01*
X56233083Y-85043794D01*
X56228212Y-85042069D01*
X56223119Y-85041162D01*
X56223116Y-85041161D01*
X56013373Y-85003800D01*
X56013367Y-85003799D01*
X56008284Y-85002894D01*
X55934452Y-85001992D01*
X55790081Y-85000228D01*
X55790079Y-85000228D01*
X55784911Y-85000165D01*
X55564091Y-85033955D01*
X55351756Y-85103357D01*
X55153607Y-85206507D01*
X55149474Y-85209610D01*
X55149471Y-85209612D01*
X54979100Y-85337530D01*
X54974965Y-85340635D01*
X54820629Y-85502138D01*
X54713201Y-85659621D01*
X54658293Y-85704621D01*
X54587768Y-85712792D01*
X54524021Y-85681538D01*
X54503324Y-85657054D01*
X54422822Y-85532617D01*
X54422820Y-85532614D01*
X54420014Y-85528277D01*
X54269670Y-85363051D01*
X54265619Y-85359852D01*
X54265615Y-85359848D01*
X54098414Y-85227800D01*
X54098410Y-85227798D01*
X54094359Y-85224598D01*
X54058028Y-85204542D01*
X54019665Y-85183365D01*
X53898789Y-85116638D01*
X53893920Y-85114914D01*
X53893916Y-85114912D01*
X53693087Y-85043795D01*
X53693083Y-85043794D01*
X53688212Y-85042069D01*
X53683119Y-85041162D01*
X53683116Y-85041161D01*
X53473373Y-85003800D01*
X53473367Y-85003799D01*
X53468284Y-85002894D01*
X53394452Y-85001992D01*
X53250081Y-85000228D01*
X53250079Y-85000228D01*
X53244911Y-85000165D01*
X53024091Y-85033955D01*
X52811756Y-85103357D01*
X52613607Y-85206507D01*
X52609474Y-85209610D01*
X52609471Y-85209612D01*
X52439100Y-85337530D01*
X52434965Y-85340635D01*
X52280629Y-85502138D01*
X52173201Y-85659621D01*
X52118293Y-85704621D01*
X52047768Y-85712792D01*
X51984021Y-85681538D01*
X51963324Y-85657054D01*
X51882822Y-85532617D01*
X51882820Y-85532614D01*
X51880014Y-85528277D01*
X51729670Y-85363051D01*
X51725619Y-85359852D01*
X51725615Y-85359848D01*
X51558414Y-85227800D01*
X51558410Y-85227798D01*
X51554359Y-85224598D01*
X51518028Y-85204542D01*
X51479665Y-85183365D01*
X51358789Y-85116638D01*
X51353920Y-85114914D01*
X51353916Y-85114912D01*
X51153087Y-85043795D01*
X51153083Y-85043794D01*
X51148212Y-85042069D01*
X51143119Y-85041162D01*
X51143116Y-85041161D01*
X50933373Y-85003800D01*
X50933367Y-85003799D01*
X50928284Y-85002894D01*
X50854452Y-85001992D01*
X50710081Y-85000228D01*
X50710079Y-85000228D01*
X50704911Y-85000165D01*
X50484091Y-85033955D01*
X50271756Y-85103357D01*
X50073607Y-85206507D01*
X50069474Y-85209610D01*
X50069471Y-85209612D01*
X49899100Y-85337530D01*
X49894965Y-85340635D01*
X49740629Y-85502138D01*
X49737720Y-85506403D01*
X49737714Y-85506411D01*
X49719838Y-85532617D01*
X49633204Y-85659618D01*
X49632898Y-85660066D01*
X49577987Y-85705069D01*
X49507462Y-85713240D01*
X49443715Y-85681986D01*
X49423018Y-85657502D01*
X49342426Y-85532926D01*
X49336136Y-85524757D01*
X49192806Y-85367240D01*
X49185273Y-85360215D01*
X49018139Y-85228222D01*
X49009552Y-85222517D01*
X48823117Y-85119599D01*
X48813705Y-85115369D01*
X48612959Y-85044280D01*
X48602988Y-85041646D01*
X48531837Y-85028972D01*
X48518540Y-85030432D01*
X48514000Y-85044989D01*
X48514000Y-87678517D01*
X48518064Y-87692359D01*
X48531478Y-87694393D01*
X48538184Y-87693534D01*
X48548262Y-87691392D01*
X48752255Y-87630191D01*
X48761842Y-87626433D01*
X48953095Y-87532739D01*
X48961945Y-87527464D01*
X49135328Y-87403792D01*
X49143200Y-87397139D01*
X49294052Y-87246812D01*
X49300730Y-87238965D01*
X49428022Y-87061819D01*
X49429279Y-87062722D01*
X49476373Y-87019362D01*
X49546311Y-87007145D01*
X49611751Y-87034678D01*
X49639579Y-87066511D01*
X49699987Y-87165088D01*
X49846250Y-87333938D01*
X50018126Y-87476632D01*
X50211000Y-87589338D01*
X50215825Y-87591180D01*
X50215826Y-87591181D01*
X50288612Y-87618975D01*
X50419692Y-87669030D01*
X50424760Y-87670061D01*
X50424763Y-87670062D01*
X50519862Y-87689410D01*
X50638597Y-87713567D01*
X50643772Y-87713757D01*
X50643774Y-87713757D01*
X50856673Y-87721564D01*
X50856677Y-87721564D01*
X50861837Y-87721753D01*
X50866957Y-87721097D01*
X50866959Y-87721097D01*
X51078288Y-87694025D01*
X51078289Y-87694025D01*
X51083416Y-87693368D01*
X51088366Y-87691883D01*
X51292429Y-87630661D01*
X51292434Y-87630659D01*
X51297384Y-87629174D01*
X51497994Y-87530896D01*
X51679860Y-87401173D01*
X51712353Y-87368794D01*
X51824152Y-87257384D01*
X51838096Y-87243489D01*
X51880311Y-87184741D01*
X51968453Y-87062077D01*
X51969776Y-87063028D01*
X52016645Y-87019857D01*
X52086580Y-87007625D01*
X52152026Y-87035144D01*
X52179875Y-87066994D01*
X52239987Y-87165088D01*
X52386250Y-87333938D01*
X52558126Y-87476632D01*
X52751000Y-87589338D01*
X52755825Y-87591180D01*
X52755826Y-87591181D01*
X52828612Y-87618975D01*
X52959692Y-87669030D01*
X52964760Y-87670061D01*
X52964763Y-87670062D01*
X53059862Y-87689410D01*
X53178597Y-87713567D01*
X53183772Y-87713757D01*
X53183774Y-87713757D01*
X53396673Y-87721564D01*
X53396677Y-87721564D01*
X53401837Y-87721753D01*
X53406957Y-87721097D01*
X53406959Y-87721097D01*
X53618288Y-87694025D01*
X53618289Y-87694025D01*
X53623416Y-87693368D01*
X53628366Y-87691883D01*
X53832429Y-87630661D01*
X53832434Y-87630659D01*
X53837384Y-87629174D01*
X54037994Y-87530896D01*
X54219860Y-87401173D01*
X54252353Y-87368794D01*
X54364152Y-87257384D01*
X54378096Y-87243489D01*
X54420311Y-87184741D01*
X54508453Y-87062077D01*
X54509776Y-87063028D01*
X54556645Y-87019857D01*
X54626580Y-87007625D01*
X54692026Y-87035144D01*
X54719875Y-87066994D01*
X54779987Y-87165088D01*
X54926250Y-87333938D01*
X55098126Y-87476632D01*
X55291000Y-87589338D01*
X55295825Y-87591180D01*
X55295826Y-87591181D01*
X55368612Y-87618975D01*
X55499692Y-87669030D01*
X55504760Y-87670061D01*
X55504763Y-87670062D01*
X55599862Y-87689410D01*
X55718597Y-87713567D01*
X55723772Y-87713757D01*
X55723774Y-87713757D01*
X55936673Y-87721564D01*
X55936677Y-87721564D01*
X55941837Y-87721753D01*
X55946957Y-87721097D01*
X55946959Y-87721097D01*
X56158288Y-87694025D01*
X56158289Y-87694025D01*
X56163416Y-87693368D01*
X56168366Y-87691883D01*
X56372429Y-87630661D01*
X56372434Y-87630659D01*
X56377384Y-87629174D01*
X56577994Y-87530896D01*
X56759860Y-87401173D01*
X56792353Y-87368794D01*
X56904152Y-87257384D01*
X56918096Y-87243489D01*
X56960311Y-87184741D01*
X57048453Y-87062077D01*
X57049776Y-87063028D01*
X57096645Y-87019857D01*
X57166580Y-87007625D01*
X57232026Y-87035144D01*
X57259875Y-87066994D01*
X57319987Y-87165088D01*
X57466250Y-87333938D01*
X57638126Y-87476632D01*
X57831000Y-87589338D01*
X57835825Y-87591180D01*
X57835826Y-87591181D01*
X57908612Y-87618975D01*
X58039692Y-87669030D01*
X58044760Y-87670061D01*
X58044763Y-87670062D01*
X58139862Y-87689410D01*
X58258597Y-87713567D01*
X58263772Y-87713757D01*
X58263774Y-87713757D01*
X58476673Y-87721564D01*
X58476677Y-87721564D01*
X58481837Y-87721753D01*
X58486957Y-87721097D01*
X58486959Y-87721097D01*
X58698288Y-87694025D01*
X58698289Y-87694025D01*
X58703416Y-87693368D01*
X58708366Y-87691883D01*
X58912429Y-87630661D01*
X58912434Y-87630659D01*
X58917384Y-87629174D01*
X59117994Y-87530896D01*
X59299860Y-87401173D01*
X59332353Y-87368794D01*
X59444152Y-87257384D01*
X59458096Y-87243489D01*
X59500311Y-87184741D01*
X59588453Y-87062077D01*
X59589776Y-87063028D01*
X59636645Y-87019857D01*
X59706580Y-87007625D01*
X59772026Y-87035144D01*
X59799875Y-87066994D01*
X59859987Y-87165088D01*
X60006250Y-87333938D01*
X60178126Y-87476632D01*
X60189070Y-87483027D01*
X60237793Y-87534664D01*
X60251500Y-87591815D01*
X60251500Y-88694340D01*
X60231498Y-88762461D01*
X60214595Y-88783435D01*
X59743435Y-89254595D01*
X59681123Y-89288621D01*
X59654340Y-89291500D01*
X52528912Y-89291500D01*
X52520342Y-89291208D01*
X52470224Y-89287791D01*
X52470220Y-89287791D01*
X52462648Y-89287275D01*
X52455171Y-89288580D01*
X52455170Y-89288580D01*
X52428692Y-89293201D01*
X52399697Y-89298262D01*
X52393179Y-89299223D01*
X52329758Y-89306898D01*
X52322657Y-89309581D01*
X52320048Y-89310222D01*
X52303738Y-89314685D01*
X52301202Y-89315450D01*
X52293716Y-89316757D01*
X52286759Y-89319811D01*
X52235205Y-89342442D01*
X52229101Y-89344933D01*
X52169344Y-89367513D01*
X52163081Y-89371817D01*
X52160715Y-89373054D01*
X52145903Y-89381299D01*
X52143649Y-89382632D01*
X52136695Y-89385685D01*
X52085998Y-89424587D01*
X52080668Y-89428459D01*
X52034280Y-89460339D01*
X52034275Y-89460344D01*
X52028019Y-89464643D01*
X52022968Y-89470313D01*
X52022966Y-89470314D01*
X51986565Y-89511170D01*
X51981584Y-89516446D01*
X50319480Y-91178550D01*
X50313215Y-91184404D01*
X50269615Y-91222439D01*
X50265248Y-91228653D01*
X50232872Y-91274719D01*
X50228939Y-91280014D01*
X50189524Y-91330282D01*
X50186401Y-91337198D01*
X50185017Y-91339484D01*
X50176643Y-91354165D01*
X50175378Y-91356525D01*
X50171010Y-91362739D01*
X50168250Y-91369818D01*
X50168249Y-91369820D01*
X50147798Y-91422275D01*
X50145247Y-91428344D01*
X50118955Y-91486573D01*
X50117571Y-91494040D01*
X50116770Y-91496595D01*
X50112141Y-91512848D01*
X50111478Y-91515428D01*
X50108718Y-91522509D01*
X50107727Y-91530040D01*
X50107726Y-91530042D01*
X50100379Y-91585852D01*
X50099348Y-91592359D01*
X50087704Y-91655186D01*
X50088141Y-91662766D01*
X50088141Y-91662767D01*
X50091291Y-91717392D01*
X50091500Y-91724646D01*
X50091500Y-97830114D01*
X50071498Y-97898235D01*
X50041153Y-97930874D01*
X49951156Y-97998446D01*
X49894965Y-98040635D01*
X49891393Y-98044373D01*
X49783729Y-98157037D01*
X49740629Y-98202138D01*
X49633201Y-98359621D01*
X49578293Y-98404621D01*
X49507768Y-98412792D01*
X49444021Y-98381538D01*
X49423324Y-98357054D01*
X49342822Y-98232617D01*
X49342820Y-98232614D01*
X49340014Y-98228277D01*
X49189670Y-98063051D01*
X49185619Y-98059852D01*
X49185615Y-98059848D01*
X49018414Y-97927800D01*
X49018410Y-97927798D01*
X49014359Y-97924598D01*
X48985198Y-97908500D01*
X48915755Y-97870166D01*
X48818789Y-97816638D01*
X48813920Y-97814914D01*
X48813916Y-97814912D01*
X48613087Y-97743795D01*
X48613083Y-97743794D01*
X48608212Y-97742069D01*
X48603119Y-97741162D01*
X48603116Y-97741161D01*
X48393373Y-97703800D01*
X48393367Y-97703799D01*
X48388284Y-97702894D01*
X48314452Y-97701992D01*
X48170081Y-97700228D01*
X48170079Y-97700228D01*
X48164911Y-97700165D01*
X47944091Y-97733955D01*
X47731756Y-97803357D01*
X47533607Y-97906507D01*
X47529474Y-97909610D01*
X47529471Y-97909612D01*
X47380526Y-98021443D01*
X47354965Y-98040635D01*
X47298537Y-98099684D01*
X47274283Y-98125064D01*
X47212759Y-98160494D01*
X47141846Y-98157037D01*
X47084060Y-98115791D01*
X47065207Y-98082243D01*
X47023767Y-97971703D01*
X47020615Y-97963295D01*
X46933261Y-97846739D01*
X46816705Y-97759385D01*
X46680316Y-97708255D01*
X46618134Y-97701500D01*
X44821866Y-97701500D01*
X44759684Y-97708255D01*
X44623295Y-97759385D01*
X44506739Y-97846739D01*
X44419385Y-97963295D01*
X44368255Y-98099684D01*
X44361500Y-98161866D01*
X44361500Y-99958134D01*
X39508000Y-99958134D01*
X39508000Y-87258134D01*
X44361500Y-87258134D01*
X44368255Y-87320316D01*
X44419385Y-87456705D01*
X44506739Y-87573261D01*
X44623295Y-87660615D01*
X44759684Y-87711745D01*
X44821866Y-87718500D01*
X46618134Y-87718500D01*
X46680316Y-87711745D01*
X46816705Y-87660615D01*
X46933261Y-87573261D01*
X47020615Y-87456705D01*
X47053057Y-87370166D01*
X47064798Y-87338848D01*
X47107440Y-87282084D01*
X47174001Y-87257384D01*
X47243350Y-87272592D01*
X47278017Y-87300580D01*
X47303218Y-87329673D01*
X47310580Y-87336883D01*
X47474434Y-87472916D01*
X47482881Y-87478831D01*
X47666756Y-87586279D01*
X47676042Y-87590729D01*
X47875001Y-87666703D01*
X47884899Y-87669579D01*
X47988250Y-87690606D01*
X48002299Y-87689410D01*
X48006000Y-87679065D01*
X48006000Y-85043102D01*
X48002082Y-85029758D01*
X47987806Y-85027771D01*
X47949324Y-85033660D01*
X47939288Y-85036051D01*
X47736868Y-85102212D01*
X47727359Y-85106209D01*
X47538463Y-85204542D01*
X47529738Y-85210036D01*
X47359433Y-85337905D01*
X47351726Y-85344748D01*
X47274478Y-85425584D01*
X47212954Y-85461014D01*
X47142042Y-85457557D01*
X47084255Y-85416311D01*
X47065402Y-85382763D01*
X47023767Y-85271703D01*
X47020615Y-85263295D01*
X46933261Y-85146739D01*
X46816705Y-85059385D01*
X46680316Y-85008255D01*
X46618134Y-85001500D01*
X44821866Y-85001500D01*
X44759684Y-85008255D01*
X44623295Y-85059385D01*
X44506739Y-85146739D01*
X44419385Y-85263295D01*
X44368255Y-85399684D01*
X44361500Y-85461866D01*
X44361500Y-87258134D01*
X39508000Y-87258134D01*
X39508000Y-72001695D01*
X71884751Y-72001695D01*
X71885048Y-72006848D01*
X71885048Y-72006851D01*
X71888281Y-72062916D01*
X71897610Y-72224715D01*
X71898747Y-72229761D01*
X71898748Y-72229767D01*
X71919775Y-72323069D01*
X71946722Y-72442639D01*
X72030766Y-72649616D01*
X72147487Y-72840088D01*
X72293750Y-73008938D01*
X72437076Y-73127929D01*
X72451076Y-73139552D01*
X72465626Y-73151632D01*
X72658500Y-73264338D01*
X72663325Y-73266180D01*
X72663326Y-73266181D01*
X72725749Y-73290018D01*
X72867192Y-73344030D01*
X72872260Y-73345061D01*
X72872263Y-73345062D01*
X72977104Y-73366392D01*
X73086097Y-73388567D01*
X73091272Y-73388757D01*
X73091274Y-73388757D01*
X73304173Y-73396564D01*
X73304177Y-73396564D01*
X73309337Y-73396753D01*
X73314457Y-73396097D01*
X73314459Y-73396097D01*
X73525788Y-73369025D01*
X73525789Y-73369025D01*
X73530916Y-73368368D01*
X73535866Y-73366883D01*
X73739929Y-73305661D01*
X73739934Y-73305659D01*
X73744884Y-73304174D01*
X73945494Y-73205896D01*
X74010044Y-73159853D01*
X75027477Y-73159853D01*
X75032758Y-73166907D01*
X75194256Y-73261279D01*
X75203542Y-73265729D01*
X75402501Y-73341703D01*
X75412399Y-73344579D01*
X75621095Y-73387038D01*
X75631323Y-73388257D01*
X75844150Y-73396062D01*
X75854436Y-73395595D01*
X76065685Y-73368534D01*
X76075762Y-73366392D01*
X76279755Y-73305191D01*
X76289342Y-73301433D01*
X76480598Y-73207738D01*
X76489444Y-73202465D01*
X76536747Y-73168723D01*
X76545148Y-73158023D01*
X76538160Y-73144870D01*
X75800312Y-72407022D01*
X75786368Y-72399408D01*
X75784535Y-72399539D01*
X75777920Y-72403790D01*
X75034237Y-73147473D01*
X75027477Y-73159853D01*
X74010044Y-73159853D01*
X74127360Y-73076173D01*
X74285596Y-72918489D01*
X74345094Y-72835689D01*
X74415953Y-72737077D01*
X74417140Y-72737930D01*
X74464460Y-72694362D01*
X74534397Y-72682145D01*
X74599838Y-72709678D01*
X74627666Y-72741512D01*
X74653959Y-72784419D01*
X74664416Y-72793880D01*
X74673194Y-72790096D01*
X75415478Y-72047812D01*
X75421856Y-72036132D01*
X76151908Y-72036132D01*
X76152039Y-72037965D01*
X76156290Y-72044580D01*
X76897974Y-72786264D01*
X76909984Y-72792823D01*
X76921723Y-72783855D01*
X76952504Y-72741019D01*
X76957815Y-72732180D01*
X77052170Y-72541267D01*
X77055969Y-72531672D01*
X77117876Y-72327915D01*
X77120055Y-72317834D01*
X77148090Y-72104887D01*
X77148609Y-72098212D01*
X77150072Y-72038364D01*
X77149878Y-72031646D01*
X77132281Y-71817604D01*
X77130596Y-71807424D01*
X77078714Y-71600875D01*
X77075394Y-71591124D01*
X76990472Y-71395814D01*
X76985605Y-71386739D01*
X76920563Y-71286197D01*
X76909877Y-71276995D01*
X76900312Y-71281398D01*
X76159522Y-72022188D01*
X76151908Y-72036132D01*
X75421856Y-72036132D01*
X75423092Y-72033868D01*
X75422961Y-72032035D01*
X75418710Y-72025420D01*
X74677349Y-71284059D01*
X74665813Y-71277759D01*
X74653531Y-71287382D01*
X74620999Y-71335072D01*
X74566087Y-71380075D01*
X74495563Y-71388246D01*
X74431816Y-71356992D01*
X74411118Y-71332508D01*
X74330322Y-71207617D01*
X74330320Y-71207614D01*
X74327514Y-71203277D01*
X74177170Y-71038051D01*
X74173119Y-71034852D01*
X74173115Y-71034848D01*
X74005914Y-70902800D01*
X74005910Y-70902798D01*
X74001859Y-70899598D01*
X73960553Y-70876796D01*
X73910584Y-70826364D01*
X73895812Y-70756921D01*
X73920928Y-70690516D01*
X73948280Y-70663909D01*
X74010993Y-70619176D01*
X74127360Y-70536173D01*
X74285596Y-70378489D01*
X74345094Y-70295689D01*
X74415953Y-70197077D01*
X74417276Y-70198028D01*
X74464145Y-70154857D01*
X74534080Y-70142625D01*
X74599526Y-70170144D01*
X74627375Y-70201994D01*
X74687487Y-70300088D01*
X74833750Y-70468938D01*
X75005626Y-70611632D01*
X75078945Y-70654476D01*
X75079455Y-70654774D01*
X75128179Y-70706412D01*
X75141250Y-70776195D01*
X75114519Y-70841967D01*
X75074062Y-70875327D01*
X75065960Y-70879544D01*
X75057234Y-70885039D01*
X75037177Y-70900099D01*
X75028723Y-70911427D01*
X75035468Y-70923758D01*
X75774688Y-71662978D01*
X75788632Y-71670592D01*
X75790465Y-71670461D01*
X75797080Y-71666210D01*
X76540889Y-70922401D01*
X76547910Y-70909544D01*
X76541111Y-70900213D01*
X76537059Y-70897521D01*
X76500102Y-70877120D01*
X76450131Y-70826687D01*
X76435359Y-70757245D01*
X76460475Y-70690839D01*
X76487827Y-70664232D01*
X76550993Y-70619176D01*
X76667360Y-70536173D01*
X76825596Y-70378489D01*
X76885094Y-70295689D01*
X76952935Y-70201277D01*
X76955953Y-70197077D01*
X76976820Y-70154857D01*
X77052636Y-70001453D01*
X77052637Y-70001451D01*
X77054930Y-69996811D01*
X77087400Y-69889940D01*
X77118365Y-69788023D01*
X77118365Y-69788021D01*
X77119870Y-69783069D01*
X77149029Y-69561590D01*
X77149111Y-69558240D01*
X77150574Y-69498365D01*
X77150574Y-69498361D01*
X77150656Y-69495000D01*
X77132352Y-69272361D01*
X77077931Y-69055702D01*
X77015601Y-68912353D01*
X87119977Y-68912353D01*
X87125258Y-68919407D01*
X87286756Y-69013779D01*
X87296042Y-69018229D01*
X87495001Y-69094203D01*
X87504899Y-69097079D01*
X87713595Y-69139538D01*
X87723823Y-69140757D01*
X87936650Y-69148562D01*
X87946936Y-69148095D01*
X88158185Y-69121034D01*
X88168262Y-69118892D01*
X88372255Y-69057691D01*
X88381842Y-69053933D01*
X88573098Y-68960238D01*
X88581944Y-68954965D01*
X88629247Y-68921223D01*
X88637648Y-68910523D01*
X88630660Y-68897370D01*
X87892812Y-68159522D01*
X87878868Y-68151908D01*
X87877035Y-68152039D01*
X87870420Y-68156290D01*
X87126737Y-68899973D01*
X87119977Y-68912353D01*
X77015601Y-68912353D01*
X76988854Y-68850840D01*
X76867514Y-68663277D01*
X76717170Y-68498051D01*
X76713116Y-68494849D01*
X76713115Y-68494848D01*
X76545914Y-68362800D01*
X76545910Y-68362798D01*
X76541859Y-68359598D01*
X76500553Y-68336796D01*
X76450584Y-68286364D01*
X76435812Y-68216921D01*
X76460928Y-68150516D01*
X76488280Y-68123909D01*
X76556050Y-68075569D01*
X76667360Y-67996173D01*
X76686385Y-67977215D01*
X76748709Y-67915107D01*
X76825596Y-67838489D01*
X76871442Y-67774688D01*
X76882454Y-67759363D01*
X86518050Y-67759363D01*
X86530309Y-67971977D01*
X86531745Y-67982197D01*
X86578565Y-68189946D01*
X86581645Y-68199775D01*
X86661770Y-68397103D01*
X86666413Y-68406294D01*
X86746460Y-68536920D01*
X86756916Y-68546380D01*
X86765694Y-68542596D01*
X87507978Y-67800312D01*
X87514356Y-67788632D01*
X88244408Y-67788632D01*
X88244539Y-67790465D01*
X88248790Y-67797080D01*
X88990474Y-68538764D01*
X89002484Y-68545323D01*
X89014223Y-68536355D01*
X89048022Y-68489319D01*
X89049277Y-68490221D01*
X89096391Y-68446855D01*
X89166330Y-68434648D01*
X89231767Y-68462191D01*
X89259580Y-68494013D01*
X89317287Y-68588183D01*
X89317291Y-68588188D01*
X89319987Y-68592588D01*
X89466250Y-68761438D01*
X89579657Y-68855590D01*
X89630355Y-68897680D01*
X89638126Y-68904132D01*
X89831000Y-69016838D01*
X89835825Y-69018680D01*
X89835826Y-69018681D01*
X89850554Y-69024305D01*
X90039692Y-69096530D01*
X90044760Y-69097561D01*
X90044763Y-69097562D01*
X90136751Y-69116277D01*
X90258597Y-69141067D01*
X90263772Y-69141257D01*
X90263774Y-69141257D01*
X90476673Y-69149064D01*
X90476677Y-69149064D01*
X90481837Y-69149253D01*
X90486957Y-69148597D01*
X90486959Y-69148597D01*
X90698288Y-69121525D01*
X90698289Y-69121525D01*
X90703416Y-69120868D01*
X90708366Y-69119383D01*
X90912429Y-69058161D01*
X90912434Y-69058159D01*
X90917384Y-69056674D01*
X91117994Y-68958396D01*
X91299860Y-68828673D01*
X91306878Y-68821680D01*
X91454435Y-68674637D01*
X91458096Y-68670989D01*
X91471232Y-68652709D01*
X91588453Y-68489577D01*
X91589776Y-68490528D01*
X91636645Y-68447357D01*
X91706580Y-68435125D01*
X91772026Y-68462644D01*
X91799875Y-68494494D01*
X91859987Y-68592588D01*
X92006250Y-68761438D01*
X92119657Y-68855590D01*
X92170355Y-68897680D01*
X92178126Y-68904132D01*
X92371000Y-69016838D01*
X92375825Y-69018680D01*
X92375826Y-69018681D01*
X92390554Y-69024305D01*
X92579692Y-69096530D01*
X92584760Y-69097561D01*
X92584763Y-69097562D01*
X92676751Y-69116277D01*
X92798597Y-69141067D01*
X92803772Y-69141257D01*
X92803774Y-69141257D01*
X93016673Y-69149064D01*
X93016677Y-69149064D01*
X93021837Y-69149253D01*
X93026957Y-69148597D01*
X93026959Y-69148597D01*
X93238288Y-69121525D01*
X93238289Y-69121525D01*
X93243416Y-69120868D01*
X93248366Y-69119383D01*
X93452429Y-69058161D01*
X93452434Y-69058159D01*
X93457384Y-69056674D01*
X93657994Y-68958396D01*
X93839860Y-68828673D01*
X93846878Y-68821680D01*
X93994435Y-68674637D01*
X93998096Y-68670989D01*
X94011232Y-68652709D01*
X94128453Y-68489577D01*
X94129776Y-68490528D01*
X94176645Y-68447357D01*
X94246580Y-68435125D01*
X94312026Y-68462644D01*
X94339875Y-68494494D01*
X94399987Y-68592588D01*
X94546250Y-68761438D01*
X94659657Y-68855590D01*
X94710355Y-68897680D01*
X94718126Y-68904132D01*
X94911000Y-69016838D01*
X94915825Y-69018680D01*
X94915826Y-69018681D01*
X94930554Y-69024305D01*
X95119692Y-69096530D01*
X95124760Y-69097561D01*
X95124763Y-69097562D01*
X95216751Y-69116277D01*
X95338597Y-69141067D01*
X95343772Y-69141257D01*
X95343774Y-69141257D01*
X95556673Y-69149064D01*
X95556677Y-69149064D01*
X95561837Y-69149253D01*
X95566957Y-69148597D01*
X95566959Y-69148597D01*
X95778288Y-69121525D01*
X95778289Y-69121525D01*
X95783416Y-69120868D01*
X95790003Y-69118892D01*
X95864538Y-69096530D01*
X95997384Y-69056674D01*
X95997506Y-69057079D01*
X96065236Y-69051104D01*
X96128104Y-69084090D01*
X96163159Y-69145829D01*
X96166500Y-69174652D01*
X96166500Y-98221233D01*
X96165973Y-98232416D01*
X96164298Y-98239909D01*
X96164547Y-98247835D01*
X96164547Y-98247836D01*
X96166438Y-98307986D01*
X96166500Y-98311945D01*
X96166500Y-98339856D01*
X96166997Y-98343790D01*
X96166997Y-98343791D01*
X96167005Y-98343856D01*
X96167938Y-98355693D01*
X96169327Y-98399889D01*
X96174978Y-98419339D01*
X96178987Y-98438700D01*
X96179698Y-98444324D01*
X96181526Y-98458797D01*
X96184445Y-98466168D01*
X96184445Y-98466170D01*
X96197804Y-98499912D01*
X96201649Y-98511142D01*
X96213982Y-98553593D01*
X96218015Y-98560412D01*
X96218017Y-98560417D01*
X96224293Y-98571028D01*
X96232988Y-98588776D01*
X96240448Y-98607617D01*
X96245110Y-98614033D01*
X96245110Y-98614034D01*
X96266436Y-98643387D01*
X96272952Y-98653307D01*
X96295458Y-98691362D01*
X96309779Y-98705683D01*
X96322619Y-98720716D01*
X96334528Y-98737107D01*
X96340634Y-98742158D01*
X96368605Y-98765298D01*
X96377384Y-98773288D01*
X96552878Y-98948782D01*
X96586904Y-99011094D01*
X96589092Y-99024703D01*
X96595260Y-99083389D01*
X96604295Y-99169344D01*
X96606458Y-99189928D01*
X96665473Y-99371556D01*
X96760960Y-99536944D01*
X96888747Y-99678866D01*
X96945166Y-99719857D01*
X97004586Y-99763028D01*
X97043248Y-99791118D01*
X97049276Y-99793802D01*
X97049278Y-99793803D01*
X97200873Y-99861297D01*
X97217712Y-99868794D01*
X97311112Y-99888647D01*
X97398056Y-99907128D01*
X97398061Y-99907128D01*
X97404513Y-99908500D01*
X97595487Y-99908500D01*
X97601939Y-99907128D01*
X97601944Y-99907128D01*
X97688888Y-99888647D01*
X97782288Y-99868794D01*
X97799127Y-99861297D01*
X97950722Y-99793803D01*
X97950724Y-99793802D01*
X97956752Y-99791118D01*
X97995415Y-99763028D01*
X98054834Y-99719857D01*
X98111253Y-99678866D01*
X98156364Y-99628765D01*
X98216810Y-99591525D01*
X98287793Y-99592877D01*
X98343636Y-99628765D01*
X98388747Y-99678866D01*
X98445166Y-99719857D01*
X98504586Y-99763028D01*
X98543248Y-99791118D01*
X98549276Y-99793802D01*
X98549278Y-99793803D01*
X98700873Y-99861297D01*
X98717712Y-99868794D01*
X98811112Y-99888647D01*
X98898056Y-99907128D01*
X98898061Y-99907128D01*
X98904513Y-99908500D01*
X99095487Y-99908500D01*
X99101939Y-99907128D01*
X99101944Y-99907128D01*
X99188888Y-99888647D01*
X99282288Y-99868794D01*
X99299127Y-99861297D01*
X99450722Y-99793803D01*
X99450724Y-99793802D01*
X99456752Y-99791118D01*
X99495415Y-99763028D01*
X99554834Y-99719857D01*
X99611253Y-99678866D01*
X99656364Y-99628765D01*
X99716810Y-99591525D01*
X99787793Y-99592877D01*
X99843636Y-99628765D01*
X99888747Y-99678866D01*
X99945166Y-99719857D01*
X100004586Y-99763028D01*
X100043248Y-99791118D01*
X100049276Y-99793802D01*
X100049278Y-99793803D01*
X100200873Y-99861297D01*
X100217712Y-99868794D01*
X100311112Y-99888647D01*
X100398056Y-99907128D01*
X100398061Y-99907128D01*
X100404513Y-99908500D01*
X100595487Y-99908500D01*
X100601939Y-99907128D01*
X100601944Y-99907128D01*
X100688888Y-99888647D01*
X100782288Y-99868794D01*
X100799127Y-99861297D01*
X100950722Y-99793803D01*
X100950724Y-99793802D01*
X100956752Y-99791118D01*
X100995415Y-99763028D01*
X101054834Y-99719857D01*
X101111253Y-99678866D01*
X101156364Y-99628765D01*
X101216810Y-99591525D01*
X101287793Y-99592877D01*
X101343636Y-99628765D01*
X101388747Y-99678866D01*
X101445166Y-99719857D01*
X101504586Y-99763028D01*
X101543248Y-99791118D01*
X101549276Y-99793802D01*
X101549278Y-99793803D01*
X101700873Y-99861297D01*
X101717712Y-99868794D01*
X101811112Y-99888647D01*
X101898056Y-99907128D01*
X101898061Y-99907128D01*
X101904513Y-99908500D01*
X102095487Y-99908500D01*
X102101939Y-99907128D01*
X102101944Y-99907128D01*
X102113920Y-99904582D01*
X102184711Y-99909984D01*
X102240485Y-99952151D01*
X102249584Y-99911260D01*
X102300025Y-99861297D01*
X102308634Y-99857064D01*
X102450722Y-99793803D01*
X102450724Y-99793802D01*
X102456752Y-99791118D01*
X102495415Y-99763028D01*
X102554834Y-99719857D01*
X102611253Y-99678866D01*
X102739040Y-99536944D01*
X102834527Y-99371556D01*
X102893542Y-99189928D01*
X102895706Y-99169344D01*
X102912814Y-99006565D01*
X102913504Y-99000000D01*
X102893542Y-98810072D01*
X102834527Y-98628444D01*
X102826208Y-98614034D01*
X102773629Y-98522966D01*
X102739040Y-98463056D01*
X102665863Y-98381785D01*
X102635147Y-98317779D01*
X102633500Y-98297476D01*
X102633500Y-96578767D01*
X102634027Y-96567584D01*
X102635702Y-96560091D01*
X102633562Y-96492014D01*
X102633500Y-96488055D01*
X102633500Y-96460144D01*
X102632995Y-96456144D01*
X102632062Y-96444301D01*
X102630922Y-96408029D01*
X102630673Y-96400110D01*
X102625022Y-96380658D01*
X102621014Y-96361306D01*
X102619467Y-96349063D01*
X102618474Y-96341203D01*
X102612473Y-96326045D01*
X102602200Y-96300097D01*
X102598355Y-96288870D01*
X102592604Y-96269077D01*
X102586018Y-96246407D01*
X102581984Y-96239585D01*
X102581981Y-96239579D01*
X102575706Y-96228968D01*
X102567010Y-96211218D01*
X102562472Y-96199756D01*
X102562469Y-96199751D01*
X102559552Y-96192383D01*
X102533573Y-96156625D01*
X102527057Y-96146707D01*
X102516005Y-96128019D01*
X102504542Y-96108637D01*
X102490218Y-96094313D01*
X102477376Y-96079278D01*
X102465472Y-96062893D01*
X102431406Y-96034711D01*
X102422627Y-96026722D01*
X101250405Y-94854500D01*
X101216379Y-94792188D01*
X101213500Y-94765405D01*
X101213500Y-69067927D01*
X101233502Y-68999806D01*
X101274618Y-68960050D01*
X101277994Y-68958396D01*
X101342544Y-68912353D01*
X102359977Y-68912353D01*
X102365258Y-68919407D01*
X102526756Y-69013779D01*
X102536042Y-69018229D01*
X102735001Y-69094203D01*
X102744899Y-69097079D01*
X102953595Y-69139538D01*
X102963823Y-69140757D01*
X103176650Y-69148562D01*
X103186936Y-69148095D01*
X103398185Y-69121034D01*
X103408262Y-69118892D01*
X103612255Y-69057691D01*
X103621842Y-69053933D01*
X103813098Y-68960238D01*
X103821944Y-68954965D01*
X103869247Y-68921223D01*
X103877648Y-68910523D01*
X103870660Y-68897370D01*
X103132812Y-68159522D01*
X103118868Y-68151908D01*
X103117035Y-68152039D01*
X103110420Y-68156290D01*
X102366737Y-68899973D01*
X102359977Y-68912353D01*
X101342544Y-68912353D01*
X101459860Y-68828673D01*
X101466878Y-68821680D01*
X101614435Y-68674637D01*
X101618096Y-68670989D01*
X101631232Y-68652709D01*
X101748453Y-68489577D01*
X101749640Y-68490430D01*
X101796960Y-68446862D01*
X101866897Y-68434645D01*
X101932338Y-68462178D01*
X101960166Y-68494012D01*
X101986459Y-68536919D01*
X101996916Y-68546380D01*
X102005694Y-68542596D01*
X102747978Y-67800312D01*
X102754356Y-67788632D01*
X103484408Y-67788632D01*
X103484539Y-67790465D01*
X103488790Y-67797080D01*
X104230474Y-68538764D01*
X104242484Y-68545323D01*
X104254223Y-68536355D01*
X104285004Y-68493519D01*
X104290315Y-68484680D01*
X104384670Y-68293767D01*
X104388469Y-68284172D01*
X104450376Y-68080415D01*
X104452555Y-68070334D01*
X104480590Y-67857387D01*
X104481109Y-67850712D01*
X104482572Y-67790864D01*
X104482378Y-67784146D01*
X104464781Y-67570104D01*
X104463096Y-67559924D01*
X104411214Y-67353375D01*
X104407894Y-67343624D01*
X104322972Y-67148314D01*
X104318105Y-67139239D01*
X104253063Y-67038697D01*
X104242377Y-67029495D01*
X104232812Y-67033898D01*
X103492022Y-67774688D01*
X103484408Y-67788632D01*
X102754356Y-67788632D01*
X102755592Y-67786368D01*
X102755461Y-67784535D01*
X102751210Y-67777920D01*
X102009849Y-67036559D01*
X101998313Y-67030259D01*
X101986031Y-67039882D01*
X101953499Y-67087572D01*
X101898587Y-67132575D01*
X101828063Y-67140746D01*
X101764316Y-67109492D01*
X101743618Y-67085008D01*
X101662822Y-66960117D01*
X101662820Y-66960114D01*
X101660014Y-66955777D01*
X101509670Y-66790551D01*
X101505619Y-66787352D01*
X101505615Y-66787348D01*
X101338414Y-66655300D01*
X101338410Y-66655298D01*
X101334359Y-66652098D01*
X101293053Y-66629296D01*
X101243084Y-66578864D01*
X101228312Y-66509421D01*
X101253428Y-66443016D01*
X101280780Y-66416409D01*
X101345110Y-66370523D01*
X101459860Y-66288673D01*
X101618096Y-66130989D01*
X101618562Y-66131457D01*
X101674732Y-66094646D01*
X101745726Y-66094012D01*
X101805792Y-66131861D01*
X101825408Y-66161767D01*
X101832759Y-66177458D01*
X101918063Y-66315307D01*
X101927099Y-66326708D01*
X102041829Y-66441239D01*
X102053240Y-66450251D01*
X102191243Y-66535316D01*
X102204424Y-66541463D01*
X102272256Y-66563962D01*
X102330615Y-66604393D01*
X102341502Y-66630600D01*
X102342650Y-66629972D01*
X102367968Y-66676258D01*
X103107188Y-67415478D01*
X103121132Y-67423092D01*
X103122965Y-67422961D01*
X103129580Y-67418710D01*
X103873389Y-66674901D01*
X103895934Y-66633615D01*
X103898318Y-66622655D01*
X103948520Y-66572453D01*
X103969029Y-66563517D01*
X104036784Y-66540912D01*
X104049962Y-66534739D01*
X104187807Y-66449437D01*
X104199208Y-66440401D01*
X104313739Y-66325671D01*
X104322751Y-66314260D01*
X104407816Y-66176257D01*
X104413963Y-66163076D01*
X104465138Y-66008790D01*
X104468005Y-65995414D01*
X104477672Y-65901062D01*
X104478000Y-65894646D01*
X104478000Y-65519615D01*
X104473525Y-65504376D01*
X104472135Y-65503171D01*
X104464452Y-65501500D01*
X102992000Y-65501500D01*
X102923879Y-65481498D01*
X102877386Y-65427842D01*
X102866000Y-65375500D01*
X102866000Y-64975385D01*
X103374000Y-64975385D01*
X103378475Y-64990624D01*
X103379865Y-64991829D01*
X103387548Y-64993500D01*
X104459884Y-64993500D01*
X104475123Y-64989025D01*
X104476328Y-64987635D01*
X104477999Y-64979952D01*
X104477999Y-64600405D01*
X104477662Y-64593886D01*
X104467743Y-64498294D01*
X104464851Y-64484900D01*
X104413412Y-64330716D01*
X104407239Y-64317538D01*
X104321937Y-64179693D01*
X104312901Y-64168292D01*
X104198171Y-64053761D01*
X104186760Y-64044749D01*
X104048757Y-63959684D01*
X104035576Y-63953537D01*
X103881290Y-63902362D01*
X103867914Y-63899495D01*
X103773562Y-63889828D01*
X103767145Y-63889500D01*
X103392115Y-63889500D01*
X103376876Y-63893975D01*
X103375671Y-63895365D01*
X103374000Y-63903048D01*
X103374000Y-64975385D01*
X102866000Y-64975385D01*
X102866000Y-63907616D01*
X102861525Y-63892377D01*
X102860135Y-63891172D01*
X102852452Y-63889501D01*
X102472905Y-63889501D01*
X102466386Y-63889838D01*
X102370794Y-63899757D01*
X102357400Y-63902649D01*
X102203216Y-63954088D01*
X102190038Y-63960261D01*
X102052193Y-64045563D01*
X102040792Y-64054599D01*
X101926261Y-64169329D01*
X101917249Y-64180740D01*
X101832183Y-64318744D01*
X101823926Y-64336450D01*
X101777008Y-64389734D01*
X101708730Y-64409194D01*
X101640771Y-64388651D01*
X101616538Y-64367997D01*
X101513151Y-64254375D01*
X101513142Y-64254366D01*
X101509670Y-64250551D01*
X101505619Y-64247352D01*
X101505615Y-64247348D01*
X101338414Y-64115300D01*
X101338410Y-64115298D01*
X101334359Y-64112098D01*
X101138789Y-64004138D01*
X101133920Y-64002414D01*
X101133916Y-64002412D01*
X100933087Y-63931295D01*
X100933083Y-63931294D01*
X100928212Y-63929569D01*
X100923119Y-63928662D01*
X100923116Y-63928661D01*
X100713373Y-63891300D01*
X100713367Y-63891299D01*
X100708284Y-63890394D01*
X100634452Y-63889492D01*
X100490081Y-63887728D01*
X100490079Y-63887728D01*
X100484911Y-63887665D01*
X100264091Y-63921455D01*
X100051756Y-63990857D01*
X99981485Y-64027438D01*
X99897229Y-64071299D01*
X99853607Y-64094007D01*
X99849474Y-64097110D01*
X99849471Y-64097112D01*
X99679100Y-64225030D01*
X99674965Y-64228135D01*
X99637925Y-64266895D01*
X99535410Y-64374171D01*
X99520629Y-64389638D01*
X99413201Y-64547121D01*
X99358293Y-64592121D01*
X99287768Y-64600292D01*
X99224021Y-64569038D01*
X99203324Y-64544554D01*
X99122822Y-64420117D01*
X99122820Y-64420114D01*
X99120014Y-64415777D01*
X98969670Y-64250551D01*
X98965619Y-64247352D01*
X98965615Y-64247348D01*
X98798414Y-64115300D01*
X98798410Y-64115298D01*
X98794359Y-64112098D01*
X98598789Y-64004138D01*
X98593920Y-64002414D01*
X98593916Y-64002412D01*
X98393087Y-63931295D01*
X98393083Y-63931294D01*
X98388212Y-63929569D01*
X98383119Y-63928662D01*
X98383116Y-63928661D01*
X98173373Y-63891300D01*
X98173367Y-63891299D01*
X98168284Y-63890394D01*
X98094452Y-63889492D01*
X97950081Y-63887728D01*
X97950079Y-63887728D01*
X97944911Y-63887665D01*
X97724091Y-63921455D01*
X97511756Y-63990857D01*
X97441485Y-64027438D01*
X97357229Y-64071299D01*
X97313607Y-64094007D01*
X97309474Y-64097110D01*
X97309471Y-64097112D01*
X97139100Y-64225030D01*
X97134965Y-64228135D01*
X97097925Y-64266895D01*
X96995410Y-64374171D01*
X96980629Y-64389638D01*
X96873201Y-64547121D01*
X96818293Y-64592121D01*
X96747768Y-64600292D01*
X96684021Y-64569038D01*
X96663324Y-64544554D01*
X96582822Y-64420117D01*
X96582820Y-64420114D01*
X96580014Y-64415777D01*
X96429670Y-64250551D01*
X96425619Y-64247352D01*
X96425615Y-64247348D01*
X96258414Y-64115300D01*
X96258410Y-64115298D01*
X96254359Y-64112098D01*
X96058789Y-64004138D01*
X96053920Y-64002414D01*
X96053916Y-64002412D01*
X95853087Y-63931295D01*
X95853083Y-63931294D01*
X95848212Y-63929569D01*
X95843119Y-63928662D01*
X95843116Y-63928661D01*
X95633373Y-63891300D01*
X95633367Y-63891299D01*
X95628284Y-63890394D01*
X95554452Y-63889492D01*
X95410081Y-63887728D01*
X95410079Y-63887728D01*
X95404911Y-63887665D01*
X95184091Y-63921455D01*
X94971756Y-63990857D01*
X94901485Y-64027438D01*
X94817229Y-64071299D01*
X94773607Y-64094007D01*
X94769474Y-64097110D01*
X94769471Y-64097112D01*
X94599100Y-64225030D01*
X94594965Y-64228135D01*
X94557925Y-64266895D01*
X94455410Y-64374171D01*
X94440629Y-64389638D01*
X94333201Y-64547121D01*
X94278293Y-64592121D01*
X94207768Y-64600292D01*
X94144021Y-64569038D01*
X94123324Y-64544554D01*
X94042822Y-64420117D01*
X94042820Y-64420114D01*
X94040014Y-64415777D01*
X93889670Y-64250551D01*
X93885619Y-64247352D01*
X93885615Y-64247348D01*
X93718414Y-64115300D01*
X93718410Y-64115298D01*
X93714359Y-64112098D01*
X93518789Y-64004138D01*
X93513920Y-64002414D01*
X93513916Y-64002412D01*
X93313087Y-63931295D01*
X93313083Y-63931294D01*
X93308212Y-63929569D01*
X93303119Y-63928662D01*
X93303116Y-63928661D01*
X93093373Y-63891300D01*
X93093367Y-63891299D01*
X93088284Y-63890394D01*
X93014452Y-63889492D01*
X92870081Y-63887728D01*
X92870079Y-63887728D01*
X92864911Y-63887665D01*
X92644091Y-63921455D01*
X92431756Y-63990857D01*
X92361485Y-64027438D01*
X92277229Y-64071299D01*
X92233607Y-64094007D01*
X92229474Y-64097110D01*
X92229471Y-64097112D01*
X92059100Y-64225030D01*
X92054965Y-64228135D01*
X92017925Y-64266895D01*
X91915410Y-64374171D01*
X91900629Y-64389638D01*
X91793201Y-64547121D01*
X91738293Y-64592121D01*
X91667768Y-64600292D01*
X91604021Y-64569038D01*
X91583324Y-64544554D01*
X91502822Y-64420117D01*
X91502820Y-64420114D01*
X91500014Y-64415777D01*
X91349670Y-64250551D01*
X91345619Y-64247352D01*
X91345615Y-64247348D01*
X91178414Y-64115300D01*
X91178410Y-64115298D01*
X91174359Y-64112098D01*
X90978789Y-64004138D01*
X90973920Y-64002414D01*
X90973916Y-64002412D01*
X90773087Y-63931295D01*
X90773083Y-63931294D01*
X90768212Y-63929569D01*
X90763119Y-63928662D01*
X90763116Y-63928661D01*
X90553373Y-63891300D01*
X90553367Y-63891299D01*
X90548284Y-63890394D01*
X90474452Y-63889492D01*
X90330081Y-63887728D01*
X90330079Y-63887728D01*
X90324911Y-63887665D01*
X90104091Y-63921455D01*
X89891756Y-63990857D01*
X89821485Y-64027438D01*
X89737229Y-64071299D01*
X89693607Y-64094007D01*
X89689474Y-64097110D01*
X89689471Y-64097112D01*
X89519100Y-64225030D01*
X89514965Y-64228135D01*
X89477925Y-64266895D01*
X89375410Y-64374171D01*
X89360629Y-64389638D01*
X89253204Y-64547118D01*
X89252898Y-64547566D01*
X89197987Y-64592569D01*
X89127462Y-64600740D01*
X89063715Y-64569486D01*
X89043017Y-64545001D01*
X89013062Y-64498697D01*
X89002377Y-64489495D01*
X88992812Y-64493898D01*
X88252022Y-65234688D01*
X88244408Y-65248632D01*
X88244539Y-65250465D01*
X88248790Y-65257080D01*
X88990474Y-65998764D01*
X89002484Y-66005323D01*
X89014223Y-65996355D01*
X89048022Y-65949319D01*
X89049277Y-65950221D01*
X89096391Y-65906855D01*
X89166330Y-65894648D01*
X89231767Y-65922191D01*
X89259580Y-65954013D01*
X89317287Y-66048183D01*
X89317291Y-66048188D01*
X89319987Y-66052588D01*
X89466250Y-66221438D01*
X89593049Y-66326708D01*
X89630355Y-66357680D01*
X89638126Y-66364132D01*
X89652195Y-66372353D01*
X89711445Y-66406976D01*
X89760169Y-66458614D01*
X89773240Y-66528397D01*
X89746509Y-66594169D01*
X89706055Y-66627527D01*
X89693607Y-66634007D01*
X89689474Y-66637110D01*
X89689471Y-66637112D01*
X89529613Y-66757137D01*
X89514965Y-66768135D01*
X89511393Y-66771873D01*
X89375410Y-66914171D01*
X89360629Y-66929638D01*
X89253204Y-67087118D01*
X89252898Y-67087566D01*
X89197987Y-67132569D01*
X89127462Y-67140740D01*
X89063715Y-67109486D01*
X89043017Y-67085001D01*
X89013062Y-67038697D01*
X89002377Y-67029495D01*
X88992812Y-67033898D01*
X88252022Y-67774688D01*
X88244408Y-67788632D01*
X87514356Y-67788632D01*
X87515592Y-67786368D01*
X87515461Y-67784535D01*
X87511210Y-67777920D01*
X86769849Y-67036559D01*
X86758313Y-67030259D01*
X86746031Y-67039882D01*
X86698089Y-67110162D01*
X86693004Y-67119113D01*
X86603338Y-67312283D01*
X86599775Y-67321970D01*
X86542864Y-67527181D01*
X86540933Y-67537300D01*
X86518302Y-67749074D01*
X86518050Y-67759363D01*
X76882454Y-67759363D01*
X76952935Y-67661277D01*
X76955953Y-67657077D01*
X76961970Y-67644904D01*
X77052636Y-67461453D01*
X77052637Y-67461451D01*
X77054930Y-67456811D01*
X77110291Y-67274598D01*
X77118365Y-67248023D01*
X77118365Y-67248021D01*
X77119870Y-67243069D01*
X77149029Y-67021590D01*
X77149809Y-66989658D01*
X77150574Y-66958365D01*
X77150574Y-66958361D01*
X77150656Y-66955000D01*
X77132352Y-66732361D01*
X77077931Y-66515702D01*
X77015601Y-66372353D01*
X87119977Y-66372353D01*
X87125258Y-66379407D01*
X87172479Y-66407001D01*
X87221203Y-66458639D01*
X87234274Y-66528422D01*
X87207543Y-66594194D01*
X87167087Y-66627553D01*
X87158466Y-66632041D01*
X87149734Y-66637539D01*
X87129677Y-66652599D01*
X87121223Y-66663927D01*
X87127968Y-66676258D01*
X87867188Y-67415478D01*
X87881132Y-67423092D01*
X87882965Y-67422961D01*
X87889580Y-67418710D01*
X88633389Y-66674901D01*
X88640410Y-66662044D01*
X88633611Y-66652713D01*
X88629559Y-66650021D01*
X88592116Y-66629352D01*
X88542145Y-66578920D01*
X88527373Y-66509477D01*
X88552489Y-66443072D01*
X88579840Y-66416465D01*
X88629247Y-66381223D01*
X88637648Y-66370523D01*
X88630660Y-66357370D01*
X87892812Y-65619522D01*
X87878868Y-65611908D01*
X87877035Y-65612039D01*
X87870420Y-65616290D01*
X87126737Y-66359973D01*
X87119977Y-66372353D01*
X77015601Y-66372353D01*
X76988854Y-66310840D01*
X76902565Y-66177458D01*
X76870322Y-66127617D01*
X76870320Y-66127614D01*
X76867514Y-66123277D01*
X76717170Y-65958051D01*
X76713119Y-65954852D01*
X76713115Y-65954848D01*
X76545914Y-65822800D01*
X76545910Y-65822798D01*
X76541859Y-65819598D01*
X76346289Y-65711638D01*
X76341420Y-65709914D01*
X76341416Y-65709912D01*
X76140587Y-65638795D01*
X76140583Y-65638794D01*
X76135712Y-65637069D01*
X76130619Y-65636162D01*
X76130616Y-65636161D01*
X75920873Y-65598800D01*
X75920867Y-65598799D01*
X75915784Y-65597894D01*
X75841952Y-65596992D01*
X75697581Y-65595228D01*
X75697579Y-65595228D01*
X75692411Y-65595165D01*
X75471591Y-65628955D01*
X75259256Y-65698357D01*
X75228943Y-65714137D01*
X75139178Y-65760866D01*
X75061107Y-65801507D01*
X75056974Y-65804610D01*
X75056971Y-65804612D01*
X74899767Y-65922644D01*
X74882465Y-65935635D01*
X74791281Y-66031054D01*
X74748527Y-66075793D01*
X74687003Y-66111223D01*
X74616090Y-66107766D01*
X74558304Y-66066520D01*
X74543333Y-66042194D01*
X74541365Y-66037994D01*
X74539050Y-66031054D01*
X74445978Y-65880652D01*
X74320803Y-65755695D01*
X74314572Y-65751854D01*
X74176468Y-65666725D01*
X74176466Y-65666724D01*
X74170238Y-65662885D01*
X74065584Y-65628173D01*
X74008889Y-65609368D01*
X74008887Y-65609368D01*
X74002361Y-65607203D01*
X73995525Y-65606503D01*
X73995522Y-65606502D01*
X73952469Y-65602091D01*
X73897900Y-65596500D01*
X72597100Y-65596500D01*
X72593854Y-65596837D01*
X72593850Y-65596837D01*
X72498192Y-65606762D01*
X72498188Y-65606763D01*
X72491334Y-65607474D01*
X72484798Y-65609655D01*
X72484796Y-65609655D01*
X72422131Y-65630562D01*
X72323554Y-65663450D01*
X72173152Y-65756522D01*
X72167979Y-65761704D01*
X72110186Y-65819598D01*
X72048195Y-65881697D01*
X72044355Y-65887927D01*
X72044354Y-65887928D01*
X71959966Y-66024831D01*
X71955385Y-66032262D01*
X71899703Y-66200139D01*
X71899003Y-66206975D01*
X71899002Y-66206978D01*
X71897921Y-66217531D01*
X71889000Y-66304600D01*
X71889000Y-67605400D01*
X71889337Y-67608646D01*
X71889337Y-67608650D01*
X71894798Y-67661277D01*
X71899974Y-67711166D01*
X71902155Y-67717702D01*
X71902155Y-67717704D01*
X71946228Y-67849806D01*
X71955950Y-67878946D01*
X72049022Y-68029348D01*
X72054204Y-68034521D01*
X72091380Y-68071632D01*
X72174197Y-68154305D01*
X72180427Y-68158145D01*
X72180428Y-68158146D01*
X72247963Y-68199775D01*
X72324762Y-68247115D01*
X72331709Y-68249419D01*
X72333776Y-68250383D01*
X72387061Y-68297299D01*
X72406523Y-68365576D01*
X72385982Y-68433536D01*
X72356181Y-68465337D01*
X72342465Y-68475635D01*
X72338893Y-68479373D01*
X72234912Y-68588183D01*
X72188129Y-68637138D01*
X72062243Y-68821680D01*
X72046503Y-68855590D01*
X71970799Y-69018681D01*
X71968188Y-69024305D01*
X71908489Y-69239570D01*
X71884751Y-69461695D01*
X71885048Y-69466848D01*
X71885048Y-69466851D01*
X71897312Y-69679547D01*
X71897610Y-69684715D01*
X71898747Y-69689761D01*
X71898748Y-69689767D01*
X71909334Y-69736739D01*
X71946722Y-69902639D01*
X72030766Y-70109616D01*
X72081519Y-70192438D01*
X72144791Y-70295688D01*
X72147487Y-70300088D01*
X72293750Y-70468938D01*
X72465626Y-70611632D01*
X72478536Y-70619176D01*
X72538945Y-70654476D01*
X72587669Y-70706114D01*
X72600740Y-70775897D01*
X72574009Y-70841669D01*
X72533555Y-70875027D01*
X72521107Y-70881507D01*
X72516974Y-70884610D01*
X72516971Y-70884612D01*
X72346600Y-71012530D01*
X72342465Y-71015635D01*
X72188129Y-71177138D01*
X72185215Y-71181410D01*
X72185214Y-71181411D01*
X72170298Y-71203277D01*
X72062243Y-71361680D01*
X72046399Y-71395814D01*
X71970371Y-71559603D01*
X71968188Y-71564305D01*
X71908489Y-71779570D01*
X71884751Y-72001695D01*
X39508000Y-72001695D01*
X39508000Y-66132703D01*
X42890743Y-66132703D01*
X42891302Y-66136947D01*
X42891302Y-66136951D01*
X42895562Y-66169306D01*
X42928268Y-66417734D01*
X43004129Y-66695036D01*
X43005813Y-66698984D01*
X43115014Y-66955000D01*
X43116923Y-66959476D01*
X43264561Y-67206161D01*
X43444313Y-67430528D01*
X43546164Y-67527181D01*
X43632015Y-67608650D01*
X43652851Y-67628423D01*
X43766184Y-67709861D01*
X43875805Y-67788632D01*
X43886317Y-67796186D01*
X43890112Y-67798195D01*
X43890113Y-67798196D01*
X43911869Y-67809715D01*
X44140392Y-67930712D01*
X44164699Y-67939607D01*
X44392909Y-68023120D01*
X44410373Y-68029511D01*
X44691264Y-68090755D01*
X44719841Y-68093004D01*
X44914282Y-68108307D01*
X44914291Y-68108307D01*
X44916739Y-68108500D01*
X45072271Y-68108500D01*
X45074407Y-68108354D01*
X45074418Y-68108354D01*
X45282548Y-68094165D01*
X45282554Y-68094164D01*
X45286825Y-68093873D01*
X45291020Y-68093004D01*
X45291022Y-68093004D01*
X45529431Y-68043632D01*
X45568342Y-68035574D01*
X45839343Y-67939607D01*
X46094812Y-67807750D01*
X46098313Y-67805289D01*
X46098317Y-67805287D01*
X46212417Y-67725096D01*
X46330023Y-67642441D01*
X46524789Y-67461453D01*
X46537479Y-67449661D01*
X46537481Y-67449658D01*
X46540622Y-67446740D01*
X46722713Y-67224268D01*
X46872927Y-66979142D01*
X46882048Y-66958365D01*
X46986757Y-66719830D01*
X46988483Y-66715898D01*
X47001362Y-66670688D01*
X47036167Y-66548502D01*
X47067244Y-66439406D01*
X47107751Y-66154784D01*
X47107845Y-66136951D01*
X47109235Y-65871583D01*
X47109235Y-65871576D01*
X47109257Y-65867297D01*
X47101005Y-65804612D01*
X47078090Y-65630562D01*
X47071732Y-65582266D01*
X46995871Y-65304964D01*
X46965896Y-65234688D01*
X46959359Y-65219363D01*
X86518050Y-65219363D01*
X86530309Y-65431977D01*
X86531745Y-65442197D01*
X86578565Y-65649946D01*
X86581645Y-65659775D01*
X86661770Y-65857103D01*
X86666413Y-65866294D01*
X86746460Y-65996920D01*
X86756916Y-66006380D01*
X86765694Y-66002596D01*
X87507978Y-65260312D01*
X87515592Y-65246368D01*
X87515461Y-65244535D01*
X87511210Y-65237920D01*
X86769849Y-64496559D01*
X86758313Y-64490259D01*
X86746031Y-64499882D01*
X86698089Y-64570162D01*
X86693004Y-64579113D01*
X86603338Y-64772283D01*
X86599775Y-64781970D01*
X86542864Y-64987181D01*
X86540933Y-64997300D01*
X86518302Y-65209074D01*
X86518050Y-65219363D01*
X46959359Y-65219363D01*
X46884763Y-65044476D01*
X46884761Y-65044472D01*
X46883077Y-65040524D01*
X46788856Y-64883092D01*
X46737643Y-64797521D01*
X46737640Y-64797517D01*
X46735439Y-64793839D01*
X46555687Y-64569472D01*
X46366283Y-64389734D01*
X46350258Y-64374527D01*
X46350255Y-64374525D01*
X46347149Y-64371577D01*
X46126830Y-64213261D01*
X46117172Y-64206321D01*
X46117171Y-64206320D01*
X46113683Y-64203814D01*
X46091843Y-64192250D01*
X45975572Y-64130688D01*
X45859608Y-64069288D01*
X45642553Y-63989857D01*
X45593658Y-63971964D01*
X45593656Y-63971963D01*
X45589627Y-63970489D01*
X45308736Y-63909245D01*
X45277685Y-63906801D01*
X45167559Y-63898134D01*
X54841500Y-63898134D01*
X54848255Y-63960316D01*
X54899385Y-64096705D01*
X54986739Y-64213261D01*
X55103295Y-64300615D01*
X55239684Y-64351745D01*
X55301866Y-64358500D01*
X57098134Y-64358500D01*
X57160316Y-64351745D01*
X57296705Y-64300615D01*
X57413261Y-64213261D01*
X57500615Y-64096705D01*
X57519787Y-64045563D01*
X57544598Y-63979382D01*
X57587240Y-63922618D01*
X57653802Y-63897918D01*
X57723150Y-63913126D01*
X57757817Y-63941114D01*
X57786250Y-63973938D01*
X57883407Y-64054599D01*
X57953406Y-64112713D01*
X57958126Y-64116632D01*
X58151000Y-64229338D01*
X58359692Y-64309030D01*
X58364760Y-64310061D01*
X58364763Y-64310062D01*
X58466281Y-64330716D01*
X58578597Y-64353567D01*
X58583772Y-64353757D01*
X58583774Y-64353757D01*
X58796673Y-64361564D01*
X58796677Y-64361564D01*
X58801837Y-64361753D01*
X58806957Y-64361097D01*
X58806959Y-64361097D01*
X59018288Y-64334025D01*
X59018289Y-64334025D01*
X59023416Y-64333368D01*
X59076180Y-64317538D01*
X59232429Y-64270661D01*
X59232434Y-64270659D01*
X59237384Y-64269174D01*
X59437994Y-64170896D01*
X59619860Y-64041173D01*
X59683631Y-63977625D01*
X59748355Y-63913126D01*
X59778096Y-63883489D01*
X59908453Y-63702077D01*
X59909776Y-63703028D01*
X59956645Y-63659857D01*
X60026580Y-63647625D01*
X60092026Y-63675144D01*
X60119875Y-63706994D01*
X60179987Y-63805088D01*
X60326250Y-63973938D01*
X60423407Y-64054599D01*
X60493406Y-64112713D01*
X60498126Y-64116632D01*
X60691000Y-64229338D01*
X60899692Y-64309030D01*
X60904760Y-64310061D01*
X60904763Y-64310062D01*
X61006281Y-64330716D01*
X61118597Y-64353567D01*
X61123772Y-64353757D01*
X61123774Y-64353757D01*
X61336673Y-64361564D01*
X61336677Y-64361564D01*
X61341837Y-64361753D01*
X61346957Y-64361097D01*
X61346959Y-64361097D01*
X61558288Y-64334025D01*
X61558289Y-64334025D01*
X61563416Y-64333368D01*
X61616180Y-64317538D01*
X61772429Y-64270661D01*
X61772434Y-64270659D01*
X61777384Y-64269174D01*
X61977994Y-64170896D01*
X62159860Y-64041173D01*
X62223631Y-63977625D01*
X62288355Y-63913126D01*
X62318096Y-63883489D01*
X62448453Y-63702077D01*
X62449776Y-63703028D01*
X62496645Y-63659857D01*
X62566580Y-63647625D01*
X62632026Y-63675144D01*
X62659875Y-63706994D01*
X62719987Y-63805088D01*
X62866250Y-63973938D01*
X62963407Y-64054599D01*
X63033406Y-64112713D01*
X63038126Y-64116632D01*
X63231000Y-64229338D01*
X63439692Y-64309030D01*
X63444760Y-64310061D01*
X63444763Y-64310062D01*
X63546281Y-64330716D01*
X63658597Y-64353567D01*
X63663772Y-64353757D01*
X63663774Y-64353757D01*
X63876673Y-64361564D01*
X63876677Y-64361564D01*
X63881837Y-64361753D01*
X63886957Y-64361097D01*
X63886959Y-64361097D01*
X64098288Y-64334025D01*
X64098289Y-64334025D01*
X64103416Y-64333368D01*
X64156180Y-64317538D01*
X64312429Y-64270661D01*
X64312434Y-64270659D01*
X64317384Y-64269174D01*
X64517994Y-64170896D01*
X64583842Y-64123927D01*
X87121223Y-64123927D01*
X87127968Y-64136258D01*
X87867188Y-64875478D01*
X87881132Y-64883092D01*
X87882965Y-64882961D01*
X87889580Y-64878710D01*
X88633389Y-64134901D01*
X88640410Y-64122044D01*
X88633611Y-64112713D01*
X88629554Y-64110018D01*
X88443117Y-64007099D01*
X88433705Y-64002869D01*
X88232959Y-63931780D01*
X88222989Y-63929146D01*
X88013327Y-63891801D01*
X88003073Y-63890831D01*
X87790116Y-63888228D01*
X87779832Y-63888948D01*
X87569321Y-63921161D01*
X87559293Y-63923550D01*
X87356868Y-63989712D01*
X87347359Y-63993709D01*
X87158466Y-64092040D01*
X87149734Y-64097539D01*
X87129677Y-64112599D01*
X87121223Y-64123927D01*
X64583842Y-64123927D01*
X64699860Y-64041173D01*
X64763631Y-63977625D01*
X64828355Y-63913126D01*
X64858096Y-63883489D01*
X64988453Y-63702077D01*
X65008296Y-63661929D01*
X65085136Y-63506453D01*
X65085137Y-63506451D01*
X65087430Y-63501811D01*
X65152370Y-63288069D01*
X65181529Y-63066590D01*
X65181749Y-63057602D01*
X65183074Y-63003365D01*
X65183074Y-63003361D01*
X65183156Y-63000000D01*
X65164852Y-62777361D01*
X65110431Y-62560702D01*
X65021354Y-62355840D01*
X64981906Y-62294862D01*
X64902822Y-62172617D01*
X64902820Y-62172614D01*
X64900014Y-62168277D01*
X64749670Y-62003051D01*
X64745619Y-61999852D01*
X64745615Y-61999848D01*
X64578414Y-61867800D01*
X64578410Y-61867798D01*
X64574359Y-61864598D01*
X64378789Y-61756638D01*
X64373920Y-61754914D01*
X64373916Y-61754912D01*
X64173087Y-61683795D01*
X64173083Y-61683794D01*
X64168212Y-61682069D01*
X64163119Y-61681162D01*
X64163116Y-61681161D01*
X63953373Y-61643800D01*
X63953367Y-61643799D01*
X63948284Y-61642894D01*
X63874452Y-61641992D01*
X63730081Y-61640228D01*
X63730079Y-61640228D01*
X63724911Y-61640165D01*
X63504091Y-61673955D01*
X63291756Y-61743357D01*
X63093607Y-61846507D01*
X63089474Y-61849610D01*
X63089471Y-61849612D01*
X62925275Y-61972894D01*
X62914965Y-61980635D01*
X62911393Y-61984373D01*
X62803729Y-62097037D01*
X62760629Y-62142138D01*
X62653201Y-62299621D01*
X62598293Y-62344621D01*
X62527768Y-62352792D01*
X62464021Y-62321538D01*
X62443324Y-62297054D01*
X62362822Y-62172617D01*
X62362820Y-62172614D01*
X62360014Y-62168277D01*
X62209670Y-62003051D01*
X62205619Y-61999852D01*
X62205615Y-61999848D01*
X62038414Y-61867800D01*
X62038410Y-61867798D01*
X62034359Y-61864598D01*
X61838789Y-61756638D01*
X61833920Y-61754914D01*
X61833916Y-61754912D01*
X61633087Y-61683795D01*
X61633083Y-61683794D01*
X61628212Y-61682069D01*
X61623119Y-61681162D01*
X61623116Y-61681161D01*
X61413373Y-61643800D01*
X61413367Y-61643799D01*
X61408284Y-61642894D01*
X61334452Y-61641992D01*
X61190081Y-61640228D01*
X61190079Y-61640228D01*
X61184911Y-61640165D01*
X60964091Y-61673955D01*
X60751756Y-61743357D01*
X60553607Y-61846507D01*
X60549474Y-61849610D01*
X60549471Y-61849612D01*
X60385275Y-61972894D01*
X60374965Y-61980635D01*
X60371393Y-61984373D01*
X60263729Y-62097037D01*
X60220629Y-62142138D01*
X60113201Y-62299621D01*
X60058293Y-62344621D01*
X59987768Y-62352792D01*
X59924021Y-62321538D01*
X59903324Y-62297054D01*
X59822822Y-62172617D01*
X59822820Y-62172614D01*
X59820014Y-62168277D01*
X59669670Y-62003051D01*
X59665619Y-61999852D01*
X59665615Y-61999848D01*
X59498414Y-61867800D01*
X59498410Y-61867798D01*
X59494359Y-61864598D01*
X59298789Y-61756638D01*
X59293920Y-61754914D01*
X59293916Y-61754912D01*
X59093087Y-61683795D01*
X59093083Y-61683794D01*
X59088212Y-61682069D01*
X59083119Y-61681162D01*
X59083116Y-61681161D01*
X58873373Y-61643800D01*
X58873367Y-61643799D01*
X58868284Y-61642894D01*
X58794452Y-61641992D01*
X58650081Y-61640228D01*
X58650079Y-61640228D01*
X58644911Y-61640165D01*
X58424091Y-61673955D01*
X58211756Y-61743357D01*
X58013607Y-61846507D01*
X58009474Y-61849610D01*
X58009471Y-61849612D01*
X57845275Y-61972894D01*
X57834965Y-61980635D01*
X57778537Y-62039684D01*
X57754283Y-62065064D01*
X57692759Y-62100494D01*
X57621846Y-62097037D01*
X57564060Y-62055791D01*
X57545207Y-62022243D01*
X57503767Y-61911703D01*
X57500615Y-61903295D01*
X57413261Y-61786739D01*
X57296705Y-61699385D01*
X57160316Y-61648255D01*
X57098134Y-61641500D01*
X55301866Y-61641500D01*
X55239684Y-61648255D01*
X55103295Y-61699385D01*
X54986739Y-61786739D01*
X54899385Y-61903295D01*
X54848255Y-62039684D01*
X54841500Y-62101866D01*
X54841500Y-63898134D01*
X45167559Y-63898134D01*
X45085718Y-63891693D01*
X45085709Y-63891693D01*
X45083261Y-63891500D01*
X44927729Y-63891500D01*
X44925593Y-63891646D01*
X44925582Y-63891646D01*
X44717452Y-63905835D01*
X44717446Y-63905836D01*
X44713175Y-63906127D01*
X44708980Y-63906996D01*
X44708978Y-63906996D01*
X44572416Y-63935277D01*
X44431658Y-63964426D01*
X44160657Y-64060393D01*
X44099342Y-64092040D01*
X44024463Y-64130688D01*
X43905188Y-64192250D01*
X43901687Y-64194711D01*
X43901683Y-64194713D01*
X43848810Y-64231873D01*
X43669977Y-64357559D01*
X43636518Y-64388651D01*
X43465988Y-64547118D01*
X43459378Y-64553260D01*
X43277287Y-64775732D01*
X43127073Y-65020858D01*
X43011517Y-65284102D01*
X43010342Y-65288229D01*
X43010341Y-65288230D01*
X42984803Y-65377881D01*
X42932756Y-65560594D01*
X42892249Y-65845216D01*
X42892227Y-65849505D01*
X42892226Y-65849512D01*
X42890765Y-66128417D01*
X42890743Y-66132703D01*
X39508000Y-66132703D01*
X39508000Y-60634000D01*
X39528002Y-60565879D01*
X39581658Y-60519386D01*
X39634000Y-60508000D01*
X111874000Y-60508000D01*
X111942121Y-60528002D01*
G37*
G04 #@! TD.AperFunction*
M02*
