M48
; DRILL file {KiCad (6.0.0)} date Tue Jul 19 14:30:05 2022
; FORMAT={-:-/ absolute / metric / decimal}
; #@! TF.CreationDate,2022-07-19T14:30:05+02:00
; #@! TF.GenerationSoftware,Kicad,Pcbnew,(6.0.0)
; #@! TF.FileFunction,Plated,1,2,PTH
FMAT,2
METRIC
; #@! TA.AperFunction,Plated,PTH,ViaDrill
T1C0.400
; #@! TA.AperFunction,Plated,PTH,ComponentDrill
T2C0.450
; #@! TA.AperFunction,Plated,PTH,ComponentDrill
T3C0.900
; #@! TA.AperFunction,Plated,PTH,ComponentDrill
T4C1.000
; #@! TA.AperFunction,Plated,PTH,ComponentDrill
T5C1.100
; #@! TA.AperFunction,Plated,PTH,ComponentDrill
T6C1.300
%
G90
G05
T1
X85.5Y-94.5
X85.5Y-97.0
X85.5Y-99.5
X86.0Y-85.0
X86.0Y-86.5
X87.5Y-91.5
X94.5Y-90.5
X95.5Y-87.5
X97.5Y-99.0
X99.0Y-99.0
X100.5Y-99.0
X101.0Y-102.0
X102.0Y-99.0
X102.5Y-101.0
X112.0Y-104.5
X112.85Y-83.85
X114.0Y-103.5
X120.5Y-78.0
X126.0Y-88.0
X128.5Y-85.0
X130.5Y-95.0
X131.0Y-80.5
X135.0Y-82.0
X138.0Y-85.0
X145.5Y-93.5
T3
X72.46Y-90.0
X75.0Y-90.0
T4
X45.72Y-86.36
X45.72Y-99.06
X48.26Y-86.36
X48.26Y-99.06
X50.8Y-86.36
X50.8Y-99.06
X53.34Y-86.36
X53.34Y-99.06
X55.88Y-86.36
X55.88Y-99.06
X56.2Y-63.0
X58.42Y-86.36
X58.42Y-99.06
X58.74Y-63.0
X60.96Y-86.36
X60.96Y-99.06
X61.28Y-63.0
X63.5Y-86.36
X63.5Y-99.06
X63.82Y-63.0
X73.248Y-66.955
X73.248Y-69.495
X73.248Y-72.035
X75.787Y-66.955
X75.787Y-69.495
X75.787Y-72.035
X87.88Y-65.248
X87.88Y-67.787
X90.42Y-65.248
X90.42Y-67.787
X92.96Y-65.248
X92.96Y-67.787
X95.5Y-65.248
X95.5Y-67.787
X98.04Y-65.248
X98.04Y-67.787
X100.58Y-65.248
X100.58Y-67.787
X103.12Y-65.248
X103.12Y-67.787
X134.565Y-63.33
X134.565Y-65.87
X134.565Y-68.41
X134.565Y-70.95
X137.105Y-63.33
X137.105Y-65.87
X137.105Y-68.41
X137.105Y-70.95
T5
X55.5Y-113.0
X60.5Y-113.0
X65.5Y-113.0
X70.5Y-113.0
X80.5Y-113.0
X85.5Y-113.0
X90.5Y-113.0
X95.5Y-113.0
X105.5Y-113.0
X110.5Y-113.0
X115.5Y-113.0
X120.5Y-113.0
T6
X130.5Y-113.3
X135.5Y-113.3
T2
X150.15Y-97.425G85X150.95Y-97.425
G05
X150.95Y-104.575G85X150.15Y-104.575
G05
T0
M30
