G04 #@! TF.GenerationSoftware,KiCad,Pcbnew,(6.0.0)*
G04 #@! TF.CreationDate,2022-06-26T22:57:09+02:00*
G04 #@! TF.ProjectId,mht-ctl-back,6d68742d-6374-46c2-9d62-61636b2e6b69,rev?*
G04 #@! TF.SameCoordinates,Original*
G04 #@! TF.FileFunction,Legend,Top*
G04 #@! TF.FilePolarity,Positive*
%FSLAX46Y46*%
G04 Gerber Fmt 4.6, Leading zero omitted, Abs format (unit mm)*
G04 Created by KiCad (PCBNEW (6.0.0)) date 2022-06-26 22:57:09*
%MOMM*%
%LPD*%
G01*
G04 APERTURE LIST*
G04 Aperture macros list*
%AMRoundRect*
0 Rectangle with rounded corners*
0 $1 Rounding radius*
0 $2 $3 $4 $5 $6 $7 $8 $9 X,Y pos of 4 corners*
0 Add a 4 corners polygon primitive as box body*
4,1,4,$2,$3,$4,$5,$6,$7,$8,$9,$2,$3,0*
0 Add four circle primitives for the rounded corners*
1,1,$1+$1,$2,$3*
1,1,$1+$1,$4,$5*
1,1,$1+$1,$6,$7*
1,1,$1+$1,$8,$9*
0 Add four rect primitives between the rounded corners*
20,1,$1+$1,$2,$3,$4,$5,0*
20,1,$1+$1,$4,$5,$6,$7,0*
20,1,$1+$1,$6,$7,$8,$9,0*
20,1,$1+$1,$8,$9,$2,$3,0*%
G04 Aperture macros list end*
%ADD10C,0.150000*%
%ADD11C,0.120000*%
%ADD12O,2.400000X4.600000*%
%ADD13O,2.400000X4.660000*%
%ADD14RoundRect,0.250000X-0.600000X0.600000X-0.600000X-0.600000X0.600000X-0.600000X0.600000X0.600000X0*%
%ADD15C,1.700000*%
G04 APERTURE END LIST*
D10*
X160666666Y-93404761D02*
X160809523Y-93452380D01*
X161047619Y-93452380D01*
X161142857Y-93404761D01*
X161190476Y-93357142D01*
X161238095Y-93261904D01*
X161238095Y-93166666D01*
X161190476Y-93071428D01*
X161142857Y-93023809D01*
X161047619Y-92976190D01*
X160857142Y-92928571D01*
X160761904Y-92880952D01*
X160714285Y-92833333D01*
X160666666Y-92738095D01*
X160666666Y-92642857D01*
X160714285Y-92547619D01*
X160761904Y-92500000D01*
X160857142Y-92452380D01*
X161095238Y-92452380D01*
X161238095Y-92500000D01*
X161571428Y-92452380D02*
X161809523Y-93452380D01*
X162000000Y-92738095D01*
X162190476Y-93452380D01*
X162428571Y-92452380D01*
X163238095Y-92785714D02*
X163238095Y-93452380D01*
X163000000Y-92404761D02*
X162761904Y-93119047D01*
X163380952Y-93119047D01*
X161335595Y-103452380D02*
X161335595Y-102452380D01*
X161907023Y-103452380D01*
X161907023Y-102452380D01*
X162573690Y-102452380D02*
X162764166Y-102452380D01*
X162859404Y-102500000D01*
X162954642Y-102595238D01*
X163002261Y-102785714D01*
X163002261Y-103119047D01*
X162954642Y-103309523D01*
X162859404Y-103404761D01*
X162764166Y-103452380D01*
X162573690Y-103452380D01*
X162478452Y-103404761D01*
X162383214Y-103309523D01*
X162335595Y-103119047D01*
X162335595Y-102785714D01*
X162383214Y-102595238D01*
X162478452Y-102500000D01*
X162573690Y-102452380D01*
X165619047Y-103071428D02*
X166380952Y-103071428D01*
X161335595Y-108452380D02*
X161335595Y-107452380D01*
X161907023Y-108452380D01*
X161907023Y-107452380D01*
X162954642Y-108357142D02*
X162907023Y-108404761D01*
X162764166Y-108452380D01*
X162668928Y-108452380D01*
X162526071Y-108404761D01*
X162430833Y-108309523D01*
X162383214Y-108214285D01*
X162335595Y-108023809D01*
X162335595Y-107880952D01*
X162383214Y-107690476D01*
X162430833Y-107595238D01*
X162526071Y-107500000D01*
X162668928Y-107452380D01*
X162764166Y-107452380D01*
X162907023Y-107500000D01*
X162954642Y-107547619D01*
X153619047Y-103071428D02*
X154380952Y-103071428D01*
X154000000Y-103452380D02*
X154000000Y-102690476D01*
X161907023Y-98357142D02*
X161859404Y-98404761D01*
X161716547Y-98452380D01*
X161621309Y-98452380D01*
X161478452Y-98404761D01*
X161383214Y-98309523D01*
X161335595Y-98214285D01*
X161287976Y-98023809D01*
X161287976Y-97880952D01*
X161335595Y-97690476D01*
X161383214Y-97595238D01*
X161478452Y-97500000D01*
X161621309Y-97452380D01*
X161716547Y-97452380D01*
X161859404Y-97500000D01*
X161907023Y-97547619D01*
X188666666Y-93404761D02*
X188809523Y-93452380D01*
X189047619Y-93452380D01*
X189142857Y-93404761D01*
X189190476Y-93357142D01*
X189238095Y-93261904D01*
X189238095Y-93166666D01*
X189190476Y-93071428D01*
X189142857Y-93023809D01*
X189047619Y-92976190D01*
X188857142Y-92928571D01*
X188761904Y-92880952D01*
X188714285Y-92833333D01*
X188666666Y-92738095D01*
X188666666Y-92642857D01*
X188714285Y-92547619D01*
X188761904Y-92500000D01*
X188857142Y-92452380D01*
X189095238Y-92452380D01*
X189238095Y-92500000D01*
X189571428Y-92452380D02*
X189809523Y-93452380D01*
X190000000Y-92738095D01*
X190190476Y-93452380D01*
X190428571Y-92452380D01*
X191285714Y-92452380D02*
X190809523Y-92452380D01*
X190761904Y-92928571D01*
X190809523Y-92880952D01*
X190904761Y-92833333D01*
X191142857Y-92833333D01*
X191238095Y-92880952D01*
X191285714Y-92928571D01*
X191333333Y-93023809D01*
X191333333Y-93261904D01*
X191285714Y-93357142D01*
X191238095Y-93404761D01*
X191142857Y-93452380D01*
X190904761Y-93452380D01*
X190809523Y-93404761D01*
X190761904Y-93357142D01*
X189907023Y-98357142D02*
X189859404Y-98404761D01*
X189716547Y-98452380D01*
X189621309Y-98452380D01*
X189478452Y-98404761D01*
X189383214Y-98309523D01*
X189335595Y-98214285D01*
X189287976Y-98023809D01*
X189287976Y-97880952D01*
X189335595Y-97690476D01*
X189383214Y-97595238D01*
X189478452Y-97500000D01*
X189621309Y-97452380D01*
X189716547Y-97452380D01*
X189859404Y-97500000D01*
X189907023Y-97547619D01*
X193619047Y-103071428D02*
X194380952Y-103071428D01*
X189335595Y-103452380D02*
X189335595Y-102452380D01*
X189907023Y-103452380D01*
X189907023Y-102452380D01*
X190573690Y-102452380D02*
X190764166Y-102452380D01*
X190859404Y-102500000D01*
X190954642Y-102595238D01*
X191002261Y-102785714D01*
X191002261Y-103119047D01*
X190954642Y-103309523D01*
X190859404Y-103404761D01*
X190764166Y-103452380D01*
X190573690Y-103452380D01*
X190478452Y-103404761D01*
X190383214Y-103309523D01*
X190335595Y-103119047D01*
X190335595Y-102785714D01*
X190383214Y-102595238D01*
X190478452Y-102500000D01*
X190573690Y-102452380D01*
X189335595Y-108452380D02*
X189335595Y-107452380D01*
X189907023Y-108452380D01*
X189907023Y-107452380D01*
X190954642Y-108357142D02*
X190907023Y-108404761D01*
X190764166Y-108452380D01*
X190668928Y-108452380D01*
X190526071Y-108404761D01*
X190430833Y-108309523D01*
X190383214Y-108214285D01*
X190335595Y-108023809D01*
X190335595Y-107880952D01*
X190383214Y-107690476D01*
X190430833Y-107595238D01*
X190526071Y-107500000D01*
X190668928Y-107452380D01*
X190764166Y-107452380D01*
X190907023Y-107500000D01*
X190954642Y-107547619D01*
X181619047Y-103071428D02*
X182380952Y-103071428D01*
X182000000Y-103452380D02*
X182000000Y-102690476D01*
X112666666Y-93404761D02*
X112809523Y-93452380D01*
X113047619Y-93452380D01*
X113142857Y-93404761D01*
X113190476Y-93357142D01*
X113238095Y-93261904D01*
X113238095Y-93166666D01*
X113190476Y-93071428D01*
X113142857Y-93023809D01*
X113047619Y-92976190D01*
X112857142Y-92928571D01*
X112761904Y-92880952D01*
X112714285Y-92833333D01*
X112666666Y-92738095D01*
X112666666Y-92642857D01*
X112714285Y-92547619D01*
X112761904Y-92500000D01*
X112857142Y-92452380D01*
X113095238Y-92452380D01*
X113238095Y-92500000D01*
X113571428Y-92452380D02*
X113809523Y-93452380D01*
X114000000Y-92738095D01*
X114190476Y-93452380D01*
X114428571Y-92452380D01*
X114761904Y-92547619D02*
X114809523Y-92500000D01*
X114904761Y-92452380D01*
X115142857Y-92452380D01*
X115238095Y-92500000D01*
X115285714Y-92547619D01*
X115333333Y-92642857D01*
X115333333Y-92738095D01*
X115285714Y-92880952D01*
X114714285Y-93452380D01*
X115333333Y-93452380D01*
X105619047Y-103071428D02*
X106380952Y-103071428D01*
X106000000Y-103452380D02*
X106000000Y-102690476D01*
X113907023Y-98357142D02*
X113859404Y-98404761D01*
X113716547Y-98452380D01*
X113621309Y-98452380D01*
X113478452Y-98404761D01*
X113383214Y-98309523D01*
X113335595Y-98214285D01*
X113287976Y-98023809D01*
X113287976Y-97880952D01*
X113335595Y-97690476D01*
X113383214Y-97595238D01*
X113478452Y-97500000D01*
X113621309Y-97452380D01*
X113716547Y-97452380D01*
X113859404Y-97500000D01*
X113907023Y-97547619D01*
X113335595Y-103452380D02*
X113335595Y-102452380D01*
X113907023Y-103452380D01*
X113907023Y-102452380D01*
X114573690Y-102452380D02*
X114764166Y-102452380D01*
X114859404Y-102500000D01*
X114954642Y-102595238D01*
X115002261Y-102785714D01*
X115002261Y-103119047D01*
X114954642Y-103309523D01*
X114859404Y-103404761D01*
X114764166Y-103452380D01*
X114573690Y-103452380D01*
X114478452Y-103404761D01*
X114383214Y-103309523D01*
X114335595Y-103119047D01*
X114335595Y-102785714D01*
X114383214Y-102595238D01*
X114478452Y-102500000D01*
X114573690Y-102452380D01*
X117619047Y-103071428D02*
X118380952Y-103071428D01*
X113335595Y-108452380D02*
X113335595Y-107452380D01*
X113907023Y-108452380D01*
X113907023Y-107452380D01*
X114954642Y-108357142D02*
X114907023Y-108404761D01*
X114764166Y-108452380D01*
X114668928Y-108452380D01*
X114526071Y-108404761D01*
X114430833Y-108309523D01*
X114383214Y-108214285D01*
X114335595Y-108023809D01*
X114335595Y-107880952D01*
X114383214Y-107690476D01*
X114430833Y-107595238D01*
X114526071Y-107500000D01*
X114668928Y-107452380D01*
X114764166Y-107452380D01*
X114907023Y-107500000D01*
X114954642Y-107547619D01*
X89666666Y-93404761D02*
X89809523Y-93452380D01*
X90047619Y-93452380D01*
X90142857Y-93404761D01*
X90190476Y-93357142D01*
X90238095Y-93261904D01*
X90238095Y-93166666D01*
X90190476Y-93071428D01*
X90142857Y-93023809D01*
X90047619Y-92976190D01*
X89857142Y-92928571D01*
X89761904Y-92880952D01*
X89714285Y-92833333D01*
X89666666Y-92738095D01*
X89666666Y-92642857D01*
X89714285Y-92547619D01*
X89761904Y-92500000D01*
X89857142Y-92452380D01*
X90095238Y-92452380D01*
X90238095Y-92500000D01*
X90571428Y-92452380D02*
X90809523Y-93452380D01*
X91000000Y-92738095D01*
X91190476Y-93452380D01*
X91428571Y-92452380D01*
X92333333Y-93452380D02*
X91761904Y-93452380D01*
X92047619Y-93452380D02*
X92047619Y-92452380D01*
X91952380Y-92595238D01*
X91857142Y-92690476D01*
X91761904Y-92738095D01*
X82619047Y-103071428D02*
X83380952Y-103071428D01*
X83000000Y-103452380D02*
X83000000Y-102690476D01*
X90335595Y-103452380D02*
X90335595Y-102452380D01*
X90907023Y-103452380D01*
X90907023Y-102452380D01*
X91573690Y-102452380D02*
X91764166Y-102452380D01*
X91859404Y-102500000D01*
X91954642Y-102595238D01*
X92002261Y-102785714D01*
X92002261Y-103119047D01*
X91954642Y-103309523D01*
X91859404Y-103404761D01*
X91764166Y-103452380D01*
X91573690Y-103452380D01*
X91478452Y-103404761D01*
X91383214Y-103309523D01*
X91335595Y-103119047D01*
X91335595Y-102785714D01*
X91383214Y-102595238D01*
X91478452Y-102500000D01*
X91573690Y-102452380D01*
X90907023Y-98357142D02*
X90859404Y-98404761D01*
X90716547Y-98452380D01*
X90621309Y-98452380D01*
X90478452Y-98404761D01*
X90383214Y-98309523D01*
X90335595Y-98214285D01*
X90287976Y-98023809D01*
X90287976Y-97880952D01*
X90335595Y-97690476D01*
X90383214Y-97595238D01*
X90478452Y-97500000D01*
X90621309Y-97452380D01*
X90716547Y-97452380D01*
X90859404Y-97500000D01*
X90907023Y-97547619D01*
X90335595Y-108452380D02*
X90335595Y-107452380D01*
X90907023Y-108452380D01*
X90907023Y-107452380D01*
X91954642Y-108357142D02*
X91907023Y-108404761D01*
X91764166Y-108452380D01*
X91668928Y-108452380D01*
X91526071Y-108404761D01*
X91430833Y-108309523D01*
X91383214Y-108214285D01*
X91335595Y-108023809D01*
X91335595Y-107880952D01*
X91383214Y-107690476D01*
X91430833Y-107595238D01*
X91526071Y-107500000D01*
X91668928Y-107452380D01*
X91764166Y-107452380D01*
X91907023Y-107500000D01*
X91954642Y-107547619D01*
X94619047Y-103071428D02*
X95380952Y-103071428D01*
X135666666Y-93404761D02*
X135809523Y-93452380D01*
X136047619Y-93452380D01*
X136142857Y-93404761D01*
X136190476Y-93357142D01*
X136238095Y-93261904D01*
X136238095Y-93166666D01*
X136190476Y-93071428D01*
X136142857Y-93023809D01*
X136047619Y-92976190D01*
X135857142Y-92928571D01*
X135761904Y-92880952D01*
X135714285Y-92833333D01*
X135666666Y-92738095D01*
X135666666Y-92642857D01*
X135714285Y-92547619D01*
X135761904Y-92500000D01*
X135857142Y-92452380D01*
X136095238Y-92452380D01*
X136238095Y-92500000D01*
X136571428Y-92452380D02*
X136809523Y-93452380D01*
X137000000Y-92738095D01*
X137190476Y-93452380D01*
X137428571Y-92452380D01*
X137714285Y-92452380D02*
X138333333Y-92452380D01*
X138000000Y-92833333D01*
X138142857Y-92833333D01*
X138238095Y-92880952D01*
X138285714Y-92928571D01*
X138333333Y-93023809D01*
X138333333Y-93261904D01*
X138285714Y-93357142D01*
X138238095Y-93404761D01*
X138142857Y-93452380D01*
X137857142Y-93452380D01*
X137761904Y-93404761D01*
X137714285Y-93357142D01*
X136335595Y-103452380D02*
X136335595Y-102452380D01*
X136907023Y-103452380D01*
X136907023Y-102452380D01*
X137573690Y-102452380D02*
X137764166Y-102452380D01*
X137859404Y-102500000D01*
X137954642Y-102595238D01*
X138002261Y-102785714D01*
X138002261Y-103119047D01*
X137954642Y-103309523D01*
X137859404Y-103404761D01*
X137764166Y-103452380D01*
X137573690Y-103452380D01*
X137478452Y-103404761D01*
X137383214Y-103309523D01*
X137335595Y-103119047D01*
X137335595Y-102785714D01*
X137383214Y-102595238D01*
X137478452Y-102500000D01*
X137573690Y-102452380D01*
X128619047Y-103071428D02*
X129380952Y-103071428D01*
X129000000Y-103452380D02*
X129000000Y-102690476D01*
X140619047Y-103071428D02*
X141380952Y-103071428D01*
X136907023Y-98357142D02*
X136859404Y-98404761D01*
X136716547Y-98452380D01*
X136621309Y-98452380D01*
X136478452Y-98404761D01*
X136383214Y-98309523D01*
X136335595Y-98214285D01*
X136287976Y-98023809D01*
X136287976Y-97880952D01*
X136335595Y-97690476D01*
X136383214Y-97595238D01*
X136478452Y-97500000D01*
X136621309Y-97452380D01*
X136716547Y-97452380D01*
X136859404Y-97500000D01*
X136907023Y-97547619D01*
X136335595Y-108452380D02*
X136335595Y-107452380D01*
X136907023Y-108452380D01*
X136907023Y-107452380D01*
X137954642Y-108357142D02*
X137907023Y-108404761D01*
X137764166Y-108452380D01*
X137668928Y-108452380D01*
X137526071Y-108404761D01*
X137430833Y-108309523D01*
X137383214Y-108214285D01*
X137335595Y-108023809D01*
X137335595Y-107880952D01*
X137383214Y-107690476D01*
X137430833Y-107595238D01*
X137526071Y-107500000D01*
X137668928Y-107452380D01*
X137764166Y-107452380D01*
X137907023Y-107500000D01*
X137954642Y-107547619D01*
X155172380Y-123548333D02*
X155886666Y-123548333D01*
X156029523Y-123595952D01*
X156124761Y-123691190D01*
X156172380Y-123834047D01*
X156172380Y-123929285D01*
X156172380Y-122548333D02*
X156172380Y-123119761D01*
X156172380Y-122834047D02*
X155172380Y-122834047D01*
X155315238Y-122929285D01*
X155410476Y-123024523D01*
X155458095Y-123119761D01*
X153000000Y-94000000D02*
X171000000Y-94000000D01*
X171000000Y-94000000D02*
X171000000Y-112000000D01*
X171000000Y-112000000D02*
X153000000Y-112000000D01*
X153000000Y-112000000D02*
X153000000Y-94000000D01*
X169500000Y-103000000D02*
G75*
G03*
X169500000Y-103000000I-7500000J0D01*
G01*
X178000000Y-94000000D02*
X202000000Y-94000000D01*
X202000000Y-94000000D02*
X202000000Y-112000000D01*
X202000000Y-112000000D02*
X178000000Y-112000000D01*
X178000000Y-112000000D02*
X178000000Y-94000000D01*
X197500000Y-103000000D02*
G75*
G03*
X197500000Y-103000000I-7500000J0D01*
G01*
X105000000Y-94000000D02*
X123000000Y-94000000D01*
X123000000Y-94000000D02*
X123000000Y-112000000D01*
X123000000Y-112000000D02*
X105000000Y-112000000D01*
X105000000Y-112000000D02*
X105000000Y-94000000D01*
X121500000Y-103000000D02*
G75*
G03*
X121500000Y-103000000I-7500000J0D01*
G01*
X82000000Y-94000000D02*
X100000000Y-94000000D01*
X100000000Y-94000000D02*
X100000000Y-112000000D01*
X100000000Y-112000000D02*
X82000000Y-112000000D01*
X82000000Y-112000000D02*
X82000000Y-94000000D01*
X98500000Y-103000000D02*
G75*
G03*
X98500000Y-103000000I-7500000J0D01*
G01*
X128000000Y-94000000D02*
X146000000Y-94000000D01*
X146000000Y-94000000D02*
X146000000Y-112000000D01*
X146000000Y-112000000D02*
X128000000Y-112000000D01*
X128000000Y-112000000D02*
X128000000Y-94000000D01*
X144500000Y-103000000D02*
G75*
G03*
X144500000Y-103000000I-7500000J0D01*
G01*
D11*
X139950000Y-121270000D02*
X139950000Y-130390000D01*
X154830000Y-130390000D02*
X129170000Y-130390000D01*
X129170000Y-121270000D02*
X154830000Y-121270000D01*
X129170000Y-130390000D02*
X129170000Y-121270000D01*
X144050000Y-121270000D02*
X144050000Y-130390000D01*
X149120000Y-114650000D02*
X149620000Y-115650000D01*
X150120000Y-114650000D02*
X149120000Y-114650000D01*
X149620000Y-115650000D02*
X150120000Y-114650000D01*
X154830000Y-121270000D02*
X154830000Y-130390000D01*
%LPC*%
D12*
X159000000Y-98000000D03*
X159000000Y-103000000D03*
X159000000Y-108000000D03*
D13*
X156000000Y-103000000D03*
D12*
X168000000Y-103000000D03*
X187000000Y-98000000D03*
X187000000Y-103000000D03*
X187000000Y-108000000D03*
D13*
X184000000Y-103000000D03*
D12*
X196000000Y-103000000D03*
X111000000Y-98000000D03*
X111000000Y-103000000D03*
X111000000Y-108000000D03*
D13*
X108000000Y-103000000D03*
D12*
X120000000Y-103000000D03*
X88000000Y-98000000D03*
X88000000Y-103000000D03*
X88000000Y-108000000D03*
D13*
X85000000Y-103000000D03*
D12*
X97000000Y-103000000D03*
X134000000Y-98000000D03*
X134000000Y-103000000D03*
X134000000Y-108000000D03*
D13*
X131000000Y-103000000D03*
D12*
X143000000Y-103000000D03*
D14*
X149620000Y-117000000D03*
D15*
X149620000Y-119540000D03*
X147080000Y-117000000D03*
X147080000Y-119540000D03*
X144540000Y-117000000D03*
X144540000Y-119540000D03*
X142000000Y-117000000D03*
X142000000Y-119540000D03*
X139460000Y-117000000D03*
X139460000Y-119540000D03*
X136920000Y-117000000D03*
X136920000Y-119540000D03*
X134380000Y-117000000D03*
X134380000Y-119540000D03*
M02*
