M48
; DRILL file {KiCad (6.0.0)} date Sun Jun 26 22:57:12 2022
; FORMAT={-:-/ absolute / metric / decimal}
; #@! TF.CreationDate,2022-06-26T22:57:12+02:00
; #@! TF.GenerationSoftware,Kicad,Pcbnew,(6.0.0)
; #@! TF.FileFunction,Plated,1,2,PTH
FMAT,2
METRIC
; #@! TA.AperFunction,Plated,PTH,ComponentDrill
T1C1.000
%
G90
G05
T1
X134.38Y-117.0
X134.38Y-119.54
X136.92Y-117.0
X136.92Y-119.54
X139.46Y-117.0
X139.46Y-119.54
X142.0Y-117.0
X142.0Y-119.54
X144.54Y-117.0
X144.54Y-119.54
X147.08Y-117.0
X147.08Y-119.54
X149.62Y-117.0
X149.62Y-119.54
T1
X85.0Y-104.2G85X85.0Y-101.8
G05
X88.0Y-99.2G85X88.0Y-96.8
G05
X88.0Y-104.2G85X88.0Y-101.8
G05
X88.0Y-109.2G85X88.0Y-106.8
G05
X97.0Y-104.2G85X97.0Y-101.8
G05
X108.0Y-104.2G85X108.0Y-101.8
G05
X111.0Y-99.2G85X111.0Y-96.8
G05
X111.0Y-104.2G85X111.0Y-101.8
G05
X111.0Y-109.2G85X111.0Y-106.8
G05
X120.0Y-104.2G85X120.0Y-101.8
G05
X131.0Y-104.2G85X131.0Y-101.8
G05
X134.0Y-99.2G85X134.0Y-96.8
G05
X134.0Y-104.2G85X134.0Y-101.8
G05
X134.0Y-109.2G85X134.0Y-106.8
G05
X143.0Y-104.2G85X143.0Y-101.8
G05
X156.0Y-104.2G85X156.0Y-101.8
G05
X159.0Y-99.2G85X159.0Y-96.8
G05
X159.0Y-104.2G85X159.0Y-101.8
G05
X159.0Y-109.2G85X159.0Y-106.8
G05
X168.0Y-104.2G85X168.0Y-101.8
G05
X184.0Y-104.2G85X184.0Y-101.8
G05
X187.0Y-99.2G85X187.0Y-96.8
G05
X187.0Y-104.2G85X187.0Y-101.8
G05
X187.0Y-109.2G85X187.0Y-106.8
G05
X196.0Y-104.2G85X196.0Y-101.8
G05
T0
M30
