%FSLAX45Y45*%
G04 Gerber Fmt 4.5, Leading zero omitted, Abs format (unit mm)*
G04 Created by KiCad (PCBNEW (6.0.0)) date 2022-06-26 22:57:13*
%MOMM*%
%LPD*%
G01*
G04 APERTURE LIST*
%TA.AperFunction,Profile*%
%ADD10C,0.050000*%
%TD*%
%ADD11C,0.200000*%
G04 APERTURE END LIST*
D10*
X8000000Y-13000000D02*
X20400000Y-13000000D01*
X20400000Y-9200000D02*
X8000000Y-9200000D01*
X8000000Y-13000000D02*
X8000000Y-9200000D01*
X20400000Y-9200000D02*
X20400000Y-13000000D01*
D11*
X8255119Y-13312976D02*
X8255119Y-13112976D01*
X8302738Y-13112976D01*
X8331309Y-13122500D01*
X8350357Y-13141548D01*
X8359881Y-13160595D01*
X8369405Y-13198690D01*
X8369405Y-13227262D01*
X8359881Y-13265357D01*
X8350357Y-13284405D01*
X8331309Y-13303452D01*
X8302738Y-13312976D01*
X8255119Y-13312976D01*
X8455119Y-13312976D02*
X8455119Y-13179643D01*
X8455119Y-13217738D02*
X8464643Y-13198690D01*
X8474167Y-13189167D01*
X8493214Y-13179643D01*
X8512262Y-13179643D01*
X8578929Y-13312976D02*
X8578929Y-13179643D01*
X8578929Y-13112976D02*
X8569405Y-13122500D01*
X8578929Y-13132024D01*
X8588452Y-13122500D01*
X8578929Y-13112976D01*
X8578929Y-13132024D01*
X8702738Y-13312976D02*
X8683690Y-13303452D01*
X8674167Y-13284405D01*
X8674167Y-13112976D01*
X8807500Y-13312976D02*
X8788452Y-13303452D01*
X8778929Y-13284405D01*
X8778929Y-13112976D01*
X9036071Y-13312976D02*
X9036071Y-13112976D01*
X9102738Y-13255833D01*
X9169405Y-13112976D01*
X9169405Y-13312976D01*
X9350357Y-13312976D02*
X9350357Y-13208214D01*
X9340833Y-13189167D01*
X9321786Y-13179643D01*
X9283690Y-13179643D01*
X9264643Y-13189167D01*
X9350357Y-13303452D02*
X9331310Y-13312976D01*
X9283690Y-13312976D01*
X9264643Y-13303452D01*
X9255119Y-13284405D01*
X9255119Y-13265357D01*
X9264643Y-13246309D01*
X9283690Y-13236786D01*
X9331310Y-13236786D01*
X9350357Y-13227262D01*
X9445595Y-13179643D02*
X9445595Y-13379643D01*
X9445595Y-13189167D02*
X9464643Y-13179643D01*
X9502738Y-13179643D01*
X9521786Y-13189167D01*
X9531310Y-13198690D01*
X9540833Y-13217738D01*
X9540833Y-13274881D01*
X9531310Y-13293928D01*
X9521786Y-13303452D01*
X9502738Y-13312976D01*
X9464643Y-13312976D01*
X9445595Y-13303452D01*
X9626548Y-13293928D02*
X9636071Y-13303452D01*
X9626548Y-13312976D01*
X9617024Y-13303452D01*
X9626548Y-13293928D01*
X9626548Y-13312976D01*
X9626548Y-13189167D02*
X9636071Y-13198690D01*
X9626548Y-13208214D01*
X9617024Y-13198690D01*
X9626548Y-13189167D01*
X9626548Y-13208214D01*
M02*
