G04 #@! TF.GenerationSoftware,KiCad,Pcbnew,(6.0.0)*
G04 #@! TF.CreationDate,2022-06-26T22:57:09+02:00*
G04 #@! TF.ProjectId,mht-ctl-back,6d68742d-6374-46c2-9d62-61636b2e6b69,rev?*
G04 #@! TF.SameCoordinates,Original*
G04 #@! TF.FileFunction,Copper,L1,Top*
G04 #@! TF.FilePolarity,Positive*
%FSLAX46Y46*%
G04 Gerber Fmt 4.6, Leading zero omitted, Abs format (unit mm)*
G04 Created by KiCad (PCBNEW (6.0.0)) date 2022-06-26 22:57:09*
%MOMM*%
%LPD*%
G01*
G04 APERTURE LIST*
G04 Aperture macros list*
%AMRoundRect*
0 Rectangle with rounded corners*
0 $1 Rounding radius*
0 $2 $3 $4 $5 $6 $7 $8 $9 X,Y pos of 4 corners*
0 Add a 4 corners polygon primitive as box body*
4,1,4,$2,$3,$4,$5,$6,$7,$8,$9,$2,$3,0*
0 Add four circle primitives for the rounded corners*
1,1,$1+$1,$2,$3*
1,1,$1+$1,$4,$5*
1,1,$1+$1,$6,$7*
1,1,$1+$1,$8,$9*
0 Add four rect primitives between the rounded corners*
20,1,$1+$1,$2,$3,$4,$5,0*
20,1,$1+$1,$4,$5,$6,$7,0*
20,1,$1+$1,$6,$7,$8,$9,0*
20,1,$1+$1,$8,$9,$2,$3,0*%
G04 Aperture macros list end*
G04 #@! TA.AperFunction,ComponentPad*
%ADD10O,2.400000X4.600000*%
G04 #@! TD*
G04 #@! TA.AperFunction,ComponentPad*
%ADD11O,2.400000X4.660000*%
G04 #@! TD*
G04 #@! TA.AperFunction,ComponentPad*
%ADD12RoundRect,0.250000X-0.600000X0.600000X-0.600000X-0.600000X0.600000X-0.600000X0.600000X0.600000X0*%
G04 #@! TD*
G04 #@! TA.AperFunction,ComponentPad*
%ADD13C,1.700000*%
G04 #@! TD*
G04 #@! TA.AperFunction,Conductor*
%ADD14C,1.000000*%
G04 #@! TD*
G04 #@! TA.AperFunction,Conductor*
%ADD15C,2.000000*%
G04 #@! TD*
G04 APERTURE END LIST*
D10*
X159000000Y-98000000D03*
X159000000Y-103000000D03*
X159000000Y-108000000D03*
D11*
X156000000Y-103000000D03*
D10*
X168000000Y-103000000D03*
X187000000Y-98000000D03*
X187000000Y-103000000D03*
X187000000Y-108000000D03*
D11*
X184000000Y-103000000D03*
D10*
X196000000Y-103000000D03*
X111000000Y-98000000D03*
X111000000Y-103000000D03*
X111000000Y-108000000D03*
D11*
X108000000Y-103000000D03*
D10*
X120000000Y-103000000D03*
X88000000Y-98000000D03*
X88000000Y-103000000D03*
X88000000Y-108000000D03*
D11*
X85000000Y-103000000D03*
D10*
X97000000Y-103000000D03*
X134000000Y-98000000D03*
X134000000Y-103000000D03*
X134000000Y-108000000D03*
D11*
X131000000Y-103000000D03*
D10*
X143000000Y-103000000D03*
D12*
X149620000Y-117000000D03*
D13*
X149620000Y-119540000D03*
X147080000Y-117000000D03*
X147080000Y-119540000D03*
X144540000Y-117000000D03*
X144540000Y-119540000D03*
X142000000Y-117000000D03*
X142000000Y-119540000D03*
X139460000Y-117000000D03*
X139460000Y-119540000D03*
X136920000Y-117000000D03*
X136920000Y-119540000D03*
X134380000Y-117000000D03*
X134380000Y-119540000D03*
D14*
X136920000Y-114920000D02*
X136920000Y-117000000D01*
X136000000Y-114000000D02*
X136920000Y-114920000D01*
X101000000Y-114000000D02*
X136000000Y-114000000D01*
X88000000Y-103000000D02*
X90000000Y-103000000D01*
X90000000Y-103000000D02*
X101000000Y-114000000D01*
X136920000Y-119540000D02*
X136920000Y-121080000D01*
X85000000Y-120000000D02*
X87000000Y-122000000D01*
X136920000Y-121080000D02*
X136000000Y-122000000D01*
X136000000Y-122000000D02*
X87000000Y-122000000D01*
X85000000Y-120000000D02*
X85000000Y-103000000D01*
X137000000Y-112000000D02*
X139460000Y-114460000D01*
X122000000Y-112000000D02*
X137000000Y-112000000D01*
X113000000Y-103000000D02*
X122000000Y-112000000D01*
X111000000Y-103000000D02*
X113000000Y-103000000D01*
X139460000Y-114460000D02*
X139460000Y-117000000D01*
X142000000Y-108000000D02*
X142000000Y-117000000D01*
X137000000Y-103000000D02*
X142000000Y-108000000D01*
X134000000Y-103000000D02*
X137000000Y-103000000D01*
X163000000Y-110000000D02*
X163000000Y-105000000D01*
X147000000Y-112000000D02*
X161000000Y-112000000D01*
X144540000Y-114460000D02*
X147000000Y-112000000D01*
X144540000Y-117000000D02*
X144540000Y-114460000D01*
X161000000Y-103000000D02*
X159000000Y-103000000D01*
X161000000Y-112000000D02*
X163000000Y-110000000D01*
X163000000Y-105000000D02*
X161000000Y-103000000D01*
X191000000Y-105000000D02*
X189000000Y-103000000D01*
X189000000Y-103000000D02*
X187000000Y-103000000D01*
X191000000Y-112000000D02*
X191000000Y-105000000D01*
X149000000Y-114000000D02*
X189000000Y-114000000D01*
X147080000Y-117000000D02*
X147080000Y-115920000D01*
X189000000Y-114000000D02*
X191000000Y-112000000D01*
X147080000Y-115920000D02*
X149000000Y-114000000D01*
D15*
X194000000Y-98000000D02*
X187000000Y-98000000D01*
X120000000Y-100000000D02*
X118000000Y-98000000D01*
X143000000Y-103000000D02*
X143000000Y-100000000D01*
X95000000Y-98000000D02*
X111000000Y-98000000D01*
X196000000Y-100000000D02*
X194000000Y-98000000D01*
X134000000Y-98000000D02*
X141000000Y-98000000D01*
X97000000Y-100000000D02*
X95000000Y-98000000D01*
X118000000Y-98000000D02*
X134000000Y-98000000D01*
X149620000Y-119540000D02*
X149620000Y-117000000D01*
X159000000Y-98000000D02*
X165000000Y-98000000D01*
X166000000Y-98000000D02*
X187000000Y-98000000D01*
X111000000Y-98000000D02*
X117000000Y-98000000D01*
X143000000Y-100000000D02*
X141000000Y-98000000D01*
X141000000Y-98000000D02*
X159000000Y-98000000D01*
X97000000Y-103000000D02*
X97000000Y-100000000D01*
X149620000Y-119540000D02*
X193460000Y-119540000D01*
X168000000Y-100000000D02*
X166000000Y-98000000D01*
X88000000Y-98000000D02*
X95000000Y-98000000D01*
X117000000Y-98000000D02*
X118000000Y-98000000D01*
X165000000Y-98000000D02*
X166000000Y-98000000D01*
X168000000Y-103000000D02*
X168000000Y-100000000D01*
X120000000Y-103000000D02*
X120000000Y-100000000D01*
X196000000Y-103000000D02*
X196000000Y-100000000D01*
X193460000Y-119540000D02*
X196000000Y-117000000D01*
X196000000Y-117000000D02*
X196000000Y-103000000D01*
M02*
