G04 #@! TF.GenerationSoftware,KiCad,Pcbnew,(6.0.0)*
G04 #@! TF.CreationDate,2022-06-26T22:57:09+02:00*
G04 #@! TF.ProjectId,mht-ctl-back,6d68742d-6374-46c2-9d62-61636b2e6b69,rev?*
G04 #@! TF.SameCoordinates,Original*
G04 #@! TF.FileFunction,Copper,L2,Bot*
G04 #@! TF.FilePolarity,Positive*
%FSLAX46Y46*%
G04 Gerber Fmt 4.6, Leading zero omitted, Abs format (unit mm)*
G04 Created by KiCad (PCBNEW (6.0.0)) date 2022-06-26 22:57:09*
%MOMM*%
%LPD*%
G01*
G04 APERTURE LIST*
G04 Aperture macros list*
%AMRoundRect*
0 Rectangle with rounded corners*
0 $1 Rounding radius*
0 $2 $3 $4 $5 $6 $7 $8 $9 X,Y pos of 4 corners*
0 Add a 4 corners polygon primitive as box body*
4,1,4,$2,$3,$4,$5,$6,$7,$8,$9,$2,$3,0*
0 Add four circle primitives for the rounded corners*
1,1,$1+$1,$2,$3*
1,1,$1+$1,$4,$5*
1,1,$1+$1,$6,$7*
1,1,$1+$1,$8,$9*
0 Add four rect primitives between the rounded corners*
20,1,$1+$1,$2,$3,$4,$5,0*
20,1,$1+$1,$4,$5,$6,$7,0*
20,1,$1+$1,$6,$7,$8,$9,0*
20,1,$1+$1,$8,$9,$2,$3,0*%
G04 Aperture macros list end*
G04 #@! TA.AperFunction,ComponentPad*
%ADD10O,2.400000X4.600000*%
G04 #@! TD*
G04 #@! TA.AperFunction,ComponentPad*
%ADD11O,2.400000X4.660000*%
G04 #@! TD*
G04 #@! TA.AperFunction,ComponentPad*
%ADD12RoundRect,0.250000X-0.600000X0.600000X-0.600000X-0.600000X0.600000X-0.600000X0.600000X0.600000X0*%
G04 #@! TD*
G04 #@! TA.AperFunction,ComponentPad*
%ADD13C,1.700000*%
G04 #@! TD*
G04 #@! TA.AperFunction,Conductor*
%ADD14C,1.000000*%
G04 #@! TD*
G04 #@! TA.AperFunction,Conductor*
%ADD15C,2.000000*%
G04 #@! TD*
G04 APERTURE END LIST*
D10*
X159000000Y-98000000D03*
X159000000Y-103000000D03*
X159000000Y-108000000D03*
D11*
X156000000Y-103000000D03*
D10*
X168000000Y-103000000D03*
X187000000Y-98000000D03*
X187000000Y-103000000D03*
X187000000Y-108000000D03*
D11*
X184000000Y-103000000D03*
D10*
X196000000Y-103000000D03*
X111000000Y-98000000D03*
X111000000Y-103000000D03*
X111000000Y-108000000D03*
D11*
X108000000Y-103000000D03*
D10*
X120000000Y-103000000D03*
X88000000Y-98000000D03*
X88000000Y-103000000D03*
X88000000Y-108000000D03*
D11*
X85000000Y-103000000D03*
D10*
X97000000Y-103000000D03*
X134000000Y-98000000D03*
X134000000Y-103000000D03*
X134000000Y-108000000D03*
D11*
X131000000Y-103000000D03*
D10*
X143000000Y-103000000D03*
D12*
X149620000Y-117000000D03*
D13*
X149620000Y-119540000D03*
X147080000Y-117000000D03*
X147080000Y-119540000D03*
X144540000Y-117000000D03*
X144540000Y-119540000D03*
X142000000Y-117000000D03*
X142000000Y-119540000D03*
X139460000Y-117000000D03*
X139460000Y-119540000D03*
X136920000Y-117000000D03*
X136920000Y-119540000D03*
X134380000Y-117000000D03*
X134380000Y-119540000D03*
D14*
X110000000Y-123000000D02*
X108000000Y-121000000D01*
X139460000Y-119540000D02*
X139460000Y-121540000D01*
X138000000Y-123000000D02*
X110000000Y-123000000D01*
X139460000Y-121540000D02*
X138000000Y-123000000D01*
X108000000Y-121000000D02*
X108000000Y-103000000D01*
X142000000Y-119540000D02*
X142000000Y-121696364D01*
X131000000Y-103000000D02*
X127000000Y-103000000D01*
X138496854Y-125199510D02*
X109503146Y-125199510D01*
X109503146Y-125199510D02*
X101000000Y-116696364D01*
X127000000Y-103000000D02*
X118000000Y-94000000D01*
X101000000Y-97000000D02*
X104000000Y-94000000D01*
X142000000Y-121696364D02*
X138496854Y-125199510D01*
X101000000Y-116696364D02*
X101000000Y-97000000D01*
X104000000Y-94000000D02*
X118000000Y-94000000D01*
X156000000Y-123000000D02*
X156000000Y-103000000D01*
X154000000Y-125000000D02*
X156000000Y-123000000D01*
X144540000Y-119540000D02*
X144540000Y-122540000D01*
X147000000Y-125000000D02*
X154000000Y-125000000D01*
X144540000Y-122540000D02*
X147000000Y-125000000D01*
X148160000Y-123000000D02*
X151000000Y-123000000D01*
X151000000Y-123000000D02*
X152000000Y-122000000D01*
X152000000Y-101000000D02*
X152000000Y-97000000D01*
X175000000Y-103000000D02*
X166000000Y-94000000D01*
X147080000Y-121920000D02*
X148160000Y-123000000D01*
X152000000Y-97000000D02*
X155000000Y-94000000D01*
X184000000Y-103000000D02*
X175000000Y-103000000D01*
X147080000Y-119540000D02*
X147080000Y-121920000D01*
X152000000Y-122000000D02*
X152000000Y-101213674D01*
X155000000Y-94000000D02*
X166000000Y-94000000D01*
D15*
X146978447Y-114000000D02*
X149620000Y-116641553D01*
X134380000Y-115797919D02*
X136177919Y-114000000D01*
X136177919Y-114000000D02*
X146978447Y-114000000D01*
X149620000Y-116641553D02*
X149620000Y-117000000D01*
X134380000Y-117000000D02*
X134380000Y-115797919D01*
X134380000Y-117000000D02*
X134380000Y-119540000D01*
M02*
