G04 #@! TF.GenerationSoftware,KiCad,Pcbnew,(6.0.0)*
G04 #@! TF.CreationDate,2022-06-26T22:55:27+02:00*
G04 #@! TF.ProjectId,mht-servo-front,6d68742d-7365-4727-966f-2d66726f6e74,rev?*
G04 #@! TF.SameCoordinates,Original*
G04 #@! TF.FileFunction,Legend,Bot*
G04 #@! TF.FilePolarity,Positive*
%FSLAX46Y46*%
G04 Gerber Fmt 4.6, Leading zero omitted, Abs format (unit mm)*
G04 Created by KiCad (PCBNEW (6.0.0)) date 2022-06-26 22:55:27*
%MOMM*%
%LPD*%
G01*
G04 APERTURE LIST*
%ADD10C,0.250000*%
%ADD11C,3.200000*%
G04 APERTURE END LIST*
D10*
X185313690Y-108952380D02*
X185313690Y-109666666D01*
X185361309Y-109809523D01*
X185456547Y-109904761D01*
X185599404Y-109952380D01*
X185694642Y-109952380D01*
X184361309Y-109952380D02*
X184837500Y-109952380D01*
X184837500Y-108952380D01*
X183456547Y-109857142D02*
X183504166Y-109904761D01*
X183647023Y-109952380D01*
X183742261Y-109952380D01*
X183885119Y-109904761D01*
X183980357Y-109809523D01*
X184027976Y-109714285D01*
X184075595Y-109523809D01*
X184075595Y-109380952D01*
X184027976Y-109190476D01*
X183980357Y-109095238D01*
X183885119Y-109000000D01*
X183742261Y-108952380D01*
X183647023Y-108952380D01*
X183504166Y-109000000D01*
X183456547Y-109047619D01*
X182742261Y-108952380D02*
X182742261Y-109666666D01*
X182789880Y-109809523D01*
X182885119Y-109904761D01*
X183027976Y-109952380D01*
X183123214Y-109952380D01*
X181789880Y-109952380D02*
X182266071Y-109952380D01*
X182266071Y-108952380D01*
X180885119Y-109857142D02*
X180932738Y-109904761D01*
X181075595Y-109952380D01*
X181170833Y-109952380D01*
X181313690Y-109904761D01*
X181408928Y-109809523D01*
X181456547Y-109714285D01*
X181504166Y-109523809D01*
X181504166Y-109380952D01*
X181456547Y-109190476D01*
X181408928Y-109095238D01*
X181313690Y-109000000D01*
X181170833Y-108952380D01*
X181075595Y-108952380D01*
X180932738Y-109000000D01*
X180885119Y-109047619D01*
X180170833Y-108952380D02*
X180170833Y-109666666D01*
X180218452Y-109809523D01*
X180313690Y-109904761D01*
X180456547Y-109952380D01*
X180551785Y-109952380D01*
X179218452Y-109952380D02*
X179694642Y-109952380D01*
X179694642Y-108952380D01*
X178313690Y-109857142D02*
X178361309Y-109904761D01*
X178504166Y-109952380D01*
X178599404Y-109952380D01*
X178742261Y-109904761D01*
X178837500Y-109809523D01*
X178885119Y-109714285D01*
X178932738Y-109523809D01*
X178932738Y-109380952D01*
X178885119Y-109190476D01*
X178837500Y-109095238D01*
X178742261Y-109000000D01*
X178599404Y-108952380D01*
X178504166Y-108952380D01*
X178361309Y-109000000D01*
X178313690Y-109047619D01*
X177599404Y-108952380D02*
X177599404Y-109666666D01*
X177647023Y-109809523D01*
X177742261Y-109904761D01*
X177885119Y-109952380D01*
X177980357Y-109952380D01*
X176647023Y-109952380D02*
X177123214Y-109952380D01*
X177123214Y-108952380D01*
X175742261Y-109857142D02*
X175789880Y-109904761D01*
X175932738Y-109952380D01*
X176027976Y-109952380D01*
X176170833Y-109904761D01*
X176266071Y-109809523D01*
X176313690Y-109714285D01*
X176361309Y-109523809D01*
X176361309Y-109380952D01*
X176313690Y-109190476D01*
X176266071Y-109095238D01*
X176170833Y-109000000D01*
X176027976Y-108952380D01*
X175932738Y-108952380D01*
X175789880Y-109000000D01*
X175742261Y-109047619D01*
X131114880Y-109952380D02*
X131114880Y-108952380D01*
X131019642Y-109571428D02*
X130733928Y-109952380D01*
X130733928Y-109285714D02*
X131114880Y-109666666D01*
X130305357Y-109952380D02*
X130305357Y-109285714D01*
X130305357Y-108952380D02*
X130352976Y-109000000D01*
X130305357Y-109047619D01*
X130257738Y-109000000D01*
X130305357Y-108952380D01*
X130305357Y-109047619D01*
X129400595Y-109285714D02*
X129400595Y-109952380D01*
X129829166Y-109285714D02*
X129829166Y-109809523D01*
X129781547Y-109904761D01*
X129686309Y-109952380D01*
X129543452Y-109952380D01*
X129448214Y-109904761D01*
X129400595Y-109857142D01*
X185599404Y-96952380D02*
X185599404Y-95952380D01*
X185170833Y-96952380D02*
X185170833Y-96428571D01*
X185218452Y-96333333D01*
X185313690Y-96285714D01*
X185456547Y-96285714D01*
X185551785Y-96333333D01*
X185599404Y-96380952D01*
X184837500Y-96285714D02*
X184456547Y-96285714D01*
X184694642Y-95952380D02*
X184694642Y-96809523D01*
X184647023Y-96904761D01*
X184551785Y-96952380D01*
X184456547Y-96952380D01*
X184266071Y-96285714D02*
X183885119Y-96285714D01*
X184123214Y-95952380D02*
X184123214Y-96809523D01*
X184075595Y-96904761D01*
X183980357Y-96952380D01*
X183885119Y-96952380D01*
X183551785Y-96285714D02*
X183551785Y-97285714D01*
X183551785Y-96333333D02*
X183456547Y-96285714D01*
X183266071Y-96285714D01*
X183170833Y-96333333D01*
X183123214Y-96380952D01*
X183075595Y-96476190D01*
X183075595Y-96761904D01*
X183123214Y-96857142D01*
X183170833Y-96904761D01*
X183266071Y-96952380D01*
X183456547Y-96952380D01*
X183551785Y-96904761D01*
X182694642Y-96904761D02*
X182599404Y-96952380D01*
X182408928Y-96952380D01*
X182313690Y-96904761D01*
X182266071Y-96809523D01*
X182266071Y-96761904D01*
X182313690Y-96666666D01*
X182408928Y-96619047D01*
X182551785Y-96619047D01*
X182647023Y-96571428D01*
X182694642Y-96476190D01*
X182694642Y-96428571D01*
X182647023Y-96333333D01*
X182551785Y-96285714D01*
X182408928Y-96285714D01*
X182313690Y-96333333D01*
X181837500Y-96857142D02*
X181789880Y-96904761D01*
X181837500Y-96952380D01*
X181885119Y-96904761D01*
X181837500Y-96857142D01*
X181837500Y-96952380D01*
X181837500Y-96333333D02*
X181789880Y-96380952D01*
X181837500Y-96428571D01*
X181885119Y-96380952D01*
X181837500Y-96333333D01*
X181837500Y-96428571D01*
X180647023Y-95904761D02*
X181504166Y-97190476D01*
X179599404Y-95904761D02*
X180456547Y-97190476D01*
X178837500Y-96285714D02*
X178837500Y-97095238D01*
X178885119Y-97190476D01*
X178932738Y-97238095D01*
X179027976Y-97285714D01*
X179170833Y-97285714D01*
X179266071Y-97238095D01*
X178837500Y-96904761D02*
X178932738Y-96952380D01*
X179123214Y-96952380D01*
X179218452Y-96904761D01*
X179266071Y-96857142D01*
X179313690Y-96761904D01*
X179313690Y-96476190D01*
X179266071Y-96380952D01*
X179218452Y-96333333D01*
X179123214Y-96285714D01*
X178932738Y-96285714D01*
X178837500Y-96333333D01*
X178361309Y-96952380D02*
X178361309Y-96285714D01*
X178361309Y-95952380D02*
X178408928Y-96000000D01*
X178361309Y-96047619D01*
X178313690Y-96000000D01*
X178361309Y-95952380D01*
X178361309Y-96047619D01*
X178027976Y-96285714D02*
X177647023Y-96285714D01*
X177885119Y-95952380D02*
X177885119Y-96809523D01*
X177837500Y-96904761D01*
X177742261Y-96952380D01*
X177647023Y-96952380D01*
X177313690Y-96952380D02*
X177313690Y-95952380D01*
X176885119Y-96952380D02*
X176885119Y-96428571D01*
X176932738Y-96333333D01*
X177027976Y-96285714D01*
X177170833Y-96285714D01*
X177266071Y-96333333D01*
X177313690Y-96380952D01*
X175980357Y-96285714D02*
X175980357Y-96952380D01*
X176408928Y-96285714D02*
X176408928Y-96809523D01*
X176361309Y-96904761D01*
X176266071Y-96952380D01*
X176123214Y-96952380D01*
X176027976Y-96904761D01*
X175980357Y-96857142D01*
X175504166Y-96952380D02*
X175504166Y-95952380D01*
X175504166Y-96333333D02*
X175408928Y-96285714D01*
X175218452Y-96285714D01*
X175123214Y-96333333D01*
X175075595Y-96380952D01*
X175027976Y-96476190D01*
X175027976Y-96761904D01*
X175075595Y-96857142D01*
X175123214Y-96904761D01*
X175218452Y-96952380D01*
X175408928Y-96952380D01*
X175504166Y-96904761D01*
X174599404Y-96857142D02*
X174551785Y-96904761D01*
X174599404Y-96952380D01*
X174647023Y-96904761D01*
X174599404Y-96857142D01*
X174599404Y-96952380D01*
X173694642Y-96904761D02*
X173789880Y-96952380D01*
X173980357Y-96952380D01*
X174075595Y-96904761D01*
X174123214Y-96857142D01*
X174170833Y-96761904D01*
X174170833Y-96476190D01*
X174123214Y-96380952D01*
X174075595Y-96333333D01*
X173980357Y-96285714D01*
X173789880Y-96285714D01*
X173694642Y-96333333D01*
X173123214Y-96952380D02*
X173218452Y-96904761D01*
X173266071Y-96857142D01*
X173313690Y-96761904D01*
X173313690Y-96476190D01*
X173266071Y-96380952D01*
X173218452Y-96333333D01*
X173123214Y-96285714D01*
X172980357Y-96285714D01*
X172885119Y-96333333D01*
X172837500Y-96380952D01*
X172789880Y-96476190D01*
X172789880Y-96761904D01*
X172837500Y-96857142D01*
X172885119Y-96904761D01*
X172980357Y-96952380D01*
X173123214Y-96952380D01*
X172361309Y-96952380D02*
X172361309Y-96285714D01*
X172361309Y-96380952D02*
X172313690Y-96333333D01*
X172218452Y-96285714D01*
X172075595Y-96285714D01*
X171980357Y-96333333D01*
X171932738Y-96428571D01*
X171932738Y-96952380D01*
X171932738Y-96428571D02*
X171885119Y-96333333D01*
X171789880Y-96285714D01*
X171647023Y-96285714D01*
X171551785Y-96333333D01*
X171504166Y-96428571D01*
X171504166Y-96952380D01*
X170313690Y-95904761D02*
X171170833Y-97190476D01*
X169980357Y-96952380D02*
X169980357Y-95952380D01*
X169885119Y-96571428D02*
X169599404Y-96952380D01*
X169599404Y-96285714D02*
X169980357Y-96666666D01*
X169170833Y-96952380D02*
X169170833Y-96285714D01*
X169170833Y-95952380D02*
X169218452Y-96000000D01*
X169170833Y-96047619D01*
X169123214Y-96000000D01*
X169170833Y-95952380D01*
X169170833Y-96047619D01*
X168266071Y-96285714D02*
X168266071Y-96952380D01*
X168694642Y-96285714D02*
X168694642Y-96809523D01*
X168647023Y-96904761D01*
X168551785Y-96952380D01*
X168408928Y-96952380D01*
X168313690Y-96904761D01*
X168266071Y-96857142D01*
X167075595Y-95904761D02*
X167932738Y-97190476D01*
X166742261Y-96952380D02*
X166742261Y-95952380D01*
X166408928Y-96666666D01*
X166075595Y-95952380D01*
X166075595Y-96952380D01*
X165599404Y-96952380D02*
X165599404Y-96285714D01*
X165599404Y-95952380D02*
X165647023Y-96000000D01*
X165599404Y-96047619D01*
X165551785Y-96000000D01*
X165599404Y-95952380D01*
X165599404Y-96047619D01*
X165123214Y-96285714D02*
X165123214Y-96952380D01*
X165123214Y-96380952D02*
X165075595Y-96333333D01*
X164980357Y-96285714D01*
X164837500Y-96285714D01*
X164742261Y-96333333D01*
X164694642Y-96428571D01*
X164694642Y-96952380D01*
X164218452Y-96952380D02*
X164218452Y-96285714D01*
X164218452Y-95952380D02*
X164266071Y-96000000D01*
X164218452Y-96047619D01*
X164170833Y-96000000D01*
X164218452Y-95952380D01*
X164218452Y-96047619D01*
X163742261Y-96952380D02*
X163742261Y-95952380D01*
X163742261Y-96428571D02*
X163170833Y-96428571D01*
X163170833Y-96952380D02*
X163170833Y-95952380D01*
X162313690Y-96904761D02*
X162408928Y-96952380D01*
X162599404Y-96952380D01*
X162694642Y-96904761D01*
X162742261Y-96809523D01*
X162742261Y-96428571D01*
X162694642Y-96333333D01*
X162599404Y-96285714D01*
X162408928Y-96285714D01*
X162313690Y-96333333D01*
X162266071Y-96428571D01*
X162266071Y-96523809D01*
X162742261Y-96619047D01*
X161694642Y-96952380D02*
X161789880Y-96904761D01*
X161837500Y-96809523D01*
X161837500Y-95952380D01*
X161313690Y-96952380D02*
X161313690Y-96285714D01*
X161313690Y-96380952D02*
X161266071Y-96333333D01*
X161170833Y-96285714D01*
X161027976Y-96285714D01*
X160932738Y-96333333D01*
X160885119Y-96428571D01*
X160885119Y-96952380D01*
X160885119Y-96428571D02*
X160837500Y-96333333D01*
X160742261Y-96285714D01*
X160599404Y-96285714D01*
X160504166Y-96333333D01*
X160456547Y-96428571D01*
X160456547Y-96952380D01*
X159599404Y-96904761D02*
X159694642Y-96952380D01*
X159885119Y-96952380D01*
X159980357Y-96904761D01*
X160027976Y-96809523D01*
X160027976Y-96428571D01*
X159980357Y-96333333D01*
X159885119Y-96285714D01*
X159694642Y-96285714D01*
X159599404Y-96333333D01*
X159551785Y-96428571D01*
X159551785Y-96523809D01*
X160027976Y-96619047D01*
X159266071Y-96285714D02*
X158885119Y-96285714D01*
X159123214Y-95952380D02*
X159123214Y-96809523D01*
X159075595Y-96904761D01*
X158980357Y-96952380D01*
X158885119Y-96952380D01*
X158694642Y-95952380D02*
X158123214Y-95952380D01*
X158408928Y-96952380D02*
X158408928Y-95952380D01*
X157789880Y-96952380D02*
X157789880Y-96285714D01*
X157789880Y-96476190D02*
X157742261Y-96380952D01*
X157694642Y-96333333D01*
X157599404Y-96285714D01*
X157504166Y-96285714D01*
X156742261Y-96952380D02*
X156742261Y-96428571D01*
X156789880Y-96333333D01*
X156885119Y-96285714D01*
X157075595Y-96285714D01*
X157170833Y-96333333D01*
X156742261Y-96904761D02*
X156837500Y-96952380D01*
X157075595Y-96952380D01*
X157170833Y-96904761D01*
X157218452Y-96809523D01*
X157218452Y-96714285D01*
X157170833Y-96619047D01*
X157075595Y-96571428D01*
X156837500Y-96571428D01*
X156742261Y-96523809D01*
X155837500Y-96904761D02*
X155932738Y-96952380D01*
X156123214Y-96952380D01*
X156218452Y-96904761D01*
X156266071Y-96857142D01*
X156313690Y-96761904D01*
X156313690Y-96476190D01*
X156266071Y-96380952D01*
X156218452Y-96333333D01*
X156123214Y-96285714D01*
X155932738Y-96285714D01*
X155837500Y-96333333D01*
X155408928Y-96952380D02*
X155408928Y-95952380D01*
X155313690Y-96571428D02*
X155027976Y-96952380D01*
X155027976Y-96285714D02*
X155408928Y-96666666D01*
X154218452Y-96904761D02*
X154313690Y-96952380D01*
X154504166Y-96952380D01*
X154599404Y-96904761D01*
X154647023Y-96809523D01*
X154647023Y-96428571D01*
X154599404Y-96333333D01*
X154504166Y-96285714D01*
X154313690Y-96285714D01*
X154218452Y-96333333D01*
X154170833Y-96428571D01*
X154170833Y-96523809D01*
X154647023Y-96619047D01*
X153742261Y-96952380D02*
X153742261Y-96285714D01*
X153742261Y-96476190D02*
X153694642Y-96380952D01*
X153647023Y-96333333D01*
X153551785Y-96285714D01*
X153456547Y-96285714D01*
X146876785Y-96952380D02*
X146876785Y-96285714D01*
X146876785Y-96380952D02*
X146829166Y-96333333D01*
X146733928Y-96285714D01*
X146591071Y-96285714D01*
X146495833Y-96333333D01*
X146448214Y-96428571D01*
X146448214Y-96952380D01*
X146448214Y-96428571D02*
X146400595Y-96333333D01*
X146305357Y-96285714D01*
X146162500Y-96285714D01*
X146067261Y-96333333D01*
X146019642Y-96428571D01*
X146019642Y-96952380D01*
X145543452Y-96952380D02*
X145543452Y-95952380D01*
X145114880Y-96952380D02*
X145114880Y-96428571D01*
X145162500Y-96333333D01*
X145257738Y-96285714D01*
X145400595Y-96285714D01*
X145495833Y-96333333D01*
X145543452Y-96380952D01*
X144781547Y-96285714D02*
X144400595Y-96285714D01*
X144638690Y-95952380D02*
X144638690Y-96809523D01*
X144591071Y-96904761D01*
X144495833Y-96952380D01*
X144400595Y-96952380D01*
X144067261Y-96571428D02*
X143305357Y-96571428D01*
X142876785Y-96904761D02*
X142781547Y-96952380D01*
X142591071Y-96952380D01*
X142495833Y-96904761D01*
X142448214Y-96809523D01*
X142448214Y-96761904D01*
X142495833Y-96666666D01*
X142591071Y-96619047D01*
X142733928Y-96619047D01*
X142829166Y-96571428D01*
X142876785Y-96476190D01*
X142876785Y-96428571D01*
X142829166Y-96333333D01*
X142733928Y-96285714D01*
X142591071Y-96285714D01*
X142495833Y-96333333D01*
X141638690Y-96904761D02*
X141733928Y-96952380D01*
X141924404Y-96952380D01*
X142019642Y-96904761D01*
X142067261Y-96809523D01*
X142067261Y-96428571D01*
X142019642Y-96333333D01*
X141924404Y-96285714D01*
X141733928Y-96285714D01*
X141638690Y-96333333D01*
X141591071Y-96428571D01*
X141591071Y-96523809D01*
X142067261Y-96619047D01*
X141162500Y-96952380D02*
X141162500Y-96285714D01*
X141162500Y-96476190D02*
X141114880Y-96380952D01*
X141067261Y-96333333D01*
X140972023Y-96285714D01*
X140876785Y-96285714D01*
X140638690Y-96285714D02*
X140400595Y-96952380D01*
X140162500Y-96285714D01*
X139638690Y-96952380D02*
X139733928Y-96904761D01*
X139781547Y-96857142D01*
X139829166Y-96761904D01*
X139829166Y-96476190D01*
X139781547Y-96380952D01*
X139733928Y-96333333D01*
X139638690Y-96285714D01*
X139495833Y-96285714D01*
X139400595Y-96333333D01*
X139352976Y-96380952D01*
X139305357Y-96476190D01*
X139305357Y-96761904D01*
X139352976Y-96857142D01*
X139400595Y-96904761D01*
X139495833Y-96952380D01*
X139638690Y-96952380D01*
X138876785Y-96571428D02*
X138114880Y-96571428D01*
X137781547Y-96285714D02*
X137400595Y-96285714D01*
X137638690Y-96952380D02*
X137638690Y-96095238D01*
X137591071Y-96000000D01*
X137495833Y-95952380D01*
X137400595Y-95952380D01*
X137067261Y-96952380D02*
X137067261Y-96285714D01*
X137067261Y-96476190D02*
X137019642Y-96380952D01*
X136972023Y-96333333D01*
X136876785Y-96285714D01*
X136781547Y-96285714D01*
X136305357Y-96952380D02*
X136400595Y-96904761D01*
X136448214Y-96857142D01*
X136495833Y-96761904D01*
X136495833Y-96476190D01*
X136448214Y-96380952D01*
X136400595Y-96333333D01*
X136305357Y-96285714D01*
X136162500Y-96285714D01*
X136067261Y-96333333D01*
X136019642Y-96380952D01*
X135972023Y-96476190D01*
X135972023Y-96761904D01*
X136019642Y-96857142D01*
X136067261Y-96904761D01*
X136162500Y-96952380D01*
X136305357Y-96952380D01*
X135543452Y-96285714D02*
X135543452Y-96952380D01*
X135543452Y-96380952D02*
X135495833Y-96333333D01*
X135400595Y-96285714D01*
X135257738Y-96285714D01*
X135162500Y-96333333D01*
X135114880Y-96428571D01*
X135114880Y-96952380D01*
X134781547Y-96285714D02*
X134400595Y-96285714D01*
X134638690Y-95952380D02*
X134638690Y-96809523D01*
X134591071Y-96904761D01*
X134495833Y-96952380D01*
X134400595Y-96952380D01*
X132733928Y-96952380D02*
X133067261Y-96476190D01*
X133305357Y-96952380D02*
X133305357Y-95952380D01*
X132924404Y-95952380D01*
X132829166Y-96000000D01*
X132781547Y-96047619D01*
X132733928Y-96142857D01*
X132733928Y-96285714D01*
X132781547Y-96380952D01*
X132829166Y-96428571D01*
X132924404Y-96476190D01*
X133305357Y-96476190D01*
X132305357Y-96428571D02*
X131972023Y-96428571D01*
X131829166Y-96952380D02*
X132305357Y-96952380D01*
X132305357Y-95952380D01*
X131829166Y-95952380D01*
X131543452Y-95952380D02*
X131210119Y-96952380D01*
X130876785Y-95952380D01*
X129829166Y-96666666D02*
X129352976Y-96666666D01*
X129924404Y-96952380D02*
X129591071Y-95952380D01*
X129257738Y-96952380D01*
%LPC*%
D11*
X182500000Y-103000000D03*
X132500000Y-103000000D03*
M02*
