%FSLAX45Y45*%
G04 Gerber Fmt 4.5, Leading zero omitted, Abs format (unit mm)*
G04 Created by KiCad (PCBNEW (6.0.0)) date 2022-06-26 22:50:55*
%MOMM*%
%LPD*%
G01*
G04 APERTURE LIST*
%TA.AperFunction,Profile*%
%ADD10C,0.050000*%
%TD*%
%ADD11C,0.200000*%
G04 APERTURE END LIST*
D10*
X3400000Y-6000000D02*
X17600000Y-6000000D01*
X17600000Y-3000000D02*
X3400000Y-3000000D01*
X10800000Y-4700000D02*
G75*
G03*
X10800000Y-4700000I-800000J0D01*
G01*
X16100000Y-4700000D02*
G75*
G03*
X16100000Y-4700000I-800000J0D01*
G01*
X6200000Y-4700000D02*
G75*
G03*
X6200000Y-4700000I-800000J0D01*
G01*
X13300000Y-4700000D02*
G75*
G03*
X13300000Y-4700000I-800000J0D01*
G01*
X17600000Y-3000000D02*
X17600000Y-6000000D01*
X8500000Y-4700000D02*
G75*
G03*
X8500000Y-4700000I-800000J0D01*
G01*
X3400000Y-6000000D02*
X3400000Y-3000000D01*
D11*
X3655119Y-6312976D02*
X3655119Y-6112976D01*
X3702738Y-6112976D01*
X3731309Y-6122500D01*
X3750357Y-6141548D01*
X3759881Y-6160595D01*
X3769405Y-6198690D01*
X3769405Y-6227262D01*
X3759881Y-6265357D01*
X3750357Y-6284405D01*
X3731309Y-6303452D01*
X3702738Y-6312976D01*
X3655119Y-6312976D01*
X3855119Y-6312976D02*
X3855119Y-6179643D01*
X3855119Y-6217738D02*
X3864643Y-6198690D01*
X3874167Y-6189167D01*
X3893214Y-6179643D01*
X3912262Y-6179643D01*
X3978928Y-6312976D02*
X3978928Y-6179643D01*
X3978928Y-6112976D02*
X3969405Y-6122500D01*
X3978928Y-6132024D01*
X3988452Y-6122500D01*
X3978928Y-6112976D01*
X3978928Y-6132024D01*
X4102738Y-6312976D02*
X4083690Y-6303452D01*
X4074167Y-6284405D01*
X4074167Y-6112976D01*
X4207500Y-6312976D02*
X4188452Y-6303452D01*
X4178928Y-6284405D01*
X4178928Y-6112976D01*
X4436071Y-6312976D02*
X4436071Y-6112976D01*
X4502738Y-6255833D01*
X4569405Y-6112976D01*
X4569405Y-6312976D01*
X4750357Y-6312976D02*
X4750357Y-6208214D01*
X4740833Y-6189167D01*
X4721786Y-6179643D01*
X4683690Y-6179643D01*
X4664643Y-6189167D01*
X4750357Y-6303452D02*
X4731310Y-6312976D01*
X4683690Y-6312976D01*
X4664643Y-6303452D01*
X4655119Y-6284405D01*
X4655119Y-6265357D01*
X4664643Y-6246309D01*
X4683690Y-6236786D01*
X4731310Y-6236786D01*
X4750357Y-6227262D01*
X4845595Y-6179643D02*
X4845595Y-6379643D01*
X4845595Y-6189167D02*
X4864643Y-6179643D01*
X4902738Y-6179643D01*
X4921786Y-6189167D01*
X4931310Y-6198690D01*
X4940833Y-6217738D01*
X4940833Y-6274881D01*
X4931310Y-6293928D01*
X4921786Y-6303452D01*
X4902738Y-6312976D01*
X4864643Y-6312976D01*
X4845595Y-6303452D01*
X5026548Y-6293928D02*
X5036071Y-6303452D01*
X5026548Y-6312976D01*
X5017024Y-6303452D01*
X5026548Y-6293928D01*
X5026548Y-6312976D01*
X5026548Y-6189167D02*
X5036071Y-6198690D01*
X5026548Y-6208214D01*
X5017024Y-6198690D01*
X5026548Y-6189167D01*
X5026548Y-6208214D01*
M02*
