G04 #@! TF.GenerationSoftware,KiCad,Pcbnew,(6.0.0)*
G04 #@! TF.CreationDate,2022-06-26T22:50:44+02:00*
G04 #@! TF.ProjectId,mht-ctl-front,6d68742d-6374-46c2-9d66-726f6e742e6b,rev?*
G04 #@! TF.SameCoordinates,Original*
G04 #@! TF.FileFunction,Legend,Bot*
G04 #@! TF.FilePolarity,Positive*
%FSLAX46Y46*%
G04 Gerber Fmt 4.6, Leading zero omitted, Abs format (unit mm)*
G04 Created by KiCad (PCBNEW (6.0.0)) date 2022-06-26 22:50:44*
%MOMM*%
%LPD*%
G01*
G04 APERTURE LIST*
%ADD10C,0.250000*%
%ADD11C,3.200000*%
G04 APERTURE END LIST*
D10*
X50876785Y-31952380D02*
X50876785Y-31285714D01*
X50876785Y-31380952D02*
X50829166Y-31333333D01*
X50733928Y-31285714D01*
X50591071Y-31285714D01*
X50495833Y-31333333D01*
X50448214Y-31428571D01*
X50448214Y-31952380D01*
X50448214Y-31428571D02*
X50400595Y-31333333D01*
X50305357Y-31285714D01*
X50162500Y-31285714D01*
X50067261Y-31333333D01*
X50019642Y-31428571D01*
X50019642Y-31952380D01*
X49543452Y-31952380D02*
X49543452Y-30952380D01*
X49114880Y-31952380D02*
X49114880Y-31428571D01*
X49162500Y-31333333D01*
X49257738Y-31285714D01*
X49400595Y-31285714D01*
X49495833Y-31333333D01*
X49543452Y-31380952D01*
X48781547Y-31285714D02*
X48400595Y-31285714D01*
X48638690Y-30952380D02*
X48638690Y-31809523D01*
X48591071Y-31904761D01*
X48495833Y-31952380D01*
X48400595Y-31952380D01*
X48067261Y-31571428D02*
X47305357Y-31571428D01*
X46400595Y-31904761D02*
X46495833Y-31952380D01*
X46686309Y-31952380D01*
X46781547Y-31904761D01*
X46829166Y-31857142D01*
X46876785Y-31761904D01*
X46876785Y-31476190D01*
X46829166Y-31380952D01*
X46781547Y-31333333D01*
X46686309Y-31285714D01*
X46495833Y-31285714D01*
X46400595Y-31333333D01*
X46114880Y-31285714D02*
X45733928Y-31285714D01*
X45972023Y-30952380D02*
X45972023Y-31809523D01*
X45924404Y-31904761D01*
X45829166Y-31952380D01*
X45733928Y-31952380D01*
X45257738Y-31952380D02*
X45352976Y-31904761D01*
X45400595Y-31809523D01*
X45400595Y-30952380D01*
X44876785Y-31571428D02*
X44114880Y-31571428D01*
X43781547Y-31285714D02*
X43400595Y-31285714D01*
X43638690Y-31952380D02*
X43638690Y-31095238D01*
X43591071Y-31000000D01*
X43495833Y-30952380D01*
X43400595Y-30952380D01*
X43067261Y-31952380D02*
X43067261Y-31285714D01*
X43067261Y-31476190D02*
X43019642Y-31380952D01*
X42972023Y-31333333D01*
X42876785Y-31285714D01*
X42781547Y-31285714D01*
X42305357Y-31952380D02*
X42400595Y-31904761D01*
X42448214Y-31857142D01*
X42495833Y-31761904D01*
X42495833Y-31476190D01*
X42448214Y-31380952D01*
X42400595Y-31333333D01*
X42305357Y-31285714D01*
X42162500Y-31285714D01*
X42067261Y-31333333D01*
X42019642Y-31380952D01*
X41972023Y-31476190D01*
X41972023Y-31761904D01*
X42019642Y-31857142D01*
X42067261Y-31904761D01*
X42162500Y-31952380D01*
X42305357Y-31952380D01*
X41543452Y-31285714D02*
X41543452Y-31952380D01*
X41543452Y-31380952D02*
X41495833Y-31333333D01*
X41400595Y-31285714D01*
X41257738Y-31285714D01*
X41162500Y-31333333D01*
X41114880Y-31428571D01*
X41114880Y-31952380D01*
X40781547Y-31285714D02*
X40400595Y-31285714D01*
X40638690Y-30952380D02*
X40638690Y-31809523D01*
X40591071Y-31904761D01*
X40495833Y-31952380D01*
X40400595Y-31952380D01*
X38733928Y-31952380D02*
X39067261Y-31476190D01*
X39305357Y-31952380D02*
X39305357Y-30952380D01*
X38924404Y-30952380D01*
X38829166Y-31000000D01*
X38781547Y-31047619D01*
X38733928Y-31142857D01*
X38733928Y-31285714D01*
X38781547Y-31380952D01*
X38829166Y-31428571D01*
X38924404Y-31476190D01*
X39305357Y-31476190D01*
X38305357Y-31428571D02*
X37972023Y-31428571D01*
X37829166Y-31952380D02*
X38305357Y-31952380D01*
X38305357Y-30952380D01*
X37829166Y-30952380D01*
X37543452Y-30952380D02*
X37210119Y-31952380D01*
X36876785Y-30952380D01*
X35829166Y-31666666D02*
X35352976Y-31666666D01*
X35924404Y-31952380D02*
X35591071Y-30952380D01*
X35257738Y-31952380D01*
X174313690Y-57952380D02*
X174313690Y-58666666D01*
X174361309Y-58809523D01*
X174456547Y-58904761D01*
X174599404Y-58952380D01*
X174694642Y-58952380D01*
X173361309Y-58952380D02*
X173837500Y-58952380D01*
X173837500Y-57952380D01*
X172456547Y-58857142D02*
X172504166Y-58904761D01*
X172647023Y-58952380D01*
X172742261Y-58952380D01*
X172885119Y-58904761D01*
X172980357Y-58809523D01*
X173027976Y-58714285D01*
X173075595Y-58523809D01*
X173075595Y-58380952D01*
X173027976Y-58190476D01*
X172980357Y-58095238D01*
X172885119Y-58000000D01*
X172742261Y-57952380D01*
X172647023Y-57952380D01*
X172504166Y-58000000D01*
X172456547Y-58047619D01*
X171742261Y-57952380D02*
X171742261Y-58666666D01*
X171789880Y-58809523D01*
X171885119Y-58904761D01*
X172027976Y-58952380D01*
X172123214Y-58952380D01*
X170789880Y-58952380D02*
X171266071Y-58952380D01*
X171266071Y-57952380D01*
X169885119Y-58857142D02*
X169932738Y-58904761D01*
X170075595Y-58952380D01*
X170170833Y-58952380D01*
X170313690Y-58904761D01*
X170408928Y-58809523D01*
X170456547Y-58714285D01*
X170504166Y-58523809D01*
X170504166Y-58380952D01*
X170456547Y-58190476D01*
X170408928Y-58095238D01*
X170313690Y-58000000D01*
X170170833Y-57952380D01*
X170075595Y-57952380D01*
X169932738Y-58000000D01*
X169885119Y-58047619D01*
X169170833Y-57952380D02*
X169170833Y-58666666D01*
X169218452Y-58809523D01*
X169313690Y-58904761D01*
X169456547Y-58952380D01*
X169551785Y-58952380D01*
X168218452Y-58952380D02*
X168694642Y-58952380D01*
X168694642Y-57952380D01*
X167313690Y-58857142D02*
X167361309Y-58904761D01*
X167504166Y-58952380D01*
X167599404Y-58952380D01*
X167742261Y-58904761D01*
X167837500Y-58809523D01*
X167885119Y-58714285D01*
X167932738Y-58523809D01*
X167932738Y-58380952D01*
X167885119Y-58190476D01*
X167837500Y-58095238D01*
X167742261Y-58000000D01*
X167599404Y-57952380D01*
X167504166Y-57952380D01*
X167361309Y-58000000D01*
X167313690Y-58047619D01*
X166599404Y-57952380D02*
X166599404Y-58666666D01*
X166647023Y-58809523D01*
X166742261Y-58904761D01*
X166885119Y-58952380D01*
X166980357Y-58952380D01*
X165647023Y-58952380D02*
X166123214Y-58952380D01*
X166123214Y-57952380D01*
X164742261Y-58857142D02*
X164789880Y-58904761D01*
X164932738Y-58952380D01*
X165027976Y-58952380D01*
X165170833Y-58904761D01*
X165266071Y-58809523D01*
X165313690Y-58714285D01*
X165361309Y-58523809D01*
X165361309Y-58380952D01*
X165313690Y-58190476D01*
X165266071Y-58095238D01*
X165170833Y-58000000D01*
X165027976Y-57952380D01*
X164932738Y-57952380D01*
X164789880Y-58000000D01*
X164742261Y-58047619D01*
X174599404Y-31952380D02*
X174599404Y-30952380D01*
X174170833Y-31952380D02*
X174170833Y-31428571D01*
X174218452Y-31333333D01*
X174313690Y-31285714D01*
X174456547Y-31285714D01*
X174551785Y-31333333D01*
X174599404Y-31380952D01*
X173837500Y-31285714D02*
X173456547Y-31285714D01*
X173694642Y-30952380D02*
X173694642Y-31809523D01*
X173647023Y-31904761D01*
X173551785Y-31952380D01*
X173456547Y-31952380D01*
X173266071Y-31285714D02*
X172885119Y-31285714D01*
X173123214Y-30952380D02*
X173123214Y-31809523D01*
X173075595Y-31904761D01*
X172980357Y-31952380D01*
X172885119Y-31952380D01*
X172551785Y-31285714D02*
X172551785Y-32285714D01*
X172551785Y-31333333D02*
X172456547Y-31285714D01*
X172266071Y-31285714D01*
X172170833Y-31333333D01*
X172123214Y-31380952D01*
X172075595Y-31476190D01*
X172075595Y-31761904D01*
X172123214Y-31857142D01*
X172170833Y-31904761D01*
X172266071Y-31952380D01*
X172456547Y-31952380D01*
X172551785Y-31904761D01*
X171694642Y-31904761D02*
X171599404Y-31952380D01*
X171408928Y-31952380D01*
X171313690Y-31904761D01*
X171266071Y-31809523D01*
X171266071Y-31761904D01*
X171313690Y-31666666D01*
X171408928Y-31619047D01*
X171551785Y-31619047D01*
X171647023Y-31571428D01*
X171694642Y-31476190D01*
X171694642Y-31428571D01*
X171647023Y-31333333D01*
X171551785Y-31285714D01*
X171408928Y-31285714D01*
X171313690Y-31333333D01*
X170837500Y-31857142D02*
X170789880Y-31904761D01*
X170837500Y-31952380D01*
X170885119Y-31904761D01*
X170837500Y-31857142D01*
X170837500Y-31952380D01*
X170837500Y-31333333D02*
X170789880Y-31380952D01*
X170837500Y-31428571D01*
X170885119Y-31380952D01*
X170837500Y-31333333D01*
X170837500Y-31428571D01*
X169647023Y-30904761D02*
X170504166Y-32190476D01*
X168599404Y-30904761D02*
X169456547Y-32190476D01*
X167837500Y-31285714D02*
X167837500Y-32095238D01*
X167885119Y-32190476D01*
X167932738Y-32238095D01*
X168027976Y-32285714D01*
X168170833Y-32285714D01*
X168266071Y-32238095D01*
X167837500Y-31904761D02*
X167932738Y-31952380D01*
X168123214Y-31952380D01*
X168218452Y-31904761D01*
X168266071Y-31857142D01*
X168313690Y-31761904D01*
X168313690Y-31476190D01*
X168266071Y-31380952D01*
X168218452Y-31333333D01*
X168123214Y-31285714D01*
X167932738Y-31285714D01*
X167837500Y-31333333D01*
X167361309Y-31952380D02*
X167361309Y-31285714D01*
X167361309Y-30952380D02*
X167408928Y-31000000D01*
X167361309Y-31047619D01*
X167313690Y-31000000D01*
X167361309Y-30952380D01*
X167361309Y-31047619D01*
X167027976Y-31285714D02*
X166647023Y-31285714D01*
X166885119Y-30952380D02*
X166885119Y-31809523D01*
X166837500Y-31904761D01*
X166742261Y-31952380D01*
X166647023Y-31952380D01*
X166313690Y-31952380D02*
X166313690Y-30952380D01*
X165885119Y-31952380D02*
X165885119Y-31428571D01*
X165932738Y-31333333D01*
X166027976Y-31285714D01*
X166170833Y-31285714D01*
X166266071Y-31333333D01*
X166313690Y-31380952D01*
X164980357Y-31285714D02*
X164980357Y-31952380D01*
X165408928Y-31285714D02*
X165408928Y-31809523D01*
X165361309Y-31904761D01*
X165266071Y-31952380D01*
X165123214Y-31952380D01*
X165027976Y-31904761D01*
X164980357Y-31857142D01*
X164504166Y-31952380D02*
X164504166Y-30952380D01*
X164504166Y-31333333D02*
X164408928Y-31285714D01*
X164218452Y-31285714D01*
X164123214Y-31333333D01*
X164075595Y-31380952D01*
X164027976Y-31476190D01*
X164027976Y-31761904D01*
X164075595Y-31857142D01*
X164123214Y-31904761D01*
X164218452Y-31952380D01*
X164408928Y-31952380D01*
X164504166Y-31904761D01*
X163599404Y-31857142D02*
X163551785Y-31904761D01*
X163599404Y-31952380D01*
X163647023Y-31904761D01*
X163599404Y-31857142D01*
X163599404Y-31952380D01*
X162694642Y-31904761D02*
X162789880Y-31952380D01*
X162980357Y-31952380D01*
X163075595Y-31904761D01*
X163123214Y-31857142D01*
X163170833Y-31761904D01*
X163170833Y-31476190D01*
X163123214Y-31380952D01*
X163075595Y-31333333D01*
X162980357Y-31285714D01*
X162789880Y-31285714D01*
X162694642Y-31333333D01*
X162123214Y-31952380D02*
X162218452Y-31904761D01*
X162266071Y-31857142D01*
X162313690Y-31761904D01*
X162313690Y-31476190D01*
X162266071Y-31380952D01*
X162218452Y-31333333D01*
X162123214Y-31285714D01*
X161980357Y-31285714D01*
X161885119Y-31333333D01*
X161837500Y-31380952D01*
X161789880Y-31476190D01*
X161789880Y-31761904D01*
X161837500Y-31857142D01*
X161885119Y-31904761D01*
X161980357Y-31952380D01*
X162123214Y-31952380D01*
X161361309Y-31952380D02*
X161361309Y-31285714D01*
X161361309Y-31380952D02*
X161313690Y-31333333D01*
X161218452Y-31285714D01*
X161075595Y-31285714D01*
X160980357Y-31333333D01*
X160932738Y-31428571D01*
X160932738Y-31952380D01*
X160932738Y-31428571D02*
X160885119Y-31333333D01*
X160789880Y-31285714D01*
X160647023Y-31285714D01*
X160551785Y-31333333D01*
X160504166Y-31428571D01*
X160504166Y-31952380D01*
X159313690Y-30904761D02*
X160170833Y-32190476D01*
X158980357Y-31952380D02*
X158980357Y-30952380D01*
X158885119Y-31571428D02*
X158599404Y-31952380D01*
X158599404Y-31285714D02*
X158980357Y-31666666D01*
X158170833Y-31952380D02*
X158170833Y-31285714D01*
X158170833Y-30952380D02*
X158218452Y-31000000D01*
X158170833Y-31047619D01*
X158123214Y-31000000D01*
X158170833Y-30952380D01*
X158170833Y-31047619D01*
X157266071Y-31285714D02*
X157266071Y-31952380D01*
X157694642Y-31285714D02*
X157694642Y-31809523D01*
X157647023Y-31904761D01*
X157551785Y-31952380D01*
X157408928Y-31952380D01*
X157313690Y-31904761D01*
X157266071Y-31857142D01*
X156075595Y-30904761D02*
X156932738Y-32190476D01*
X155742261Y-31952380D02*
X155742261Y-30952380D01*
X155408928Y-31666666D01*
X155075595Y-30952380D01*
X155075595Y-31952380D01*
X154599404Y-31952380D02*
X154599404Y-31285714D01*
X154599404Y-30952380D02*
X154647023Y-31000000D01*
X154599404Y-31047619D01*
X154551785Y-31000000D01*
X154599404Y-30952380D01*
X154599404Y-31047619D01*
X154123214Y-31285714D02*
X154123214Y-31952380D01*
X154123214Y-31380952D02*
X154075595Y-31333333D01*
X153980357Y-31285714D01*
X153837500Y-31285714D01*
X153742261Y-31333333D01*
X153694642Y-31428571D01*
X153694642Y-31952380D01*
X153218452Y-31952380D02*
X153218452Y-31285714D01*
X153218452Y-30952380D02*
X153266071Y-31000000D01*
X153218452Y-31047619D01*
X153170833Y-31000000D01*
X153218452Y-30952380D01*
X153218452Y-31047619D01*
X152742261Y-31952380D02*
X152742261Y-30952380D01*
X152742261Y-31428571D02*
X152170833Y-31428571D01*
X152170833Y-31952380D02*
X152170833Y-30952380D01*
X151313690Y-31904761D02*
X151408928Y-31952380D01*
X151599404Y-31952380D01*
X151694642Y-31904761D01*
X151742261Y-31809523D01*
X151742261Y-31428571D01*
X151694642Y-31333333D01*
X151599404Y-31285714D01*
X151408928Y-31285714D01*
X151313690Y-31333333D01*
X151266071Y-31428571D01*
X151266071Y-31523809D01*
X151742261Y-31619047D01*
X150694642Y-31952380D02*
X150789880Y-31904761D01*
X150837500Y-31809523D01*
X150837500Y-30952380D01*
X150313690Y-31952380D02*
X150313690Y-31285714D01*
X150313690Y-31380952D02*
X150266071Y-31333333D01*
X150170833Y-31285714D01*
X150027976Y-31285714D01*
X149932738Y-31333333D01*
X149885119Y-31428571D01*
X149885119Y-31952380D01*
X149885119Y-31428571D02*
X149837500Y-31333333D01*
X149742261Y-31285714D01*
X149599404Y-31285714D01*
X149504166Y-31333333D01*
X149456547Y-31428571D01*
X149456547Y-31952380D01*
X148599404Y-31904761D02*
X148694642Y-31952380D01*
X148885119Y-31952380D01*
X148980357Y-31904761D01*
X149027976Y-31809523D01*
X149027976Y-31428571D01*
X148980357Y-31333333D01*
X148885119Y-31285714D01*
X148694642Y-31285714D01*
X148599404Y-31333333D01*
X148551785Y-31428571D01*
X148551785Y-31523809D01*
X149027976Y-31619047D01*
X148266071Y-31285714D02*
X147885119Y-31285714D01*
X148123214Y-30952380D02*
X148123214Y-31809523D01*
X148075595Y-31904761D01*
X147980357Y-31952380D01*
X147885119Y-31952380D01*
X147694642Y-30952380D02*
X147123214Y-30952380D01*
X147408928Y-31952380D02*
X147408928Y-30952380D01*
X146789880Y-31952380D02*
X146789880Y-31285714D01*
X146789880Y-31476190D02*
X146742261Y-31380952D01*
X146694642Y-31333333D01*
X146599404Y-31285714D01*
X146504166Y-31285714D01*
X145742261Y-31952380D02*
X145742261Y-31428571D01*
X145789880Y-31333333D01*
X145885119Y-31285714D01*
X146075595Y-31285714D01*
X146170833Y-31333333D01*
X145742261Y-31904761D02*
X145837500Y-31952380D01*
X146075595Y-31952380D01*
X146170833Y-31904761D01*
X146218452Y-31809523D01*
X146218452Y-31714285D01*
X146170833Y-31619047D01*
X146075595Y-31571428D01*
X145837500Y-31571428D01*
X145742261Y-31523809D01*
X144837500Y-31904761D02*
X144932738Y-31952380D01*
X145123214Y-31952380D01*
X145218452Y-31904761D01*
X145266071Y-31857142D01*
X145313690Y-31761904D01*
X145313690Y-31476190D01*
X145266071Y-31380952D01*
X145218452Y-31333333D01*
X145123214Y-31285714D01*
X144932738Y-31285714D01*
X144837500Y-31333333D01*
X144408928Y-31952380D02*
X144408928Y-30952380D01*
X144313690Y-31571428D02*
X144027976Y-31952380D01*
X144027976Y-31285714D02*
X144408928Y-31666666D01*
X143218452Y-31904761D02*
X143313690Y-31952380D01*
X143504166Y-31952380D01*
X143599404Y-31904761D01*
X143647023Y-31809523D01*
X143647023Y-31428571D01*
X143599404Y-31333333D01*
X143504166Y-31285714D01*
X143313690Y-31285714D01*
X143218452Y-31333333D01*
X143170833Y-31428571D01*
X143170833Y-31523809D01*
X143647023Y-31619047D01*
X142742261Y-31952380D02*
X142742261Y-31285714D01*
X142742261Y-31476190D02*
X142694642Y-31380952D01*
X142647023Y-31333333D01*
X142551785Y-31285714D01*
X142456547Y-31285714D01*
X37114880Y-58952380D02*
X37114880Y-57952380D01*
X37019642Y-58571428D02*
X36733928Y-58952380D01*
X36733928Y-58285714D02*
X37114880Y-58666666D01*
X36305357Y-58952380D02*
X36305357Y-58285714D01*
X36305357Y-57952380D02*
X36352976Y-58000000D01*
X36305357Y-58047619D01*
X36257738Y-58000000D01*
X36305357Y-57952380D01*
X36305357Y-58047619D01*
X35400595Y-58285714D02*
X35400595Y-58952380D01*
X35829166Y-58285714D02*
X35829166Y-58809523D01*
X35781547Y-58904761D01*
X35686309Y-58952380D01*
X35543452Y-58952380D01*
X35448214Y-58904761D01*
X35400595Y-58857142D01*
%LPC*%
D11*
X171000000Y-40000000D03*
X39000000Y-54000000D03*
X39000000Y-40000000D03*
X171000000Y-54000000D03*
M02*
