G04 #@! TF.GenerationSoftware,KiCad,Pcbnew,(6.0.0)*
G04 #@! TF.CreationDate,2022-06-26T22:50:44+02:00*
G04 #@! TF.ProjectId,mht-ctl-front,6d68742d-6374-46c2-9d66-726f6e742e6b,rev?*
G04 #@! TF.SameCoordinates,Original*
G04 #@! TF.FileFunction,Legend,Top*
G04 #@! TF.FilePolarity,Positive*
%FSLAX46Y46*%
G04 Gerber Fmt 4.6, Leading zero omitted, Abs format (unit mm)*
G04 Created by KiCad (PCBNEW (6.0.0)) date 2022-06-26 22:50:44*
%MOMM*%
%LPD*%
G01*
G04 APERTURE LIST*
%ADD10C,0.400000*%
%ADD11C,0.250000*%
%ADD12C,3.200000*%
G04 APERTURE END LIST*
D10*
X64000000Y-37000000D02*
X64000000Y-35000000D01*
X135000000Y-37000000D02*
X115000000Y-37000000D01*
X64000000Y-57000000D02*
X44000000Y-57000000D01*
X110000000Y-57000000D02*
X90000000Y-57000000D01*
X44000000Y-57000000D02*
X44000000Y-37000000D01*
X64000000Y-35000000D02*
G75*
G03*
X61585786Y-33000000I-2414214J-457107D01*
G01*
X87000000Y-37000000D02*
X67000000Y-37000000D01*
X64000000Y-57000000D02*
X64000000Y-37000000D01*
X46000000Y-33000000D02*
G75*
G03*
X44000000Y-35000000I-1J-1999999D01*
G01*
X87000000Y-57000000D02*
X87000000Y-37000000D01*
X115000000Y-37000000D02*
X115000000Y-35000000D01*
X87000000Y-37000000D02*
X87000000Y-35000000D01*
X166000000Y-37000000D02*
X140000000Y-37000000D01*
X90000000Y-57000000D02*
X90000000Y-37000000D01*
X110000000Y-37000000D02*
X110000000Y-35000000D01*
X166000000Y-35000000D02*
G75*
G03*
X164000000Y-33000000I-1999999J1D01*
G01*
X61585786Y-33000000D02*
X46000000Y-33000000D01*
X117000000Y-33000000D02*
G75*
G03*
X115000000Y-35000000I-1J-1999999D01*
G01*
X115000000Y-57000000D02*
X115000000Y-37000000D01*
X135000000Y-57000000D02*
X135000000Y-37000000D01*
X135000000Y-37000000D02*
X135000000Y-35000000D01*
X84585786Y-33000000D02*
X69000000Y-33000000D01*
X110000000Y-35000000D02*
G75*
G03*
X107585786Y-33000000I-2414214J-457107D01*
G01*
X135000000Y-35000000D02*
G75*
G03*
X132585786Y-33000000I-2414214J-457107D01*
G01*
X67000000Y-37000000D02*
X67000000Y-35000000D01*
X90000000Y-37000000D02*
X90000000Y-35000000D01*
X87000000Y-35000000D02*
G75*
G03*
X84585786Y-33000000I-2414214J-457107D01*
G01*
X135000000Y-57000000D02*
X115000000Y-57000000D01*
X166000000Y-37000000D02*
X166000000Y-35000000D01*
X69000000Y-33000000D02*
G75*
G03*
X67000000Y-35000000I-1J-1999999D01*
G01*
X92000000Y-33000000D02*
G75*
G03*
X90000000Y-35000000I-1J-1999999D01*
G01*
X110000000Y-57000000D02*
X110000000Y-37000000D01*
X107585786Y-33000000D02*
X92000000Y-33000000D01*
X67000000Y-57000000D02*
X67000000Y-37000000D01*
X142000000Y-33000000D02*
G75*
G03*
X140000000Y-35000000I-1J-1999999D01*
G01*
X140000000Y-37000000D02*
X140000000Y-35000000D01*
X140000000Y-57000000D02*
X140000000Y-37000000D01*
X132585786Y-33000000D02*
X117000000Y-33000000D01*
X64000000Y-37000000D02*
X44000000Y-37000000D01*
X166000000Y-57000000D02*
X140000000Y-57000000D01*
X87000000Y-57000000D02*
X67000000Y-57000000D01*
X164000000Y-33000000D02*
X142000000Y-33000000D01*
X110000000Y-37000000D02*
X90000000Y-37000000D01*
X166000000Y-57000000D02*
X166000000Y-37000000D01*
X44000000Y-37000000D02*
X44000000Y-35000000D01*
D11*
X173142857Y-58952380D02*
X173142857Y-57952380D01*
X173238095Y-58571428D02*
X173523809Y-58952380D01*
X173523809Y-58285714D02*
X173142857Y-58666666D01*
X173952380Y-58952380D02*
X173952380Y-58285714D01*
X173952380Y-57952380D02*
X173904761Y-58000000D01*
X173952380Y-58047619D01*
X174000000Y-58000000D01*
X173952380Y-57952380D01*
X173952380Y-58047619D01*
X174857142Y-58285714D02*
X174857142Y-58952380D01*
X174428571Y-58285714D02*
X174428571Y-58809523D01*
X174476190Y-58904761D01*
X174571428Y-58952380D01*
X174714285Y-58952380D01*
X174809523Y-58904761D01*
X174857142Y-58857142D01*
D10*
X118914285Y-35814285D02*
X118914285Y-34014285D01*
X119600000Y-34014285D01*
X119771428Y-34100000D01*
X119857142Y-34185714D01*
X119942857Y-34357142D01*
X119942857Y-34614285D01*
X119857142Y-34785714D01*
X119771428Y-34871428D01*
X119600000Y-34957142D01*
X118914285Y-34957142D01*
X121571428Y-35814285D02*
X120714285Y-35814285D01*
X120714285Y-34014285D01*
X122085714Y-35300000D02*
X122942857Y-35300000D01*
X121914285Y-35814285D02*
X122514285Y-34014285D01*
X123114285Y-35814285D01*
X124057142Y-34957142D02*
X124057142Y-35814285D01*
X123457142Y-34014285D02*
X124057142Y-34957142D01*
X124657142Y-34014285D01*
X125600000Y-34014285D02*
X125942857Y-34014285D01*
X126114285Y-34100000D01*
X126285714Y-34271428D01*
X126371428Y-34614285D01*
X126371428Y-35214285D01*
X126285714Y-35557142D01*
X126114285Y-35728571D01*
X125942857Y-35814285D01*
X125600000Y-35814285D01*
X125428571Y-35728571D01*
X125257142Y-35557142D01*
X125171428Y-35214285D01*
X125171428Y-34614285D01*
X125257142Y-34271428D01*
X125428571Y-34100000D01*
X125600000Y-34014285D01*
X127742857Y-34871428D02*
X127142857Y-34871428D01*
X127142857Y-35814285D02*
X127142857Y-34014285D01*
X128000000Y-34014285D01*
X129285714Y-34871428D02*
X128685714Y-34871428D01*
X128685714Y-35814285D02*
X128685714Y-34014285D01*
X129542857Y-34014285D01*
X130142857Y-35728571D02*
X130400000Y-35814285D01*
X130828571Y-35814285D01*
X131000000Y-35728571D01*
X131085714Y-35642857D01*
X131171428Y-35471428D01*
X131171428Y-35300000D01*
X131085714Y-35128571D01*
X131000000Y-35042857D01*
X130828571Y-34957142D01*
X130485714Y-34871428D01*
X130314285Y-34785714D01*
X130228571Y-34700000D01*
X130142857Y-34528571D01*
X130142857Y-34357142D01*
X130228571Y-34185714D01*
X130314285Y-34100000D01*
X130485714Y-34014285D01*
X130914285Y-34014285D01*
X131171428Y-34100000D01*
X69714285Y-35642857D02*
X69628571Y-35728571D01*
X69371428Y-35814285D01*
X69200000Y-35814285D01*
X68942857Y-35728571D01*
X68771428Y-35557142D01*
X68685714Y-35385714D01*
X68600000Y-35042857D01*
X68600000Y-34785714D01*
X68685714Y-34442857D01*
X68771428Y-34271428D01*
X68942857Y-34100000D01*
X69200000Y-34014285D01*
X69371428Y-34014285D01*
X69628571Y-34100000D01*
X69714285Y-34185714D01*
X70828571Y-34014285D02*
X71171428Y-34014285D01*
X71342857Y-34100000D01*
X71514285Y-34271428D01*
X71600000Y-34614285D01*
X71600000Y-35214285D01*
X71514285Y-35557142D01*
X71342857Y-35728571D01*
X71171428Y-35814285D01*
X70828571Y-35814285D01*
X70657142Y-35728571D01*
X70485714Y-35557142D01*
X70400000Y-35214285D01*
X70400000Y-34614285D01*
X70485714Y-34271428D01*
X70657142Y-34100000D01*
X70828571Y-34014285D01*
X72371428Y-35814285D02*
X72371428Y-34014285D01*
X73400000Y-35814285D01*
X73400000Y-34014285D01*
X74857142Y-34871428D02*
X74257142Y-34871428D01*
X74257142Y-35814285D02*
X74257142Y-34014285D01*
X75114285Y-34014285D01*
X75800000Y-34871428D02*
X76400000Y-34871428D01*
X76657142Y-35814285D02*
X75800000Y-35814285D01*
X75800000Y-34014285D01*
X76657142Y-34014285D01*
X78457142Y-35814285D02*
X77857142Y-34957142D01*
X77428571Y-35814285D02*
X77428571Y-34014285D01*
X78114285Y-34014285D01*
X78285714Y-34100000D01*
X78371428Y-34185714D01*
X78457142Y-34357142D01*
X78457142Y-34614285D01*
X78371428Y-34785714D01*
X78285714Y-34871428D01*
X78114285Y-34957142D01*
X77428571Y-34957142D01*
X79228571Y-34871428D02*
X79828571Y-34871428D01*
X80085714Y-35814285D02*
X79228571Y-35814285D01*
X79228571Y-34014285D01*
X80085714Y-34014285D01*
X80857142Y-35814285D02*
X80857142Y-34014285D01*
X81885714Y-35814285D01*
X81885714Y-34014285D01*
X83771428Y-35642857D02*
X83685714Y-35728571D01*
X83428571Y-35814285D01*
X83257142Y-35814285D01*
X83000000Y-35728571D01*
X82828571Y-35557142D01*
X82742857Y-35385714D01*
X82657142Y-35042857D01*
X82657142Y-34785714D01*
X82742857Y-34442857D01*
X82828571Y-34271428D01*
X83000000Y-34100000D01*
X83257142Y-34014285D01*
X83428571Y-34014285D01*
X83685714Y-34100000D01*
X83771428Y-34185714D01*
X84542857Y-34871428D02*
X85142857Y-34871428D01*
X85400000Y-35814285D02*
X84542857Y-35814285D01*
X84542857Y-34014285D01*
X85400000Y-34014285D01*
X148842857Y-35814285D02*
X148842857Y-34014285D01*
X149528571Y-34014285D01*
X149700000Y-34100000D01*
X149785714Y-34185714D01*
X149871428Y-34357142D01*
X149871428Y-34614285D01*
X149785714Y-34785714D01*
X149700000Y-34871428D01*
X149528571Y-34957142D01*
X148842857Y-34957142D01*
X150985714Y-34014285D02*
X151328571Y-34014285D01*
X151500000Y-34100000D01*
X151671428Y-34271428D01*
X151757142Y-34614285D01*
X151757142Y-35214285D01*
X151671428Y-35557142D01*
X151500000Y-35728571D01*
X151328571Y-35814285D01*
X150985714Y-35814285D01*
X150814285Y-35728571D01*
X150642857Y-35557142D01*
X150557142Y-35214285D01*
X150557142Y-34614285D01*
X150642857Y-34271428D01*
X150814285Y-34100000D01*
X150985714Y-34014285D01*
X152357142Y-34014285D02*
X152785714Y-35814285D01*
X153128571Y-34528571D01*
X153471428Y-35814285D01*
X153900000Y-34014285D01*
X154585714Y-34871428D02*
X155185714Y-34871428D01*
X155442857Y-35814285D02*
X154585714Y-35814285D01*
X154585714Y-34014285D01*
X155442857Y-34014285D01*
X157242857Y-35814285D02*
X156642857Y-34957142D01*
X156214285Y-35814285D02*
X156214285Y-34014285D01*
X156900000Y-34014285D01*
X157071428Y-34100000D01*
X157157142Y-34185714D01*
X157242857Y-34357142D01*
X157242857Y-34614285D01*
X157157142Y-34785714D01*
X157071428Y-34871428D01*
X156900000Y-34957142D01*
X156214285Y-34957142D01*
X96314285Y-35814285D02*
X95457142Y-35814285D01*
X95457142Y-34014285D01*
X96914285Y-34871428D02*
X97514285Y-34871428D01*
X97771428Y-35814285D02*
X96914285Y-35814285D01*
X96914285Y-34014285D01*
X97771428Y-34014285D01*
X98457142Y-35300000D02*
X99314285Y-35300000D01*
X98285714Y-35814285D02*
X98885714Y-34014285D01*
X99485714Y-35814285D01*
X101028571Y-34100000D02*
X100857142Y-34014285D01*
X100600000Y-34014285D01*
X100342857Y-34100000D01*
X100171428Y-34271428D01*
X100085714Y-34442857D01*
X100000000Y-34785714D01*
X100000000Y-35042857D01*
X100085714Y-35385714D01*
X100171428Y-35557142D01*
X100342857Y-35728571D01*
X100600000Y-35814285D01*
X100771428Y-35814285D01*
X101028571Y-35728571D01*
X101114285Y-35642857D01*
X101114285Y-35042857D01*
X100771428Y-35042857D01*
X101885714Y-34014285D02*
X101885714Y-35471428D01*
X101971428Y-35642857D01*
X102057142Y-35728571D01*
X102228571Y-35814285D01*
X102571428Y-35814285D01*
X102742857Y-35728571D01*
X102828571Y-35642857D01*
X102914285Y-35471428D01*
X102914285Y-34014285D01*
X103771428Y-34871428D02*
X104371428Y-34871428D01*
X104628571Y-35814285D02*
X103771428Y-35814285D01*
X103771428Y-34014285D01*
X104628571Y-34014285D01*
X48728571Y-35814285D02*
X48728571Y-34014285D01*
X49157142Y-34014285D01*
X49414285Y-34100000D01*
X49585714Y-34271428D01*
X49671428Y-34442857D01*
X49757142Y-34785714D01*
X49757142Y-35042857D01*
X49671428Y-35385714D01*
X49585714Y-35557142D01*
X49414285Y-35728571D01*
X49157142Y-35814285D01*
X48728571Y-35814285D01*
X50528571Y-35814285D02*
X50528571Y-34014285D01*
X51128571Y-34014285D02*
X51728571Y-35814285D01*
X52328571Y-34014285D01*
X52928571Y-35814285D02*
X52928571Y-34014285D01*
X53700000Y-35728571D02*
X53957142Y-35814285D01*
X54385714Y-35814285D01*
X54557142Y-35728571D01*
X54642857Y-35642857D01*
X54728571Y-35471428D01*
X54728571Y-35300000D01*
X54642857Y-35128571D01*
X54557142Y-35042857D01*
X54385714Y-34957142D01*
X54042857Y-34871428D01*
X53871428Y-34785714D01*
X53785714Y-34700000D01*
X53700000Y-34528571D01*
X53700000Y-34357142D01*
X53785714Y-34185714D01*
X53871428Y-34100000D01*
X54042857Y-34014285D01*
X54471428Y-34014285D01*
X54728571Y-34100000D01*
X55500000Y-35814285D02*
X55500000Y-34014285D01*
X56700000Y-34014285D02*
X57042857Y-34014285D01*
X57214285Y-34100000D01*
X57385714Y-34271428D01*
X57471428Y-34614285D01*
X57471428Y-35214285D01*
X57385714Y-35557142D01*
X57214285Y-35728571D01*
X57042857Y-35814285D01*
X56700000Y-35814285D01*
X56528571Y-35728571D01*
X56357142Y-35557142D01*
X56271428Y-35214285D01*
X56271428Y-34614285D01*
X56357142Y-34271428D01*
X56528571Y-34100000D01*
X56700000Y-34014285D01*
X58242857Y-35814285D02*
X58242857Y-34014285D01*
X59271428Y-35814285D01*
X59271428Y-34014285D01*
%LPC*%
D12*
X171000000Y-40000000D03*
X39000000Y-54000000D03*
X39000000Y-40000000D03*
X171000000Y-54000000D03*
M02*
