%FSLAX45Y45*%
G04 Gerber Fmt 4.5, Leading zero omitted, Abs format (unit mm)*
G04 Created by KiCad (PCBNEW (6.0.0)) date 2022-06-26 22:52:46*
%MOMM*%
%LPD*%
G01*
G04 APERTURE LIST*
%TA.AperFunction,Profile*%
%ADD10C,0.050000*%
%TD*%
%ADD11C,0.200000*%
%ADD12C,0.320000*%
G04 APERTURE END LIST*
D10*
X18600000Y-6700000D02*
X12900000Y-6700000D01*
X18700000Y-6800000D02*
G75*
G03*
X18600000Y-6700000I-100000J0D01*
G01*
X18700000Y-8200000D02*
X18700000Y-6800000D01*
X12800000Y-6800000D02*
X12800000Y-8200000D01*
X18600000Y-8300000D02*
G75*
G03*
X18700000Y-8200000I0J100000D01*
G01*
X12900000Y-8300000D02*
X18600000Y-8300000D01*
X12800000Y-8200000D02*
G75*
G03*
X12900000Y-8300000I100000J0D01*
G01*
X12900000Y-6700000D02*
G75*
G03*
X12800000Y-6800000I0J-100000D01*
G01*
D11*
D12*
X13090000Y-7340000D02*
X13410000Y-7660000D01*
X13410000Y-7340000D02*
X13090000Y-7660000D01*
X18090000Y-7340000D02*
X18410000Y-7660000D01*
X18410000Y-7340000D02*
X18090000Y-7660000D01*
D11*
X13055119Y-8612976D02*
X13055119Y-8412976D01*
X13102738Y-8412976D01*
X13131309Y-8422500D01*
X13150357Y-8441548D01*
X13159881Y-8460595D01*
X13169405Y-8498690D01*
X13169405Y-8527262D01*
X13159881Y-8565357D01*
X13150357Y-8584405D01*
X13131309Y-8603452D01*
X13102738Y-8612976D01*
X13055119Y-8612976D01*
X13255119Y-8612976D02*
X13255119Y-8479643D01*
X13255119Y-8517738D02*
X13264643Y-8498690D01*
X13274167Y-8489167D01*
X13293214Y-8479643D01*
X13312262Y-8479643D01*
X13378928Y-8612976D02*
X13378928Y-8479643D01*
X13378928Y-8412976D02*
X13369405Y-8422500D01*
X13378928Y-8432024D01*
X13388452Y-8422500D01*
X13378928Y-8412976D01*
X13378928Y-8432024D01*
X13502738Y-8612976D02*
X13483690Y-8603452D01*
X13474167Y-8584405D01*
X13474167Y-8412976D01*
X13607500Y-8612976D02*
X13588452Y-8603452D01*
X13578928Y-8584405D01*
X13578928Y-8412976D01*
X13836071Y-8612976D02*
X13836071Y-8412976D01*
X13902738Y-8555833D01*
X13969405Y-8412976D01*
X13969405Y-8612976D01*
X14150357Y-8612976D02*
X14150357Y-8508214D01*
X14140833Y-8489167D01*
X14121786Y-8479643D01*
X14083690Y-8479643D01*
X14064643Y-8489167D01*
X14150357Y-8603452D02*
X14131309Y-8612976D01*
X14083690Y-8612976D01*
X14064643Y-8603452D01*
X14055119Y-8584405D01*
X14055119Y-8565357D01*
X14064643Y-8546309D01*
X14083690Y-8536786D01*
X14131309Y-8536786D01*
X14150357Y-8527262D01*
X14245595Y-8479643D02*
X14245595Y-8679643D01*
X14245595Y-8489167D02*
X14264643Y-8479643D01*
X14302738Y-8479643D01*
X14321786Y-8489167D01*
X14331309Y-8498690D01*
X14340833Y-8517738D01*
X14340833Y-8574881D01*
X14331309Y-8593928D01*
X14321786Y-8603452D01*
X14302738Y-8612976D01*
X14264643Y-8612976D01*
X14245595Y-8603452D01*
X14426548Y-8593928D02*
X14436071Y-8603452D01*
X14426548Y-8612976D01*
X14417024Y-8603452D01*
X14426548Y-8593928D01*
X14426548Y-8612976D01*
X14426548Y-8489167D02*
X14436071Y-8498690D01*
X14426548Y-8508214D01*
X14417024Y-8498690D01*
X14426548Y-8489167D01*
X14426548Y-8508214D01*
X12597500Y-8842500D02*
X12797500Y-9042500D01*
X12797500Y-8842500D02*
X12597500Y-9042500D01*
X13036071Y-8832976D02*
X13159881Y-8832976D01*
X13093214Y-8909167D01*
X13121786Y-8909167D01*
X13140833Y-8918690D01*
X13150357Y-8928214D01*
X13159881Y-8947262D01*
X13159881Y-8994881D01*
X13150357Y-9013928D01*
X13140833Y-9023452D01*
X13121786Y-9032976D01*
X13064643Y-9032976D01*
X13045595Y-9023452D01*
X13036071Y-9013928D01*
X13245595Y-9013928D02*
X13255119Y-9023452D01*
X13245595Y-9032976D01*
X13236071Y-9023452D01*
X13245595Y-9013928D01*
X13245595Y-9032976D01*
X13331309Y-8852024D02*
X13340833Y-8842500D01*
X13359881Y-8832976D01*
X13407500Y-8832976D01*
X13426548Y-8842500D01*
X13436071Y-8852024D01*
X13445595Y-8871071D01*
X13445595Y-8890119D01*
X13436071Y-8918690D01*
X13321786Y-9032976D01*
X13445595Y-9032976D01*
X13569405Y-8832976D02*
X13588452Y-8832976D01*
X13607500Y-8842500D01*
X13617024Y-8852024D01*
X13626548Y-8871071D01*
X13636071Y-8909167D01*
X13636071Y-8956786D01*
X13626548Y-8994881D01*
X13617024Y-9013928D01*
X13607500Y-9023452D01*
X13588452Y-9032976D01*
X13569405Y-9032976D01*
X13550357Y-9023452D01*
X13540833Y-9013928D01*
X13531309Y-8994881D01*
X13521786Y-8956786D01*
X13521786Y-8909167D01*
X13531309Y-8871071D01*
X13540833Y-8852024D01*
X13550357Y-8842500D01*
X13569405Y-8832976D01*
X13759881Y-8832976D02*
X13778928Y-8832976D01*
X13797976Y-8842500D01*
X13807500Y-8852024D01*
X13817024Y-8871071D01*
X13826548Y-8909167D01*
X13826548Y-8956786D01*
X13817024Y-8994881D01*
X13807500Y-9013928D01*
X13797976Y-9023452D01*
X13778928Y-9032976D01*
X13759881Y-9032976D01*
X13740833Y-9023452D01*
X13731309Y-9013928D01*
X13721786Y-8994881D01*
X13712262Y-8956786D01*
X13712262Y-8909167D01*
X13721786Y-8871071D01*
X13731309Y-8852024D01*
X13740833Y-8842500D01*
X13759881Y-8832976D01*
X13912262Y-9032976D02*
X13912262Y-8899643D01*
X13912262Y-8918690D02*
X13921786Y-8909167D01*
X13940833Y-8899643D01*
X13969405Y-8899643D01*
X13988452Y-8909167D01*
X13997976Y-8928214D01*
X13997976Y-9032976D01*
X13997976Y-8928214D02*
X14007500Y-8909167D01*
X14026548Y-8899643D01*
X14055119Y-8899643D01*
X14074167Y-8909167D01*
X14083690Y-8928214D01*
X14083690Y-9032976D01*
X14178928Y-9032976D02*
X14178928Y-8899643D01*
X14178928Y-8918690D02*
X14188452Y-8909167D01*
X14207500Y-8899643D01*
X14236071Y-8899643D01*
X14255119Y-8909167D01*
X14264643Y-8928214D01*
X14264643Y-9032976D01*
X14264643Y-8928214D02*
X14274167Y-8909167D01*
X14293214Y-8899643D01*
X14321786Y-8899643D01*
X14340833Y-8909167D01*
X14350357Y-8928214D01*
X14350357Y-9032976D01*
X14740833Y-8823452D02*
X14569405Y-9080595D01*
X14997976Y-8832976D02*
X15017024Y-8832976D01*
X15036071Y-8842500D01*
X15045595Y-8852024D01*
X15055119Y-8871071D01*
X15064643Y-8909167D01*
X15064643Y-8956786D01*
X15055119Y-8994881D01*
X15045595Y-9013928D01*
X15036071Y-9023452D01*
X15017024Y-9032976D01*
X14997976Y-9032976D01*
X14978928Y-9023452D01*
X14969405Y-9013928D01*
X14959881Y-8994881D01*
X14950357Y-8956786D01*
X14950357Y-8909167D01*
X14959881Y-8871071D01*
X14969405Y-8852024D01*
X14978928Y-8842500D01*
X14997976Y-8832976D01*
X15150357Y-9013928D02*
X15159881Y-9023452D01*
X15150357Y-9032976D01*
X15140833Y-9023452D01*
X15150357Y-9013928D01*
X15150357Y-9032976D01*
X15350357Y-9032976D02*
X15236071Y-9032976D01*
X15293214Y-9032976D02*
X15293214Y-8832976D01*
X15274167Y-8861548D01*
X15255119Y-8880595D01*
X15236071Y-8890119D01*
X15426548Y-8852024D02*
X15436071Y-8842500D01*
X15455119Y-8832976D01*
X15502738Y-8832976D01*
X15521786Y-8842500D01*
X15531309Y-8852024D01*
X15540833Y-8871071D01*
X15540833Y-8890119D01*
X15531309Y-8918690D01*
X15417024Y-9032976D01*
X15540833Y-9032976D01*
X15712262Y-8832976D02*
X15674167Y-8832976D01*
X15655119Y-8842500D01*
X15645595Y-8852024D01*
X15626548Y-8880595D01*
X15617024Y-8918690D01*
X15617024Y-8994881D01*
X15626548Y-9013928D01*
X15636071Y-9023452D01*
X15655119Y-9032976D01*
X15693214Y-9032976D01*
X15712262Y-9023452D01*
X15721786Y-9013928D01*
X15731309Y-8994881D01*
X15731309Y-8947262D01*
X15721786Y-8928214D01*
X15712262Y-8918690D01*
X15693214Y-8909167D01*
X15655119Y-8909167D01*
X15636071Y-8918690D01*
X15626548Y-8928214D01*
X15617024Y-8947262D01*
X15855119Y-8832976D02*
X15874167Y-8832976D01*
X15893214Y-8842500D01*
X15902738Y-8852024D01*
X15912262Y-8871071D01*
X15921786Y-8909167D01*
X15921786Y-8956786D01*
X15912262Y-8994881D01*
X15902738Y-9013928D01*
X15893214Y-9023452D01*
X15874167Y-9032976D01*
X15855119Y-9032976D01*
X15836071Y-9023452D01*
X15826548Y-9013928D01*
X15817024Y-8994881D01*
X15807500Y-8956786D01*
X15807500Y-8909167D01*
X15817024Y-8871071D01*
X15826548Y-8852024D01*
X15836071Y-8842500D01*
X15855119Y-8832976D01*
X15997976Y-8832976D02*
X15997976Y-8871071D01*
X16074167Y-8832976D02*
X16074167Y-8871071D01*
X16369405Y-9109167D02*
X16359881Y-9099643D01*
X16340833Y-9071071D01*
X16331309Y-9052024D01*
X16321786Y-9023452D01*
X16312262Y-8975833D01*
X16312262Y-8937738D01*
X16321786Y-8890119D01*
X16331309Y-8861548D01*
X16340833Y-8842500D01*
X16359881Y-8813928D01*
X16369405Y-8804405D01*
X16436071Y-8852024D02*
X16445595Y-8842500D01*
X16464643Y-8832976D01*
X16512262Y-8832976D01*
X16531309Y-8842500D01*
X16540833Y-8852024D01*
X16550357Y-8871071D01*
X16550357Y-8890119D01*
X16540833Y-8918690D01*
X16426548Y-9032976D01*
X16550357Y-9032976D01*
X16788452Y-9032976D02*
X16788452Y-8832976D01*
X16874167Y-9032976D02*
X16874167Y-8928214D01*
X16864643Y-8909167D01*
X16845595Y-8899643D01*
X16817024Y-8899643D01*
X16797976Y-8909167D01*
X16788452Y-8918690D01*
X16997976Y-9032976D02*
X16978929Y-9023452D01*
X16969405Y-9013928D01*
X16959881Y-8994881D01*
X16959881Y-8937738D01*
X16969405Y-8918690D01*
X16978929Y-8909167D01*
X16997976Y-8899643D01*
X17026548Y-8899643D01*
X17045595Y-8909167D01*
X17055119Y-8918690D01*
X17064643Y-8937738D01*
X17064643Y-8994881D01*
X17055119Y-9013928D01*
X17045595Y-9023452D01*
X17026548Y-9032976D01*
X16997976Y-9032976D01*
X17178929Y-9032976D02*
X17159881Y-9023452D01*
X17150357Y-9004405D01*
X17150357Y-8832976D01*
X17331310Y-9023452D02*
X17312262Y-9032976D01*
X17274167Y-9032976D01*
X17255119Y-9023452D01*
X17245595Y-9004405D01*
X17245595Y-8928214D01*
X17255119Y-8909167D01*
X17274167Y-8899643D01*
X17312262Y-8899643D01*
X17331310Y-8909167D01*
X17340833Y-8928214D01*
X17340833Y-8947262D01*
X17245595Y-8966309D01*
X17417024Y-9023452D02*
X17436071Y-9032976D01*
X17474167Y-9032976D01*
X17493214Y-9023452D01*
X17502738Y-9004405D01*
X17502738Y-8994881D01*
X17493214Y-8975833D01*
X17474167Y-8966309D01*
X17445595Y-8966309D01*
X17426548Y-8956786D01*
X17417024Y-8937738D01*
X17417024Y-8928214D01*
X17426548Y-8909167D01*
X17445595Y-8899643D01*
X17474167Y-8899643D01*
X17493214Y-8909167D01*
X17569405Y-9109167D02*
X17578929Y-9099643D01*
X17597976Y-9071071D01*
X17607500Y-9052024D01*
X17617024Y-9023452D01*
X17626548Y-8975833D01*
X17626548Y-8937738D01*
X17617024Y-8890119D01*
X17607500Y-8861548D01*
X17597976Y-8842500D01*
X17578929Y-8813928D01*
X17569405Y-8804405D01*
X17931310Y-9109167D02*
X17921786Y-9099643D01*
X17902738Y-9071071D01*
X17893214Y-9052024D01*
X17883690Y-9023452D01*
X17874167Y-8975833D01*
X17874167Y-8937738D01*
X17883690Y-8890119D01*
X17893214Y-8861548D01*
X17902738Y-8842500D01*
X17921786Y-8813928D01*
X17931310Y-8804405D01*
X18007500Y-8899643D02*
X18007500Y-9032976D01*
X18007500Y-8918690D02*
X18017024Y-8909167D01*
X18036071Y-8899643D01*
X18064643Y-8899643D01*
X18083690Y-8909167D01*
X18093214Y-8928214D01*
X18093214Y-9032976D01*
X18217024Y-9032976D02*
X18197976Y-9023452D01*
X18188452Y-9013928D01*
X18178929Y-8994881D01*
X18178929Y-8937738D01*
X18188452Y-8918690D01*
X18197976Y-8909167D01*
X18217024Y-8899643D01*
X18245595Y-8899643D01*
X18264643Y-8909167D01*
X18274167Y-8918690D01*
X18283690Y-8937738D01*
X18283690Y-8994881D01*
X18274167Y-9013928D01*
X18264643Y-9023452D01*
X18245595Y-9032976D01*
X18217024Y-9032976D01*
X18340833Y-8899643D02*
X18417024Y-8899643D01*
X18369405Y-8832976D02*
X18369405Y-9004405D01*
X18378929Y-9023452D01*
X18397976Y-9032976D01*
X18417024Y-9032976D01*
X18636071Y-8899643D02*
X18636071Y-9099643D01*
X18636071Y-8909167D02*
X18655119Y-8899643D01*
X18693214Y-8899643D01*
X18712262Y-8909167D01*
X18721786Y-8918690D01*
X18731310Y-8937738D01*
X18731310Y-8994881D01*
X18721786Y-9013928D01*
X18712262Y-9023452D01*
X18693214Y-9032976D01*
X18655119Y-9032976D01*
X18636071Y-9023452D01*
X18845595Y-9032976D02*
X18826548Y-9023452D01*
X18817024Y-9004405D01*
X18817024Y-8832976D01*
X19007500Y-9032976D02*
X19007500Y-8928214D01*
X18997976Y-8909167D01*
X18978929Y-8899643D01*
X18940833Y-8899643D01*
X18921786Y-8909167D01*
X19007500Y-9023452D02*
X18988452Y-9032976D01*
X18940833Y-9032976D01*
X18921786Y-9023452D01*
X18912262Y-9004405D01*
X18912262Y-8985357D01*
X18921786Y-8966309D01*
X18940833Y-8956786D01*
X18988452Y-8956786D01*
X19007500Y-8947262D01*
X19074167Y-8899643D02*
X19150357Y-8899643D01*
X19102738Y-8832976D02*
X19102738Y-9004405D01*
X19112262Y-9023452D01*
X19131310Y-9032976D01*
X19150357Y-9032976D01*
X19293214Y-9023452D02*
X19274167Y-9032976D01*
X19236071Y-9032976D01*
X19217024Y-9023452D01*
X19207500Y-9004405D01*
X19207500Y-8928214D01*
X19217024Y-8909167D01*
X19236071Y-8899643D01*
X19274167Y-8899643D01*
X19293214Y-8909167D01*
X19302738Y-8928214D01*
X19302738Y-8947262D01*
X19207500Y-8966309D01*
X19474167Y-9032976D02*
X19474167Y-8832976D01*
X19474167Y-9023452D02*
X19455119Y-9032976D01*
X19417024Y-9032976D01*
X19397976Y-9023452D01*
X19388452Y-9013928D01*
X19378929Y-8994881D01*
X19378929Y-8937738D01*
X19388452Y-8918690D01*
X19397976Y-8909167D01*
X19417024Y-8899643D01*
X19455119Y-8899643D01*
X19474167Y-8909167D01*
X19550357Y-9109167D02*
X19559881Y-9099643D01*
X19578929Y-9071071D01*
X19588452Y-9052024D01*
X19597976Y-9023452D01*
X19607500Y-8975833D01*
X19607500Y-8937738D01*
X19597976Y-8890119D01*
X19588452Y-8861548D01*
X19578929Y-8842500D01*
X19559881Y-8813928D01*
X19550357Y-8804405D01*
M02*
