G04 #@! TF.GenerationSoftware,KiCad,Pcbnew,(6.0.0)*
G04 #@! TF.CreationDate,2022-06-26T22:52:38+02:00*
G04 #@! TF.ProjectId,mht-servo,6d68742d-7365-4727-966f-2e6b69636164,rev?*
G04 #@! TF.SameCoordinates,Original*
G04 #@! TF.FileFunction,Copper,L1,Top*
G04 #@! TF.FilePolarity,Positive*
%FSLAX46Y46*%
G04 Gerber Fmt 4.6, Leading zero omitted, Abs format (unit mm)*
G04 Created by KiCad (PCBNEW (6.0.0)) date 2022-06-26 22:52:38*
%MOMM*%
%LPD*%
G01*
G04 APERTURE LIST*
G04 Aperture macros list*
%AMRoundRect*
0 Rectangle with rounded corners*
0 $1 Rounding radius*
0 $2 $3 $4 $5 $6 $7 $8 $9 X,Y pos of 4 corners*
0 Add a 4 corners polygon primitive as box body*
4,1,4,$2,$3,$4,$5,$6,$7,$8,$9,$2,$3,0*
0 Add four circle primitives for the rounded corners*
1,1,$1+$1,$2,$3*
1,1,$1+$1,$4,$5*
1,1,$1+$1,$6,$7*
1,1,$1+$1,$8,$9*
0 Add four rect primitives between the rounded corners*
20,1,$1+$1,$2,$3,$4,$5,0*
20,1,$1+$1,$4,$5,$6,$7,0*
20,1,$1+$1,$6,$7,$8,$9,0*
20,1,$1+$1,$8,$9,$2,$3,0*%
G04 Aperture macros list end*
G04 #@! TA.AperFunction,ComponentPad*
%ADD10R,1.700000X1.700000*%
G04 #@! TD*
G04 #@! TA.AperFunction,ComponentPad*
%ADD11O,1.700000X1.700000*%
G04 #@! TD*
G04 #@! TA.AperFunction,SMDPad,CuDef*
%ADD12RoundRect,0.250000X-1.000000X1.500000X-1.000000X-1.500000X1.000000X-1.500000X1.000000X1.500000X0*%
G04 #@! TD*
G04 #@! TA.AperFunction,Conductor*
%ADD13C,1.000000*%
G04 #@! TD*
G04 APERTURE END LIST*
D10*
X143350000Y-72475000D03*
D11*
X143350000Y-75015000D03*
X143350000Y-77555000D03*
D10*
X148000000Y-72475000D03*
D11*
X148000000Y-75015000D03*
X148000000Y-77555000D03*
D12*
X157500000Y-71750000D03*
X157500000Y-78250000D03*
D10*
X168000000Y-71200000D03*
D11*
X168000000Y-73740000D03*
X168000000Y-76280000D03*
X168000000Y-78820000D03*
D13*
X168000000Y-76280000D02*
X163280000Y-76280000D01*
X158750000Y-71750000D02*
X157500000Y-71750000D01*
X144315000Y-75015000D02*
X144350000Y-75050000D01*
X163280000Y-76280000D02*
X158750000Y-71750000D01*
X155350000Y-71750000D02*
X157500000Y-71750000D01*
X143350000Y-75015000D02*
X144315000Y-75015000D01*
X152050000Y-75050000D02*
X155350000Y-71750000D01*
X144350000Y-75050000D02*
X152050000Y-75050000D01*
X144315000Y-77555000D02*
X144350000Y-77590000D01*
X168000000Y-78820000D02*
X158070000Y-78820000D01*
X156840000Y-77590000D02*
X157500000Y-78250000D01*
X158070000Y-78820000D02*
X157500000Y-78250000D01*
X143350000Y-77555000D02*
X144315000Y-77555000D01*
X144350000Y-77590000D02*
X156840000Y-77590000D01*
X142000000Y-82000000D02*
X170000000Y-82000000D01*
X143350000Y-72475000D02*
X141525000Y-72475000D01*
X141525000Y-72475000D02*
X140000000Y-74000000D01*
X140000000Y-74000000D02*
X140000000Y-80000000D01*
X140000000Y-80000000D02*
X142000000Y-82000000D01*
X170200000Y-71200000D02*
X168000000Y-71200000D01*
X170000000Y-82000000D02*
X172000000Y-80000000D01*
X172000000Y-80000000D02*
X172000000Y-73000000D01*
X172000000Y-73000000D02*
X170200000Y-71200000D01*
X165240000Y-73740000D02*
X168000000Y-73740000D01*
X164500000Y-73000000D02*
X165240000Y-73740000D01*
X164500000Y-69500000D02*
X164500000Y-73000000D01*
X149500000Y-68500000D02*
X163500000Y-68500000D01*
X148000000Y-70000000D02*
X149500000Y-68500000D01*
X148000000Y-72475000D02*
X148000000Y-70000000D01*
X163500000Y-68500000D02*
X164500000Y-69500000D01*
M02*
