%FSLAX45Y45*%
G04 Gerber Fmt 4.5, Leading zero omitted, Abs format (unit mm)*
G04 Created by KiCad (PCBNEW (6.0.0)) date 2022-06-26 22:52:46*
%MOMM*%
%LPD*%
G01*
G04 APERTURE LIST*
%TA.AperFunction,Profile*%
%ADD10C,0.050000*%
%TD*%
%ADD11C,0.200000*%
%ADD12C,0.100000*%
G04 APERTURE END LIST*
D10*
X18600000Y-6700000D02*
X12900000Y-6700000D01*
X18700000Y-6800000D02*
G75*
G03*
X18600000Y-6700000I-100000J0D01*
G01*
X18700000Y-8200000D02*
X18700000Y-6800000D01*
X12800000Y-6800000D02*
X12800000Y-8200000D01*
X18600000Y-8300000D02*
G75*
G03*
X18700000Y-8200000I0J100000D01*
G01*
X12900000Y-8300000D02*
X18600000Y-8300000D01*
X12800000Y-8200000D02*
G75*
G03*
X12900000Y-8300000I100000J0D01*
G01*
X12900000Y-6700000D02*
G75*
G03*
X12800000Y-6800000I0J-100000D01*
G01*
D11*
D12*
X14285000Y-7197500D02*
X14385000Y-7297500D01*
X14385000Y-7197500D02*
X14285000Y-7297500D01*
X14285000Y-7451500D02*
X14385000Y-7551500D01*
X14385000Y-7451500D02*
X14285000Y-7551500D01*
X14285000Y-7705500D02*
X14385000Y-7805500D01*
X14385000Y-7705500D02*
X14285000Y-7805500D01*
X14750000Y-7197500D02*
X14850000Y-7297500D01*
X14850000Y-7197500D02*
X14750000Y-7297500D01*
X14750000Y-7451500D02*
X14850000Y-7551500D01*
X14850000Y-7451500D02*
X14750000Y-7551500D01*
X14750000Y-7705500D02*
X14850000Y-7805500D01*
X14850000Y-7705500D02*
X14750000Y-7805500D01*
X16750000Y-7070000D02*
X16850000Y-7170000D01*
X16850000Y-7070000D02*
X16750000Y-7170000D01*
X16750000Y-7324000D02*
X16850000Y-7424000D01*
X16850000Y-7324000D02*
X16750000Y-7424000D01*
X16750000Y-7578000D02*
X16850000Y-7678000D01*
X16850000Y-7578000D02*
X16750000Y-7678000D01*
X16750000Y-7832000D02*
X16850000Y-7932000D01*
X16850000Y-7832000D02*
X16750000Y-7932000D01*
D11*
X13055119Y-8612976D02*
X13055119Y-8412976D01*
X13102738Y-8412976D01*
X13131309Y-8422500D01*
X13150357Y-8441548D01*
X13159881Y-8460595D01*
X13169405Y-8498690D01*
X13169405Y-8527262D01*
X13159881Y-8565357D01*
X13150357Y-8584405D01*
X13131309Y-8603452D01*
X13102738Y-8612976D01*
X13055119Y-8612976D01*
X13255119Y-8612976D02*
X13255119Y-8479643D01*
X13255119Y-8517738D02*
X13264643Y-8498690D01*
X13274167Y-8489167D01*
X13293214Y-8479643D01*
X13312262Y-8479643D01*
X13378928Y-8612976D02*
X13378928Y-8479643D01*
X13378928Y-8412976D02*
X13369405Y-8422500D01*
X13378928Y-8432024D01*
X13388452Y-8422500D01*
X13378928Y-8412976D01*
X13378928Y-8432024D01*
X13502738Y-8612976D02*
X13483690Y-8603452D01*
X13474167Y-8584405D01*
X13474167Y-8412976D01*
X13607500Y-8612976D02*
X13588452Y-8603452D01*
X13578928Y-8584405D01*
X13578928Y-8412976D01*
X13836071Y-8612976D02*
X13836071Y-8412976D01*
X13902738Y-8555833D01*
X13969405Y-8412976D01*
X13969405Y-8612976D01*
X14150357Y-8612976D02*
X14150357Y-8508214D01*
X14140833Y-8489167D01*
X14121786Y-8479643D01*
X14083690Y-8479643D01*
X14064643Y-8489167D01*
X14150357Y-8603452D02*
X14131309Y-8612976D01*
X14083690Y-8612976D01*
X14064643Y-8603452D01*
X14055119Y-8584405D01*
X14055119Y-8565357D01*
X14064643Y-8546309D01*
X14083690Y-8536786D01*
X14131309Y-8536786D01*
X14150357Y-8527262D01*
X14245595Y-8479643D02*
X14245595Y-8679643D01*
X14245595Y-8489167D02*
X14264643Y-8479643D01*
X14302738Y-8479643D01*
X14321786Y-8489167D01*
X14331309Y-8498690D01*
X14340833Y-8517738D01*
X14340833Y-8574881D01*
X14331309Y-8593928D01*
X14321786Y-8603452D01*
X14302738Y-8612976D01*
X14264643Y-8612976D01*
X14245595Y-8603452D01*
X14426548Y-8593928D02*
X14436071Y-8603452D01*
X14426548Y-8612976D01*
X14417024Y-8603452D01*
X14426548Y-8593928D01*
X14426548Y-8612976D01*
X14426548Y-8489167D02*
X14436071Y-8498690D01*
X14426548Y-8508214D01*
X14417024Y-8498690D01*
X14426548Y-8489167D01*
X14426548Y-8508214D01*
D12*
X12697500Y-8892500D02*
X12797500Y-8992500D01*
X12797500Y-8892500D02*
X12697500Y-8992500D01*
D11*
X13159881Y-9032976D02*
X13045595Y-9032976D01*
X13102738Y-9032976D02*
X13102738Y-8832976D01*
X13083690Y-8861548D01*
X13064643Y-8880595D01*
X13045595Y-8890119D01*
X13245595Y-9013928D02*
X13255119Y-9023452D01*
X13245595Y-9032976D01*
X13236071Y-9023452D01*
X13245595Y-9013928D01*
X13245595Y-9032976D01*
X13378928Y-8832976D02*
X13397976Y-8832976D01*
X13417024Y-8842500D01*
X13426548Y-8852024D01*
X13436071Y-8871071D01*
X13445595Y-8909167D01*
X13445595Y-8956786D01*
X13436071Y-8994881D01*
X13426548Y-9013928D01*
X13417024Y-9023452D01*
X13397976Y-9032976D01*
X13378928Y-9032976D01*
X13359881Y-9023452D01*
X13350357Y-9013928D01*
X13340833Y-8994881D01*
X13331309Y-8956786D01*
X13331309Y-8909167D01*
X13340833Y-8871071D01*
X13350357Y-8852024D01*
X13359881Y-8842500D01*
X13378928Y-8832976D01*
X13569405Y-8832976D02*
X13588452Y-8832976D01*
X13607500Y-8842500D01*
X13617024Y-8852024D01*
X13626548Y-8871071D01*
X13636071Y-8909167D01*
X13636071Y-8956786D01*
X13626548Y-8994881D01*
X13617024Y-9013928D01*
X13607500Y-9023452D01*
X13588452Y-9032976D01*
X13569405Y-9032976D01*
X13550357Y-9023452D01*
X13540833Y-9013928D01*
X13531309Y-8994881D01*
X13521786Y-8956786D01*
X13521786Y-8909167D01*
X13531309Y-8871071D01*
X13540833Y-8852024D01*
X13550357Y-8842500D01*
X13569405Y-8832976D01*
X13759881Y-8832976D02*
X13778928Y-8832976D01*
X13797976Y-8842500D01*
X13807500Y-8852024D01*
X13817024Y-8871071D01*
X13826548Y-8909167D01*
X13826548Y-8956786D01*
X13817024Y-8994881D01*
X13807500Y-9013928D01*
X13797976Y-9023452D01*
X13778928Y-9032976D01*
X13759881Y-9032976D01*
X13740833Y-9023452D01*
X13731309Y-9013928D01*
X13721786Y-8994881D01*
X13712262Y-8956786D01*
X13712262Y-8909167D01*
X13721786Y-8871071D01*
X13731309Y-8852024D01*
X13740833Y-8842500D01*
X13759881Y-8832976D01*
X13912262Y-9032976D02*
X13912262Y-8899643D01*
X13912262Y-8918690D02*
X13921786Y-8909167D01*
X13940833Y-8899643D01*
X13969405Y-8899643D01*
X13988452Y-8909167D01*
X13997976Y-8928214D01*
X13997976Y-9032976D01*
X13997976Y-8928214D02*
X14007500Y-8909167D01*
X14026548Y-8899643D01*
X14055119Y-8899643D01*
X14074167Y-8909167D01*
X14083690Y-8928214D01*
X14083690Y-9032976D01*
X14178928Y-9032976D02*
X14178928Y-8899643D01*
X14178928Y-8918690D02*
X14188452Y-8909167D01*
X14207500Y-8899643D01*
X14236071Y-8899643D01*
X14255119Y-8909167D01*
X14264643Y-8928214D01*
X14264643Y-9032976D01*
X14264643Y-8928214D02*
X14274167Y-8909167D01*
X14293214Y-8899643D01*
X14321786Y-8899643D01*
X14340833Y-8909167D01*
X14350357Y-8928214D01*
X14350357Y-9032976D01*
X14740833Y-8823452D02*
X14569405Y-9080595D01*
X14997976Y-8832976D02*
X15017024Y-8832976D01*
X15036071Y-8842500D01*
X15045595Y-8852024D01*
X15055119Y-8871071D01*
X15064643Y-8909167D01*
X15064643Y-8956786D01*
X15055119Y-8994881D01*
X15045595Y-9013928D01*
X15036071Y-9023452D01*
X15017024Y-9032976D01*
X14997976Y-9032976D01*
X14978928Y-9023452D01*
X14969405Y-9013928D01*
X14959881Y-8994881D01*
X14950357Y-8956786D01*
X14950357Y-8909167D01*
X14959881Y-8871071D01*
X14969405Y-8852024D01*
X14978928Y-8842500D01*
X14997976Y-8832976D01*
X15150357Y-9013928D02*
X15159881Y-9023452D01*
X15150357Y-9032976D01*
X15140833Y-9023452D01*
X15150357Y-9013928D01*
X15150357Y-9032976D01*
X15283690Y-8832976D02*
X15302738Y-8832976D01*
X15321786Y-8842500D01*
X15331309Y-8852024D01*
X15340833Y-8871071D01*
X15350357Y-8909167D01*
X15350357Y-8956786D01*
X15340833Y-8994881D01*
X15331309Y-9013928D01*
X15321786Y-9023452D01*
X15302738Y-9032976D01*
X15283690Y-9032976D01*
X15264643Y-9023452D01*
X15255119Y-9013928D01*
X15245595Y-8994881D01*
X15236071Y-8956786D01*
X15236071Y-8909167D01*
X15245595Y-8871071D01*
X15255119Y-8852024D01*
X15264643Y-8842500D01*
X15283690Y-8832976D01*
X15417024Y-8832976D02*
X15540833Y-8832976D01*
X15474167Y-8909167D01*
X15502738Y-8909167D01*
X15521786Y-8918690D01*
X15531309Y-8928214D01*
X15540833Y-8947262D01*
X15540833Y-8994881D01*
X15531309Y-9013928D01*
X15521786Y-9023452D01*
X15502738Y-9032976D01*
X15445595Y-9032976D01*
X15426548Y-9023452D01*
X15417024Y-9013928D01*
X15636071Y-9032976D02*
X15674167Y-9032976D01*
X15693214Y-9023452D01*
X15702738Y-9013928D01*
X15721786Y-8985357D01*
X15731309Y-8947262D01*
X15731309Y-8871071D01*
X15721786Y-8852024D01*
X15712262Y-8842500D01*
X15693214Y-8832976D01*
X15655119Y-8832976D01*
X15636071Y-8842500D01*
X15626548Y-8852024D01*
X15617024Y-8871071D01*
X15617024Y-8918690D01*
X15626548Y-8937738D01*
X15636071Y-8947262D01*
X15655119Y-8956786D01*
X15693214Y-8956786D01*
X15712262Y-8947262D01*
X15721786Y-8937738D01*
X15731309Y-8918690D01*
X15902738Y-8899643D02*
X15902738Y-9032976D01*
X15855119Y-8823452D02*
X15807500Y-8966309D01*
X15931309Y-8966309D01*
X15997976Y-8832976D02*
X15997976Y-8871071D01*
X16074167Y-8832976D02*
X16074167Y-8871071D01*
X16369405Y-9109167D02*
X16359881Y-9099643D01*
X16340833Y-9071071D01*
X16331309Y-9052024D01*
X16321786Y-9023452D01*
X16312262Y-8975833D01*
X16312262Y-8937738D01*
X16321786Y-8890119D01*
X16331309Y-8861548D01*
X16340833Y-8842500D01*
X16359881Y-8813928D01*
X16369405Y-8804405D01*
X16550357Y-9032976D02*
X16436071Y-9032976D01*
X16493214Y-9032976D02*
X16493214Y-8832976D01*
X16474167Y-8861548D01*
X16455119Y-8880595D01*
X16436071Y-8890119D01*
X16674167Y-8832976D02*
X16693214Y-8832976D01*
X16712262Y-8842500D01*
X16721786Y-8852024D01*
X16731309Y-8871071D01*
X16740833Y-8909167D01*
X16740833Y-8956786D01*
X16731309Y-8994881D01*
X16721786Y-9013928D01*
X16712262Y-9023452D01*
X16693214Y-9032976D01*
X16674167Y-9032976D01*
X16655119Y-9023452D01*
X16645595Y-9013928D01*
X16636071Y-8994881D01*
X16626548Y-8956786D01*
X16626548Y-8909167D01*
X16636071Y-8871071D01*
X16645595Y-8852024D01*
X16655119Y-8842500D01*
X16674167Y-8832976D01*
X16978929Y-9032976D02*
X16978929Y-8832976D01*
X17064643Y-9032976D02*
X17064643Y-8928214D01*
X17055119Y-8909167D01*
X17036071Y-8899643D01*
X17007500Y-8899643D01*
X16988452Y-8909167D01*
X16978929Y-8918690D01*
X17188452Y-9032976D02*
X17169405Y-9023452D01*
X17159881Y-9013928D01*
X17150357Y-8994881D01*
X17150357Y-8937738D01*
X17159881Y-8918690D01*
X17169405Y-8909167D01*
X17188452Y-8899643D01*
X17217024Y-8899643D01*
X17236071Y-8909167D01*
X17245595Y-8918690D01*
X17255119Y-8937738D01*
X17255119Y-8994881D01*
X17245595Y-9013928D01*
X17236071Y-9023452D01*
X17217024Y-9032976D01*
X17188452Y-9032976D01*
X17369405Y-9032976D02*
X17350357Y-9023452D01*
X17340833Y-9004405D01*
X17340833Y-8832976D01*
X17521786Y-9023452D02*
X17502738Y-9032976D01*
X17464643Y-9032976D01*
X17445595Y-9023452D01*
X17436071Y-9004405D01*
X17436071Y-8928214D01*
X17445595Y-8909167D01*
X17464643Y-8899643D01*
X17502738Y-8899643D01*
X17521786Y-8909167D01*
X17531310Y-8928214D01*
X17531310Y-8947262D01*
X17436071Y-8966309D01*
X17607500Y-9023452D02*
X17626548Y-9032976D01*
X17664643Y-9032976D01*
X17683690Y-9023452D01*
X17693214Y-9004405D01*
X17693214Y-8994881D01*
X17683690Y-8975833D01*
X17664643Y-8966309D01*
X17636071Y-8966309D01*
X17617024Y-8956786D01*
X17607500Y-8937738D01*
X17607500Y-8928214D01*
X17617024Y-8909167D01*
X17636071Y-8899643D01*
X17664643Y-8899643D01*
X17683690Y-8909167D01*
X17759881Y-9109167D02*
X17769405Y-9099643D01*
X17788452Y-9071071D01*
X17797976Y-9052024D01*
X17807500Y-9023452D01*
X17817024Y-8975833D01*
X17817024Y-8937738D01*
X17807500Y-8890119D01*
X17797976Y-8861548D01*
X17788452Y-8842500D01*
X17769405Y-8813928D01*
X17759881Y-8804405D01*
M02*
